%TF.GenerationSoftware,KiCad,Pcbnew,6.0.2+dfsg-1*%
%TF.CreationDate,2024-09-23T07:34:14+01:00*%
%TF.ProjectId,Circuit,43697263-7569-4742-9e6b-696361645f70,rev?*%
%TF.SameCoordinates,Original*%
%TF.FileFunction,Soldermask,Top*%
%TF.FilePolarity,Negative*%
%FSLAX46Y46*%
G04 Gerber Fmt 4.6, Leading zero omitted, Abs format (unit mm)*
G04 Created by KiCad (PCBNEW 6.0.2+dfsg-1) date 2024-09-23 07:34:14*
%MOMM*%
%LPD*%
G01*
G04 APERTURE LIST*
G04 Aperture macros list*
%AMRoundRect*
0 Rectangle with rounded corners*
0 $1 Rounding radius*
0 $2 $3 $4 $5 $6 $7 $8 $9 X,Y pos of 4 corners*
0 Add a 4 corners polygon primitive as box body*
4,1,4,$2,$3,$4,$5,$6,$7,$8,$9,$2,$3,0*
0 Add four circle primitives for the rounded corners*
1,1,$1+$1,$2,$3*
1,1,$1+$1,$4,$5*
1,1,$1+$1,$6,$7*
1,1,$1+$1,$8,$9*
0 Add four rect primitives between the rounded corners*
20,1,$1+$1,$2,$3,$4,$5,0*
20,1,$1+$1,$4,$5,$6,$7,0*
20,1,$1+$1,$6,$7,$8,$9,0*
20,1,$1+$1,$8,$9,$2,$3,0*%
G04 Aperture macros list end*
%ADD10RoundRect,0.250000X-0.262500X-0.450000X0.262500X-0.450000X0.262500X0.450000X-0.262500X0.450000X0*%
%ADD11C,0.700000*%
%ADD12O,2.400000X0.900000*%
%ADD13O,1.700000X0.900000*%
%ADD14C,1.300000*%
%ADD15C,1.000000*%
%ADD16R,2.600000X3.600000*%
%ADD17R,1.200000X2.200000*%
%ADD18R,5.800000X6.400000*%
%ADD19RoundRect,0.250000X-0.250000X-0.475000X0.250000X-0.475000X0.250000X0.475000X-0.250000X0.475000X0*%
%ADD20RoundRect,0.250000X0.262500X0.450000X-0.262500X0.450000X-0.262500X-0.450000X0.262500X-0.450000X0*%
%ADD21RoundRect,0.075000X0.075000X-0.662500X0.075000X0.662500X-0.075000X0.662500X-0.075000X-0.662500X0*%
%ADD22RoundRect,0.075000X0.662500X-0.075000X0.662500X0.075000X-0.662500X0.075000X-0.662500X-0.075000X0*%
%ADD23RoundRect,0.250000X0.250000X0.475000X-0.250000X0.475000X-0.250000X-0.475000X0.250000X-0.475000X0*%
%ADD24RoundRect,0.250000X-0.450000X0.262500X-0.450000X-0.262500X0.450000X-0.262500X0.450000X0.262500X0*%
%ADD25R,2.000000X1.800000*%
%ADD26RoundRect,0.250000X0.475000X-0.250000X0.475000X0.250000X-0.475000X0.250000X-0.475000X-0.250000X0*%
%ADD27C,1.020000*%
%ADD28R,0.740000X2.790000*%
%ADD29R,1.000000X1.800000*%
%ADD30C,2.010000*%
%ADD31R,1.700000X1.700000*%
%ADD32O,1.700000X1.700000*%
G04 APERTURE END LIST*
D10*
%TO.C,R2*%
X75287500Y-77470000D03*
X77112500Y-77470000D03*
%TD*%
D11*
%TO.C,P1*%
X76415000Y-68145000D03*
X76415000Y-68995000D03*
X76415000Y-69845000D03*
X76415000Y-70695000D03*
X76415000Y-71545000D03*
X76415000Y-72395000D03*
X76415000Y-73245000D03*
X76415000Y-74095000D03*
X75065000Y-74095000D03*
X75065000Y-73245000D03*
X75065000Y-72395000D03*
X75065000Y-71545000D03*
X75065000Y-70695000D03*
X75065000Y-69845000D03*
X75065000Y-68995000D03*
X75065000Y-68145000D03*
D12*
X75435000Y-66795000D03*
X75435000Y-75445000D03*
D13*
X72055000Y-75445000D03*
X72055000Y-66795000D03*
%TD*%
D14*
%TO.C,B1*%
X113919000Y-67420000D03*
D15*
X113919000Y-74920000D03*
D16*
X113919000Y-79020000D03*
X113919000Y-63220000D03*
%TD*%
D17*
%TO.C,U2*%
X81285000Y-69395000D03*
D18*
X83565000Y-63095000D03*
D17*
X83565000Y-69395000D03*
X85845000Y-69395000D03*
%TD*%
D19*
%TO.C,C7*%
X93726000Y-64770000D03*
X95626000Y-64770000D03*
%TD*%
D20*
%TO.C,R1*%
X77112500Y-64770000D03*
X75287500Y-64770000D03*
%TD*%
D21*
%TO.C,U1*%
X92500000Y-75282500D03*
X93000000Y-75282500D03*
X93500000Y-75282500D03*
X94000000Y-75282500D03*
X94500000Y-75282500D03*
X95000000Y-75282500D03*
X95500000Y-75282500D03*
X96000000Y-75282500D03*
X96500000Y-75282500D03*
X97000000Y-75282500D03*
X97500000Y-75282500D03*
X98000000Y-75282500D03*
D22*
X99412500Y-73870000D03*
X99412500Y-73370000D03*
X99412500Y-72870000D03*
X99412500Y-72370000D03*
X99412500Y-71870000D03*
X99412500Y-71370000D03*
X99412500Y-70870000D03*
X99412500Y-70370000D03*
X99412500Y-69870000D03*
X99412500Y-69370000D03*
X99412500Y-68870000D03*
X99412500Y-68370000D03*
D21*
X98000000Y-66957500D03*
X97500000Y-66957500D03*
X97000000Y-66957500D03*
X96500000Y-66957500D03*
X96000000Y-66957500D03*
X95500000Y-66957500D03*
X95000000Y-66957500D03*
X94500000Y-66957500D03*
X94000000Y-66957500D03*
X93500000Y-66957500D03*
X93000000Y-66957500D03*
X92500000Y-66957500D03*
D22*
X91087500Y-68370000D03*
X91087500Y-68870000D03*
X91087500Y-69370000D03*
X91087500Y-69870000D03*
X91087500Y-70370000D03*
X91087500Y-70870000D03*
X91087500Y-71370000D03*
X91087500Y-71870000D03*
X91087500Y-72370000D03*
X91087500Y-72870000D03*
X91087500Y-73370000D03*
X91087500Y-73870000D03*
%TD*%
D23*
%TO.C,C1*%
X93660000Y-77470000D03*
X91760000Y-77470000D03*
%TD*%
D24*
%TO.C,R3*%
X89535000Y-80367500D03*
X89535000Y-82192500D03*
%TD*%
D25*
%TO.C,X1*%
X102997000Y-63754000D03*
X102997000Y-58674000D03*
X98797000Y-58674000D03*
X98797000Y-63754000D03*
%TD*%
D26*
%TO.C,C5*%
X91567000Y-60386000D03*
X91567000Y-58486000D03*
%TD*%
%TO.C,C3*%
X105342000Y-60640000D03*
X105342000Y-58740000D03*
%TD*%
D19*
%TO.C,C2*%
X95570000Y-77470000D03*
X97470000Y-77470000D03*
%TD*%
D26*
%TO.C,C4*%
X89535000Y-60386000D03*
X89535000Y-58486000D03*
%TD*%
D27*
%TO.C,J2*%
X86106000Y-83312000D03*
X79756000Y-83312000D03*
D28*
X79121000Y-85347000D03*
X79121000Y-81277000D03*
X80391000Y-85347000D03*
X80391000Y-81277000D03*
X81661000Y-85347000D03*
X81661000Y-81277000D03*
X82931000Y-85347000D03*
X82931000Y-81277000D03*
X84201000Y-85347000D03*
X84201000Y-81277000D03*
X85471000Y-85347000D03*
X85471000Y-81277000D03*
X86741000Y-85347000D03*
X86741000Y-81277000D03*
%TD*%
D29*
%TO.C,Y1*%
X89301000Y-62357000D03*
X91801000Y-62357000D03*
%TD*%
D19*
%TO.C,C6*%
X93726000Y-62611000D03*
X95626000Y-62611000D03*
%TD*%
D30*
%TO.C,F1*%
X82077000Y-73142000D03*
X83277000Y-78242000D03*
%TD*%
D31*
%TO.C,J1*%
X124587000Y-64135000D03*
D32*
X124587000Y-66675000D03*
X124587000Y-69215000D03*
X124587000Y-71755000D03*
X124587000Y-74295000D03*
X124587000Y-76835000D03*
X124587000Y-79375000D03*
X124587000Y-81915000D03*
%TD*%
M02*
