%FSLAX45Y45*%
G04 Gerber Fmt 4.5, Leading zero omitted, Abs format (unit mm)*
G04 Created by KiCad (PCBNEW 6.0.2+dfsg-1) date 2024-09-23 07:34:09*
%MOMM*%
%LPD*%
G01*
G04 APERTURE LIST*
%TA.AperFunction,Profile*%
%ADD10C,0.100000*%
%TD*%
%ADD11C,0.200000*%
%ADD12C,0.040000*%
%ADD13C,0.060000*%
%ADD14C,0.070000*%
%ADD15C,0.100000*%
%ADD16C,0.101000*%
G04 APERTURE END LIST*
D10*
X7048500Y-5492750D02*
X12827000Y-5492750D01*
X12827000Y-5492750D02*
X12827000Y-8909050D01*
X12827000Y-8909050D02*
X7048500Y-8909050D01*
X7048500Y-8909050D02*
X7048500Y-5492750D01*
D11*
D12*
X7854000Y-7092000D02*
X7894000Y-7132000D01*
X7894000Y-7092000D02*
X7854000Y-7132000D01*
X7854000Y-7473000D02*
X7894000Y-7513000D01*
X7894000Y-7473000D02*
X7854000Y-7513000D01*
X8146100Y-8311200D02*
X8186100Y-8351200D01*
X8186100Y-8311200D02*
X8146100Y-8351200D01*
X8743000Y-7917500D02*
X8783000Y-7957500D01*
X8783000Y-7917500D02*
X8743000Y-7957500D01*
X9069451Y-7545451D02*
X9109451Y-7585451D01*
X9109451Y-7545451D02*
X9069451Y-7585451D01*
X9080000Y-8020000D02*
X9120000Y-8060000D01*
X9120000Y-8020000D02*
X9080000Y-8060000D01*
X9238300Y-6444300D02*
X9278300Y-6484300D01*
X9278300Y-6444300D02*
X9238300Y-6484300D01*
X9251000Y-6088700D02*
X9291000Y-6128700D01*
X9291000Y-6088700D02*
X9251000Y-6128700D01*
X9280195Y-7334555D02*
X9320195Y-7374555D01*
X9320195Y-7334555D02*
X9280195Y-7374555D01*
X9352658Y-7239396D02*
X9392658Y-7279396D01*
X9392658Y-7239396D02*
X9352658Y-7279396D01*
X9466900Y-6101400D02*
X9506900Y-6141400D01*
X9506900Y-6101400D02*
X9466900Y-6141400D01*
X9579945Y-7334555D02*
X9619945Y-7374555D01*
X9619945Y-7334555D02*
X9579945Y-7374555D01*
X9860600Y-6037900D02*
X9900600Y-6077900D01*
X9900600Y-6037900D02*
X9860600Y-6077900D01*
X10013000Y-7790500D02*
X10053000Y-7830500D01*
X10053000Y-7790500D02*
X10013000Y-7830500D01*
X10902000Y-7884500D02*
X10942000Y-7924500D01*
X10942000Y-7884500D02*
X10902000Y-7924500D01*
X11283000Y-7019550D02*
X11323000Y-7059550D01*
X11323000Y-7019550D02*
X11283000Y-7059550D01*
X11727500Y-7282500D02*
X11767500Y-7322500D01*
X11767500Y-7282500D02*
X11727500Y-7322500D01*
X7526500Y-6814500D02*
G75*
G03*
X7526500Y-6814500I-20000J0D01*
G01*
X7526500Y-6899500D02*
G75*
G03*
X7526500Y-6899500I-20000J0D01*
G01*
X7526500Y-6984500D02*
G75*
G03*
X7526500Y-6984500I-20000J0D01*
G01*
X7526500Y-7069500D02*
G75*
G03*
X7526500Y-7069500I-20000J0D01*
G01*
X7526500Y-7154500D02*
G75*
G03*
X7526500Y-7154500I-20000J0D01*
G01*
X7526500Y-7239500D02*
G75*
G03*
X7526500Y-7239500I-20000J0D01*
G01*
X7526500Y-7324500D02*
G75*
G03*
X7526500Y-7324500I-20000J0D01*
G01*
X7526500Y-7409500D02*
G75*
G03*
X7526500Y-7409500I-20000J0D01*
G01*
X7661500Y-6814500D02*
G75*
G03*
X7661500Y-6814500I-20000J0D01*
G01*
X7661500Y-6899500D02*
G75*
G03*
X7661500Y-6899500I-20000J0D01*
G01*
X7661500Y-6984500D02*
G75*
G03*
X7661500Y-6984500I-20000J0D01*
G01*
X7661500Y-7069500D02*
G75*
G03*
X7661500Y-7069500I-20000J0D01*
G01*
X7661500Y-7154500D02*
G75*
G03*
X7661500Y-7154500I-20000J0D01*
G01*
X7661500Y-7239500D02*
G75*
G03*
X7661500Y-7239500I-20000J0D01*
G01*
X7661500Y-7324500D02*
G75*
G03*
X7661500Y-7324500I-20000J0D01*
G01*
X7661500Y-7409500D02*
G75*
G03*
X7661500Y-7409500I-20000J0D01*
G01*
D13*
X7205500Y-6649500D02*
X7205500Y-6709500D01*
X7175500Y-6679500D02*
X7235500Y-6679500D01*
D11*
X7245500Y-6659500D02*
X7165500Y-6659500D01*
X7245500Y-6699500D02*
X7165500Y-6699500D01*
X7165500Y-6659500D02*
G75*
G03*
X7165500Y-6699500I0J-20000D01*
G01*
X7245500Y-6699500D02*
G75*
G03*
X7245500Y-6659500I0J20000D01*
G01*
D13*
X7205500Y-7514500D02*
X7205500Y-7574500D01*
X7175500Y-7544500D02*
X7235500Y-7544500D01*
D11*
X7245500Y-7524500D02*
X7165500Y-7524500D01*
X7245500Y-7564500D02*
X7165500Y-7564500D01*
X7165500Y-7524500D02*
G75*
G03*
X7165500Y-7564500I0J-20000D01*
G01*
X7245500Y-7564500D02*
G75*
G03*
X7245500Y-7524500I0J20000D01*
G01*
D13*
X7543500Y-6649500D02*
X7543500Y-6709500D01*
X7513500Y-6679500D02*
X7573500Y-6679500D01*
D11*
X7618500Y-6659500D02*
X7468500Y-6659500D01*
X7618500Y-6699500D02*
X7468500Y-6699500D01*
X7468500Y-6659500D02*
G75*
G03*
X7468500Y-6699500I0J-20000D01*
G01*
X7618500Y-6699500D02*
G75*
G03*
X7618500Y-6659500I0J20000D01*
G01*
D13*
X7543500Y-7514500D02*
X7543500Y-7574500D01*
X7513500Y-7544500D02*
X7573500Y-7544500D01*
D11*
X7618500Y-7524500D02*
X7468500Y-7524500D01*
X7618500Y-7564500D02*
X7468500Y-7564500D01*
X7468500Y-7524500D02*
G75*
G03*
X7468500Y-7564500I0J-20000D01*
G01*
X7618500Y-7564500D02*
G75*
G03*
X7618500Y-7524500I0J20000D01*
G01*
D14*
X8914749Y-7644749D02*
X8914749Y-7595251D01*
X8865251Y-7595251D01*
X8865251Y-7644749D01*
X8914749Y-7644749D01*
X9511649Y-7009749D02*
X9511649Y-6960251D01*
X9462151Y-6960251D01*
X9462151Y-7009749D01*
X9511649Y-7009749D01*
X9921806Y-7780692D02*
X9921806Y-7731194D01*
X9872308Y-7731194D01*
X9872308Y-7780692D01*
X9921806Y-7780692D01*
D15*
X12458700Y-6463500D02*
X12508700Y-6413500D01*
X12458700Y-6363500D01*
X12408700Y-6413500D01*
X12458700Y-6463500D01*
X12458700Y-6717500D02*
X12508700Y-6667500D01*
X12458700Y-6617500D01*
X12408700Y-6667500D01*
X12458700Y-6717500D01*
X12458700Y-6971500D02*
X12508700Y-6921500D01*
X12458700Y-6871500D01*
X12408700Y-6921500D01*
X12458700Y-6971500D01*
X12458700Y-7225500D02*
X12508700Y-7175500D01*
X12458700Y-7125500D01*
X12408700Y-7175500D01*
X12458700Y-7225500D01*
X12458700Y-7479500D02*
X12508700Y-7429500D01*
X12458700Y-7379500D01*
X12408700Y-7429500D01*
X12458700Y-7479500D01*
X12458700Y-7733500D02*
X12508700Y-7683500D01*
X12458700Y-7633500D01*
X12408700Y-7683500D01*
X12458700Y-7733500D01*
X12458700Y-7987500D02*
X12508700Y-7937500D01*
X12458700Y-7887500D01*
X12408700Y-7937500D01*
X12458700Y-7987500D01*
X12458700Y-8241500D02*
X12508700Y-8191500D01*
X12458700Y-8141500D01*
X12408700Y-8191500D01*
X12458700Y-8241500D01*
D16*
X8157200Y-7263700D02*
X8258200Y-7364700D01*
X8258200Y-7263700D02*
X8157200Y-7364700D01*
X8258200Y-7314200D02*
G75*
G03*
X8258200Y-7314200I-50500J0D01*
G01*
X8277200Y-7773700D02*
X8378200Y-7874700D01*
X8378200Y-7773700D02*
X8277200Y-7874700D01*
X8378200Y-7824200D02*
G75*
G03*
X8378200Y-7824200I-50500J0D01*
G01*
D11*
X7301119Y-9224526D02*
X7301119Y-9024526D01*
X7348738Y-9024526D01*
X7377309Y-9034050D01*
X7396357Y-9053098D01*
X7405881Y-9072145D01*
X7415405Y-9110240D01*
X7415405Y-9138812D01*
X7405881Y-9176907D01*
X7396357Y-9195955D01*
X7377309Y-9215002D01*
X7348738Y-9224526D01*
X7301119Y-9224526D01*
X7501119Y-9224526D02*
X7501119Y-9091193D01*
X7501119Y-9129288D02*
X7510643Y-9110240D01*
X7520167Y-9100717D01*
X7539214Y-9091193D01*
X7558262Y-9091193D01*
X7624928Y-9224526D02*
X7624928Y-9091193D01*
X7624928Y-9024526D02*
X7615405Y-9034050D01*
X7624928Y-9043574D01*
X7634452Y-9034050D01*
X7624928Y-9024526D01*
X7624928Y-9043574D01*
X7748738Y-9224526D02*
X7729690Y-9215002D01*
X7720167Y-9195955D01*
X7720167Y-9024526D01*
X7853500Y-9224526D02*
X7834452Y-9215002D01*
X7824928Y-9195955D01*
X7824928Y-9024526D01*
X8082071Y-9224526D02*
X8082071Y-9024526D01*
X8148738Y-9167383D01*
X8215405Y-9024526D01*
X8215405Y-9224526D01*
X8396357Y-9224526D02*
X8396357Y-9119764D01*
X8386833Y-9100717D01*
X8367786Y-9091193D01*
X8329690Y-9091193D01*
X8310643Y-9100717D01*
X8396357Y-9215002D02*
X8377309Y-9224526D01*
X8329690Y-9224526D01*
X8310643Y-9215002D01*
X8301119Y-9195955D01*
X8301119Y-9176907D01*
X8310643Y-9157860D01*
X8329690Y-9148336D01*
X8377309Y-9148336D01*
X8396357Y-9138812D01*
X8491595Y-9091193D02*
X8491595Y-9291193D01*
X8491595Y-9100717D02*
X8510643Y-9091193D01*
X8548738Y-9091193D01*
X8567786Y-9100717D01*
X8577310Y-9110240D01*
X8586833Y-9129288D01*
X8586833Y-9186431D01*
X8577310Y-9205479D01*
X8567786Y-9215002D01*
X8548738Y-9224526D01*
X8510643Y-9224526D01*
X8491595Y-9215002D01*
X8672548Y-9205479D02*
X8682071Y-9215002D01*
X8672548Y-9224526D01*
X8663024Y-9215002D01*
X8672548Y-9205479D01*
X8672548Y-9224526D01*
X8672548Y-9100717D02*
X8682071Y-9110240D01*
X8672548Y-9119764D01*
X8663024Y-9110240D01*
X8672548Y-9100717D01*
X8672548Y-9119764D01*
D12*
X7003500Y-9534050D02*
X7043500Y-9574050D01*
X7043500Y-9534050D02*
X7003500Y-9574050D01*
D11*
X7339214Y-9444526D02*
X7358262Y-9444526D01*
X7377309Y-9454050D01*
X7386833Y-9463574D01*
X7396357Y-9482621D01*
X7405881Y-9520717D01*
X7405881Y-9568336D01*
X7396357Y-9606431D01*
X7386833Y-9625479D01*
X7377309Y-9635002D01*
X7358262Y-9644526D01*
X7339214Y-9644526D01*
X7320167Y-9635002D01*
X7310643Y-9625479D01*
X7301119Y-9606431D01*
X7291595Y-9568336D01*
X7291595Y-9520717D01*
X7301119Y-9482621D01*
X7310643Y-9463574D01*
X7320167Y-9454050D01*
X7339214Y-9444526D01*
X7491595Y-9625479D02*
X7501119Y-9635002D01*
X7491595Y-9644526D01*
X7482071Y-9635002D01*
X7491595Y-9625479D01*
X7491595Y-9644526D01*
X7672548Y-9511193D02*
X7672548Y-9644526D01*
X7624928Y-9435002D02*
X7577309Y-9577860D01*
X7701119Y-9577860D01*
X7815405Y-9444526D02*
X7834452Y-9444526D01*
X7853500Y-9454050D01*
X7863024Y-9463574D01*
X7872548Y-9482621D01*
X7882071Y-9520717D01*
X7882071Y-9568336D01*
X7872548Y-9606431D01*
X7863024Y-9625479D01*
X7853500Y-9635002D01*
X7834452Y-9644526D01*
X7815405Y-9644526D01*
X7796357Y-9635002D01*
X7786833Y-9625479D01*
X7777309Y-9606431D01*
X7767786Y-9568336D01*
X7767786Y-9520717D01*
X7777309Y-9482621D01*
X7786833Y-9463574D01*
X7796357Y-9454050D01*
X7815405Y-9444526D01*
X8005881Y-9444526D02*
X8024928Y-9444526D01*
X8043976Y-9454050D01*
X8053500Y-9463574D01*
X8063024Y-9482621D01*
X8072548Y-9520717D01*
X8072548Y-9568336D01*
X8063024Y-9606431D01*
X8053500Y-9625479D01*
X8043976Y-9635002D01*
X8024928Y-9644526D01*
X8005881Y-9644526D01*
X7986833Y-9635002D01*
X7977309Y-9625479D01*
X7967786Y-9606431D01*
X7958262Y-9568336D01*
X7958262Y-9520717D01*
X7967786Y-9482621D01*
X7977309Y-9463574D01*
X7986833Y-9454050D01*
X8005881Y-9444526D01*
X8158262Y-9644526D02*
X8158262Y-9511193D01*
X8158262Y-9530240D02*
X8167786Y-9520717D01*
X8186833Y-9511193D01*
X8215405Y-9511193D01*
X8234452Y-9520717D01*
X8243976Y-9539764D01*
X8243976Y-9644526D01*
X8243976Y-9539764D02*
X8253500Y-9520717D01*
X8272548Y-9511193D01*
X8301119Y-9511193D01*
X8320167Y-9520717D01*
X8329690Y-9539764D01*
X8329690Y-9644526D01*
X8424929Y-9644526D02*
X8424929Y-9511193D01*
X8424929Y-9530240D02*
X8434452Y-9520717D01*
X8453500Y-9511193D01*
X8482071Y-9511193D01*
X8501119Y-9520717D01*
X8510643Y-9539764D01*
X8510643Y-9644526D01*
X8510643Y-9539764D02*
X8520167Y-9520717D01*
X8539214Y-9511193D01*
X8567786Y-9511193D01*
X8586833Y-9520717D01*
X8596357Y-9539764D01*
X8596357Y-9644526D01*
X8986833Y-9435002D02*
X8815405Y-9692145D01*
X9243976Y-9444526D02*
X9263024Y-9444526D01*
X9282071Y-9454050D01*
X9291595Y-9463574D01*
X9301119Y-9482621D01*
X9310643Y-9520717D01*
X9310643Y-9568336D01*
X9301119Y-9606431D01*
X9291595Y-9625479D01*
X9282071Y-9635002D01*
X9263024Y-9644526D01*
X9243976Y-9644526D01*
X9224929Y-9635002D01*
X9215405Y-9625479D01*
X9205881Y-9606431D01*
X9196357Y-9568336D01*
X9196357Y-9520717D01*
X9205881Y-9482621D01*
X9215405Y-9463574D01*
X9224929Y-9454050D01*
X9243976Y-9444526D01*
X9396357Y-9625479D02*
X9405881Y-9635002D01*
X9396357Y-9644526D01*
X9386833Y-9635002D01*
X9396357Y-9625479D01*
X9396357Y-9644526D01*
X9529690Y-9444526D02*
X9548738Y-9444526D01*
X9567786Y-9454050D01*
X9577310Y-9463574D01*
X9586833Y-9482621D01*
X9596357Y-9520717D01*
X9596357Y-9568336D01*
X9586833Y-9606431D01*
X9577310Y-9625479D01*
X9567786Y-9635002D01*
X9548738Y-9644526D01*
X9529690Y-9644526D01*
X9510643Y-9635002D01*
X9501119Y-9625479D01*
X9491595Y-9606431D01*
X9482071Y-9568336D01*
X9482071Y-9520717D01*
X9491595Y-9482621D01*
X9501119Y-9463574D01*
X9510643Y-9454050D01*
X9529690Y-9444526D01*
X9786833Y-9644526D02*
X9672548Y-9644526D01*
X9729690Y-9644526D02*
X9729690Y-9444526D01*
X9710643Y-9473098D01*
X9691595Y-9492145D01*
X9672548Y-9501669D01*
X9967786Y-9444526D02*
X9872548Y-9444526D01*
X9863024Y-9539764D01*
X9872548Y-9530240D01*
X9891595Y-9520717D01*
X9939214Y-9520717D01*
X9958262Y-9530240D01*
X9967786Y-9539764D01*
X9977310Y-9558812D01*
X9977310Y-9606431D01*
X9967786Y-9625479D01*
X9958262Y-9635002D01*
X9939214Y-9644526D01*
X9891595Y-9644526D01*
X9872548Y-9635002D01*
X9863024Y-9625479D01*
X10043976Y-9444526D02*
X10177310Y-9444526D01*
X10091595Y-9644526D01*
X10243976Y-9444526D02*
X10243976Y-9482621D01*
X10320167Y-9444526D02*
X10320167Y-9482621D01*
X10615405Y-9720717D02*
X10605881Y-9711193D01*
X10586833Y-9682621D01*
X10577310Y-9663574D01*
X10567786Y-9635002D01*
X10558262Y-9587383D01*
X10558262Y-9549288D01*
X10567786Y-9501669D01*
X10577310Y-9473098D01*
X10586833Y-9454050D01*
X10605881Y-9425479D01*
X10615405Y-9415955D01*
X10796357Y-9644526D02*
X10682071Y-9644526D01*
X10739214Y-9644526D02*
X10739214Y-9444526D01*
X10720167Y-9473098D01*
X10701119Y-9492145D01*
X10682071Y-9501669D01*
X10863024Y-9444526D02*
X10996357Y-9444526D01*
X10910643Y-9644526D01*
X11224928Y-9644526D02*
X11224928Y-9444526D01*
X11310643Y-9644526D02*
X11310643Y-9539764D01*
X11301119Y-9520717D01*
X11282071Y-9511193D01*
X11253500Y-9511193D01*
X11234452Y-9520717D01*
X11224928Y-9530240D01*
X11434452Y-9644526D02*
X11415405Y-9635002D01*
X11405881Y-9625479D01*
X11396357Y-9606431D01*
X11396357Y-9549288D01*
X11405881Y-9530240D01*
X11415405Y-9520717D01*
X11434452Y-9511193D01*
X11463024Y-9511193D01*
X11482071Y-9520717D01*
X11491595Y-9530240D01*
X11501119Y-9549288D01*
X11501119Y-9606431D01*
X11491595Y-9625479D01*
X11482071Y-9635002D01*
X11463024Y-9644526D01*
X11434452Y-9644526D01*
X11615405Y-9644526D02*
X11596357Y-9635002D01*
X11586833Y-9615955D01*
X11586833Y-9444526D01*
X11767786Y-9635002D02*
X11748738Y-9644526D01*
X11710643Y-9644526D01*
X11691595Y-9635002D01*
X11682071Y-9615955D01*
X11682071Y-9539764D01*
X11691595Y-9520717D01*
X11710643Y-9511193D01*
X11748738Y-9511193D01*
X11767786Y-9520717D01*
X11777309Y-9539764D01*
X11777309Y-9558812D01*
X11682071Y-9577860D01*
X11853500Y-9635002D02*
X11872548Y-9644526D01*
X11910643Y-9644526D01*
X11929690Y-9635002D01*
X11939214Y-9615955D01*
X11939214Y-9606431D01*
X11929690Y-9587383D01*
X11910643Y-9577860D01*
X11882071Y-9577860D01*
X11863024Y-9568336D01*
X11853500Y-9549288D01*
X11853500Y-9539764D01*
X11863024Y-9520717D01*
X11882071Y-9511193D01*
X11910643Y-9511193D01*
X11929690Y-9520717D01*
X12005881Y-9720717D02*
X12015405Y-9711193D01*
X12034452Y-9682621D01*
X12043976Y-9663574D01*
X12053500Y-9635002D01*
X12063024Y-9587383D01*
X12063024Y-9549288D01*
X12053500Y-9501669D01*
X12043976Y-9473098D01*
X12034452Y-9454050D01*
X12015405Y-9425479D01*
X12005881Y-9415955D01*
D12*
X7043500Y-9818050D02*
G75*
G03*
X7043500Y-9818050I-20000J0D01*
G01*
D11*
X7339214Y-9708526D02*
X7358262Y-9708526D01*
X7377309Y-9718050D01*
X7386833Y-9727574D01*
X7396357Y-9746621D01*
X7405881Y-9784717D01*
X7405881Y-9832336D01*
X7396357Y-9870431D01*
X7386833Y-9889479D01*
X7377309Y-9899002D01*
X7358262Y-9908526D01*
X7339214Y-9908526D01*
X7320167Y-9899002D01*
X7310643Y-9889479D01*
X7301119Y-9870431D01*
X7291595Y-9832336D01*
X7291595Y-9784717D01*
X7301119Y-9746621D01*
X7310643Y-9727574D01*
X7320167Y-9718050D01*
X7339214Y-9708526D01*
X7491595Y-9889479D02*
X7501119Y-9899002D01*
X7491595Y-9908526D01*
X7482071Y-9899002D01*
X7491595Y-9889479D01*
X7491595Y-9908526D01*
X7672548Y-9775193D02*
X7672548Y-9908526D01*
X7624928Y-9699002D02*
X7577309Y-9841860D01*
X7701119Y-9841860D01*
X7815405Y-9708526D02*
X7834452Y-9708526D01*
X7853500Y-9718050D01*
X7863024Y-9727574D01*
X7872548Y-9746621D01*
X7882071Y-9784717D01*
X7882071Y-9832336D01*
X7872548Y-9870431D01*
X7863024Y-9889479D01*
X7853500Y-9899002D01*
X7834452Y-9908526D01*
X7815405Y-9908526D01*
X7796357Y-9899002D01*
X7786833Y-9889479D01*
X7777309Y-9870431D01*
X7767786Y-9832336D01*
X7767786Y-9784717D01*
X7777309Y-9746621D01*
X7786833Y-9727574D01*
X7796357Y-9718050D01*
X7815405Y-9708526D01*
X8005881Y-9708526D02*
X8024928Y-9708526D01*
X8043976Y-9718050D01*
X8053500Y-9727574D01*
X8063024Y-9746621D01*
X8072548Y-9784717D01*
X8072548Y-9832336D01*
X8063024Y-9870431D01*
X8053500Y-9889479D01*
X8043976Y-9899002D01*
X8024928Y-9908526D01*
X8005881Y-9908526D01*
X7986833Y-9899002D01*
X7977309Y-9889479D01*
X7967786Y-9870431D01*
X7958262Y-9832336D01*
X7958262Y-9784717D01*
X7967786Y-9746621D01*
X7977309Y-9727574D01*
X7986833Y-9718050D01*
X8005881Y-9708526D01*
X8158262Y-9908526D02*
X8158262Y-9775193D01*
X8158262Y-9794240D02*
X8167786Y-9784717D01*
X8186833Y-9775193D01*
X8215405Y-9775193D01*
X8234452Y-9784717D01*
X8243976Y-9803764D01*
X8243976Y-9908526D01*
X8243976Y-9803764D02*
X8253500Y-9784717D01*
X8272548Y-9775193D01*
X8301119Y-9775193D01*
X8320167Y-9784717D01*
X8329690Y-9803764D01*
X8329690Y-9908526D01*
X8424929Y-9908526D02*
X8424929Y-9775193D01*
X8424929Y-9794240D02*
X8434452Y-9784717D01*
X8453500Y-9775193D01*
X8482071Y-9775193D01*
X8501119Y-9784717D01*
X8510643Y-9803764D01*
X8510643Y-9908526D01*
X8510643Y-9803764D02*
X8520167Y-9784717D01*
X8539214Y-9775193D01*
X8567786Y-9775193D01*
X8586833Y-9784717D01*
X8596357Y-9803764D01*
X8596357Y-9908526D01*
X8986833Y-9699002D02*
X8815405Y-9956145D01*
X9243976Y-9708526D02*
X9263024Y-9708526D01*
X9282071Y-9718050D01*
X9291595Y-9727574D01*
X9301119Y-9746621D01*
X9310643Y-9784717D01*
X9310643Y-9832336D01*
X9301119Y-9870431D01*
X9291595Y-9889479D01*
X9282071Y-9899002D01*
X9263024Y-9908526D01*
X9243976Y-9908526D01*
X9224929Y-9899002D01*
X9215405Y-9889479D01*
X9205881Y-9870431D01*
X9196357Y-9832336D01*
X9196357Y-9784717D01*
X9205881Y-9746621D01*
X9215405Y-9727574D01*
X9224929Y-9718050D01*
X9243976Y-9708526D01*
X9396357Y-9889479D02*
X9405881Y-9899002D01*
X9396357Y-9908526D01*
X9386833Y-9899002D01*
X9396357Y-9889479D01*
X9396357Y-9908526D01*
X9529690Y-9708526D02*
X9548738Y-9708526D01*
X9567786Y-9718050D01*
X9577310Y-9727574D01*
X9586833Y-9746621D01*
X9596357Y-9784717D01*
X9596357Y-9832336D01*
X9586833Y-9870431D01*
X9577310Y-9889479D01*
X9567786Y-9899002D01*
X9548738Y-9908526D01*
X9529690Y-9908526D01*
X9510643Y-9899002D01*
X9501119Y-9889479D01*
X9491595Y-9870431D01*
X9482071Y-9832336D01*
X9482071Y-9784717D01*
X9491595Y-9746621D01*
X9501119Y-9727574D01*
X9510643Y-9718050D01*
X9529690Y-9708526D01*
X9786833Y-9908526D02*
X9672548Y-9908526D01*
X9729690Y-9908526D02*
X9729690Y-9708526D01*
X9710643Y-9737098D01*
X9691595Y-9756145D01*
X9672548Y-9765669D01*
X9967786Y-9708526D02*
X9872548Y-9708526D01*
X9863024Y-9803764D01*
X9872548Y-9794240D01*
X9891595Y-9784717D01*
X9939214Y-9784717D01*
X9958262Y-9794240D01*
X9967786Y-9803764D01*
X9977310Y-9822812D01*
X9977310Y-9870431D01*
X9967786Y-9889479D01*
X9958262Y-9899002D01*
X9939214Y-9908526D01*
X9891595Y-9908526D01*
X9872548Y-9899002D01*
X9863024Y-9889479D01*
X10043976Y-9708526D02*
X10177310Y-9708526D01*
X10091595Y-9908526D01*
X10243976Y-9708526D02*
X10243976Y-9746621D01*
X10320167Y-9708526D02*
X10320167Y-9746621D01*
X10615405Y-9984717D02*
X10605881Y-9975193D01*
X10586833Y-9946621D01*
X10577310Y-9927574D01*
X10567786Y-9899002D01*
X10558262Y-9851383D01*
X10558262Y-9813288D01*
X10567786Y-9765669D01*
X10577310Y-9737098D01*
X10586833Y-9718050D01*
X10605881Y-9689479D01*
X10615405Y-9679955D01*
X10796357Y-9908526D02*
X10682071Y-9908526D01*
X10739214Y-9908526D02*
X10739214Y-9708526D01*
X10720167Y-9737098D01*
X10701119Y-9756145D01*
X10682071Y-9765669D01*
X10967786Y-9708526D02*
X10929690Y-9708526D01*
X10910643Y-9718050D01*
X10901119Y-9727574D01*
X10882071Y-9756145D01*
X10872548Y-9794240D01*
X10872548Y-9870431D01*
X10882071Y-9889479D01*
X10891595Y-9899002D01*
X10910643Y-9908526D01*
X10948738Y-9908526D01*
X10967786Y-9899002D01*
X10977310Y-9889479D01*
X10986833Y-9870431D01*
X10986833Y-9822812D01*
X10977310Y-9803764D01*
X10967786Y-9794240D01*
X10948738Y-9784717D01*
X10910643Y-9784717D01*
X10891595Y-9794240D01*
X10882071Y-9803764D01*
X10872548Y-9822812D01*
X11224928Y-9908526D02*
X11224928Y-9708526D01*
X11310643Y-9908526D02*
X11310643Y-9803764D01*
X11301119Y-9784717D01*
X11282071Y-9775193D01*
X11253500Y-9775193D01*
X11234452Y-9784717D01*
X11224928Y-9794240D01*
X11434452Y-9908526D02*
X11415405Y-9899002D01*
X11405881Y-9889479D01*
X11396357Y-9870431D01*
X11396357Y-9813288D01*
X11405881Y-9794240D01*
X11415405Y-9784717D01*
X11434452Y-9775193D01*
X11463024Y-9775193D01*
X11482071Y-9784717D01*
X11491595Y-9794240D01*
X11501119Y-9813288D01*
X11501119Y-9870431D01*
X11491595Y-9889479D01*
X11482071Y-9899002D01*
X11463024Y-9908526D01*
X11434452Y-9908526D01*
X11615405Y-9908526D02*
X11596357Y-9899002D01*
X11586833Y-9879955D01*
X11586833Y-9708526D01*
X11767786Y-9899002D02*
X11748738Y-9908526D01*
X11710643Y-9908526D01*
X11691595Y-9899002D01*
X11682071Y-9879955D01*
X11682071Y-9803764D01*
X11691595Y-9784717D01*
X11710643Y-9775193D01*
X11748738Y-9775193D01*
X11767786Y-9784717D01*
X11777309Y-9803764D01*
X11777309Y-9822812D01*
X11682071Y-9841860D01*
X11853500Y-9899002D02*
X11872548Y-9908526D01*
X11910643Y-9908526D01*
X11929690Y-9899002D01*
X11939214Y-9879955D01*
X11939214Y-9870431D01*
X11929690Y-9851383D01*
X11910643Y-9841860D01*
X11882071Y-9841860D01*
X11863024Y-9832336D01*
X11853500Y-9813288D01*
X11853500Y-9803764D01*
X11863024Y-9784717D01*
X11882071Y-9775193D01*
X11910643Y-9775193D01*
X11929690Y-9784717D01*
X12005881Y-9984717D02*
X12015405Y-9975193D01*
X12034452Y-9946621D01*
X12043976Y-9927574D01*
X12053500Y-9899002D01*
X12063024Y-9851383D01*
X12063024Y-9813288D01*
X12053500Y-9765669D01*
X12043976Y-9737098D01*
X12034452Y-9718050D01*
X12015405Y-9689479D01*
X12005881Y-9679955D01*
D13*
X7013500Y-10052050D02*
X7013500Y-10112050D01*
X6983500Y-10082050D02*
X7043500Y-10082050D01*
D11*
X7339214Y-9972526D02*
X7358262Y-9972526D01*
X7377309Y-9982050D01*
X7386833Y-9991574D01*
X7396357Y-10010621D01*
X7405881Y-10048717D01*
X7405881Y-10096336D01*
X7396357Y-10134431D01*
X7386833Y-10153479D01*
X7377309Y-10163002D01*
X7358262Y-10172526D01*
X7339214Y-10172526D01*
X7320167Y-10163002D01*
X7310643Y-10153479D01*
X7301119Y-10134431D01*
X7291595Y-10096336D01*
X7291595Y-10048717D01*
X7301119Y-10010621D01*
X7310643Y-9991574D01*
X7320167Y-9982050D01*
X7339214Y-9972526D01*
X7491595Y-10153479D02*
X7501119Y-10163002D01*
X7491595Y-10172526D01*
X7482071Y-10163002D01*
X7491595Y-10153479D01*
X7491595Y-10172526D01*
X7672548Y-9972526D02*
X7634452Y-9972526D01*
X7615405Y-9982050D01*
X7605881Y-9991574D01*
X7586833Y-10020145D01*
X7577309Y-10058240D01*
X7577309Y-10134431D01*
X7586833Y-10153479D01*
X7596357Y-10163002D01*
X7615405Y-10172526D01*
X7653500Y-10172526D01*
X7672548Y-10163002D01*
X7682071Y-10153479D01*
X7691595Y-10134431D01*
X7691595Y-10086812D01*
X7682071Y-10067764D01*
X7672548Y-10058240D01*
X7653500Y-10048717D01*
X7615405Y-10048717D01*
X7596357Y-10058240D01*
X7586833Y-10067764D01*
X7577309Y-10086812D01*
X7815405Y-9972526D02*
X7834452Y-9972526D01*
X7853500Y-9982050D01*
X7863024Y-9991574D01*
X7872548Y-10010621D01*
X7882071Y-10048717D01*
X7882071Y-10096336D01*
X7872548Y-10134431D01*
X7863024Y-10153479D01*
X7853500Y-10163002D01*
X7834452Y-10172526D01*
X7815405Y-10172526D01*
X7796357Y-10163002D01*
X7786833Y-10153479D01*
X7777309Y-10134431D01*
X7767786Y-10096336D01*
X7767786Y-10048717D01*
X7777309Y-10010621D01*
X7786833Y-9991574D01*
X7796357Y-9982050D01*
X7815405Y-9972526D01*
X8005881Y-9972526D02*
X8024928Y-9972526D01*
X8043976Y-9982050D01*
X8053500Y-9991574D01*
X8063024Y-10010621D01*
X8072548Y-10048717D01*
X8072548Y-10096336D01*
X8063024Y-10134431D01*
X8053500Y-10153479D01*
X8043976Y-10163002D01*
X8024928Y-10172526D01*
X8005881Y-10172526D01*
X7986833Y-10163002D01*
X7977309Y-10153479D01*
X7967786Y-10134431D01*
X7958262Y-10096336D01*
X7958262Y-10048717D01*
X7967786Y-10010621D01*
X7977309Y-9991574D01*
X7986833Y-9982050D01*
X8005881Y-9972526D01*
X8158262Y-10172526D02*
X8158262Y-10039193D01*
X8158262Y-10058240D02*
X8167786Y-10048717D01*
X8186833Y-10039193D01*
X8215405Y-10039193D01*
X8234452Y-10048717D01*
X8243976Y-10067764D01*
X8243976Y-10172526D01*
X8243976Y-10067764D02*
X8253500Y-10048717D01*
X8272548Y-10039193D01*
X8301119Y-10039193D01*
X8320167Y-10048717D01*
X8329690Y-10067764D01*
X8329690Y-10172526D01*
X8424929Y-10172526D02*
X8424929Y-10039193D01*
X8424929Y-10058240D02*
X8434452Y-10048717D01*
X8453500Y-10039193D01*
X8482071Y-10039193D01*
X8501119Y-10048717D01*
X8510643Y-10067764D01*
X8510643Y-10172526D01*
X8510643Y-10067764D02*
X8520167Y-10048717D01*
X8539214Y-10039193D01*
X8567786Y-10039193D01*
X8586833Y-10048717D01*
X8596357Y-10067764D01*
X8596357Y-10172526D01*
X8986833Y-9963002D02*
X8815405Y-10220145D01*
X9243976Y-9972526D02*
X9263024Y-9972526D01*
X9282071Y-9982050D01*
X9291595Y-9991574D01*
X9301119Y-10010621D01*
X9310643Y-10048717D01*
X9310643Y-10096336D01*
X9301119Y-10134431D01*
X9291595Y-10153479D01*
X9282071Y-10163002D01*
X9263024Y-10172526D01*
X9243976Y-10172526D01*
X9224929Y-10163002D01*
X9215405Y-10153479D01*
X9205881Y-10134431D01*
X9196357Y-10096336D01*
X9196357Y-10048717D01*
X9205881Y-10010621D01*
X9215405Y-9991574D01*
X9224929Y-9982050D01*
X9243976Y-9972526D01*
X9396357Y-10153479D02*
X9405881Y-10163002D01*
X9396357Y-10172526D01*
X9386833Y-10163002D01*
X9396357Y-10153479D01*
X9396357Y-10172526D01*
X9529690Y-9972526D02*
X9548738Y-9972526D01*
X9567786Y-9982050D01*
X9577310Y-9991574D01*
X9586833Y-10010621D01*
X9596357Y-10048717D01*
X9596357Y-10096336D01*
X9586833Y-10134431D01*
X9577310Y-10153479D01*
X9567786Y-10163002D01*
X9548738Y-10172526D01*
X9529690Y-10172526D01*
X9510643Y-10163002D01*
X9501119Y-10153479D01*
X9491595Y-10134431D01*
X9482071Y-10096336D01*
X9482071Y-10048717D01*
X9491595Y-10010621D01*
X9501119Y-9991574D01*
X9510643Y-9982050D01*
X9529690Y-9972526D01*
X9672548Y-9991574D02*
X9682071Y-9982050D01*
X9701119Y-9972526D01*
X9748738Y-9972526D01*
X9767786Y-9982050D01*
X9777310Y-9991574D01*
X9786833Y-10010621D01*
X9786833Y-10029669D01*
X9777310Y-10058240D01*
X9663024Y-10172526D01*
X9786833Y-10172526D01*
X9853500Y-9972526D02*
X9977310Y-9972526D01*
X9910643Y-10048717D01*
X9939214Y-10048717D01*
X9958262Y-10058240D01*
X9967786Y-10067764D01*
X9977310Y-10086812D01*
X9977310Y-10134431D01*
X9967786Y-10153479D01*
X9958262Y-10163002D01*
X9939214Y-10172526D01*
X9882071Y-10172526D01*
X9863024Y-10163002D01*
X9853500Y-10153479D01*
X10148738Y-9972526D02*
X10110643Y-9972526D01*
X10091595Y-9982050D01*
X10082071Y-9991574D01*
X10063024Y-10020145D01*
X10053500Y-10058240D01*
X10053500Y-10134431D01*
X10063024Y-10153479D01*
X10072548Y-10163002D01*
X10091595Y-10172526D01*
X10129690Y-10172526D01*
X10148738Y-10163002D01*
X10158262Y-10153479D01*
X10167786Y-10134431D01*
X10167786Y-10086812D01*
X10158262Y-10067764D01*
X10148738Y-10058240D01*
X10129690Y-10048717D01*
X10091595Y-10048717D01*
X10072548Y-10058240D01*
X10063024Y-10067764D01*
X10053500Y-10086812D01*
X10243976Y-9972526D02*
X10243976Y-10010621D01*
X10320167Y-9972526D02*
X10320167Y-10010621D01*
X10615405Y-10248717D02*
X10605881Y-10239193D01*
X10586833Y-10210621D01*
X10577310Y-10191574D01*
X10567786Y-10163002D01*
X10558262Y-10115383D01*
X10558262Y-10077288D01*
X10567786Y-10029669D01*
X10577310Y-10001098D01*
X10586833Y-9982050D01*
X10605881Y-9953479D01*
X10615405Y-9943955D01*
X10729690Y-9972526D02*
X10748738Y-9972526D01*
X10767786Y-9982050D01*
X10777310Y-9991574D01*
X10786833Y-10010621D01*
X10796357Y-10048717D01*
X10796357Y-10096336D01*
X10786833Y-10134431D01*
X10777310Y-10153479D01*
X10767786Y-10163002D01*
X10748738Y-10172526D01*
X10729690Y-10172526D01*
X10710643Y-10163002D01*
X10701119Y-10153479D01*
X10691595Y-10134431D01*
X10682071Y-10096336D01*
X10682071Y-10048717D01*
X10691595Y-10010621D01*
X10701119Y-9991574D01*
X10710643Y-9982050D01*
X10729690Y-9972526D01*
X11034452Y-10172526D02*
X11034452Y-9972526D01*
X11120167Y-10172526D02*
X11120167Y-10067764D01*
X11110643Y-10048717D01*
X11091595Y-10039193D01*
X11063024Y-10039193D01*
X11043976Y-10048717D01*
X11034452Y-10058240D01*
X11243976Y-10172526D02*
X11224928Y-10163002D01*
X11215405Y-10153479D01*
X11205881Y-10134431D01*
X11205881Y-10077288D01*
X11215405Y-10058240D01*
X11224928Y-10048717D01*
X11243976Y-10039193D01*
X11272548Y-10039193D01*
X11291595Y-10048717D01*
X11301119Y-10058240D01*
X11310643Y-10077288D01*
X11310643Y-10134431D01*
X11301119Y-10153479D01*
X11291595Y-10163002D01*
X11272548Y-10172526D01*
X11243976Y-10172526D01*
X11424928Y-10172526D02*
X11405881Y-10163002D01*
X11396357Y-10143955D01*
X11396357Y-9972526D01*
X11577309Y-10163002D02*
X11558262Y-10172526D01*
X11520167Y-10172526D01*
X11501119Y-10163002D01*
X11491595Y-10143955D01*
X11491595Y-10067764D01*
X11501119Y-10048717D01*
X11520167Y-10039193D01*
X11558262Y-10039193D01*
X11577309Y-10048717D01*
X11586833Y-10067764D01*
X11586833Y-10086812D01*
X11491595Y-10105860D01*
X11663024Y-10163002D02*
X11682071Y-10172526D01*
X11720167Y-10172526D01*
X11739214Y-10163002D01*
X11748738Y-10143955D01*
X11748738Y-10134431D01*
X11739214Y-10115383D01*
X11720167Y-10105860D01*
X11691595Y-10105860D01*
X11672548Y-10096336D01*
X11663024Y-10077288D01*
X11663024Y-10067764D01*
X11672548Y-10048717D01*
X11691595Y-10039193D01*
X11720167Y-10039193D01*
X11739214Y-10048717D01*
X11986833Y-10096336D02*
X12139214Y-10096336D01*
X12063024Y-10172526D02*
X12063024Y-10020145D01*
X12472548Y-10039193D02*
X12472548Y-10172526D01*
X12424928Y-9963002D02*
X12377309Y-10105860D01*
X12501119Y-10105860D01*
X12720167Y-10163002D02*
X12739214Y-10172526D01*
X12777309Y-10172526D01*
X12796357Y-10163002D01*
X12805881Y-10143955D01*
X12805881Y-10134431D01*
X12796357Y-10115383D01*
X12777309Y-10105860D01*
X12748738Y-10105860D01*
X12729690Y-10096336D01*
X12720167Y-10077288D01*
X12720167Y-10067764D01*
X12729690Y-10048717D01*
X12748738Y-10039193D01*
X12777309Y-10039193D01*
X12796357Y-10048717D01*
X12920167Y-10172526D02*
X12901119Y-10163002D01*
X12891595Y-10143955D01*
X12891595Y-9972526D01*
X13024928Y-10172526D02*
X13005881Y-10163002D01*
X12996357Y-10153479D01*
X12986833Y-10134431D01*
X12986833Y-10077288D01*
X12996357Y-10058240D01*
X13005881Y-10048717D01*
X13024928Y-10039193D01*
X13053500Y-10039193D01*
X13072548Y-10048717D01*
X13082071Y-10058240D01*
X13091595Y-10077288D01*
X13091595Y-10134431D01*
X13082071Y-10153479D01*
X13072548Y-10163002D01*
X13053500Y-10172526D01*
X13024928Y-10172526D01*
X13148738Y-10039193D02*
X13224928Y-10039193D01*
X13177309Y-9972526D02*
X13177309Y-10143955D01*
X13186833Y-10163002D01*
X13205881Y-10172526D01*
X13224928Y-10172526D01*
X13282071Y-10163002D02*
X13301119Y-10172526D01*
X13339214Y-10172526D01*
X13358262Y-10163002D01*
X13367786Y-10143955D01*
X13367786Y-10134431D01*
X13358262Y-10115383D01*
X13339214Y-10105860D01*
X13310643Y-10105860D01*
X13291595Y-10096336D01*
X13282071Y-10077288D01*
X13282071Y-10067764D01*
X13291595Y-10048717D01*
X13310643Y-10039193D01*
X13339214Y-10039193D01*
X13358262Y-10048717D01*
X13434452Y-10248717D02*
X13443976Y-10239193D01*
X13463024Y-10210621D01*
X13472548Y-10191574D01*
X13482071Y-10163002D01*
X13491595Y-10115383D01*
X13491595Y-10077288D01*
X13482071Y-10029669D01*
X13472548Y-10001098D01*
X13463024Y-9982050D01*
X13443976Y-9953479D01*
X13434452Y-9943955D01*
D14*
X7033249Y-10370799D02*
X7033249Y-10321301D01*
X6983751Y-10321301D01*
X6983751Y-10370799D01*
X7033249Y-10370799D01*
D11*
X7339214Y-10236526D02*
X7358262Y-10236526D01*
X7377309Y-10246050D01*
X7386833Y-10255574D01*
X7396357Y-10274621D01*
X7405881Y-10312717D01*
X7405881Y-10360336D01*
X7396357Y-10398431D01*
X7386833Y-10417479D01*
X7377309Y-10427002D01*
X7358262Y-10436526D01*
X7339214Y-10436526D01*
X7320167Y-10427002D01*
X7310643Y-10417479D01*
X7301119Y-10398431D01*
X7291595Y-10360336D01*
X7291595Y-10312717D01*
X7301119Y-10274621D01*
X7310643Y-10255574D01*
X7320167Y-10246050D01*
X7339214Y-10236526D01*
X7491595Y-10417479D02*
X7501119Y-10427002D01*
X7491595Y-10436526D01*
X7482071Y-10427002D01*
X7491595Y-10417479D01*
X7491595Y-10436526D01*
X7567786Y-10236526D02*
X7701119Y-10236526D01*
X7615405Y-10436526D01*
X7815405Y-10236526D02*
X7834452Y-10236526D01*
X7853500Y-10246050D01*
X7863024Y-10255574D01*
X7872548Y-10274621D01*
X7882071Y-10312717D01*
X7882071Y-10360336D01*
X7872548Y-10398431D01*
X7863024Y-10417479D01*
X7853500Y-10427002D01*
X7834452Y-10436526D01*
X7815405Y-10436526D01*
X7796357Y-10427002D01*
X7786833Y-10417479D01*
X7777309Y-10398431D01*
X7767786Y-10360336D01*
X7767786Y-10312717D01*
X7777309Y-10274621D01*
X7786833Y-10255574D01*
X7796357Y-10246050D01*
X7815405Y-10236526D01*
X8005881Y-10236526D02*
X8024928Y-10236526D01*
X8043976Y-10246050D01*
X8053500Y-10255574D01*
X8063024Y-10274621D01*
X8072548Y-10312717D01*
X8072548Y-10360336D01*
X8063024Y-10398431D01*
X8053500Y-10417479D01*
X8043976Y-10427002D01*
X8024928Y-10436526D01*
X8005881Y-10436526D01*
X7986833Y-10427002D01*
X7977309Y-10417479D01*
X7967786Y-10398431D01*
X7958262Y-10360336D01*
X7958262Y-10312717D01*
X7967786Y-10274621D01*
X7977309Y-10255574D01*
X7986833Y-10246050D01*
X8005881Y-10236526D01*
X8158262Y-10436526D02*
X8158262Y-10303193D01*
X8158262Y-10322240D02*
X8167786Y-10312717D01*
X8186833Y-10303193D01*
X8215405Y-10303193D01*
X8234452Y-10312717D01*
X8243976Y-10331764D01*
X8243976Y-10436526D01*
X8243976Y-10331764D02*
X8253500Y-10312717D01*
X8272548Y-10303193D01*
X8301119Y-10303193D01*
X8320167Y-10312717D01*
X8329690Y-10331764D01*
X8329690Y-10436526D01*
X8424929Y-10436526D02*
X8424929Y-10303193D01*
X8424929Y-10322240D02*
X8434452Y-10312717D01*
X8453500Y-10303193D01*
X8482071Y-10303193D01*
X8501119Y-10312717D01*
X8510643Y-10331764D01*
X8510643Y-10436526D01*
X8510643Y-10331764D02*
X8520167Y-10312717D01*
X8539214Y-10303193D01*
X8567786Y-10303193D01*
X8586833Y-10312717D01*
X8596357Y-10331764D01*
X8596357Y-10436526D01*
X8986833Y-10227002D02*
X8815405Y-10484145D01*
X9243976Y-10236526D02*
X9263024Y-10236526D01*
X9282071Y-10246050D01*
X9291595Y-10255574D01*
X9301119Y-10274621D01*
X9310643Y-10312717D01*
X9310643Y-10360336D01*
X9301119Y-10398431D01*
X9291595Y-10417479D01*
X9282071Y-10427002D01*
X9263024Y-10436526D01*
X9243976Y-10436526D01*
X9224929Y-10427002D01*
X9215405Y-10417479D01*
X9205881Y-10398431D01*
X9196357Y-10360336D01*
X9196357Y-10312717D01*
X9205881Y-10274621D01*
X9215405Y-10255574D01*
X9224929Y-10246050D01*
X9243976Y-10236526D01*
X9396357Y-10417479D02*
X9405881Y-10427002D01*
X9396357Y-10436526D01*
X9386833Y-10427002D01*
X9396357Y-10417479D01*
X9396357Y-10436526D01*
X9529690Y-10236526D02*
X9548738Y-10236526D01*
X9567786Y-10246050D01*
X9577310Y-10255574D01*
X9586833Y-10274621D01*
X9596357Y-10312717D01*
X9596357Y-10360336D01*
X9586833Y-10398431D01*
X9577310Y-10417479D01*
X9567786Y-10427002D01*
X9548738Y-10436526D01*
X9529690Y-10436526D01*
X9510643Y-10427002D01*
X9501119Y-10417479D01*
X9491595Y-10398431D01*
X9482071Y-10360336D01*
X9482071Y-10312717D01*
X9491595Y-10274621D01*
X9501119Y-10255574D01*
X9510643Y-10246050D01*
X9529690Y-10236526D01*
X9672548Y-10255574D02*
X9682071Y-10246050D01*
X9701119Y-10236526D01*
X9748738Y-10236526D01*
X9767786Y-10246050D01*
X9777310Y-10255574D01*
X9786833Y-10274621D01*
X9786833Y-10293669D01*
X9777310Y-10322240D01*
X9663024Y-10436526D01*
X9786833Y-10436526D01*
X9853500Y-10236526D02*
X9986833Y-10236526D01*
X9901119Y-10436526D01*
X10148738Y-10236526D02*
X10110643Y-10236526D01*
X10091595Y-10246050D01*
X10082071Y-10255574D01*
X10063024Y-10284145D01*
X10053500Y-10322240D01*
X10053500Y-10398431D01*
X10063024Y-10417479D01*
X10072548Y-10427002D01*
X10091595Y-10436526D01*
X10129690Y-10436526D01*
X10148738Y-10427002D01*
X10158262Y-10417479D01*
X10167786Y-10398431D01*
X10167786Y-10350812D01*
X10158262Y-10331764D01*
X10148738Y-10322240D01*
X10129690Y-10312717D01*
X10091595Y-10312717D01*
X10072548Y-10322240D01*
X10063024Y-10331764D01*
X10053500Y-10350812D01*
X10243976Y-10236526D02*
X10243976Y-10274621D01*
X10320167Y-10236526D02*
X10320167Y-10274621D01*
X10615405Y-10512717D02*
X10605881Y-10503193D01*
X10586833Y-10474621D01*
X10577310Y-10455574D01*
X10567786Y-10427002D01*
X10558262Y-10379383D01*
X10558262Y-10341288D01*
X10567786Y-10293669D01*
X10577310Y-10265098D01*
X10586833Y-10246050D01*
X10605881Y-10217479D01*
X10615405Y-10207955D01*
X10672548Y-10236526D02*
X10796357Y-10236526D01*
X10729690Y-10312717D01*
X10758262Y-10312717D01*
X10777310Y-10322240D01*
X10786833Y-10331764D01*
X10796357Y-10350812D01*
X10796357Y-10398431D01*
X10786833Y-10417479D01*
X10777310Y-10427002D01*
X10758262Y-10436526D01*
X10701119Y-10436526D01*
X10682071Y-10427002D01*
X10672548Y-10417479D01*
X11034452Y-10436526D02*
X11034452Y-10236526D01*
X11120167Y-10436526D02*
X11120167Y-10331764D01*
X11110643Y-10312717D01*
X11091595Y-10303193D01*
X11063024Y-10303193D01*
X11043976Y-10312717D01*
X11034452Y-10322240D01*
X11243976Y-10436526D02*
X11224928Y-10427002D01*
X11215405Y-10417479D01*
X11205881Y-10398431D01*
X11205881Y-10341288D01*
X11215405Y-10322240D01*
X11224928Y-10312717D01*
X11243976Y-10303193D01*
X11272548Y-10303193D01*
X11291595Y-10312717D01*
X11301119Y-10322240D01*
X11310643Y-10341288D01*
X11310643Y-10398431D01*
X11301119Y-10417479D01*
X11291595Y-10427002D01*
X11272548Y-10436526D01*
X11243976Y-10436526D01*
X11424928Y-10436526D02*
X11405881Y-10427002D01*
X11396357Y-10407955D01*
X11396357Y-10236526D01*
X11577309Y-10427002D02*
X11558262Y-10436526D01*
X11520167Y-10436526D01*
X11501119Y-10427002D01*
X11491595Y-10407955D01*
X11491595Y-10331764D01*
X11501119Y-10312717D01*
X11520167Y-10303193D01*
X11558262Y-10303193D01*
X11577309Y-10312717D01*
X11586833Y-10331764D01*
X11586833Y-10350812D01*
X11491595Y-10369860D01*
X11663024Y-10427002D02*
X11682071Y-10436526D01*
X11720167Y-10436526D01*
X11739214Y-10427002D01*
X11748738Y-10407955D01*
X11748738Y-10398431D01*
X11739214Y-10379383D01*
X11720167Y-10369860D01*
X11691595Y-10369860D01*
X11672548Y-10360336D01*
X11663024Y-10341288D01*
X11663024Y-10331764D01*
X11672548Y-10312717D01*
X11691595Y-10303193D01*
X11720167Y-10303193D01*
X11739214Y-10312717D01*
X11815405Y-10512717D02*
X11824928Y-10503193D01*
X11843976Y-10474621D01*
X11853500Y-10455574D01*
X11863024Y-10427002D01*
X11872548Y-10379383D01*
X11872548Y-10341288D01*
X11863024Y-10293669D01*
X11853500Y-10265098D01*
X11843976Y-10246050D01*
X11824928Y-10217479D01*
X11815405Y-10207955D01*
D15*
X6993500Y-10660050D02*
X7043500Y-10610050D01*
X6993500Y-10560050D01*
X6943500Y-10610050D01*
X6993500Y-10660050D01*
D11*
X7405881Y-10700526D02*
X7291595Y-10700526D01*
X7348738Y-10700526D02*
X7348738Y-10500526D01*
X7329690Y-10529098D01*
X7310643Y-10548145D01*
X7291595Y-10557669D01*
X7491595Y-10681479D02*
X7501119Y-10691002D01*
X7491595Y-10700526D01*
X7482071Y-10691002D01*
X7491595Y-10681479D01*
X7491595Y-10700526D01*
X7624928Y-10500526D02*
X7643976Y-10500526D01*
X7663024Y-10510050D01*
X7672548Y-10519574D01*
X7682071Y-10538621D01*
X7691595Y-10576717D01*
X7691595Y-10624336D01*
X7682071Y-10662431D01*
X7672548Y-10681479D01*
X7663024Y-10691002D01*
X7643976Y-10700526D01*
X7624928Y-10700526D01*
X7605881Y-10691002D01*
X7596357Y-10681479D01*
X7586833Y-10662431D01*
X7577309Y-10624336D01*
X7577309Y-10576717D01*
X7586833Y-10538621D01*
X7596357Y-10519574D01*
X7605881Y-10510050D01*
X7624928Y-10500526D01*
X7815405Y-10500526D02*
X7834452Y-10500526D01*
X7853500Y-10510050D01*
X7863024Y-10519574D01*
X7872548Y-10538621D01*
X7882071Y-10576717D01*
X7882071Y-10624336D01*
X7872548Y-10662431D01*
X7863024Y-10681479D01*
X7853500Y-10691002D01*
X7834452Y-10700526D01*
X7815405Y-10700526D01*
X7796357Y-10691002D01*
X7786833Y-10681479D01*
X7777309Y-10662431D01*
X7767786Y-10624336D01*
X7767786Y-10576717D01*
X7777309Y-10538621D01*
X7786833Y-10519574D01*
X7796357Y-10510050D01*
X7815405Y-10500526D01*
X8005881Y-10500526D02*
X8024928Y-10500526D01*
X8043976Y-10510050D01*
X8053500Y-10519574D01*
X8063024Y-10538621D01*
X8072548Y-10576717D01*
X8072548Y-10624336D01*
X8063024Y-10662431D01*
X8053500Y-10681479D01*
X8043976Y-10691002D01*
X8024928Y-10700526D01*
X8005881Y-10700526D01*
X7986833Y-10691002D01*
X7977309Y-10681479D01*
X7967786Y-10662431D01*
X7958262Y-10624336D01*
X7958262Y-10576717D01*
X7967786Y-10538621D01*
X7977309Y-10519574D01*
X7986833Y-10510050D01*
X8005881Y-10500526D01*
X8158262Y-10700526D02*
X8158262Y-10567193D01*
X8158262Y-10586240D02*
X8167786Y-10576717D01*
X8186833Y-10567193D01*
X8215405Y-10567193D01*
X8234452Y-10576717D01*
X8243976Y-10595764D01*
X8243976Y-10700526D01*
X8243976Y-10595764D02*
X8253500Y-10576717D01*
X8272548Y-10567193D01*
X8301119Y-10567193D01*
X8320167Y-10576717D01*
X8329690Y-10595764D01*
X8329690Y-10700526D01*
X8424929Y-10700526D02*
X8424929Y-10567193D01*
X8424929Y-10586240D02*
X8434452Y-10576717D01*
X8453500Y-10567193D01*
X8482071Y-10567193D01*
X8501119Y-10576717D01*
X8510643Y-10595764D01*
X8510643Y-10700526D01*
X8510643Y-10595764D02*
X8520167Y-10576717D01*
X8539214Y-10567193D01*
X8567786Y-10567193D01*
X8586833Y-10576717D01*
X8596357Y-10595764D01*
X8596357Y-10700526D01*
X8986833Y-10491002D02*
X8815405Y-10748145D01*
X9243976Y-10500526D02*
X9263024Y-10500526D01*
X9282071Y-10510050D01*
X9291595Y-10519574D01*
X9301119Y-10538621D01*
X9310643Y-10576717D01*
X9310643Y-10624336D01*
X9301119Y-10662431D01*
X9291595Y-10681479D01*
X9282071Y-10691002D01*
X9263024Y-10700526D01*
X9243976Y-10700526D01*
X9224929Y-10691002D01*
X9215405Y-10681479D01*
X9205881Y-10662431D01*
X9196357Y-10624336D01*
X9196357Y-10576717D01*
X9205881Y-10538621D01*
X9215405Y-10519574D01*
X9224929Y-10510050D01*
X9243976Y-10500526D01*
X9396357Y-10681479D02*
X9405881Y-10691002D01*
X9396357Y-10700526D01*
X9386833Y-10691002D01*
X9396357Y-10681479D01*
X9396357Y-10700526D01*
X9529690Y-10500526D02*
X9548738Y-10500526D01*
X9567786Y-10510050D01*
X9577310Y-10519574D01*
X9586833Y-10538621D01*
X9596357Y-10576717D01*
X9596357Y-10624336D01*
X9586833Y-10662431D01*
X9577310Y-10681479D01*
X9567786Y-10691002D01*
X9548738Y-10700526D01*
X9529690Y-10700526D01*
X9510643Y-10691002D01*
X9501119Y-10681479D01*
X9491595Y-10662431D01*
X9482071Y-10624336D01*
X9482071Y-10576717D01*
X9491595Y-10538621D01*
X9501119Y-10519574D01*
X9510643Y-10510050D01*
X9529690Y-10500526D01*
X9663024Y-10500526D02*
X9786833Y-10500526D01*
X9720167Y-10576717D01*
X9748738Y-10576717D01*
X9767786Y-10586240D01*
X9777310Y-10595764D01*
X9786833Y-10614812D01*
X9786833Y-10662431D01*
X9777310Y-10681479D01*
X9767786Y-10691002D01*
X9748738Y-10700526D01*
X9691595Y-10700526D01*
X9672548Y-10691002D01*
X9663024Y-10681479D01*
X9882071Y-10700526D02*
X9920167Y-10700526D01*
X9939214Y-10691002D01*
X9948738Y-10681479D01*
X9967786Y-10652907D01*
X9977310Y-10614812D01*
X9977310Y-10538621D01*
X9967786Y-10519574D01*
X9958262Y-10510050D01*
X9939214Y-10500526D01*
X9901119Y-10500526D01*
X9882071Y-10510050D01*
X9872548Y-10519574D01*
X9863024Y-10538621D01*
X9863024Y-10586240D01*
X9872548Y-10605288D01*
X9882071Y-10614812D01*
X9901119Y-10624336D01*
X9939214Y-10624336D01*
X9958262Y-10614812D01*
X9967786Y-10605288D01*
X9977310Y-10586240D01*
X10148738Y-10567193D02*
X10148738Y-10700526D01*
X10101119Y-10491002D02*
X10053500Y-10633860D01*
X10177310Y-10633860D01*
X10243976Y-10500526D02*
X10243976Y-10538621D01*
X10320167Y-10500526D02*
X10320167Y-10538621D01*
X10615405Y-10776717D02*
X10605881Y-10767193D01*
X10586833Y-10738621D01*
X10577310Y-10719574D01*
X10567786Y-10691002D01*
X10558262Y-10643383D01*
X10558262Y-10605288D01*
X10567786Y-10557669D01*
X10577310Y-10529098D01*
X10586833Y-10510050D01*
X10605881Y-10481479D01*
X10615405Y-10471955D01*
X10720167Y-10586240D02*
X10701119Y-10576717D01*
X10691595Y-10567193D01*
X10682071Y-10548145D01*
X10682071Y-10538621D01*
X10691595Y-10519574D01*
X10701119Y-10510050D01*
X10720167Y-10500526D01*
X10758262Y-10500526D01*
X10777310Y-10510050D01*
X10786833Y-10519574D01*
X10796357Y-10538621D01*
X10796357Y-10548145D01*
X10786833Y-10567193D01*
X10777310Y-10576717D01*
X10758262Y-10586240D01*
X10720167Y-10586240D01*
X10701119Y-10595764D01*
X10691595Y-10605288D01*
X10682071Y-10624336D01*
X10682071Y-10662431D01*
X10691595Y-10681479D01*
X10701119Y-10691002D01*
X10720167Y-10700526D01*
X10758262Y-10700526D01*
X10777310Y-10691002D01*
X10786833Y-10681479D01*
X10796357Y-10662431D01*
X10796357Y-10624336D01*
X10786833Y-10605288D01*
X10777310Y-10595764D01*
X10758262Y-10586240D01*
X11034452Y-10700526D02*
X11034452Y-10500526D01*
X11120167Y-10700526D02*
X11120167Y-10595764D01*
X11110643Y-10576717D01*
X11091595Y-10567193D01*
X11063024Y-10567193D01*
X11043976Y-10576717D01*
X11034452Y-10586240D01*
X11243976Y-10700526D02*
X11224928Y-10691002D01*
X11215405Y-10681479D01*
X11205881Y-10662431D01*
X11205881Y-10605288D01*
X11215405Y-10586240D01*
X11224928Y-10576717D01*
X11243976Y-10567193D01*
X11272548Y-10567193D01*
X11291595Y-10576717D01*
X11301119Y-10586240D01*
X11310643Y-10605288D01*
X11310643Y-10662431D01*
X11301119Y-10681479D01*
X11291595Y-10691002D01*
X11272548Y-10700526D01*
X11243976Y-10700526D01*
X11424928Y-10700526D02*
X11405881Y-10691002D01*
X11396357Y-10671955D01*
X11396357Y-10500526D01*
X11577309Y-10691002D02*
X11558262Y-10700526D01*
X11520167Y-10700526D01*
X11501119Y-10691002D01*
X11491595Y-10671955D01*
X11491595Y-10595764D01*
X11501119Y-10576717D01*
X11520167Y-10567193D01*
X11558262Y-10567193D01*
X11577309Y-10576717D01*
X11586833Y-10595764D01*
X11586833Y-10614812D01*
X11491595Y-10633860D01*
X11663024Y-10691002D02*
X11682071Y-10700526D01*
X11720167Y-10700526D01*
X11739214Y-10691002D01*
X11748738Y-10671955D01*
X11748738Y-10662431D01*
X11739214Y-10643383D01*
X11720167Y-10633860D01*
X11691595Y-10633860D01*
X11672548Y-10624336D01*
X11663024Y-10605288D01*
X11663024Y-10595764D01*
X11672548Y-10576717D01*
X11691595Y-10567193D01*
X11720167Y-10567193D01*
X11739214Y-10576717D01*
X11815405Y-10776717D02*
X11824928Y-10767193D01*
X11843976Y-10738621D01*
X11853500Y-10719574D01*
X11863024Y-10691002D01*
X11872548Y-10643383D01*
X11872548Y-10605288D01*
X11863024Y-10557669D01*
X11853500Y-10529098D01*
X11843976Y-10510050D01*
X11824928Y-10481479D01*
X11815405Y-10471955D01*
D16*
X6942500Y-10823550D02*
X7043500Y-10924550D01*
X7043500Y-10823550D02*
X6942500Y-10924550D01*
X7043500Y-10874050D02*
G75*
G03*
X7043500Y-10874050I-50500J0D01*
G01*
D11*
X7405881Y-10964526D02*
X7291595Y-10964526D01*
X7348738Y-10964526D02*
X7348738Y-10764526D01*
X7329690Y-10793098D01*
X7310643Y-10812145D01*
X7291595Y-10821669D01*
X7491595Y-10945479D02*
X7501119Y-10955002D01*
X7491595Y-10964526D01*
X7482071Y-10955002D01*
X7491595Y-10945479D01*
X7491595Y-10964526D01*
X7624928Y-10764526D02*
X7643976Y-10764526D01*
X7663024Y-10774050D01*
X7672548Y-10783574D01*
X7682071Y-10802621D01*
X7691595Y-10840717D01*
X7691595Y-10888336D01*
X7682071Y-10926431D01*
X7672548Y-10945479D01*
X7663024Y-10955002D01*
X7643976Y-10964526D01*
X7624928Y-10964526D01*
X7605881Y-10955002D01*
X7596357Y-10945479D01*
X7586833Y-10926431D01*
X7577309Y-10888336D01*
X7577309Y-10840717D01*
X7586833Y-10802621D01*
X7596357Y-10783574D01*
X7605881Y-10774050D01*
X7624928Y-10764526D01*
X7882071Y-10964526D02*
X7767786Y-10964526D01*
X7824928Y-10964526D02*
X7824928Y-10764526D01*
X7805881Y-10793098D01*
X7786833Y-10812145D01*
X7767786Y-10821669D01*
X8005881Y-10764526D02*
X8024928Y-10764526D01*
X8043976Y-10774050D01*
X8053500Y-10783574D01*
X8063024Y-10802621D01*
X8072548Y-10840717D01*
X8072548Y-10888336D01*
X8063024Y-10926431D01*
X8053500Y-10945479D01*
X8043976Y-10955002D01*
X8024928Y-10964526D01*
X8005881Y-10964526D01*
X7986833Y-10955002D01*
X7977309Y-10945479D01*
X7967786Y-10926431D01*
X7958262Y-10888336D01*
X7958262Y-10840717D01*
X7967786Y-10802621D01*
X7977309Y-10783574D01*
X7986833Y-10774050D01*
X8005881Y-10764526D01*
X8158262Y-10964526D02*
X8158262Y-10831193D01*
X8158262Y-10850240D02*
X8167786Y-10840717D01*
X8186833Y-10831193D01*
X8215405Y-10831193D01*
X8234452Y-10840717D01*
X8243976Y-10859764D01*
X8243976Y-10964526D01*
X8243976Y-10859764D02*
X8253500Y-10840717D01*
X8272548Y-10831193D01*
X8301119Y-10831193D01*
X8320167Y-10840717D01*
X8329690Y-10859764D01*
X8329690Y-10964526D01*
X8424929Y-10964526D02*
X8424929Y-10831193D01*
X8424929Y-10850240D02*
X8434452Y-10840717D01*
X8453500Y-10831193D01*
X8482071Y-10831193D01*
X8501119Y-10840717D01*
X8510643Y-10859764D01*
X8510643Y-10964526D01*
X8510643Y-10859764D02*
X8520167Y-10840717D01*
X8539214Y-10831193D01*
X8567786Y-10831193D01*
X8586833Y-10840717D01*
X8596357Y-10859764D01*
X8596357Y-10964526D01*
X8986833Y-10755002D02*
X8815405Y-11012145D01*
X9243976Y-10764526D02*
X9263024Y-10764526D01*
X9282071Y-10774050D01*
X9291595Y-10783574D01*
X9301119Y-10802621D01*
X9310643Y-10840717D01*
X9310643Y-10888336D01*
X9301119Y-10926431D01*
X9291595Y-10945479D01*
X9282071Y-10955002D01*
X9263024Y-10964526D01*
X9243976Y-10964526D01*
X9224929Y-10955002D01*
X9215405Y-10945479D01*
X9205881Y-10926431D01*
X9196357Y-10888336D01*
X9196357Y-10840717D01*
X9205881Y-10802621D01*
X9215405Y-10783574D01*
X9224929Y-10774050D01*
X9243976Y-10764526D01*
X9396357Y-10945479D02*
X9405881Y-10955002D01*
X9396357Y-10964526D01*
X9386833Y-10955002D01*
X9396357Y-10945479D01*
X9396357Y-10964526D01*
X9529690Y-10764526D02*
X9548738Y-10764526D01*
X9567786Y-10774050D01*
X9577310Y-10783574D01*
X9586833Y-10802621D01*
X9596357Y-10840717D01*
X9596357Y-10888336D01*
X9586833Y-10926431D01*
X9577310Y-10945479D01*
X9567786Y-10955002D01*
X9548738Y-10964526D01*
X9529690Y-10964526D01*
X9510643Y-10955002D01*
X9501119Y-10945479D01*
X9491595Y-10926431D01*
X9482071Y-10888336D01*
X9482071Y-10840717D01*
X9491595Y-10802621D01*
X9501119Y-10783574D01*
X9510643Y-10774050D01*
X9529690Y-10764526D01*
X9663024Y-10764526D02*
X9786833Y-10764526D01*
X9720167Y-10840717D01*
X9748738Y-10840717D01*
X9767786Y-10850240D01*
X9777310Y-10859764D01*
X9786833Y-10878812D01*
X9786833Y-10926431D01*
X9777310Y-10945479D01*
X9767786Y-10955002D01*
X9748738Y-10964526D01*
X9691595Y-10964526D01*
X9672548Y-10955002D01*
X9663024Y-10945479D01*
X9882071Y-10964526D02*
X9920167Y-10964526D01*
X9939214Y-10955002D01*
X9948738Y-10945479D01*
X9967786Y-10916907D01*
X9977310Y-10878812D01*
X9977310Y-10802621D01*
X9967786Y-10783574D01*
X9958262Y-10774050D01*
X9939214Y-10764526D01*
X9901119Y-10764526D01*
X9882071Y-10774050D01*
X9872548Y-10783574D01*
X9863024Y-10802621D01*
X9863024Y-10850240D01*
X9872548Y-10869288D01*
X9882071Y-10878812D01*
X9901119Y-10888336D01*
X9939214Y-10888336D01*
X9958262Y-10878812D01*
X9967786Y-10869288D01*
X9977310Y-10850240D01*
X10091595Y-10850240D02*
X10072548Y-10840717D01*
X10063024Y-10831193D01*
X10053500Y-10812145D01*
X10053500Y-10802621D01*
X10063024Y-10783574D01*
X10072548Y-10774050D01*
X10091595Y-10764526D01*
X10129690Y-10764526D01*
X10148738Y-10774050D01*
X10158262Y-10783574D01*
X10167786Y-10802621D01*
X10167786Y-10812145D01*
X10158262Y-10831193D01*
X10148738Y-10840717D01*
X10129690Y-10850240D01*
X10091595Y-10850240D01*
X10072548Y-10859764D01*
X10063024Y-10869288D01*
X10053500Y-10888336D01*
X10053500Y-10926431D01*
X10063024Y-10945479D01*
X10072548Y-10955002D01*
X10091595Y-10964526D01*
X10129690Y-10964526D01*
X10148738Y-10955002D01*
X10158262Y-10945479D01*
X10167786Y-10926431D01*
X10167786Y-10888336D01*
X10158262Y-10869288D01*
X10148738Y-10859764D01*
X10129690Y-10850240D01*
X10243976Y-10764526D02*
X10243976Y-10802621D01*
X10320167Y-10764526D02*
X10320167Y-10802621D01*
X10615405Y-11040717D02*
X10605881Y-11031193D01*
X10586833Y-11002621D01*
X10577310Y-10983574D01*
X10567786Y-10955002D01*
X10558262Y-10907383D01*
X10558262Y-10869288D01*
X10567786Y-10821669D01*
X10577310Y-10793098D01*
X10586833Y-10774050D01*
X10605881Y-10745479D01*
X10615405Y-10735955D01*
X10682071Y-10783574D02*
X10691595Y-10774050D01*
X10710643Y-10764526D01*
X10758262Y-10764526D01*
X10777310Y-10774050D01*
X10786833Y-10783574D01*
X10796357Y-10802621D01*
X10796357Y-10821669D01*
X10786833Y-10850240D01*
X10672548Y-10964526D01*
X10796357Y-10964526D01*
X11034452Y-10964526D02*
X11034452Y-10764526D01*
X11120167Y-10964526D02*
X11120167Y-10859764D01*
X11110643Y-10840717D01*
X11091595Y-10831193D01*
X11063024Y-10831193D01*
X11043976Y-10840717D01*
X11034452Y-10850240D01*
X11243976Y-10964526D02*
X11224928Y-10955002D01*
X11215405Y-10945479D01*
X11205881Y-10926431D01*
X11205881Y-10869288D01*
X11215405Y-10850240D01*
X11224928Y-10840717D01*
X11243976Y-10831193D01*
X11272548Y-10831193D01*
X11291595Y-10840717D01*
X11301119Y-10850240D01*
X11310643Y-10869288D01*
X11310643Y-10926431D01*
X11301119Y-10945479D01*
X11291595Y-10955002D01*
X11272548Y-10964526D01*
X11243976Y-10964526D01*
X11424928Y-10964526D02*
X11405881Y-10955002D01*
X11396357Y-10935955D01*
X11396357Y-10764526D01*
X11577309Y-10955002D02*
X11558262Y-10964526D01*
X11520167Y-10964526D01*
X11501119Y-10955002D01*
X11491595Y-10935955D01*
X11491595Y-10859764D01*
X11501119Y-10840717D01*
X11520167Y-10831193D01*
X11558262Y-10831193D01*
X11577309Y-10840717D01*
X11586833Y-10859764D01*
X11586833Y-10878812D01*
X11491595Y-10897860D01*
X11663024Y-10955002D02*
X11682071Y-10964526D01*
X11720167Y-10964526D01*
X11739214Y-10955002D01*
X11748738Y-10935955D01*
X11748738Y-10926431D01*
X11739214Y-10907383D01*
X11720167Y-10897860D01*
X11691595Y-10897860D01*
X11672548Y-10888336D01*
X11663024Y-10869288D01*
X11663024Y-10859764D01*
X11672548Y-10840717D01*
X11691595Y-10831193D01*
X11720167Y-10831193D01*
X11739214Y-10840717D01*
X11815405Y-11040717D02*
X11824928Y-11031193D01*
X11843976Y-11002621D01*
X11853500Y-10983574D01*
X11863024Y-10955002D01*
X11872548Y-10907383D01*
X11872548Y-10869288D01*
X11863024Y-10821669D01*
X11853500Y-10793098D01*
X11843976Y-10774050D01*
X11824928Y-10745479D01*
X11815405Y-10735955D01*
M02*
