%TF.GenerationSoftware,KiCad,Pcbnew,6.0.2+dfsg-1*%
%TF.CreationDate,2024-09-23T07:34:14+01:00*%
%TF.ProjectId,Circuit,43697263-7569-4742-9e6b-696361645f70,rev?*%
%TF.SameCoordinates,Original*%
%TF.FileFunction,Legend,Top*%
%TF.FilePolarity,Positive*%
%FSLAX46Y46*%
G04 Gerber Fmt 4.6, Leading zero omitted, Abs format (unit mm)*
G04 Created by KiCad (PCBNEW 6.0.2+dfsg-1) date 2024-09-23 07:34:14*
%MOMM*%
%LPD*%
G01*
G04 APERTURE LIST*
%ADD10C,0.200000*%
%ADD11C,0.150000*%
%ADD12C,0.254000*%
%ADD13C,0.120000*%
%ADD14C,0.100000*%
G04 APERTURE END LIST*
D10*
X72313523Y-56956142D02*
X72265904Y-57003761D01*
X72123047Y-57051380D01*
X72027809Y-57051380D01*
X71884952Y-57003761D01*
X71789714Y-56908523D01*
X71742095Y-56813285D01*
X71694476Y-56622809D01*
X71694476Y-56479952D01*
X71742095Y-56289476D01*
X71789714Y-56194238D01*
X71884952Y-56099000D01*
X72027809Y-56051380D01*
X72123047Y-56051380D01*
X72265904Y-56099000D01*
X72313523Y-56146619D01*
X72884952Y-57051380D02*
X72789714Y-57003761D01*
X72742095Y-56956142D01*
X72694476Y-56860904D01*
X72694476Y-56575190D01*
X72742095Y-56479952D01*
X72789714Y-56432333D01*
X72884952Y-56384714D01*
X73027809Y-56384714D01*
X73123047Y-56432333D01*
X73170666Y-56479952D01*
X73218285Y-56575190D01*
X73218285Y-56860904D01*
X73170666Y-56956142D01*
X73123047Y-57003761D01*
X73027809Y-57051380D01*
X72884952Y-57051380D01*
X74075428Y-56384714D02*
X74075428Y-57051380D01*
X73646857Y-56384714D02*
X73646857Y-56908523D01*
X73694476Y-57003761D01*
X73789714Y-57051380D01*
X73932571Y-57051380D01*
X74027809Y-57003761D01*
X74075428Y-56956142D01*
X74551619Y-56384714D02*
X74551619Y-57051380D01*
X74551619Y-56479952D02*
X74599238Y-56432333D01*
X74694476Y-56384714D01*
X74837333Y-56384714D01*
X74932571Y-56432333D01*
X74980190Y-56527571D01*
X74980190Y-57051380D01*
X75313523Y-56384714D02*
X75694476Y-56384714D01*
X75456380Y-56051380D02*
X75456380Y-56908523D01*
X75504000Y-57003761D01*
X75599238Y-57051380D01*
X75694476Y-57051380D01*
X76456380Y-57051380D02*
X76456380Y-56051380D01*
X76456380Y-57003761D02*
X76361142Y-57051380D01*
X76170666Y-57051380D01*
X76075428Y-57003761D01*
X76027809Y-56956142D01*
X75980190Y-56860904D01*
X75980190Y-56575190D01*
X76027809Y-56479952D01*
X76075428Y-56432333D01*
X76170666Y-56384714D01*
X76361142Y-56384714D01*
X76456380Y-56432333D01*
X77075428Y-57051380D02*
X76980190Y-57003761D01*
X76932571Y-56956142D01*
X76884952Y-56860904D01*
X76884952Y-56575190D01*
X76932571Y-56479952D01*
X76980190Y-56432333D01*
X77075428Y-56384714D01*
X77218285Y-56384714D01*
X77313523Y-56432333D01*
X77361142Y-56479952D01*
X77408761Y-56575190D01*
X77408761Y-56860904D01*
X77361142Y-56956142D01*
X77313523Y-57003761D01*
X77218285Y-57051380D01*
X77075428Y-57051380D01*
X77742095Y-56384714D02*
X77932571Y-57051380D01*
X78123047Y-56575190D01*
X78313523Y-57051380D01*
X78504000Y-56384714D01*
X78884952Y-56384714D02*
X78884952Y-57051380D01*
X78884952Y-56479952D02*
X78932571Y-56432333D01*
X79027809Y-56384714D01*
X79170666Y-56384714D01*
X79265904Y-56432333D01*
X79313523Y-56527571D01*
X79313523Y-57051380D01*
X80408761Y-56051380D02*
X80980190Y-56051380D01*
X80694476Y-57051380D02*
X80694476Y-56051380D01*
X81313523Y-57051380D02*
X81313523Y-56384714D01*
X81313523Y-56051380D02*
X81265904Y-56099000D01*
X81313523Y-56146619D01*
X81361142Y-56099000D01*
X81313523Y-56051380D01*
X81313523Y-56146619D01*
X81789714Y-57051380D02*
X81789714Y-56384714D01*
X81789714Y-56479952D02*
X81837333Y-56432333D01*
X81932571Y-56384714D01*
X82075428Y-56384714D01*
X82170666Y-56432333D01*
X82218285Y-56527571D01*
X82218285Y-57051380D01*
X82218285Y-56527571D02*
X82265904Y-56432333D01*
X82361142Y-56384714D01*
X82504000Y-56384714D01*
X82599238Y-56432333D01*
X82646857Y-56527571D01*
X82646857Y-57051380D01*
X83504000Y-57003761D02*
X83408761Y-57051380D01*
X83218285Y-57051380D01*
X83123047Y-57003761D01*
X83075428Y-56908523D01*
X83075428Y-56527571D01*
X83123047Y-56432333D01*
X83218285Y-56384714D01*
X83408761Y-56384714D01*
X83504000Y-56432333D01*
X83551619Y-56527571D01*
X83551619Y-56622809D01*
X83075428Y-56718047D01*
X83980190Y-57051380D02*
X83980190Y-56384714D01*
X83980190Y-56575190D02*
X84027809Y-56479952D01*
X84075428Y-56432333D01*
X84170666Y-56384714D01*
X84265904Y-56384714D01*
X72313523Y-58661380D02*
X71980190Y-58185190D01*
X71742095Y-58661380D02*
X71742095Y-57661380D01*
X72123047Y-57661380D01*
X72218285Y-57709000D01*
X72265904Y-57756619D01*
X72313523Y-57851857D01*
X72313523Y-57994714D01*
X72265904Y-58089952D01*
X72218285Y-58137571D01*
X72123047Y-58185190D01*
X71742095Y-58185190D01*
X73123047Y-58613761D02*
X73027809Y-58661380D01*
X72837333Y-58661380D01*
X72742095Y-58613761D01*
X72694476Y-58518523D01*
X72694476Y-58137571D01*
X72742095Y-58042333D01*
X72837333Y-57994714D01*
X73027809Y-57994714D01*
X73123047Y-58042333D01*
X73170666Y-58137571D01*
X73170666Y-58232809D01*
X72694476Y-58328047D01*
X73504000Y-57994714D02*
X73742095Y-58661380D01*
X73980190Y-57994714D01*
X74361142Y-58566142D02*
X74408761Y-58613761D01*
X74361142Y-58661380D01*
X74313523Y-58613761D01*
X74361142Y-58566142D01*
X74361142Y-58661380D01*
X76123047Y-58661380D02*
X75551619Y-58661380D01*
X75837333Y-58661380D02*
X75837333Y-57661380D01*
X75742095Y-57804238D01*
X75646857Y-57899476D01*
X75551619Y-57947095D01*
X113665809Y-57475380D02*
X113665809Y-56475380D01*
X113903904Y-56475380D01*
X114046761Y-56523000D01*
X114142000Y-56618238D01*
X114189619Y-56713476D01*
X114237238Y-56903952D01*
X114237238Y-57046809D01*
X114189619Y-57237285D01*
X114142000Y-57332523D01*
X114046761Y-57427761D01*
X113903904Y-57475380D01*
X113665809Y-57475380D01*
X115046761Y-57427761D02*
X114951523Y-57475380D01*
X114761047Y-57475380D01*
X114665809Y-57427761D01*
X114618190Y-57332523D01*
X114618190Y-56951571D01*
X114665809Y-56856333D01*
X114761047Y-56808714D01*
X114951523Y-56808714D01*
X115046761Y-56856333D01*
X115094380Y-56951571D01*
X115094380Y-57046809D01*
X114618190Y-57142047D01*
X115475333Y-57427761D02*
X115570571Y-57475380D01*
X115761047Y-57475380D01*
X115856285Y-57427761D01*
X115903904Y-57332523D01*
X115903904Y-57284904D01*
X115856285Y-57189666D01*
X115761047Y-57142047D01*
X115618190Y-57142047D01*
X115522952Y-57094428D01*
X115475333Y-56999190D01*
X115475333Y-56951571D01*
X115522952Y-56856333D01*
X115618190Y-56808714D01*
X115761047Y-56808714D01*
X115856285Y-56856333D01*
X116332476Y-57475380D02*
X116332476Y-56808714D01*
X116332476Y-56475380D02*
X116284857Y-56523000D01*
X116332476Y-56570619D01*
X116380095Y-56523000D01*
X116332476Y-56475380D01*
X116332476Y-56570619D01*
X117237238Y-56808714D02*
X117237238Y-57618238D01*
X117189619Y-57713476D01*
X117142000Y-57761095D01*
X117046761Y-57808714D01*
X116903904Y-57808714D01*
X116808666Y-57761095D01*
X117237238Y-57427761D02*
X117142000Y-57475380D01*
X116951523Y-57475380D01*
X116856285Y-57427761D01*
X116808666Y-57380142D01*
X116761047Y-57284904D01*
X116761047Y-56999190D01*
X116808666Y-56903952D01*
X116856285Y-56856333D01*
X116951523Y-56808714D01*
X117142000Y-56808714D01*
X117237238Y-56856333D01*
X117713428Y-56808714D02*
X117713428Y-57475380D01*
X117713428Y-56903952D02*
X117761047Y-56856333D01*
X117856285Y-56808714D01*
X117999142Y-56808714D01*
X118094380Y-56856333D01*
X118142000Y-56951571D01*
X118142000Y-57475380D01*
X118999142Y-57427761D02*
X118903904Y-57475380D01*
X118713428Y-57475380D01*
X118618190Y-57427761D01*
X118570571Y-57332523D01*
X118570571Y-56951571D01*
X118618190Y-56856333D01*
X118713428Y-56808714D01*
X118903904Y-56808714D01*
X118999142Y-56856333D01*
X119046761Y-56951571D01*
X119046761Y-57046809D01*
X118570571Y-57142047D01*
X119903904Y-57475380D02*
X119903904Y-56475380D01*
X119903904Y-57427761D02*
X119808666Y-57475380D01*
X119618190Y-57475380D01*
X119522952Y-57427761D01*
X119475333Y-57380142D01*
X119427714Y-57284904D01*
X119427714Y-56999190D01*
X119475333Y-56903952D01*
X119522952Y-56856333D01*
X119618190Y-56808714D01*
X119808666Y-56808714D01*
X119903904Y-56856333D01*
X121142000Y-57475380D02*
X121142000Y-56475380D01*
X121142000Y-56856333D02*
X121237238Y-56808714D01*
X121427714Y-56808714D01*
X121522952Y-56856333D01*
X121570571Y-56903952D01*
X121618190Y-56999190D01*
X121618190Y-57284904D01*
X121570571Y-57380142D01*
X121522952Y-57427761D01*
X121427714Y-57475380D01*
X121237238Y-57475380D01*
X121142000Y-57427761D01*
X121951523Y-56808714D02*
X122189619Y-57475380D01*
X122427714Y-56808714D02*
X122189619Y-57475380D01*
X122094380Y-57713476D01*
X122046761Y-57761095D01*
X121951523Y-57808714D01*
X123903904Y-56951571D02*
X124046761Y-56999190D01*
X124094380Y-57046809D01*
X124142000Y-57142047D01*
X124142000Y-57284904D01*
X124094380Y-57380142D01*
X124046761Y-57427761D01*
X123951523Y-57475380D01*
X123570571Y-57475380D01*
X123570571Y-56475380D01*
X123903904Y-56475380D01*
X123999142Y-56523000D01*
X124046761Y-56570619D01*
X124094380Y-56665857D01*
X124094380Y-56761095D01*
X124046761Y-56856333D01*
X123999142Y-56903952D01*
X123903904Y-56951571D01*
X123570571Y-56951571D01*
X124713428Y-57475380D02*
X124618190Y-57427761D01*
X124570571Y-57332523D01*
X124570571Y-56475380D01*
X125522952Y-57475380D02*
X125522952Y-56951571D01*
X125475333Y-56856333D01*
X125380095Y-56808714D01*
X125189619Y-56808714D01*
X125094380Y-56856333D01*
X125522952Y-57427761D02*
X125427714Y-57475380D01*
X125189619Y-57475380D01*
X125094380Y-57427761D01*
X125046761Y-57332523D01*
X125046761Y-57237285D01*
X125094380Y-57142047D01*
X125189619Y-57094428D01*
X125427714Y-57094428D01*
X125522952Y-57046809D01*
X125999142Y-57475380D02*
X125999142Y-56808714D01*
X125999142Y-56475380D02*
X125951523Y-56523000D01*
X125999142Y-56570619D01*
X126046761Y-56523000D01*
X125999142Y-56475380D01*
X125999142Y-56570619D01*
X126475333Y-57475380D02*
X126475333Y-56808714D01*
X126475333Y-56999190D02*
X126522952Y-56903952D01*
X126570571Y-56856333D01*
X126665809Y-56808714D01*
X126761047Y-56808714D01*
D11*
%TO.C,R2*%
X76033333Y-79827380D02*
X75700000Y-79351190D01*
X75461904Y-79827380D02*
X75461904Y-78827380D01*
X75842857Y-78827380D01*
X75938095Y-78875000D01*
X75985714Y-78922619D01*
X76033333Y-79017857D01*
X76033333Y-79160714D01*
X75985714Y-79255952D01*
X75938095Y-79303571D01*
X75842857Y-79351190D01*
X75461904Y-79351190D01*
X76414285Y-78922619D02*
X76461904Y-78875000D01*
X76557142Y-78827380D01*
X76795238Y-78827380D01*
X76890476Y-78875000D01*
X76938095Y-78922619D01*
X76985714Y-79017857D01*
X76985714Y-79113095D01*
X76938095Y-79255952D01*
X76366666Y-79827380D01*
X76985714Y-79827380D01*
%TO.C,P1*%
X71561904Y-65252380D02*
X71561904Y-64252380D01*
X71942857Y-64252380D01*
X72038095Y-64300000D01*
X72085714Y-64347619D01*
X72133333Y-64442857D01*
X72133333Y-64585714D01*
X72085714Y-64680952D01*
X72038095Y-64728571D01*
X71942857Y-64776190D01*
X71561904Y-64776190D01*
X73085714Y-65252380D02*
X72514285Y-65252380D01*
X72800000Y-65252380D02*
X72800000Y-64252380D01*
X72704761Y-64395238D01*
X72609523Y-64490476D01*
X72514285Y-64538095D01*
D12*
%TO.C,B1*%
X108324952Y-62266285D02*
X108506380Y-62326761D01*
X108566857Y-62387238D01*
X108627333Y-62508190D01*
X108627333Y-62689619D01*
X108566857Y-62810571D01*
X108506380Y-62871047D01*
X108385428Y-62931523D01*
X107901619Y-62931523D01*
X107901619Y-61661523D01*
X108324952Y-61661523D01*
X108445904Y-61722000D01*
X108506380Y-61782476D01*
X108566857Y-61903428D01*
X108566857Y-62024380D01*
X108506380Y-62145333D01*
X108445904Y-62205809D01*
X108324952Y-62266285D01*
X107901619Y-62266285D01*
X109836857Y-62931523D02*
X109111142Y-62931523D01*
X109474000Y-62931523D02*
X109474000Y-61661523D01*
X109353047Y-61842952D01*
X109232095Y-61963904D01*
X109111142Y-62024380D01*
D11*
%TO.C,U2*%
X82804095Y-58126380D02*
X82804095Y-58935904D01*
X82851714Y-59031142D01*
X82899333Y-59078761D01*
X82994571Y-59126380D01*
X83185047Y-59126380D01*
X83280285Y-59078761D01*
X83327904Y-59031142D01*
X83375523Y-58935904D01*
X83375523Y-58126380D01*
X83804095Y-58221619D02*
X83851714Y-58174000D01*
X83946952Y-58126380D01*
X84185047Y-58126380D01*
X84280285Y-58174000D01*
X84327904Y-58221619D01*
X84375523Y-58316857D01*
X84375523Y-58412095D01*
X84327904Y-58554952D01*
X83756476Y-59126380D01*
X84375523Y-59126380D01*
%TO.C,C7*%
X94509333Y-60555142D02*
X94461714Y-60602761D01*
X94318857Y-60650380D01*
X94223619Y-60650380D01*
X94080761Y-60602761D01*
X93985523Y-60507523D01*
X93937904Y-60412285D01*
X93890285Y-60221809D01*
X93890285Y-60078952D01*
X93937904Y-59888476D01*
X93985523Y-59793238D01*
X94080761Y-59698000D01*
X94223619Y-59650380D01*
X94318857Y-59650380D01*
X94461714Y-59698000D01*
X94509333Y-59745619D01*
X94842666Y-59650380D02*
X95509333Y-59650380D01*
X95080761Y-60650380D01*
%TO.C,R1*%
X76033333Y-63190380D02*
X75700000Y-62714190D01*
X75461904Y-63190380D02*
X75461904Y-62190380D01*
X75842857Y-62190380D01*
X75938095Y-62238000D01*
X75985714Y-62285619D01*
X76033333Y-62380857D01*
X76033333Y-62523714D01*
X75985714Y-62618952D01*
X75938095Y-62666571D01*
X75842857Y-62714190D01*
X75461904Y-62714190D01*
X76985714Y-63190380D02*
X76414285Y-63190380D01*
X76700000Y-63190380D02*
X76700000Y-62190380D01*
X76604761Y-62333238D01*
X76509523Y-62428476D01*
X76414285Y-62476095D01*
%TO.C,U1*%
X99187095Y-66127380D02*
X99187095Y-66936904D01*
X99234714Y-67032142D01*
X99282333Y-67079761D01*
X99377571Y-67127380D01*
X99568047Y-67127380D01*
X99663285Y-67079761D01*
X99710904Y-67032142D01*
X99758523Y-66936904D01*
X99758523Y-66127380D01*
X100758523Y-67127380D02*
X100187095Y-67127380D01*
X100472809Y-67127380D02*
X100472809Y-66127380D01*
X100377571Y-66270238D01*
X100282333Y-66365476D01*
X100187095Y-66413095D01*
%TO.C,C1*%
X92416333Y-79605142D02*
X92368714Y-79652761D01*
X92225857Y-79700380D01*
X92130619Y-79700380D01*
X91987761Y-79652761D01*
X91892523Y-79557523D01*
X91844904Y-79462285D01*
X91797285Y-79271809D01*
X91797285Y-79128952D01*
X91844904Y-78938476D01*
X91892523Y-78843238D01*
X91987761Y-78748000D01*
X92130619Y-78700380D01*
X92225857Y-78700380D01*
X92368714Y-78748000D01*
X92416333Y-78795619D01*
X93368714Y-79700380D02*
X92797285Y-79700380D01*
X93083000Y-79700380D02*
X93083000Y-78700380D01*
X92987761Y-78843238D01*
X92892523Y-78938476D01*
X92797285Y-78986095D01*
%TO.C,R3*%
X91273333Y-82113380D02*
X90940000Y-81637190D01*
X90701904Y-82113380D02*
X90701904Y-81113380D01*
X91082857Y-81113380D01*
X91178095Y-81161000D01*
X91225714Y-81208619D01*
X91273333Y-81303857D01*
X91273333Y-81446714D01*
X91225714Y-81541952D01*
X91178095Y-81589571D01*
X91082857Y-81637190D01*
X90701904Y-81637190D01*
X91606666Y-81113380D02*
X92225714Y-81113380D01*
X91892380Y-81494333D01*
X92035238Y-81494333D01*
X92130476Y-81541952D01*
X92178095Y-81589571D01*
X92225714Y-81684809D01*
X92225714Y-81922904D01*
X92178095Y-82018142D01*
X92130476Y-82065761D01*
X92035238Y-82113380D01*
X91749523Y-82113380D01*
X91654285Y-82065761D01*
X91606666Y-82018142D01*
%TO.C,X1*%
X100087476Y-56094380D02*
X100754142Y-57094380D01*
X100754142Y-56094380D02*
X100087476Y-57094380D01*
X101658904Y-57094380D02*
X101087476Y-57094380D01*
X101373190Y-57094380D02*
X101373190Y-56094380D01*
X101277952Y-56237238D01*
X101182714Y-56332476D01*
X101087476Y-56380095D01*
%TO.C,C5*%
X91400333Y-57253142D02*
X91352714Y-57300761D01*
X91209857Y-57348380D01*
X91114619Y-57348380D01*
X90971761Y-57300761D01*
X90876523Y-57205523D01*
X90828904Y-57110285D01*
X90781285Y-56919809D01*
X90781285Y-56776952D01*
X90828904Y-56586476D01*
X90876523Y-56491238D01*
X90971761Y-56396000D01*
X91114619Y-56348380D01*
X91209857Y-56348380D01*
X91352714Y-56396000D01*
X91400333Y-56443619D01*
X92305095Y-56348380D02*
X91828904Y-56348380D01*
X91781285Y-56824571D01*
X91828904Y-56776952D01*
X91924142Y-56729333D01*
X92162238Y-56729333D01*
X92257476Y-56776952D01*
X92305095Y-56824571D01*
X92352714Y-56919809D01*
X92352714Y-57157904D01*
X92305095Y-57253142D01*
X92257476Y-57300761D01*
X92162238Y-57348380D01*
X91924142Y-57348380D01*
X91828904Y-57300761D01*
X91781285Y-57253142D01*
%TO.C,C3*%
X105175333Y-57380142D02*
X105127714Y-57427761D01*
X104984857Y-57475380D01*
X104889619Y-57475380D01*
X104746761Y-57427761D01*
X104651523Y-57332523D01*
X104603904Y-57237285D01*
X104556285Y-57046809D01*
X104556285Y-56903952D01*
X104603904Y-56713476D01*
X104651523Y-56618238D01*
X104746761Y-56523000D01*
X104889619Y-56475380D01*
X104984857Y-56475380D01*
X105127714Y-56523000D01*
X105175333Y-56570619D01*
X105508666Y-56475380D02*
X106127714Y-56475380D01*
X105794380Y-56856333D01*
X105937238Y-56856333D01*
X106032476Y-56903952D01*
X106080095Y-56951571D01*
X106127714Y-57046809D01*
X106127714Y-57284904D01*
X106080095Y-57380142D01*
X106032476Y-57427761D01*
X105937238Y-57475380D01*
X105651523Y-57475380D01*
X105556285Y-57427761D01*
X105508666Y-57380142D01*
%TO.C,C2*%
X96226333Y-79605142D02*
X96178714Y-79652761D01*
X96035857Y-79700380D01*
X95940619Y-79700380D01*
X95797761Y-79652761D01*
X95702523Y-79557523D01*
X95654904Y-79462285D01*
X95607285Y-79271809D01*
X95607285Y-79128952D01*
X95654904Y-78938476D01*
X95702523Y-78843238D01*
X95797761Y-78748000D01*
X95940619Y-78700380D01*
X96035857Y-78700380D01*
X96178714Y-78748000D01*
X96226333Y-78795619D01*
X96607285Y-78795619D02*
X96654904Y-78748000D01*
X96750142Y-78700380D01*
X96988238Y-78700380D01*
X97083476Y-78748000D01*
X97131095Y-78795619D01*
X97178714Y-78890857D01*
X97178714Y-78986095D01*
X97131095Y-79128952D01*
X96559666Y-79700380D01*
X97178714Y-79700380D01*
%TO.C,C4*%
X89368333Y-57253142D02*
X89320714Y-57300761D01*
X89177857Y-57348380D01*
X89082619Y-57348380D01*
X88939761Y-57300761D01*
X88844523Y-57205523D01*
X88796904Y-57110285D01*
X88749285Y-56919809D01*
X88749285Y-56776952D01*
X88796904Y-56586476D01*
X88844523Y-56491238D01*
X88939761Y-56396000D01*
X89082619Y-56348380D01*
X89177857Y-56348380D01*
X89320714Y-56396000D01*
X89368333Y-56443619D01*
X90225476Y-56681714D02*
X90225476Y-57348380D01*
X89987380Y-56300761D02*
X89749285Y-57015047D01*
X90368333Y-57015047D01*
D12*
%TO.C,J2*%
X75649666Y-82616523D02*
X75649666Y-83523666D01*
X75589190Y-83705095D01*
X75468238Y-83826047D01*
X75286809Y-83886523D01*
X75165857Y-83886523D01*
X76193952Y-82737476D02*
X76254428Y-82677000D01*
X76375380Y-82616523D01*
X76677761Y-82616523D01*
X76798714Y-82677000D01*
X76859190Y-82737476D01*
X76919666Y-82858428D01*
X76919666Y-82979380D01*
X76859190Y-83160809D01*
X76133476Y-83886523D01*
X76919666Y-83886523D01*
D11*
%TO.C,Y1*%
X87026809Y-62460190D02*
X87026809Y-62936380D01*
X86693476Y-61936380D02*
X87026809Y-62460190D01*
X87360142Y-61936380D01*
X88217285Y-62936380D02*
X87645857Y-62936380D01*
X87931571Y-62936380D02*
X87931571Y-61936380D01*
X87836333Y-62079238D01*
X87741095Y-62174476D01*
X87645857Y-62222095D01*
%TO.C,C6*%
X94509333Y-59158142D02*
X94461714Y-59205761D01*
X94318857Y-59253380D01*
X94223619Y-59253380D01*
X94080761Y-59205761D01*
X93985523Y-59110523D01*
X93937904Y-59015285D01*
X93890285Y-58824809D01*
X93890285Y-58681952D01*
X93937904Y-58491476D01*
X93985523Y-58396238D01*
X94080761Y-58301000D01*
X94223619Y-58253380D01*
X94318857Y-58253380D01*
X94461714Y-58301000D01*
X94509333Y-58348619D01*
X95366476Y-58253380D02*
X95176000Y-58253380D01*
X95080761Y-58301000D01*
X95033142Y-58348619D01*
X94937904Y-58491476D01*
X94890285Y-58681952D01*
X94890285Y-59062904D01*
X94937904Y-59158142D01*
X94985523Y-59205761D01*
X95080761Y-59253380D01*
X95271238Y-59253380D01*
X95366476Y-59205761D01*
X95414095Y-59158142D01*
X95461714Y-59062904D01*
X95461714Y-58824809D01*
X95414095Y-58729571D01*
X95366476Y-58681952D01*
X95271238Y-58634333D01*
X95080761Y-58634333D01*
X94985523Y-58681952D01*
X94937904Y-58729571D01*
X94890285Y-58824809D01*
D13*
%TO.C,R2*%
X75972936Y-76735000D02*
X76427064Y-76735000D01*
X75972936Y-78205000D02*
X76427064Y-78205000D01*
%TO.C,P1*%
X70415000Y-75715000D02*
X67685000Y-75715000D01*
X77095000Y-66645000D02*
X77095000Y-75595000D01*
X67685000Y-66525000D02*
X67685000Y-75715000D01*
X74015000Y-75715000D02*
X73115000Y-75715000D01*
X74015000Y-66525000D02*
X73115000Y-66525000D01*
X70415000Y-66525000D02*
X67685000Y-66525000D01*
D14*
%TO.C,B1*%
X113919000Y-81320000D02*
X113919000Y-81320000D01*
D10*
X121119000Y-65620000D02*
X119919000Y-66620000D01*
X110919000Y-63375000D02*
X111919000Y-63375000D01*
X106719000Y-63620000D02*
X110419000Y-63620000D01*
X117419000Y-63620000D02*
X121119000Y-63620000D01*
X116919000Y-63375000D02*
X117419000Y-63620000D01*
X110419000Y-63620000D02*
X110919000Y-63375000D01*
X106719000Y-65620000D02*
X106719000Y-63620000D01*
D14*
X113919000Y-81420000D02*
X113919000Y-81420000D01*
D10*
X115919000Y-63375000D02*
X116919000Y-63375000D01*
X121119000Y-63620000D02*
X121119000Y-65620000D01*
X107919000Y-66620000D02*
X106719000Y-65620000D01*
D14*
X113919000Y-81320000D02*
G75*
G03*
X113919000Y-81420000I0J-50000D01*
G01*
X113919000Y-81420000D02*
G75*
G03*
X113919000Y-81320000I0J50000D01*
G01*
D13*
%TO.C,U2*%
X80115000Y-66165000D02*
X80115000Y-67665000D01*
X87015000Y-66165000D02*
X87015000Y-67665000D01*
X80385000Y-67665000D02*
X80385000Y-70495000D01*
X87015000Y-67665000D02*
X86745000Y-67665000D01*
X86745000Y-67665000D02*
X86745000Y-68765000D01*
X80115000Y-67665000D02*
X80385000Y-67665000D01*
%TO.C,C7*%
X94414748Y-65505000D02*
X94937252Y-65505000D01*
X94414748Y-64035000D02*
X94937252Y-64035000D01*
%TO.C,R1*%
X76427064Y-65505000D02*
X75972936Y-65505000D01*
X76427064Y-64035000D02*
X75972936Y-64035000D01*
%TO.C,U1*%
X91640000Y-74280000D02*
X91640000Y-74730000D01*
X91640000Y-67510000D02*
X92090000Y-67510000D01*
X98860000Y-67960000D02*
X98860000Y-67510000D01*
X98860000Y-67510000D02*
X98410000Y-67510000D01*
X98860000Y-74280000D02*
X98860000Y-74730000D01*
X92090000Y-74730000D02*
X92090000Y-76020000D01*
X98860000Y-74730000D02*
X98410000Y-74730000D01*
X91640000Y-67960000D02*
X91640000Y-67510000D01*
X91640000Y-74730000D02*
X92090000Y-74730000D01*
%TO.C,C1*%
X92971252Y-76735000D02*
X92448748Y-76735000D01*
X92971252Y-78205000D02*
X92448748Y-78205000D01*
%TO.C,R3*%
X90270000Y-81052936D02*
X90270000Y-81507064D01*
X88800000Y-81052936D02*
X88800000Y-81507064D01*
%TO.C,X1*%
X104197000Y-64854000D02*
X103597000Y-64854000D01*
X103597000Y-64914000D02*
X98197000Y-64914000D01*
X98197000Y-57574000D02*
X98197000Y-57514000D01*
X98197000Y-62654000D02*
X98197000Y-59774000D01*
X98197000Y-57514000D02*
X103597000Y-57514000D01*
X103597000Y-62654000D02*
X104197000Y-62654000D01*
X103597000Y-57514000D02*
X103597000Y-57574000D01*
X103597000Y-59774000D02*
X103597000Y-62654000D01*
X103597000Y-64854000D02*
X103597000Y-64914000D01*
X98197000Y-64914000D02*
X98197000Y-64854000D01*
%TO.C,C5*%
X92302000Y-59697252D02*
X92302000Y-59174748D01*
X90832000Y-59697252D02*
X90832000Y-59174748D01*
%TO.C,C3*%
X106077000Y-59951252D02*
X106077000Y-59428748D01*
X104607000Y-59951252D02*
X104607000Y-59428748D01*
%TO.C,C2*%
X96258748Y-76735000D02*
X96781252Y-76735000D01*
X96258748Y-78205000D02*
X96781252Y-78205000D01*
%TO.C,C4*%
X88800000Y-59697252D02*
X88800000Y-59174748D01*
X90270000Y-59697252D02*
X90270000Y-59174748D01*
D14*
%TO.C,J2*%
X78486000Y-85027000D02*
X78486000Y-81597000D01*
X87376000Y-81597000D02*
X87376000Y-85027000D01*
D10*
X79146000Y-87097000D02*
G75*
G03*
X79146000Y-87097000I-50000J0D01*
G01*
D13*
%TO.C,Y1*%
X91226000Y-63232000D02*
X89876000Y-63232000D01*
X91226000Y-61482000D02*
X89876000Y-61482000D01*
%TO.C,C6*%
X94414748Y-63346000D02*
X94937252Y-63346000D01*
X94414748Y-61876000D02*
X94937252Y-61876000D01*
%TD*%
M02*
