%TF.GenerationSoftware,KiCad,Pcbnew,6.0.2+dfsg-1*%
%TF.CreationDate,2024-09-23T07:34:14+01:00*%
%TF.ProjectId,Circuit,43697263-7569-4742-9e6b-696361645f70,rev?*%
%TF.SameCoordinates,Original*%
%TF.FileFunction,Copper,L2,Bot*%
%TF.FilePolarity,Positive*%
%FSLAX46Y46*%
G04 Gerber Fmt 4.6, Leading zero omitted, Abs format (unit mm)*
G04 Created by KiCad (PCBNEW 6.0.2+dfsg-1) date 2024-09-23 07:34:14*
%MOMM*%
%LPD*%
G01*
G04 APERTURE LIST*
%TA.AperFunction,ComponentPad*%
%ADD10C,0.700000*%
%TD*%
%TA.AperFunction,ComponentPad*%
%ADD11O,2.400000X0.900000*%
%TD*%
%TA.AperFunction,ComponentPad*%
%ADD12O,1.700000X0.900000*%
%TD*%
%TA.AperFunction,ComponentPad*%
%ADD13C,2.010000*%
%TD*%
%TA.AperFunction,ComponentPad*%
%ADD14R,1.700000X1.700000*%
%TD*%
%TA.AperFunction,ComponentPad*%
%ADD15O,1.700000X1.700000*%
%TD*%
%TA.AperFunction,ViaPad*%
%ADD16C,0.800000*%
%TD*%
%TA.AperFunction,ViaPad*%
%ADD17C,1.400000*%
%TD*%
%TA.AperFunction,Conductor*%
%ADD18C,0.400000*%
%TD*%
%TA.AperFunction,Conductor*%
%ADD19C,0.250000*%
%TD*%
G04 APERTURE END LIST*
D10*
%TO.P,P1,A1,GND*%
%TO.N,LCD_GND*%
X76415000Y-68145000D03*
%TO.P,P1,A4,VBUS*%
%TO.N,+5V*%
X76415000Y-68995000D03*
%TO.P,P1,A5,CC1*%
%TO.N,Net-(P1-PadA5)*%
X76415000Y-69845000D03*
%TO.P,P1,A6,D+*%
%TO.N,Net-(P1-PadA6)*%
X76415000Y-70695000D03*
%TO.P,P1,A7,D-*%
%TO.N,Net-(P1-PadA7)*%
X76415000Y-71545000D03*
%TO.P,P1,A8,SBU1*%
%TO.N,unconnected-(P1-PadA8)*%
X76415000Y-72395000D03*
%TO.P,P1,A9,VBUS*%
%TO.N,+5V*%
X76415000Y-73245000D03*
%TO.P,P1,A12,GND*%
%TO.N,LCD_GND*%
X76415000Y-74095000D03*
%TO.P,P1,B1,GND*%
X75065000Y-74095000D03*
%TO.P,P1,B4,VBUS*%
%TO.N,+5V*%
X75065000Y-73245000D03*
%TO.P,P1,B5,CC2*%
%TO.N,Net-(P1-PadB5)*%
X75065000Y-72395000D03*
%TO.P,P1,B6,D+*%
%TO.N,Net-(P1-PadA6)*%
X75065000Y-71545000D03*
%TO.P,P1,B7,D-*%
%TO.N,Net-(P1-PadA7)*%
X75065000Y-70695000D03*
%TO.P,P1,B8,SBU2*%
%TO.N,unconnected-(P1-PadB8)*%
X75065000Y-69845000D03*
%TO.P,P1,B9,VBUS*%
%TO.N,+5V*%
X75065000Y-68995000D03*
%TO.P,P1,B12,GND*%
%TO.N,LCD_GND*%
X75065000Y-68145000D03*
D11*
%TO.P,P1,S1,SHIELD*%
X75435000Y-66795000D03*
X75435000Y-75445000D03*
D12*
X72055000Y-75445000D03*
X72055000Y-66795000D03*
%TD*%
D13*
%TO.P,F1,1*%
%TO.N,/3V3 UNFUSED*%
X82077000Y-73142000D03*
%TO.P,F1,2*%
%TO.N,LCD_VCC*%
X83277000Y-78242000D03*
%TD*%
D14*
%TO.P,J1,1,Pin_1*%
%TO.N,LCD_VCC*%
X124587000Y-64135000D03*
D15*
%TO.P,J1,2,Pin_2*%
%TO.N,LCD_GND*%
X124587000Y-66675000D03*
%TO.P,J1,3,Pin_3*%
%TO.N,SPI_CS*%
X124587000Y-69215000D03*
%TO.P,J1,4,Pin_4*%
%TO.N,LCD_RST*%
X124587000Y-71755000D03*
%TO.P,J1,5,Pin_5*%
%TO.N,SPI_DC*%
X124587000Y-74295000D03*
%TO.P,J1,6,Pin_6*%
%TO.N,SPI_MOSI*%
X124587000Y-76835000D03*
%TO.P,J1,7,Pin_7*%
%TO.N,SPI_SCK*%
X124587000Y-79375000D03*
%TO.P,J1,8,Pin_8*%
%TO.N,LCD_LED*%
X124587000Y-81915000D03*
%TD*%
D16*
%TO.N,+1V5*%
X109220000Y-79045000D03*
X90894511Y-75654511D03*
D17*
%TO.N,LCD_GND*%
X88900000Y-76200000D03*
D16*
X81661000Y-83312000D03*
X78740000Y-71120000D03*
X78740000Y-74930000D03*
D17*
X98970569Y-77559431D03*
D16*
X91000000Y-80400000D03*
%TO.N,LCD_VCC*%
X117475000Y-73025000D03*
X94869000Y-61214000D03*
D17*
X94869000Y-69850000D03*
D16*
%TO.N,OSC 32 A*%
X92583000Y-64643000D03*
X93001948Y-73545554D03*
%TO.N,OSC 32 B*%
X93726578Y-72593957D03*
X92710000Y-61087000D03*
%TO.N,SPI_DC*%
X113030000Y-70395500D03*
%TO.N,NRST*%
X100330000Y-78105000D03*
X87630000Y-79375000D03*
%TO.N,OSC 48M A*%
X95999446Y-73545554D03*
X98806000Y-60579000D03*
%TD*%
D18*
%TO.N,LCD_VCC*%
X94869000Y-61214000D02*
X94869000Y-69596000D01*
X94869000Y-69596000D02*
X94742000Y-69723000D01*
D19*
%TO.N,+1V5*%
X109220000Y-79045000D02*
X106985000Y-79045000D01*
X103594511Y-75654511D02*
X90894511Y-75654511D01*
X106985000Y-79045000D02*
X103594511Y-75654511D01*
D18*
%TO.N,+5V*%
X74829511Y-73245000D02*
X75065000Y-73245000D01*
X74315489Y-69249537D02*
X74315489Y-72730978D01*
X74315489Y-72730978D02*
X74829511Y-73245000D01*
X74570026Y-68995000D02*
X74315489Y-69249537D01*
X75065000Y-68995000D02*
X74570026Y-68995000D01*
D19*
%TO.N,Net-(P1-PadA7)*%
X75461096Y-70695000D02*
X76311096Y-71545000D01*
X75065000Y-70695000D02*
X75461096Y-70695000D01*
X76311096Y-71545000D02*
X76415000Y-71545000D01*
D18*
%TO.N,LCD_VCC*%
X117475000Y-73025000D02*
X117475000Y-71120000D01*
X117475000Y-71120000D02*
X124460000Y-64135000D01*
D19*
%TO.N,OSC 32 A*%
X93001948Y-65061948D02*
X92583000Y-64643000D01*
X93001948Y-73545554D02*
X93001948Y-65061948D01*
%TO.N,OSC 32 B*%
X93726578Y-64832674D02*
X93726578Y-72593957D01*
X92710000Y-63816096D02*
X93726578Y-64832674D01*
X92710000Y-61087000D02*
X92710000Y-63816096D01*
%TO.N,SPI_DC*%
X113030000Y-70395500D02*
X116929500Y-74295000D01*
X116929500Y-74295000D02*
X124460000Y-74295000D01*
%TO.N,NRST*%
X99060000Y-79375000D02*
X87630000Y-79375000D01*
X100330000Y-78105000D02*
X99060000Y-79375000D01*
%TO.N,OSC 48M A*%
X98806000Y-60579000D02*
X95999446Y-63385554D01*
X95999446Y-63385554D02*
X95999446Y-73545554D01*
%TD*%
%TA.AperFunction,Conductor*%
%TO.N,LCD_GND*%
G36*
X127494378Y-55455502D02*
G01*
X127506191Y-55464101D01*
X127586517Y-55530023D01*
X127603979Y-55547485D01*
X127712601Y-55679842D01*
X127726319Y-55700372D01*
X127747122Y-55739292D01*
X127762000Y-55798688D01*
X127762000Y-88346312D01*
X127747123Y-88405706D01*
X127726320Y-88444626D01*
X127712597Y-88465163D01*
X127654106Y-88536434D01*
X127595429Y-88576403D01*
X127556707Y-88582500D01*
X71119000Y-88582500D01*
X71050879Y-88562498D01*
X71004386Y-88508842D01*
X70993000Y-88456500D01*
X70993000Y-83304855D01*
X78732597Y-83304855D01*
X78750700Y-83503771D01*
X78752438Y-83509677D01*
X78752439Y-83509681D01*
X78794745Y-83653424D01*
X78807094Y-83695383D01*
X78899632Y-83872392D01*
X79024789Y-84028055D01*
X79177797Y-84156444D01*
X79183189Y-84159408D01*
X79183193Y-84159411D01*
X79329465Y-84239825D01*
X79352829Y-84252669D01*
X79358696Y-84254530D01*
X79358698Y-84254531D01*
X79375898Y-84259987D01*
X79543217Y-84313064D01*
X79698667Y-84330500D01*
X79806260Y-84330500D01*
X79954785Y-84315937D01*
X80145998Y-84258206D01*
X80234177Y-84211320D01*
X80316914Y-84167329D01*
X80316917Y-84167327D01*
X80322356Y-84164435D01*
X80327126Y-84160544D01*
X80327130Y-84160542D01*
X80472367Y-84042090D01*
X80472370Y-84042087D01*
X80477142Y-84038195D01*
X80489506Y-84023250D01*
X80600531Y-83889044D01*
X80600533Y-83889040D01*
X80604460Y-83884294D01*
X80699461Y-83708594D01*
X80758525Y-83517789D01*
X80779403Y-83319145D01*
X80778102Y-83304855D01*
X85082597Y-83304855D01*
X85100700Y-83503771D01*
X85102438Y-83509677D01*
X85102439Y-83509681D01*
X85144745Y-83653424D01*
X85157094Y-83695383D01*
X85249632Y-83872392D01*
X85374789Y-84028055D01*
X85527797Y-84156444D01*
X85533189Y-84159408D01*
X85533193Y-84159411D01*
X85679465Y-84239825D01*
X85702829Y-84252669D01*
X85708696Y-84254530D01*
X85708698Y-84254531D01*
X85725898Y-84259987D01*
X85893217Y-84313064D01*
X86048667Y-84330500D01*
X86156260Y-84330500D01*
X86304785Y-84315937D01*
X86495998Y-84258206D01*
X86584177Y-84211320D01*
X86666914Y-84167329D01*
X86666917Y-84167327D01*
X86672356Y-84164435D01*
X86677126Y-84160544D01*
X86677130Y-84160542D01*
X86822367Y-84042090D01*
X86822370Y-84042087D01*
X86827142Y-84038195D01*
X86839506Y-84023250D01*
X86950531Y-83889044D01*
X86950533Y-83889040D01*
X86954460Y-83884294D01*
X87049461Y-83708594D01*
X87108525Y-83517789D01*
X87129403Y-83319145D01*
X87111300Y-83120229D01*
X87108978Y-83112337D01*
X87056645Y-82934526D01*
X87054906Y-82928617D01*
X86962368Y-82751608D01*
X86837211Y-82595945D01*
X86684203Y-82467556D01*
X86678811Y-82464592D01*
X86678807Y-82464589D01*
X86514566Y-82374297D01*
X86514567Y-82374297D01*
X86509171Y-82371331D01*
X86503304Y-82369470D01*
X86503302Y-82369469D01*
X86413977Y-82341133D01*
X86318783Y-82310936D01*
X86163333Y-82293500D01*
X86055740Y-82293500D01*
X85907215Y-82308063D01*
X85716002Y-82365794D01*
X85629370Y-82411857D01*
X85545086Y-82456671D01*
X85545083Y-82456673D01*
X85539644Y-82459565D01*
X85534874Y-82463456D01*
X85534870Y-82463458D01*
X85389633Y-82581910D01*
X85389630Y-82581913D01*
X85384858Y-82585805D01*
X85380931Y-82590552D01*
X85380929Y-82590554D01*
X85261469Y-82734956D01*
X85261467Y-82734960D01*
X85257540Y-82739706D01*
X85162539Y-82915406D01*
X85103475Y-83106211D01*
X85102831Y-83112336D01*
X85102831Y-83112337D01*
X85085551Y-83276753D01*
X85082597Y-83304855D01*
X80778102Y-83304855D01*
X80761300Y-83120229D01*
X80758978Y-83112337D01*
X80706645Y-82934526D01*
X80704906Y-82928617D01*
X80612368Y-82751608D01*
X80487211Y-82595945D01*
X80334203Y-82467556D01*
X80328811Y-82464592D01*
X80328807Y-82464589D01*
X80164566Y-82374297D01*
X80164567Y-82374297D01*
X80159171Y-82371331D01*
X80153304Y-82369470D01*
X80153302Y-82369469D01*
X80063977Y-82341133D01*
X79968783Y-82310936D01*
X79813333Y-82293500D01*
X79705740Y-82293500D01*
X79557215Y-82308063D01*
X79366002Y-82365794D01*
X79279370Y-82411857D01*
X79195086Y-82456671D01*
X79195083Y-82456673D01*
X79189644Y-82459565D01*
X79184874Y-82463456D01*
X79184870Y-82463458D01*
X79039633Y-82581910D01*
X79039630Y-82581913D01*
X79034858Y-82585805D01*
X79030931Y-82590552D01*
X79030929Y-82590554D01*
X78911469Y-82734956D01*
X78911467Y-82734960D01*
X78907540Y-82739706D01*
X78812539Y-82915406D01*
X78753475Y-83106211D01*
X78752831Y-83112336D01*
X78752831Y-83112337D01*
X78735551Y-83276753D01*
X78732597Y-83304855D01*
X70993000Y-83304855D01*
X70993000Y-78242000D01*
X81758820Y-78242000D01*
X81777511Y-78479496D01*
X81778665Y-78484303D01*
X81778666Y-78484309D01*
X81801927Y-78581197D01*
X81833125Y-78711143D01*
X81835018Y-78715714D01*
X81835019Y-78715716D01*
X81913136Y-78904305D01*
X81924292Y-78931239D01*
X82048767Y-79134364D01*
X82203485Y-79315515D01*
X82384636Y-79470233D01*
X82587761Y-79594708D01*
X82592331Y-79596601D01*
X82592335Y-79596603D01*
X82799646Y-79682474D01*
X82807857Y-79685875D01*
X82860452Y-79698502D01*
X83034691Y-79740334D01*
X83034697Y-79740335D01*
X83039504Y-79741489D01*
X83277000Y-79760180D01*
X83514496Y-79741489D01*
X83519303Y-79740335D01*
X83519309Y-79740334D01*
X83693548Y-79698502D01*
X83746143Y-79685875D01*
X83754354Y-79682474D01*
X83961665Y-79596603D01*
X83961669Y-79596601D01*
X83966239Y-79594708D01*
X84169364Y-79470233D01*
X84280867Y-79375000D01*
X86716496Y-79375000D01*
X86717186Y-79381565D01*
X86732116Y-79523612D01*
X86736458Y-79564928D01*
X86795473Y-79746556D01*
X86798776Y-79752278D01*
X86798777Y-79752279D01*
X86819069Y-79787425D01*
X86890960Y-79911944D01*
X86895378Y-79916851D01*
X86895379Y-79916852D01*
X86977452Y-80008003D01*
X87018747Y-80053866D01*
X87173248Y-80166118D01*
X87179276Y-80168802D01*
X87179278Y-80168803D01*
X87204625Y-80180088D01*
X87347712Y-80243794D01*
X87434009Y-80262137D01*
X87528056Y-80282128D01*
X87528061Y-80282128D01*
X87534513Y-80283500D01*
X87725487Y-80283500D01*
X87731939Y-80282128D01*
X87731944Y-80282128D01*
X87825991Y-80262137D01*
X87912288Y-80243794D01*
X88055375Y-80180088D01*
X88080722Y-80168803D01*
X88080724Y-80168802D01*
X88086752Y-80166118D01*
X88241253Y-80053866D01*
X88245668Y-80048963D01*
X88250580Y-80044540D01*
X88251705Y-80045789D01*
X88305014Y-80012949D01*
X88338200Y-80008500D01*
X98981233Y-80008500D01*
X98992416Y-80009027D01*
X98999909Y-80010702D01*
X99007835Y-80010453D01*
X99007836Y-80010453D01*
X99067986Y-80008562D01*
X99071945Y-80008500D01*
X99099856Y-80008500D01*
X99103791Y-80008003D01*
X99103856Y-80007995D01*
X99115693Y-80007062D01*
X99147951Y-80006048D01*
X99151970Y-80005922D01*
X99159889Y-80005673D01*
X99179343Y-80000021D01*
X99198700Y-79996013D01*
X99210930Y-79994468D01*
X99210931Y-79994468D01*
X99218797Y-79993474D01*
X99226168Y-79990555D01*
X99226170Y-79990555D01*
X99259912Y-79977196D01*
X99271142Y-79973351D01*
X99305983Y-79963229D01*
X99305984Y-79963229D01*
X99313593Y-79961018D01*
X99320412Y-79956985D01*
X99320417Y-79956983D01*
X99331028Y-79950707D01*
X99348776Y-79942012D01*
X99367617Y-79934552D01*
X99403387Y-79908564D01*
X99413307Y-79902048D01*
X99444535Y-79883580D01*
X99444538Y-79883578D01*
X99451362Y-79879542D01*
X99465683Y-79865221D01*
X99480717Y-79852380D01*
X99490694Y-79845131D01*
X99497107Y-79840472D01*
X99525298Y-79806395D01*
X99533288Y-79797616D01*
X100280499Y-79050405D01*
X100342811Y-79016379D01*
X100369594Y-79013500D01*
X100425487Y-79013500D01*
X100431939Y-79012128D01*
X100431944Y-79012128D01*
X100518887Y-78993647D01*
X100612288Y-78973794D01*
X100686574Y-78940720D01*
X100780722Y-78898803D01*
X100780724Y-78898802D01*
X100786752Y-78896118D01*
X100941253Y-78783866D01*
X100945675Y-78778955D01*
X101064621Y-78646852D01*
X101064622Y-78646851D01*
X101069040Y-78641944D01*
X101143039Y-78513774D01*
X101161223Y-78482279D01*
X101161224Y-78482278D01*
X101164527Y-78476556D01*
X101223542Y-78294928D01*
X101229620Y-78237104D01*
X101242814Y-78111565D01*
X101243504Y-78105000D01*
X101223542Y-77915072D01*
X101164527Y-77733444D01*
X101069040Y-77568056D01*
X101055269Y-77552761D01*
X100945675Y-77431045D01*
X100945674Y-77431044D01*
X100941253Y-77426134D01*
X100818311Y-77336811D01*
X100792094Y-77317763D01*
X100792093Y-77317762D01*
X100786752Y-77313882D01*
X100780724Y-77311198D01*
X100780722Y-77311197D01*
X100618319Y-77238891D01*
X100618318Y-77238891D01*
X100612288Y-77236206D01*
X100518887Y-77216353D01*
X100431944Y-77197872D01*
X100431939Y-77197872D01*
X100425487Y-77196500D01*
X100234513Y-77196500D01*
X100228061Y-77197872D01*
X100228056Y-77197872D01*
X100141113Y-77216353D01*
X100047712Y-77236206D01*
X100041682Y-77238891D01*
X100041681Y-77238891D01*
X99879278Y-77311197D01*
X99879276Y-77311198D01*
X99873248Y-77313882D01*
X99867907Y-77317762D01*
X99867906Y-77317763D01*
X99841689Y-77336811D01*
X99718747Y-77426134D01*
X99714326Y-77431044D01*
X99714325Y-77431045D01*
X99604732Y-77552761D01*
X99590960Y-77568056D01*
X99495473Y-77733444D01*
X99436458Y-77915072D01*
X99424325Y-78030516D01*
X99419093Y-78080292D01*
X99392080Y-78145949D01*
X99382878Y-78156217D01*
X98834500Y-78704595D01*
X98772188Y-78738621D01*
X98745405Y-78741500D01*
X88338200Y-78741500D01*
X88270079Y-78721498D01*
X88250853Y-78705157D01*
X88250580Y-78705460D01*
X88245668Y-78701037D01*
X88241253Y-78696134D01*
X88202146Y-78667721D01*
X88092094Y-78587763D01*
X88092093Y-78587762D01*
X88086752Y-78583882D01*
X88080724Y-78581198D01*
X88080722Y-78581197D01*
X87918319Y-78508891D01*
X87918318Y-78508891D01*
X87912288Y-78506206D01*
X87818888Y-78486353D01*
X87731944Y-78467872D01*
X87731939Y-78467872D01*
X87725487Y-78466500D01*
X87534513Y-78466500D01*
X87528061Y-78467872D01*
X87528056Y-78467872D01*
X87441112Y-78486353D01*
X87347712Y-78506206D01*
X87341682Y-78508891D01*
X87341681Y-78508891D01*
X87179278Y-78581197D01*
X87179276Y-78581198D01*
X87173248Y-78583882D01*
X87018747Y-78696134D01*
X87014326Y-78701044D01*
X87014325Y-78701045D01*
X86936257Y-78787749D01*
X86890960Y-78838056D01*
X86795473Y-79003444D01*
X86736458Y-79185072D01*
X86716496Y-79375000D01*
X84280867Y-79375000D01*
X84350515Y-79315515D01*
X84505233Y-79134364D01*
X84629708Y-78931239D01*
X84640865Y-78904305D01*
X84718981Y-78715716D01*
X84718982Y-78715714D01*
X84720875Y-78711143D01*
X84752073Y-78581197D01*
X84775334Y-78484309D01*
X84775335Y-78484303D01*
X84776489Y-78479496D01*
X84795180Y-78242000D01*
X84776489Y-78004504D01*
X84775335Y-77999697D01*
X84775334Y-77999691D01*
X84722030Y-77777669D01*
X84720875Y-77772857D01*
X84696617Y-77714292D01*
X84631603Y-77557335D01*
X84631601Y-77557331D01*
X84629708Y-77552761D01*
X84505233Y-77349636D01*
X84350515Y-77168485D01*
X84169364Y-77013767D01*
X83966239Y-76889292D01*
X83961669Y-76887399D01*
X83961665Y-76887397D01*
X83750716Y-76800019D01*
X83750714Y-76800018D01*
X83746143Y-76798125D01*
X83664584Y-76778544D01*
X83519309Y-76743666D01*
X83519303Y-76743665D01*
X83514496Y-76742511D01*
X83277000Y-76723820D01*
X83039504Y-76742511D01*
X83034697Y-76743665D01*
X83034691Y-76743666D01*
X82889416Y-76778544D01*
X82807857Y-76798125D01*
X82803286Y-76800018D01*
X82803284Y-76800019D01*
X82592335Y-76887397D01*
X82592331Y-76887399D01*
X82587761Y-76889292D01*
X82384636Y-77013767D01*
X82203485Y-77168485D01*
X82048767Y-77349636D01*
X81924292Y-77552761D01*
X81922399Y-77557331D01*
X81922397Y-77557335D01*
X81857383Y-77714292D01*
X81833125Y-77772857D01*
X81831970Y-77777669D01*
X81778666Y-77999691D01*
X81778665Y-77999697D01*
X81777511Y-78004504D01*
X81758820Y-78242000D01*
X70993000Y-78242000D01*
X70993000Y-76392166D01*
X71013002Y-76324045D01*
X71066658Y-76277552D01*
X71136932Y-76267448D01*
X71180475Y-76282180D01*
X71191083Y-76288109D01*
X71357980Y-76360332D01*
X71370083Y-76364171D01*
X71549600Y-76401675D01*
X71559152Y-76402915D01*
X71562384Y-76403000D01*
X71782885Y-76403000D01*
X71798124Y-76398525D01*
X71799329Y-76397135D01*
X71801000Y-76389452D01*
X71801000Y-76384885D01*
X72309000Y-76384885D01*
X72313475Y-76400124D01*
X72314865Y-76401329D01*
X72322548Y-76403000D01*
X72500447Y-76403000D01*
X72506822Y-76402677D01*
X72642277Y-76388918D01*
X72654717Y-76386364D01*
X72828244Y-76331984D01*
X72839932Y-76326975D01*
X72998979Y-76238813D01*
X73009412Y-76231562D01*
X73147491Y-76113215D01*
X73156244Y-76104024D01*
X73267711Y-75960320D01*
X73274435Y-75949560D01*
X73354732Y-75786375D01*
X73359155Y-75774481D01*
X73374251Y-75716530D01*
X73374021Y-75709075D01*
X73761363Y-75709075D01*
X73817310Y-75861136D01*
X73822877Y-75872549D01*
X73918708Y-76027108D01*
X73926460Y-76037174D01*
X74051408Y-76169303D01*
X74061026Y-76177605D01*
X74209987Y-76281908D01*
X74221081Y-76288108D01*
X74387980Y-76360332D01*
X74400083Y-76364171D01*
X74579600Y-76401675D01*
X74589152Y-76402915D01*
X74592384Y-76403000D01*
X75162885Y-76403000D01*
X75178124Y-76398525D01*
X75179329Y-76397135D01*
X75181000Y-76389452D01*
X75181000Y-76384885D01*
X75689000Y-76384885D01*
X75693475Y-76400124D01*
X75694865Y-76401329D01*
X75702548Y-76403000D01*
X76230447Y-76403000D01*
X76236822Y-76402677D01*
X76372277Y-76388918D01*
X76384717Y-76386364D01*
X76558244Y-76331984D01*
X76569932Y-76326975D01*
X76728979Y-76238813D01*
X76739412Y-76231562D01*
X76877491Y-76113215D01*
X76886244Y-76104024D01*
X76997711Y-75960320D01*
X77004435Y-75949560D01*
X77084732Y-75786375D01*
X77089155Y-75774481D01*
X77104251Y-75716530D01*
X77103817Y-75702436D01*
X77095636Y-75699000D01*
X75707115Y-75699000D01*
X75691876Y-75703475D01*
X75690671Y-75704865D01*
X75689000Y-75712548D01*
X75689000Y-76384885D01*
X75181000Y-76384885D01*
X75181000Y-75717115D01*
X75176525Y-75701876D01*
X75175135Y-75700671D01*
X75167452Y-75699000D01*
X73775771Y-75699000D01*
X73762240Y-75702973D01*
X73761363Y-75709075D01*
X73374021Y-75709075D01*
X73373817Y-75702436D01*
X73365636Y-75699000D01*
X72327115Y-75699000D01*
X72311876Y-75703475D01*
X72310671Y-75704865D01*
X72309000Y-75712548D01*
X72309000Y-76384885D01*
X71801000Y-76384885D01*
X71801000Y-75654511D01*
X89981007Y-75654511D01*
X89981697Y-75661076D01*
X89997942Y-75815635D01*
X90000969Y-75844439D01*
X90059984Y-76026067D01*
X90063287Y-76031789D01*
X90063288Y-76031790D01*
X90097197Y-76090521D01*
X90155471Y-76191455D01*
X90159889Y-76196362D01*
X90159890Y-76196363D01*
X90278836Y-76328466D01*
X90283258Y-76333377D01*
X90437759Y-76445629D01*
X90443787Y-76448313D01*
X90443789Y-76448314D01*
X90606192Y-76520620D01*
X90612223Y-76523305D01*
X90705624Y-76543158D01*
X90792567Y-76561639D01*
X90792572Y-76561639D01*
X90799024Y-76563011D01*
X90989998Y-76563011D01*
X90996450Y-76561639D01*
X90996455Y-76561639D01*
X91083398Y-76543158D01*
X91176799Y-76523305D01*
X91182830Y-76520620D01*
X91345233Y-76448314D01*
X91345235Y-76448313D01*
X91351263Y-76445629D01*
X91412237Y-76401329D01*
X91484182Y-76349057D01*
X91505764Y-76333377D01*
X91510179Y-76328474D01*
X91515091Y-76324051D01*
X91516216Y-76325300D01*
X91569525Y-76292460D01*
X91602711Y-76288011D01*
X103279917Y-76288011D01*
X103348038Y-76308013D01*
X103369012Y-76324916D01*
X106481343Y-79437247D01*
X106488887Y-79445537D01*
X106493000Y-79452018D01*
X106498777Y-79457443D01*
X106542667Y-79498658D01*
X106545509Y-79501413D01*
X106565231Y-79521135D01*
X106568355Y-79523558D01*
X106568359Y-79523562D01*
X106568424Y-79523612D01*
X106577445Y-79531317D01*
X106609679Y-79561586D01*
X106616627Y-79565405D01*
X106616629Y-79565407D01*
X106627432Y-79571346D01*
X106643959Y-79582202D01*
X106653698Y-79589757D01*
X106653700Y-79589758D01*
X106659960Y-79594614D01*
X106700540Y-79612174D01*
X106711188Y-79617391D01*
X106749940Y-79638695D01*
X106757616Y-79640666D01*
X106757619Y-79640667D01*
X106769562Y-79643733D01*
X106788267Y-79650137D01*
X106806855Y-79658181D01*
X106814678Y-79659420D01*
X106814688Y-79659423D01*
X106850524Y-79665099D01*
X106862144Y-79667505D01*
X106897289Y-79676528D01*
X106904970Y-79678500D01*
X106925224Y-79678500D01*
X106944934Y-79680051D01*
X106964943Y-79683220D01*
X106972835Y-79682474D01*
X107008961Y-79679059D01*
X107020819Y-79678500D01*
X108511800Y-79678500D01*
X108579921Y-79698502D01*
X108599147Y-79714843D01*
X108599420Y-79714540D01*
X108604332Y-79718963D01*
X108608747Y-79723866D01*
X108630329Y-79739546D01*
X108716051Y-79801827D01*
X108763248Y-79836118D01*
X108769276Y-79838802D01*
X108769278Y-79838803D01*
X108911330Y-79902048D01*
X108937712Y-79913794D01*
X109031113Y-79933647D01*
X109118056Y-79952128D01*
X109118061Y-79952128D01*
X109124513Y-79953500D01*
X109315487Y-79953500D01*
X109321939Y-79952128D01*
X109321944Y-79952128D01*
X109408887Y-79933647D01*
X109502288Y-79913794D01*
X109528670Y-79902048D01*
X109670722Y-79838803D01*
X109670724Y-79838802D01*
X109676752Y-79836118D01*
X109831253Y-79723866D01*
X109867851Y-79683220D01*
X109954621Y-79586852D01*
X109954622Y-79586851D01*
X109959040Y-79581944D01*
X110034053Y-79452018D01*
X110051223Y-79422279D01*
X110051224Y-79422278D01*
X110054527Y-79416556D01*
X110113542Y-79234928D01*
X110123717Y-79138123D01*
X110132814Y-79051565D01*
X110133504Y-79045000D01*
X110122544Y-78940720D01*
X110114232Y-78861635D01*
X110114232Y-78861633D01*
X110113542Y-78855072D01*
X110054527Y-78673444D01*
X110036341Y-78641944D01*
X110001268Y-78581197D01*
X109959040Y-78508056D01*
X109933325Y-78479496D01*
X109835675Y-78371045D01*
X109835674Y-78371044D01*
X109831253Y-78366134D01*
X109676752Y-78253882D01*
X109670724Y-78251198D01*
X109670722Y-78251197D01*
X109508319Y-78178891D01*
X109508318Y-78178891D01*
X109502288Y-78176206D01*
X109408248Y-78156217D01*
X109321944Y-78137872D01*
X109321939Y-78137872D01*
X109315487Y-78136500D01*
X109124513Y-78136500D01*
X109118061Y-78137872D01*
X109118056Y-78137872D01*
X109031752Y-78156217D01*
X108937712Y-78176206D01*
X108931682Y-78178891D01*
X108931681Y-78178891D01*
X108769278Y-78251197D01*
X108769276Y-78251198D01*
X108763248Y-78253882D01*
X108608747Y-78366134D01*
X108604332Y-78371037D01*
X108599420Y-78375460D01*
X108598295Y-78374211D01*
X108544986Y-78407051D01*
X108511800Y-78411500D01*
X107299594Y-78411500D01*
X107231473Y-78391498D01*
X107210499Y-78374595D01*
X105667551Y-76831646D01*
X104098163Y-75262258D01*
X104090623Y-75253972D01*
X104086511Y-75247493D01*
X104036859Y-75200867D01*
X104034018Y-75198113D01*
X104014281Y-75178376D01*
X104011084Y-75175896D01*
X104002062Y-75168191D01*
X103975611Y-75143352D01*
X103969832Y-75137925D01*
X103962886Y-75134106D01*
X103962883Y-75134104D01*
X103952077Y-75128163D01*
X103935558Y-75117312D01*
X103929559Y-75112659D01*
X103919552Y-75104897D01*
X103912283Y-75101752D01*
X103912279Y-75101749D01*
X103878974Y-75087337D01*
X103868324Y-75082120D01*
X103829571Y-75060816D01*
X103809948Y-75055778D01*
X103791245Y-75049374D01*
X103779931Y-75044478D01*
X103779930Y-75044478D01*
X103772656Y-75041330D01*
X103764833Y-75040091D01*
X103764823Y-75040088D01*
X103728987Y-75034412D01*
X103717367Y-75032006D01*
X103682222Y-75022983D01*
X103682221Y-75022983D01*
X103674541Y-75021011D01*
X103654287Y-75021011D01*
X103634576Y-75019460D01*
X103622397Y-75017531D01*
X103614568Y-75016291D01*
X103606676Y-75017037D01*
X103570550Y-75020452D01*
X103558692Y-75021011D01*
X91602711Y-75021011D01*
X91534590Y-75001009D01*
X91515364Y-74984668D01*
X91515091Y-74984971D01*
X91510179Y-74980548D01*
X91505764Y-74975645D01*
X91447349Y-74933204D01*
X91419438Y-74912925D01*
X112905645Y-74912925D01*
X112907113Y-74929059D01*
X112922278Y-75095688D01*
X112923570Y-75109888D01*
X112925308Y-75115794D01*
X112925309Y-75115798D01*
X112942111Y-75172885D01*
X112979410Y-75299619D01*
X112982263Y-75305077D01*
X112982265Y-75305081D01*
X112996615Y-75332529D01*
X113071040Y-75474890D01*
X113194968Y-75629025D01*
X113199692Y-75632989D01*
X113206933Y-75639065D01*
X113346474Y-75756154D01*
X113351872Y-75759121D01*
X113351877Y-75759125D01*
X113489619Y-75834848D01*
X113519787Y-75851433D01*
X113525654Y-75853294D01*
X113525656Y-75853295D01*
X113702436Y-75909373D01*
X113708306Y-75911235D01*
X113862227Y-75928500D01*
X113968769Y-75928500D01*
X113971825Y-75928200D01*
X113971832Y-75928200D01*
X114030340Y-75922463D01*
X114115833Y-75914080D01*
X114121734Y-75912298D01*
X114121736Y-75912298D01*
X114195053Y-75890162D01*
X114305169Y-75856916D01*
X114479796Y-75764066D01*
X114586798Y-75676797D01*
X114628287Y-75642960D01*
X114628290Y-75642957D01*
X114633062Y-75639065D01*
X114683284Y-75578357D01*
X114755201Y-75491425D01*
X114755203Y-75491421D01*
X114759130Y-75486675D01*
X114853198Y-75312701D01*
X114911682Y-75123768D01*
X114913155Y-75109753D01*
X114931711Y-74933204D01*
X114931711Y-74933202D01*
X114932355Y-74927075D01*
X114923721Y-74832199D01*
X114914989Y-74736251D01*
X114914988Y-74736248D01*
X114914430Y-74730112D01*
X114907759Y-74707443D01*
X114876693Y-74601892D01*
X114858590Y-74540381D01*
X114852990Y-74529668D01*
X114769813Y-74370568D01*
X114766960Y-74365110D01*
X114643032Y-74210975D01*
X114636727Y-74205684D01*
X114612634Y-74185468D01*
X114491526Y-74083846D01*
X114486128Y-74080879D01*
X114486123Y-74080875D01*
X114323608Y-73991533D01*
X114323609Y-73991533D01*
X114318213Y-73988567D01*
X114312346Y-73986706D01*
X114312344Y-73986705D01*
X114135564Y-73930627D01*
X114135563Y-73930627D01*
X114129694Y-73928765D01*
X113975773Y-73911500D01*
X113869231Y-73911500D01*
X113866175Y-73911800D01*
X113866168Y-73911800D01*
X113812017Y-73917110D01*
X113722167Y-73925920D01*
X113716266Y-73927702D01*
X113716264Y-73927702D01*
X113642947Y-73949838D01*
X113532831Y-73983084D01*
X113358204Y-74075934D01*
X113293590Y-74128632D01*
X113209713Y-74197040D01*
X113209710Y-74197043D01*
X113204938Y-74200935D01*
X113201011Y-74205682D01*
X113201009Y-74205684D01*
X113082799Y-74348575D01*
X113082797Y-74348579D01*
X113078870Y-74353325D01*
X112984802Y-74527299D01*
X112926318Y-74716232D01*
X112925674Y-74722357D01*
X112925674Y-74722358D01*
X112908192Y-74888695D01*
X112905645Y-74912925D01*
X91419438Y-74912925D01*
X91356605Y-74867274D01*
X91356604Y-74867273D01*
X91351263Y-74863393D01*
X91345235Y-74860709D01*
X91345233Y-74860708D01*
X91182830Y-74788402D01*
X91182829Y-74788402D01*
X91176799Y-74785717D01*
X91083398Y-74765864D01*
X90996455Y-74747383D01*
X90996450Y-74747383D01*
X90989998Y-74746011D01*
X90799024Y-74746011D01*
X90792572Y-74747383D01*
X90792567Y-74747383D01*
X90705624Y-74765864D01*
X90612223Y-74785717D01*
X90606193Y-74788402D01*
X90606192Y-74788402D01*
X90443789Y-74860708D01*
X90443787Y-74860709D01*
X90437759Y-74863393D01*
X90283258Y-74975645D01*
X90278837Y-74980555D01*
X90278836Y-74980556D01*
X90169714Y-75101749D01*
X90155471Y-75117567D01*
X90059984Y-75282955D01*
X90000969Y-75464583D01*
X90000279Y-75471144D01*
X90000279Y-75471146D01*
X89989011Y-75578357D01*
X89981007Y-75654511D01*
X71801000Y-75654511D01*
X71801000Y-75172885D01*
X72309000Y-75172885D01*
X72313475Y-75188124D01*
X72314865Y-75189329D01*
X72322548Y-75191000D01*
X73364229Y-75191000D01*
X73377760Y-75187027D01*
X73378637Y-75180925D01*
X73322690Y-75028864D01*
X73317123Y-75017451D01*
X73221292Y-74862892D01*
X73213540Y-74852826D01*
X73088592Y-74720697D01*
X73078974Y-74712395D01*
X72930013Y-74608092D01*
X72918919Y-74601892D01*
X72752020Y-74529668D01*
X72739917Y-74525829D01*
X72560400Y-74488325D01*
X72550848Y-74487085D01*
X72547616Y-74487000D01*
X72327115Y-74487000D01*
X72311876Y-74491475D01*
X72310671Y-74492865D01*
X72309000Y-74500548D01*
X72309000Y-75172885D01*
X71801000Y-75172885D01*
X71801000Y-74505115D01*
X71796525Y-74489876D01*
X71795135Y-74488671D01*
X71787452Y-74487000D01*
X71609553Y-74487000D01*
X71603178Y-74487323D01*
X71467723Y-74501082D01*
X71455283Y-74503636D01*
X71281756Y-74558016D01*
X71270068Y-74563025D01*
X71180086Y-74612903D01*
X71110809Y-74628434D01*
X71044133Y-74604046D01*
X71001226Y-74547482D01*
X70993000Y-74502701D01*
X70993000Y-72768330D01*
X73602764Y-72768330D01*
X73604069Y-72775807D01*
X73604069Y-72775808D01*
X73613750Y-72831277D01*
X73614712Y-72837799D01*
X73622387Y-72901220D01*
X73625070Y-72908321D01*
X73625711Y-72910930D01*
X73630174Y-72927240D01*
X73630939Y-72929776D01*
X73632246Y-72937262D01*
X73644648Y-72965513D01*
X73657931Y-72995773D01*
X73660422Y-73001877D01*
X73683002Y-73061634D01*
X73687306Y-73067897D01*
X73688543Y-73070263D01*
X73696788Y-73085075D01*
X73698121Y-73087329D01*
X73701174Y-73094283D01*
X73737790Y-73142000D01*
X73740068Y-73144969D01*
X73743948Y-73150310D01*
X73775828Y-73196698D01*
X73775833Y-73196703D01*
X73780132Y-73202959D01*
X73785802Y-73208010D01*
X73785803Y-73208012D01*
X73826659Y-73244413D01*
X73831935Y-73249394D01*
X74234471Y-73651930D01*
X74268497Y-73714242D01*
X74265209Y-73779962D01*
X74223167Y-73909353D01*
X74220437Y-73922193D01*
X74202964Y-74088435D01*
X74202964Y-74101565D01*
X74220437Y-74267807D01*
X74223167Y-74280650D01*
X74274819Y-74439617D01*
X74276924Y-74444345D01*
X74286359Y-74514712D01*
X74256254Y-74579010D01*
X74222904Y-74605798D01*
X74141021Y-74651187D01*
X74130588Y-74658438D01*
X73992509Y-74776785D01*
X73983756Y-74785976D01*
X73872289Y-74929680D01*
X73865565Y-74940440D01*
X73785268Y-75103625D01*
X73780845Y-75115519D01*
X73765749Y-75173470D01*
X73766183Y-75187564D01*
X73774364Y-75191000D01*
X75162885Y-75191000D01*
X75178124Y-75186525D01*
X75179329Y-75185135D01*
X75181000Y-75177452D01*
X75181000Y-74573000D01*
X75201002Y-74504879D01*
X75254658Y-74458386D01*
X75307000Y-74447000D01*
X75563000Y-74447000D01*
X75631121Y-74467002D01*
X75677614Y-74520658D01*
X75689000Y-74573000D01*
X75689000Y-75172885D01*
X75693475Y-75188124D01*
X75694865Y-75189329D01*
X75702548Y-75191000D01*
X77094229Y-75191000D01*
X77107760Y-75187027D01*
X77108637Y-75180925D01*
X77052690Y-75028864D01*
X77047123Y-75017451D01*
X76951292Y-74862891D01*
X76946509Y-74856681D01*
X76934292Y-74849560D01*
X76919947Y-74850184D01*
X76874172Y-74862935D01*
X76806336Y-74841986D01*
X76786832Y-74826042D01*
X76279385Y-74318595D01*
X76245359Y-74256283D01*
X76250424Y-74185468D01*
X76292971Y-74128632D01*
X76359491Y-74103821D01*
X76368480Y-74103500D01*
X76505232Y-74103500D01*
X76511685Y-74102128D01*
X76511689Y-74102128D01*
X76667153Y-74069083D01*
X76737944Y-74074485D01*
X76782445Y-74103235D01*
X77161767Y-74482557D01*
X77174147Y-74489317D01*
X77181062Y-74484141D01*
X77199835Y-74451625D01*
X77205181Y-74439617D01*
X77256833Y-74280650D01*
X77259563Y-74267807D01*
X77277036Y-74101565D01*
X77277036Y-74088435D01*
X77259563Y-73922193D01*
X77256833Y-73909350D01*
X77205181Y-73750383D01*
X77199835Y-73738375D01*
X77197019Y-73733497D01*
X77180283Y-73664502D01*
X77197022Y-73607498D01*
X77200296Y-73601828D01*
X77203599Y-73596107D01*
X77243761Y-73472500D01*
X77257325Y-73430754D01*
X77257325Y-73430753D01*
X77259365Y-73424475D01*
X77262300Y-73396556D01*
X77277539Y-73251565D01*
X77278229Y-73245000D01*
X77268991Y-73157104D01*
X77267403Y-73142000D01*
X80558820Y-73142000D01*
X80577511Y-73379496D01*
X80578665Y-73384303D01*
X80578666Y-73384309D01*
X80610659Y-73517568D01*
X80633125Y-73611143D01*
X80635018Y-73615714D01*
X80635019Y-73615716D01*
X80717160Y-73814020D01*
X80724292Y-73831239D01*
X80848767Y-74034364D01*
X80906643Y-74102128D01*
X80995089Y-74205684D01*
X81003485Y-74215515D01*
X81184636Y-74370233D01*
X81387761Y-74494708D01*
X81392331Y-74496601D01*
X81392335Y-74496603D01*
X81603284Y-74583981D01*
X81607857Y-74585875D01*
X81674572Y-74601892D01*
X81834691Y-74640334D01*
X81834697Y-74640335D01*
X81839504Y-74641489D01*
X82077000Y-74660180D01*
X82314496Y-74641489D01*
X82319303Y-74640335D01*
X82319309Y-74640334D01*
X82479428Y-74601892D01*
X82546143Y-74585875D01*
X82550716Y-74583981D01*
X82761665Y-74496603D01*
X82761669Y-74496601D01*
X82766239Y-74494708D01*
X82969364Y-74370233D01*
X83150515Y-74215515D01*
X83158912Y-74205684D01*
X83247357Y-74102128D01*
X83305233Y-74034364D01*
X83429708Y-73831239D01*
X83436841Y-73814020D01*
X83518981Y-73615716D01*
X83518982Y-73615714D01*
X83520875Y-73611143D01*
X83543341Y-73517568D01*
X83575334Y-73384309D01*
X83575335Y-73384303D01*
X83576489Y-73379496D01*
X83595180Y-73142000D01*
X83576489Y-72904504D01*
X83575335Y-72899697D01*
X83575334Y-72899691D01*
X83528917Y-72706353D01*
X83520875Y-72672857D01*
X83512834Y-72653444D01*
X83431603Y-72457335D01*
X83431601Y-72457331D01*
X83429708Y-72452761D01*
X83305233Y-72249636D01*
X83150515Y-72068485D01*
X82969364Y-71913767D01*
X82766239Y-71789292D01*
X82761669Y-71787399D01*
X82761665Y-71787397D01*
X82550716Y-71700019D01*
X82550714Y-71700018D01*
X82546143Y-71698125D01*
X82464584Y-71678544D01*
X82319309Y-71643666D01*
X82319303Y-71643665D01*
X82314496Y-71642511D01*
X82077000Y-71623820D01*
X81839504Y-71642511D01*
X81834697Y-71643665D01*
X81834691Y-71643666D01*
X81689416Y-71678544D01*
X81607857Y-71698125D01*
X81603286Y-71700018D01*
X81603284Y-71700019D01*
X81392335Y-71787397D01*
X81392331Y-71787399D01*
X81387761Y-71789292D01*
X81184636Y-71913767D01*
X81003485Y-72068485D01*
X80848767Y-72249636D01*
X80724292Y-72452761D01*
X80722399Y-72457331D01*
X80722397Y-72457335D01*
X80641166Y-72653444D01*
X80633125Y-72672857D01*
X80625083Y-72706353D01*
X80578666Y-72899691D01*
X80578665Y-72899697D01*
X80577511Y-72904504D01*
X80558820Y-73142000D01*
X77267403Y-73142000D01*
X77260055Y-73072089D01*
X77260055Y-73072088D01*
X77259365Y-73065525D01*
X77248410Y-73031807D01*
X77205641Y-72900178D01*
X77203599Y-72893893D01*
X77197309Y-72882998D01*
X77180572Y-72814004D01*
X77197309Y-72757001D01*
X77203599Y-72746107D01*
X77238566Y-72638489D01*
X77257325Y-72580754D01*
X77257325Y-72580753D01*
X77259365Y-72574475D01*
X77272602Y-72448541D01*
X77277539Y-72401565D01*
X77278229Y-72395000D01*
X77259365Y-72215525D01*
X77242182Y-72162639D01*
X77205641Y-72050178D01*
X77203599Y-72043893D01*
X77197309Y-72032998D01*
X77180572Y-71964004D01*
X77197309Y-71907001D01*
X77203599Y-71896107D01*
X77259365Y-71724475D01*
X77261936Y-71700019D01*
X77277539Y-71551565D01*
X77278229Y-71545000D01*
X77259365Y-71365525D01*
X77203599Y-71193893D01*
X77197309Y-71182998D01*
X77180572Y-71114004D01*
X77197309Y-71057001D01*
X77203599Y-71046107D01*
X77242941Y-70925023D01*
X77257325Y-70880754D01*
X77257325Y-70880753D01*
X77259365Y-70874475D01*
X77262750Y-70842275D01*
X77277539Y-70701565D01*
X77278229Y-70695000D01*
X77273358Y-70648653D01*
X77260055Y-70522089D01*
X77260055Y-70522088D01*
X77259365Y-70515525D01*
X77203599Y-70343893D01*
X77197309Y-70332998D01*
X77180572Y-70264004D01*
X77197309Y-70207001D01*
X77198134Y-70205572D01*
X77203599Y-70196107D01*
X77259365Y-70024475D01*
X77260289Y-70015689D01*
X77277539Y-69851565D01*
X77278229Y-69845000D01*
X77265243Y-69721453D01*
X77260055Y-69672089D01*
X77260055Y-69672088D01*
X77259365Y-69665525D01*
X77203599Y-69493893D01*
X77197309Y-69482998D01*
X77180572Y-69414004D01*
X77197309Y-69357001D01*
X77203599Y-69346107D01*
X77229325Y-69266929D01*
X77257325Y-69180754D01*
X77257325Y-69180753D01*
X77259365Y-69174475D01*
X77278229Y-68995000D01*
X77259365Y-68815525D01*
X77237847Y-68749297D01*
X77205641Y-68650178D01*
X77203599Y-68643893D01*
X77197022Y-68632501D01*
X77180283Y-68563507D01*
X77197019Y-68506503D01*
X77199835Y-68501625D01*
X77205181Y-68489617D01*
X77256833Y-68330650D01*
X77259563Y-68317807D01*
X77277036Y-68151565D01*
X77277036Y-68138435D01*
X77259563Y-67972193D01*
X77256833Y-67959350D01*
X77205181Y-67800383D01*
X77199835Y-67788375D01*
X77183637Y-67760320D01*
X77173431Y-67750589D01*
X77165410Y-67753800D01*
X76782445Y-68136765D01*
X76720133Y-68170791D01*
X76667153Y-68170917D01*
X76666561Y-68170791D01*
X76645812Y-68166381D01*
X76511689Y-68137872D01*
X76511685Y-68137872D01*
X76505232Y-68136500D01*
X76368480Y-68136500D01*
X76300359Y-68116498D01*
X76253866Y-68062842D01*
X76243762Y-67992568D01*
X76273256Y-67927988D01*
X76279385Y-67921405D01*
X76788963Y-67411827D01*
X76851275Y-67377801D01*
X76922090Y-67382866D01*
X76932800Y-67387757D01*
X76944077Y-67379465D01*
X76997711Y-67310320D01*
X77004435Y-67299560D01*
X77084732Y-67136375D01*
X77089155Y-67124481D01*
X77104251Y-67066530D01*
X77103817Y-67052436D01*
X77095636Y-67049000D01*
X75707115Y-67049000D01*
X75691876Y-67053475D01*
X75690671Y-67054865D01*
X75689000Y-67062548D01*
X75689000Y-67667000D01*
X75668998Y-67735121D01*
X75615342Y-67781614D01*
X75563000Y-67793000D01*
X75307000Y-67793000D01*
X75238879Y-67772998D01*
X75192386Y-67719342D01*
X75181000Y-67667000D01*
X75181000Y-67067115D01*
X75176525Y-67051876D01*
X75175135Y-67050671D01*
X75167452Y-67049000D01*
X73775771Y-67049000D01*
X73762240Y-67052973D01*
X73761363Y-67059075D01*
X73817310Y-67211136D01*
X73822877Y-67222549D01*
X73918708Y-67377108D01*
X73926460Y-67387174D01*
X74051408Y-67519303D01*
X74061026Y-67527605D01*
X74209983Y-67631905D01*
X74221530Y-67638358D01*
X74271237Y-67689051D01*
X74285647Y-67758569D01*
X74276594Y-67794011D01*
X74276861Y-67794098D01*
X74275511Y-67798252D01*
X74275167Y-67799600D01*
X74274820Y-67800379D01*
X74223167Y-67959350D01*
X74220437Y-67972193D01*
X74202964Y-68138435D01*
X74202964Y-68151565D01*
X74218153Y-68296075D01*
X74205381Y-68365913D01*
X74169548Y-68409208D01*
X74156001Y-68419603D01*
X74150688Y-68423462D01*
X74098045Y-68459643D01*
X74092993Y-68465313D01*
X74092991Y-68465315D01*
X74056604Y-68506155D01*
X74051623Y-68511431D01*
X73834951Y-68728103D01*
X73828701Y-68733943D01*
X73785104Y-68771976D01*
X73780737Y-68778190D01*
X73748361Y-68824256D01*
X73744428Y-68829551D01*
X73705013Y-68879819D01*
X73701890Y-68886735D01*
X73700506Y-68889021D01*
X73692132Y-68903702D01*
X73690867Y-68906062D01*
X73686499Y-68912276D01*
X73683739Y-68919355D01*
X73683738Y-68919357D01*
X73663287Y-68971812D01*
X73660736Y-68977881D01*
X73634444Y-69036110D01*
X73633060Y-69043577D01*
X73632259Y-69046132D01*
X73627630Y-69062385D01*
X73626967Y-69064965D01*
X73624207Y-69072046D01*
X73623216Y-69079577D01*
X73623215Y-69079579D01*
X73615868Y-69135389D01*
X73614837Y-69141896D01*
X73603193Y-69204723D01*
X73603630Y-69212303D01*
X73603630Y-69212304D01*
X73606780Y-69266929D01*
X73606989Y-69274183D01*
X73606989Y-72702066D01*
X73606697Y-72710636D01*
X73602764Y-72768330D01*
X70993000Y-72768330D01*
X70993000Y-67742166D01*
X71013002Y-67674045D01*
X71066658Y-67627552D01*
X71136932Y-67617448D01*
X71180475Y-67632180D01*
X71191083Y-67638109D01*
X71357980Y-67710332D01*
X71370083Y-67714171D01*
X71549600Y-67751675D01*
X71559152Y-67752915D01*
X71562384Y-67753000D01*
X71782885Y-67753000D01*
X71798124Y-67748525D01*
X71799329Y-67747135D01*
X71801000Y-67739452D01*
X71801000Y-67734885D01*
X72309000Y-67734885D01*
X72313475Y-67750124D01*
X72314865Y-67751329D01*
X72322548Y-67753000D01*
X72500447Y-67753000D01*
X72506822Y-67752677D01*
X72642277Y-67738918D01*
X72654717Y-67736364D01*
X72828244Y-67681984D01*
X72839932Y-67676975D01*
X72998979Y-67588813D01*
X73009412Y-67581562D01*
X73147491Y-67463215D01*
X73156244Y-67454024D01*
X73267711Y-67310320D01*
X73274435Y-67299560D01*
X73354732Y-67136375D01*
X73359155Y-67124481D01*
X73374251Y-67066530D01*
X73373817Y-67052436D01*
X73365636Y-67049000D01*
X72327115Y-67049000D01*
X72311876Y-67053475D01*
X72310671Y-67054865D01*
X72309000Y-67062548D01*
X72309000Y-67734885D01*
X71801000Y-67734885D01*
X71801000Y-66522885D01*
X72309000Y-66522885D01*
X72313475Y-66538124D01*
X72314865Y-66539329D01*
X72322548Y-66541000D01*
X73364229Y-66541000D01*
X73377760Y-66537027D01*
X73378637Y-66530925D01*
X73375894Y-66523470D01*
X73765749Y-66523470D01*
X73766183Y-66537564D01*
X73774364Y-66541000D01*
X75162885Y-66541000D01*
X75178124Y-66536525D01*
X75179329Y-66535135D01*
X75181000Y-66527452D01*
X75181000Y-66522885D01*
X75689000Y-66522885D01*
X75693475Y-66538124D01*
X75694865Y-66539329D01*
X75702548Y-66541000D01*
X77094229Y-66541000D01*
X77107760Y-66537027D01*
X77108637Y-66530925D01*
X77052690Y-66378864D01*
X77047123Y-66367451D01*
X76951292Y-66212892D01*
X76943540Y-66202826D01*
X76818592Y-66070697D01*
X76808974Y-66062395D01*
X76660013Y-65958092D01*
X76648919Y-65951892D01*
X76482020Y-65879668D01*
X76469917Y-65875829D01*
X76290400Y-65838325D01*
X76280848Y-65837085D01*
X76277616Y-65837000D01*
X75707115Y-65837000D01*
X75691876Y-65841475D01*
X75690671Y-65842865D01*
X75689000Y-65850548D01*
X75689000Y-66522885D01*
X75181000Y-66522885D01*
X75181000Y-65855115D01*
X75176525Y-65839876D01*
X75175135Y-65838671D01*
X75167452Y-65837000D01*
X74639553Y-65837000D01*
X74633178Y-65837323D01*
X74497723Y-65851082D01*
X74485283Y-65853636D01*
X74311756Y-65908016D01*
X74300068Y-65913025D01*
X74141021Y-66001187D01*
X74130588Y-66008438D01*
X73992509Y-66126785D01*
X73983756Y-66135976D01*
X73872289Y-66279680D01*
X73865565Y-66290440D01*
X73785268Y-66453625D01*
X73780845Y-66465519D01*
X73765749Y-66523470D01*
X73375894Y-66523470D01*
X73322690Y-66378864D01*
X73317123Y-66367451D01*
X73221292Y-66212892D01*
X73213540Y-66202826D01*
X73088592Y-66070697D01*
X73078974Y-66062395D01*
X72930013Y-65958092D01*
X72918919Y-65951892D01*
X72752020Y-65879668D01*
X72739917Y-65875829D01*
X72560400Y-65838325D01*
X72550848Y-65837085D01*
X72547616Y-65837000D01*
X72327115Y-65837000D01*
X72311876Y-65841475D01*
X72310671Y-65842865D01*
X72309000Y-65850548D01*
X72309000Y-66522885D01*
X71801000Y-66522885D01*
X71801000Y-65855115D01*
X71796525Y-65839876D01*
X71795135Y-65838671D01*
X71787452Y-65837000D01*
X71609553Y-65837000D01*
X71603178Y-65837323D01*
X71467723Y-65851082D01*
X71455283Y-65853636D01*
X71281756Y-65908016D01*
X71270068Y-65913025D01*
X71180086Y-65962903D01*
X71110809Y-65978434D01*
X71044133Y-65954046D01*
X71001226Y-65897482D01*
X70993000Y-65852701D01*
X70993000Y-64643000D01*
X91669496Y-64643000D01*
X91689458Y-64832928D01*
X91748473Y-65014556D01*
X91843960Y-65179944D01*
X91971747Y-65321866D01*
X92126248Y-65434118D01*
X92132276Y-65436802D01*
X92132278Y-65436803D01*
X92293697Y-65508671D01*
X92347793Y-65554651D01*
X92368448Y-65623778D01*
X92368448Y-72843030D01*
X92348446Y-72911151D01*
X92336090Y-72927333D01*
X92262908Y-73008610D01*
X92167421Y-73173998D01*
X92108406Y-73355626D01*
X92107716Y-73362187D01*
X92107716Y-73362189D01*
X92096888Y-73465212D01*
X92088444Y-73545554D01*
X92089134Y-73552119D01*
X92106174Y-73714242D01*
X92108406Y-73735482D01*
X92167421Y-73917110D01*
X92262908Y-74082498D01*
X92267326Y-74087405D01*
X92267327Y-74087406D01*
X92366042Y-74197040D01*
X92390695Y-74224420D01*
X92545196Y-74336672D01*
X92551224Y-74339356D01*
X92551226Y-74339357D01*
X92713629Y-74411663D01*
X92719660Y-74414348D01*
X92813060Y-74434201D01*
X92900004Y-74452682D01*
X92900009Y-74452682D01*
X92906461Y-74454054D01*
X93097435Y-74454054D01*
X93103887Y-74452682D01*
X93103892Y-74452682D01*
X93190836Y-74434201D01*
X93284236Y-74414348D01*
X93290267Y-74411663D01*
X93452670Y-74339357D01*
X93452672Y-74339356D01*
X93458700Y-74336672D01*
X93613201Y-74224420D01*
X93637854Y-74197040D01*
X93736569Y-74087406D01*
X93736570Y-74087405D01*
X93740988Y-74082498D01*
X93836475Y-73917110D01*
X93895490Y-73735482D01*
X93896217Y-73728565D01*
X93912686Y-73571874D01*
X93939699Y-73506218D01*
X93999059Y-73465212D01*
X94002410Y-73464123D01*
X94008866Y-73462751D01*
X94014897Y-73460066D01*
X94177300Y-73387760D01*
X94177302Y-73387759D01*
X94183330Y-73385075D01*
X94337831Y-73272823D01*
X94362883Y-73245000D01*
X94461199Y-73135809D01*
X94461200Y-73135808D01*
X94465618Y-73130901D01*
X94543634Y-72995773D01*
X94557801Y-72971236D01*
X94557802Y-72971235D01*
X94561105Y-72965513D01*
X94620120Y-72783885D01*
X94623490Y-72751827D01*
X94639392Y-72600522D01*
X94640082Y-72593957D01*
X94638034Y-72574475D01*
X94620810Y-72410592D01*
X94620810Y-72410590D01*
X94620120Y-72404029D01*
X94561105Y-72222401D01*
X94465618Y-72057013D01*
X94392441Y-71975742D01*
X94361725Y-71911736D01*
X94360078Y-71891433D01*
X94360078Y-71128972D01*
X94380080Y-71060851D01*
X94433736Y-71014358D01*
X94504010Y-71004254D01*
X94518685Y-71007264D01*
X94603902Y-71030098D01*
X94653030Y-71043262D01*
X94653032Y-71043262D01*
X94658345Y-71044686D01*
X94869000Y-71063116D01*
X95079655Y-71044686D01*
X95084968Y-71043262D01*
X95084970Y-71043262D01*
X95134290Y-71030046D01*
X95207336Y-71010474D01*
X95278311Y-71012164D01*
X95337107Y-71051958D01*
X95365055Y-71117222D01*
X95365946Y-71132181D01*
X95365946Y-72843030D01*
X95345944Y-72911151D01*
X95333588Y-72927333D01*
X95260406Y-73008610D01*
X95164919Y-73173998D01*
X95105904Y-73355626D01*
X95105214Y-73362187D01*
X95105214Y-73362189D01*
X95094386Y-73465212D01*
X95085942Y-73545554D01*
X95086632Y-73552119D01*
X95103672Y-73714242D01*
X95105904Y-73735482D01*
X95164919Y-73917110D01*
X95260406Y-74082498D01*
X95264824Y-74087405D01*
X95264825Y-74087406D01*
X95363540Y-74197040D01*
X95388193Y-74224420D01*
X95542694Y-74336672D01*
X95548722Y-74339356D01*
X95548724Y-74339357D01*
X95711127Y-74411663D01*
X95717158Y-74414348D01*
X95810558Y-74434201D01*
X95897502Y-74452682D01*
X95897507Y-74452682D01*
X95903959Y-74454054D01*
X96094933Y-74454054D01*
X96101385Y-74452682D01*
X96101390Y-74452682D01*
X96188334Y-74434201D01*
X96281734Y-74414348D01*
X96287765Y-74411663D01*
X96450168Y-74339357D01*
X96450170Y-74339356D01*
X96456198Y-74336672D01*
X96610699Y-74224420D01*
X96635352Y-74197040D01*
X96734067Y-74087406D01*
X96734068Y-74087405D01*
X96738486Y-74082498D01*
X96833973Y-73917110D01*
X96892988Y-73735482D01*
X96895221Y-73714242D01*
X96912260Y-73552119D01*
X96912950Y-73545554D01*
X96904506Y-73465212D01*
X96893678Y-73362189D01*
X96893678Y-73362187D01*
X96892988Y-73355626D01*
X96833973Y-73173998D01*
X96738486Y-73008610D01*
X96665309Y-72927339D01*
X96634593Y-72863333D01*
X96632946Y-72843030D01*
X96632946Y-70395500D01*
X112116496Y-70395500D01*
X112117186Y-70402065D01*
X112127307Y-70498357D01*
X112136458Y-70585428D01*
X112195473Y-70767056D01*
X112198776Y-70772778D01*
X112198777Y-70772779D01*
X112208616Y-70789820D01*
X112290960Y-70932444D01*
X112295378Y-70937351D01*
X112295379Y-70937352D01*
X112406578Y-71060851D01*
X112418747Y-71074366D01*
X112573248Y-71186618D01*
X112579276Y-71189302D01*
X112579278Y-71189303D01*
X112603704Y-71200178D01*
X112747712Y-71264294D01*
X112819768Y-71279610D01*
X112928056Y-71302628D01*
X112928061Y-71302628D01*
X112934513Y-71304000D01*
X112990406Y-71304000D01*
X113058527Y-71324002D01*
X113079501Y-71340905D01*
X114752923Y-73014328D01*
X116425848Y-74687253D01*
X116433388Y-74695539D01*
X116437500Y-74702018D01*
X116443277Y-74707443D01*
X116487151Y-74748643D01*
X116489993Y-74751398D01*
X116509730Y-74771135D01*
X116512927Y-74773615D01*
X116521947Y-74781318D01*
X116554179Y-74811586D01*
X116561125Y-74815405D01*
X116561128Y-74815407D01*
X116571934Y-74821348D01*
X116588453Y-74832199D01*
X116604459Y-74844614D01*
X116611728Y-74847759D01*
X116611732Y-74847762D01*
X116645037Y-74862174D01*
X116655687Y-74867391D01*
X116694440Y-74888695D01*
X116702115Y-74890666D01*
X116702116Y-74890666D01*
X116714062Y-74893733D01*
X116732767Y-74900137D01*
X116751355Y-74908181D01*
X116759178Y-74909420D01*
X116759188Y-74909423D01*
X116795024Y-74915099D01*
X116806644Y-74917505D01*
X116841789Y-74926528D01*
X116849470Y-74928500D01*
X116869724Y-74928500D01*
X116889434Y-74930051D01*
X116909443Y-74933220D01*
X116917335Y-74932474D01*
X116953461Y-74929059D01*
X116965319Y-74928500D01*
X123311274Y-74928500D01*
X123379395Y-74948502D01*
X123418707Y-74988665D01*
X123486987Y-75100088D01*
X123633250Y-75268938D01*
X123805126Y-75411632D01*
X123875595Y-75452811D01*
X123878445Y-75454476D01*
X123927169Y-75506114D01*
X123940240Y-75575897D01*
X123913509Y-75641669D01*
X123873055Y-75675027D01*
X123860607Y-75681507D01*
X123856474Y-75684610D01*
X123856471Y-75684612D01*
X123686100Y-75812530D01*
X123681965Y-75815635D01*
X123527629Y-75977138D01*
X123401743Y-76161680D01*
X123387922Y-76191455D01*
X123320244Y-76337256D01*
X123307688Y-76364305D01*
X123247989Y-76579570D01*
X123224251Y-76801695D01*
X123224548Y-76806848D01*
X123224548Y-76806851D01*
X123230011Y-76901590D01*
X123237110Y-77024715D01*
X123238247Y-77029761D01*
X123238248Y-77029767D01*
X123258119Y-77117939D01*
X123286222Y-77242639D01*
X123370266Y-77449616D01*
X123486987Y-77640088D01*
X123633250Y-77808938D01*
X123805126Y-77951632D01*
X123875595Y-77992811D01*
X123878445Y-77994476D01*
X123927169Y-78046114D01*
X123940240Y-78115897D01*
X123913509Y-78181669D01*
X123873055Y-78215027D01*
X123860607Y-78221507D01*
X123856474Y-78224610D01*
X123856471Y-78224612D01*
X123686100Y-78352530D01*
X123681965Y-78355635D01*
X123632831Y-78407051D01*
X123563601Y-78479496D01*
X123527629Y-78517138D01*
X123401743Y-78701680D01*
X123386003Y-78735590D01*
X123313290Y-78892237D01*
X123307688Y-78904305D01*
X123247989Y-79119570D01*
X123224251Y-79341695D01*
X123224548Y-79346848D01*
X123224548Y-79346851D01*
X123233460Y-79501413D01*
X123237110Y-79564715D01*
X123238247Y-79569761D01*
X123238248Y-79569767D01*
X123248981Y-79617391D01*
X123286222Y-79782639D01*
X123338388Y-79911109D01*
X123363662Y-79973351D01*
X123370266Y-79989616D01*
X123403923Y-80044540D01*
X123480072Y-80168803D01*
X123486987Y-80180088D01*
X123633250Y-80348938D01*
X123805126Y-80491632D01*
X123875595Y-80532811D01*
X123878445Y-80534476D01*
X123927169Y-80586114D01*
X123940240Y-80655897D01*
X123913509Y-80721669D01*
X123873055Y-80755027D01*
X123860607Y-80761507D01*
X123856474Y-80764610D01*
X123856471Y-80764612D01*
X123832247Y-80782800D01*
X123681965Y-80895635D01*
X123527629Y-81057138D01*
X123401743Y-81241680D01*
X123307688Y-81444305D01*
X123247989Y-81659570D01*
X123224251Y-81881695D01*
X123224548Y-81886848D01*
X123224548Y-81886851D01*
X123230011Y-81981590D01*
X123237110Y-82104715D01*
X123238247Y-82109761D01*
X123238248Y-82109767D01*
X123258119Y-82197939D01*
X123286222Y-82322639D01*
X123370266Y-82529616D01*
X123486987Y-82720088D01*
X123633250Y-82888938D01*
X123805126Y-83031632D01*
X123998000Y-83144338D01*
X124206692Y-83224030D01*
X124211760Y-83225061D01*
X124211763Y-83225062D01*
X124319017Y-83246883D01*
X124425597Y-83268567D01*
X124430772Y-83268757D01*
X124430774Y-83268757D01*
X124643673Y-83276564D01*
X124643677Y-83276564D01*
X124648837Y-83276753D01*
X124653957Y-83276097D01*
X124653959Y-83276097D01*
X124865288Y-83249025D01*
X124865289Y-83249025D01*
X124870416Y-83248368D01*
X124875366Y-83246883D01*
X125079429Y-83185661D01*
X125079434Y-83185659D01*
X125084384Y-83184174D01*
X125284994Y-83085896D01*
X125466860Y-82956173D01*
X125494513Y-82928617D01*
X125621435Y-82802137D01*
X125625096Y-82798489D01*
X125684594Y-82715689D01*
X125752435Y-82621277D01*
X125755453Y-82617077D01*
X125763523Y-82600750D01*
X125852136Y-82421453D01*
X125852137Y-82421451D01*
X125854430Y-82416811D01*
X125919370Y-82203069D01*
X125948529Y-81981590D01*
X125950156Y-81915000D01*
X125931852Y-81692361D01*
X125877431Y-81475702D01*
X125788354Y-81270840D01*
X125667014Y-81083277D01*
X125516670Y-80918051D01*
X125512619Y-80914852D01*
X125512615Y-80914848D01*
X125345414Y-80782800D01*
X125345410Y-80782798D01*
X125341359Y-80779598D01*
X125300053Y-80756796D01*
X125250084Y-80706364D01*
X125235312Y-80636921D01*
X125260428Y-80570516D01*
X125287780Y-80543909D01*
X125331603Y-80512650D01*
X125466860Y-80416173D01*
X125625096Y-80258489D01*
X125634670Y-80245166D01*
X125752435Y-80081277D01*
X125755453Y-80077077D01*
X125765006Y-80057749D01*
X125852136Y-79881453D01*
X125852137Y-79881451D01*
X125854430Y-79876811D01*
X125900898Y-79723866D01*
X125917865Y-79668023D01*
X125917865Y-79668021D01*
X125919370Y-79663069D01*
X125948529Y-79441590D01*
X125950156Y-79375000D01*
X125931852Y-79152361D01*
X125877431Y-78935702D01*
X125788354Y-78730840D01*
X125730845Y-78641944D01*
X125669822Y-78547617D01*
X125669820Y-78547614D01*
X125667014Y-78543277D01*
X125516670Y-78378051D01*
X125512619Y-78374852D01*
X125512615Y-78374848D01*
X125345414Y-78242800D01*
X125345410Y-78242798D01*
X125341359Y-78239598D01*
X125300053Y-78216796D01*
X125250084Y-78166364D01*
X125235312Y-78096921D01*
X125260428Y-78030516D01*
X125287780Y-78003909D01*
X125331603Y-77972650D01*
X125466860Y-77876173D01*
X125625096Y-77718489D01*
X125684594Y-77635689D01*
X125752435Y-77541277D01*
X125755453Y-77537077D01*
X125849950Y-77345877D01*
X125852136Y-77341453D01*
X125852137Y-77341451D01*
X125854430Y-77336811D01*
X125919370Y-77123069D01*
X125948529Y-76901590D01*
X125948766Y-76891878D01*
X125950074Y-76838365D01*
X125950074Y-76838361D01*
X125950156Y-76835000D01*
X125931852Y-76612361D01*
X125877431Y-76395702D01*
X125788354Y-76190840D01*
X125667014Y-76003277D01*
X125516670Y-75838051D01*
X125512619Y-75834852D01*
X125512615Y-75834848D01*
X125345414Y-75702800D01*
X125345410Y-75702798D01*
X125341359Y-75699598D01*
X125300053Y-75676796D01*
X125250084Y-75626364D01*
X125235312Y-75556921D01*
X125260428Y-75490516D01*
X125287780Y-75463909D01*
X125331603Y-75432650D01*
X125466860Y-75336173D01*
X125625096Y-75178489D01*
X125628703Y-75173470D01*
X125752435Y-75001277D01*
X125755453Y-74997077D01*
X125759611Y-74988665D01*
X125852136Y-74801453D01*
X125852137Y-74801451D01*
X125854430Y-74796811D01*
X125910306Y-74612903D01*
X125917865Y-74588023D01*
X125917865Y-74588021D01*
X125919370Y-74583069D01*
X125948529Y-74361590D01*
X125950156Y-74295000D01*
X125931852Y-74072361D01*
X125877431Y-73855702D01*
X125788354Y-73650840D01*
X125730845Y-73561944D01*
X125669822Y-73467617D01*
X125669820Y-73467614D01*
X125667014Y-73463277D01*
X125516670Y-73298051D01*
X125512619Y-73294852D01*
X125512615Y-73294848D01*
X125345414Y-73162800D01*
X125345410Y-73162798D01*
X125341359Y-73159598D01*
X125300053Y-73136796D01*
X125250084Y-73086364D01*
X125235312Y-73016921D01*
X125260428Y-72950516D01*
X125287780Y-72923909D01*
X125354001Y-72876674D01*
X125466860Y-72796173D01*
X125494801Y-72768330D01*
X125595197Y-72668284D01*
X125625096Y-72638489D01*
X125671095Y-72574475D01*
X125752435Y-72461277D01*
X125755453Y-72457077D01*
X125854430Y-72256811D01*
X125913396Y-72062731D01*
X125917865Y-72048023D01*
X125917865Y-72048021D01*
X125919370Y-72043069D01*
X125948529Y-71821590D01*
X125949318Y-71789292D01*
X125950074Y-71758365D01*
X125950074Y-71758361D01*
X125950156Y-71755000D01*
X125931852Y-71532361D01*
X125877431Y-71315702D01*
X125788354Y-71110840D01*
X125720434Y-71005852D01*
X125669822Y-70927617D01*
X125669820Y-70927614D01*
X125667014Y-70923277D01*
X125516670Y-70758051D01*
X125512619Y-70754852D01*
X125512615Y-70754848D01*
X125345414Y-70622800D01*
X125345410Y-70622798D01*
X125341359Y-70619598D01*
X125300053Y-70596796D01*
X125250084Y-70546364D01*
X125235312Y-70476921D01*
X125260428Y-70410516D01*
X125287780Y-70383909D01*
X125343880Y-70343893D01*
X125466860Y-70256173D01*
X125625096Y-70098489D01*
X125684594Y-70015689D01*
X125752435Y-69921277D01*
X125755453Y-69917077D01*
X125786802Y-69853648D01*
X125852136Y-69721453D01*
X125852137Y-69721451D01*
X125854430Y-69716811D01*
X125919370Y-69503069D01*
X125948529Y-69281590D01*
X125950156Y-69215000D01*
X125931852Y-68992361D01*
X125877431Y-68775702D01*
X125788354Y-68570840D01*
X125737484Y-68492207D01*
X125669822Y-68387617D01*
X125669820Y-68387614D01*
X125667014Y-68383277D01*
X125516670Y-68218051D01*
X125512619Y-68214852D01*
X125512615Y-68214848D01*
X125345414Y-68082800D01*
X125345410Y-68082798D01*
X125341359Y-68079598D01*
X125299569Y-68056529D01*
X125249598Y-68006097D01*
X125234826Y-67936654D01*
X125259942Y-67870248D01*
X125287294Y-67843641D01*
X125462328Y-67718792D01*
X125470200Y-67712139D01*
X125621052Y-67561812D01*
X125627730Y-67553965D01*
X125752003Y-67381020D01*
X125757313Y-67372183D01*
X125851670Y-67181267D01*
X125855469Y-67171672D01*
X125917377Y-66967910D01*
X125919555Y-66957837D01*
X125920986Y-66946962D01*
X125918775Y-66932778D01*
X125905617Y-66929000D01*
X123270225Y-66929000D01*
X123256694Y-66932973D01*
X123255257Y-66942966D01*
X123285565Y-67077446D01*
X123288645Y-67087275D01*
X123368770Y-67284603D01*
X123373413Y-67293794D01*
X123484694Y-67475388D01*
X123490777Y-67483699D01*
X123630213Y-67644667D01*
X123637580Y-67651883D01*
X123801434Y-67787916D01*
X123809881Y-67793831D01*
X123878969Y-67834203D01*
X123927693Y-67885842D01*
X123940764Y-67955625D01*
X123914033Y-68021396D01*
X123873584Y-68054752D01*
X123860607Y-68061507D01*
X123856474Y-68064610D01*
X123856471Y-68064612D01*
X123686100Y-68192530D01*
X123681965Y-68195635D01*
X123678393Y-68199373D01*
X123552942Y-68330650D01*
X123527629Y-68357138D01*
X123524715Y-68361410D01*
X123524714Y-68361411D01*
X123485024Y-68419594D01*
X123401743Y-68541680D01*
X123386003Y-68575590D01*
X123315209Y-68728103D01*
X123307688Y-68744305D01*
X123247989Y-68959570D01*
X123224251Y-69181695D01*
X123224548Y-69186848D01*
X123224548Y-69186851D01*
X123234359Y-69357001D01*
X123237110Y-69404715D01*
X123238247Y-69409761D01*
X123238248Y-69409767D01*
X123254752Y-69482999D01*
X123286222Y-69622639D01*
X123370266Y-69829616D01*
X123486987Y-70020088D01*
X123633250Y-70188938D01*
X123805126Y-70331632D01*
X123836864Y-70350178D01*
X123878445Y-70374476D01*
X123927169Y-70426114D01*
X123940240Y-70495897D01*
X123913509Y-70561669D01*
X123873055Y-70595027D01*
X123860607Y-70601507D01*
X123856474Y-70604610D01*
X123856471Y-70604612D01*
X123727342Y-70701565D01*
X123681965Y-70735635D01*
X123527629Y-70897138D01*
X123401743Y-71081680D01*
X123374200Y-71141016D01*
X123316977Y-71264294D01*
X123307688Y-71284305D01*
X123247989Y-71499570D01*
X123224251Y-71721695D01*
X123224548Y-71726848D01*
X123224548Y-71726851D01*
X123230011Y-71821590D01*
X123237110Y-71944715D01*
X123238247Y-71949761D01*
X123238248Y-71949767D01*
X123257006Y-72032999D01*
X123286222Y-72162639D01*
X123370266Y-72369616D01*
X123486987Y-72560088D01*
X123490367Y-72563990D01*
X123499449Y-72574475D01*
X123633250Y-72728938D01*
X123805126Y-72871632D01*
X123872377Y-72910930D01*
X123878445Y-72914476D01*
X123927169Y-72966114D01*
X123940240Y-73035897D01*
X123913509Y-73101669D01*
X123873055Y-73135027D01*
X123860607Y-73141507D01*
X123856474Y-73144610D01*
X123856471Y-73144612D01*
X123714023Y-73251565D01*
X123681965Y-73275635D01*
X123527629Y-73437138D01*
X123524715Y-73441410D01*
X123524714Y-73441411D01*
X123412095Y-73606504D01*
X123357184Y-73651507D01*
X123308007Y-73661500D01*
X118374800Y-73661500D01*
X118306679Y-73641498D01*
X118260186Y-73587842D01*
X118250082Y-73517568D01*
X118265681Y-73472500D01*
X118306223Y-73402279D01*
X118306224Y-73402278D01*
X118309527Y-73396556D01*
X118368542Y-73214928D01*
X118373446Y-73168275D01*
X118387814Y-73031565D01*
X118388504Y-73025000D01*
X118380014Y-72944219D01*
X118369232Y-72841635D01*
X118369232Y-72841633D01*
X118368542Y-72835072D01*
X118309527Y-72653444D01*
X118278973Y-72600522D01*
X118217342Y-72493775D01*
X118217341Y-72493774D01*
X118214040Y-72488056D01*
X118209621Y-72483148D01*
X118207564Y-72480317D01*
X118183705Y-72413449D01*
X118183500Y-72406256D01*
X118183500Y-71465660D01*
X118203502Y-71397539D01*
X118220405Y-71376565D01*
X123143406Y-66453564D01*
X123205718Y-66419538D01*
X123260522Y-66421000D01*
X125905344Y-66421000D01*
X125918875Y-66417027D01*
X125920180Y-66407947D01*
X125878214Y-66240875D01*
X125874894Y-66231124D01*
X125789972Y-66035814D01*
X125785105Y-66026739D01*
X125669426Y-65847926D01*
X125663136Y-65839757D01*
X125519293Y-65681677D01*
X125488241Y-65617831D01*
X125496635Y-65547333D01*
X125541812Y-65492564D01*
X125568256Y-65478895D01*
X125675297Y-65438767D01*
X125683705Y-65435615D01*
X125800261Y-65348261D01*
X125887615Y-65231705D01*
X125938745Y-65095316D01*
X125945500Y-65033134D01*
X125945500Y-63236866D01*
X125938745Y-63174684D01*
X125887615Y-63038295D01*
X125800261Y-62921739D01*
X125683705Y-62834385D01*
X125547316Y-62783255D01*
X125485134Y-62776500D01*
X123688866Y-62776500D01*
X123626684Y-62783255D01*
X123490295Y-62834385D01*
X123373739Y-62921739D01*
X123286385Y-63038295D01*
X123235255Y-63174684D01*
X123228500Y-63236866D01*
X123228500Y-64312340D01*
X123208498Y-64380461D01*
X123191595Y-64401435D01*
X116994480Y-70598550D01*
X116988215Y-70604404D01*
X116944615Y-70642439D01*
X116907872Y-70694719D01*
X116903939Y-70700014D01*
X116864524Y-70750282D01*
X116861401Y-70757198D01*
X116860017Y-70759484D01*
X116851643Y-70774165D01*
X116850378Y-70776525D01*
X116846010Y-70782739D01*
X116843250Y-70789818D01*
X116843249Y-70789820D01*
X116822798Y-70842275D01*
X116820247Y-70848344D01*
X116793955Y-70906573D01*
X116792571Y-70914040D01*
X116791770Y-70916595D01*
X116787141Y-70932848D01*
X116786478Y-70935428D01*
X116783718Y-70942509D01*
X116782727Y-70950040D01*
X116782726Y-70950042D01*
X116775379Y-71005852D01*
X116774348Y-71012359D01*
X116762704Y-71075186D01*
X116763141Y-71082766D01*
X116763141Y-71082767D01*
X116766291Y-71137392D01*
X116766500Y-71144646D01*
X116766500Y-72406256D01*
X116746498Y-72474377D01*
X116742436Y-72480317D01*
X116740379Y-72483148D01*
X116735960Y-72488056D01*
X116732659Y-72493774D01*
X116732658Y-72493775D01*
X116671028Y-72600522D01*
X116640473Y-72653444D01*
X116638431Y-72659729D01*
X116592029Y-72802538D01*
X116551955Y-72861144D01*
X116486559Y-72888781D01*
X116416602Y-72876674D01*
X116383101Y-72852697D01*
X115248316Y-71717911D01*
X113977122Y-70446717D01*
X113943096Y-70384405D01*
X113940907Y-70370792D01*
X113938741Y-70350178D01*
X113929683Y-70264004D01*
X113924232Y-70212135D01*
X113924232Y-70212133D01*
X113923542Y-70205572D01*
X113864527Y-70023944D01*
X113769040Y-69858556D01*
X113742983Y-69829616D01*
X113645675Y-69721545D01*
X113645674Y-69721544D01*
X113641253Y-69716634D01*
X113511881Y-69622639D01*
X113492094Y-69608263D01*
X113492093Y-69608262D01*
X113486752Y-69604382D01*
X113480724Y-69601698D01*
X113480722Y-69601697D01*
X113318319Y-69529391D01*
X113318318Y-69529391D01*
X113312288Y-69526706D01*
X113218887Y-69506853D01*
X113131944Y-69488372D01*
X113131939Y-69488372D01*
X113125487Y-69487000D01*
X112934513Y-69487000D01*
X112928061Y-69488372D01*
X112928056Y-69488372D01*
X112841113Y-69506853D01*
X112747712Y-69526706D01*
X112741682Y-69529391D01*
X112741681Y-69529391D01*
X112579278Y-69601697D01*
X112579276Y-69601698D01*
X112573248Y-69604382D01*
X112567907Y-69608262D01*
X112567906Y-69608263D01*
X112548119Y-69622639D01*
X112418747Y-69716634D01*
X112414326Y-69721544D01*
X112414325Y-69721545D01*
X112317018Y-69829616D01*
X112290960Y-69858556D01*
X112195473Y-70023944D01*
X112136458Y-70205572D01*
X112135768Y-70212133D01*
X112135768Y-70212135D01*
X112129686Y-70270000D01*
X112116496Y-70395500D01*
X96632946Y-70395500D01*
X96632946Y-67511284D01*
X112759124Y-67511284D01*
X112760103Y-67516981D01*
X112760103Y-67516982D01*
X112793637Y-67712139D01*
X112795181Y-67721126D01*
X112868875Y-67920884D01*
X112977739Y-68103866D01*
X113118125Y-68263946D01*
X113285333Y-68395762D01*
X113290444Y-68398451D01*
X113290447Y-68398453D01*
X113393961Y-68452915D01*
X113473762Y-68494900D01*
X113479283Y-68496614D01*
X113479287Y-68496616D01*
X113639538Y-68546375D01*
X113677102Y-68558039D01*
X113849982Y-68578500D01*
X113973013Y-68578500D01*
X114058645Y-68570632D01*
X114125270Y-68564510D01*
X114125273Y-68564509D01*
X114131024Y-68563981D01*
X114152093Y-68558039D01*
X114330389Y-68507754D01*
X114330391Y-68507753D01*
X114335948Y-68506186D01*
X114341123Y-68503634D01*
X114341128Y-68503632D01*
X114521727Y-68414570D01*
X114526908Y-68412015D01*
X114697509Y-68284622D01*
X114842037Y-68128271D01*
X114940865Y-67971638D01*
X114952574Y-67953081D01*
X114955653Y-67948201D01*
X115034551Y-67750441D01*
X115037599Y-67735121D01*
X115074962Y-67547282D01*
X115074962Y-67547280D01*
X115076089Y-67541615D01*
X115076273Y-67527605D01*
X115078191Y-67381020D01*
X115078876Y-67328716D01*
X115072875Y-67293794D01*
X115043797Y-67124564D01*
X115043796Y-67124561D01*
X115042819Y-67118874D01*
X114969125Y-66919116D01*
X114860261Y-66736134D01*
X114719875Y-66576054D01*
X114552667Y-66444238D01*
X114547556Y-66441549D01*
X114547553Y-66441547D01*
X114406720Y-66367451D01*
X114364238Y-66345100D01*
X114358717Y-66343386D01*
X114358713Y-66343384D01*
X114166421Y-66283676D01*
X114166422Y-66283676D01*
X114160898Y-66281961D01*
X113988018Y-66261500D01*
X113864987Y-66261500D01*
X113779355Y-66269368D01*
X113712730Y-66275490D01*
X113712727Y-66275491D01*
X113706976Y-66276019D01*
X113701417Y-66277587D01*
X113701416Y-66277587D01*
X113507611Y-66332246D01*
X113507609Y-66332247D01*
X113502052Y-66333814D01*
X113496877Y-66336366D01*
X113496872Y-66336368D01*
X113351725Y-66407947D01*
X113311092Y-66427985D01*
X113306466Y-66431439D01*
X113306465Y-66431440D01*
X113229867Y-66488638D01*
X113140491Y-66555378D01*
X112995963Y-66711729D01*
X112882347Y-66891799D01*
X112803449Y-67089559D01*
X112802323Y-67095219D01*
X112802322Y-67095223D01*
X112764652Y-67284603D01*
X112761911Y-67298385D01*
X112761835Y-67304160D01*
X112761835Y-67304164D01*
X112761514Y-67328716D01*
X112759124Y-67511284D01*
X96632946Y-67511284D01*
X96632946Y-63700148D01*
X96652948Y-63632027D01*
X96669851Y-63611053D01*
X98756500Y-61524405D01*
X98818812Y-61490379D01*
X98845595Y-61487500D01*
X98901487Y-61487500D01*
X98907939Y-61486128D01*
X98907944Y-61486128D01*
X98994888Y-61467647D01*
X99088288Y-61447794D01*
X99094319Y-61445109D01*
X99256722Y-61372803D01*
X99256724Y-61372802D01*
X99262752Y-61370118D01*
X99417253Y-61257866D01*
X99545040Y-61115944D01*
X99640527Y-60950556D01*
X99699542Y-60768928D01*
X99719504Y-60579000D01*
X99714485Y-60531251D01*
X99700232Y-60395635D01*
X99700232Y-60395633D01*
X99699542Y-60389072D01*
X99640527Y-60207444D01*
X99545040Y-60042056D01*
X99417253Y-59900134D01*
X99262752Y-59787882D01*
X99256724Y-59785198D01*
X99256722Y-59785197D01*
X99094319Y-59712891D01*
X99094318Y-59712891D01*
X99088288Y-59710206D01*
X98994887Y-59690353D01*
X98907944Y-59671872D01*
X98907939Y-59671872D01*
X98901487Y-59670500D01*
X98710513Y-59670500D01*
X98704061Y-59671872D01*
X98704056Y-59671872D01*
X98617113Y-59690353D01*
X98523712Y-59710206D01*
X98517682Y-59712891D01*
X98517681Y-59712891D01*
X98355278Y-59785197D01*
X98355276Y-59785198D01*
X98349248Y-59787882D01*
X98194747Y-59900134D01*
X98066960Y-60042056D01*
X97971473Y-60207444D01*
X97912458Y-60389072D01*
X97911768Y-60395633D01*
X97911768Y-60395635D01*
X97903652Y-60472856D01*
X97897107Y-60535134D01*
X97895093Y-60554293D01*
X97868080Y-60619950D01*
X97858878Y-60630218D01*
X95792595Y-62696500D01*
X95730283Y-62730526D01*
X95659467Y-62725461D01*
X95602632Y-62682914D01*
X95577821Y-62616394D01*
X95577500Y-62607405D01*
X95577500Y-61832744D01*
X95597502Y-61764623D01*
X95601564Y-61758683D01*
X95603621Y-61755852D01*
X95608040Y-61750944D01*
X95703527Y-61585556D01*
X95762542Y-61403928D01*
X95765814Y-61372803D01*
X95781814Y-61220565D01*
X95782504Y-61214000D01*
X95762542Y-61024072D01*
X95703527Y-60842444D01*
X95608040Y-60677056D01*
X95480253Y-60535134D01*
X95325752Y-60422882D01*
X95319724Y-60420198D01*
X95319722Y-60420197D01*
X95157319Y-60347891D01*
X95157318Y-60347891D01*
X95151288Y-60345206D01*
X95057887Y-60325353D01*
X94970944Y-60306872D01*
X94970939Y-60306872D01*
X94964487Y-60305500D01*
X94773513Y-60305500D01*
X94767061Y-60306872D01*
X94767056Y-60306872D01*
X94680113Y-60325353D01*
X94586712Y-60345206D01*
X94580682Y-60347891D01*
X94580681Y-60347891D01*
X94418278Y-60420197D01*
X94418276Y-60420198D01*
X94412248Y-60422882D01*
X94257747Y-60535134D01*
X94129960Y-60677056D01*
X94034473Y-60842444D01*
X93975458Y-61024072D01*
X93955496Y-61214000D01*
X93956186Y-61220565D01*
X93972187Y-61372803D01*
X93975458Y-61403928D01*
X94034473Y-61585556D01*
X94129960Y-61750944D01*
X94134379Y-61755852D01*
X94136436Y-61758683D01*
X94160295Y-61825551D01*
X94160500Y-61832744D01*
X94160500Y-64066501D01*
X94140498Y-64134622D01*
X94086842Y-64181115D01*
X94016568Y-64191219D01*
X93951988Y-64161725D01*
X93945405Y-64155596D01*
X93380405Y-63590596D01*
X93346379Y-63528284D01*
X93343500Y-63501501D01*
X93343500Y-61789524D01*
X93363502Y-61721403D01*
X93375858Y-61705221D01*
X93449040Y-61623944D01*
X93544527Y-61458556D01*
X93603542Y-61276928D01*
X93605138Y-61261749D01*
X93622814Y-61093565D01*
X93623504Y-61087000D01*
X93603542Y-60897072D01*
X93544527Y-60715444D01*
X93449040Y-60550056D01*
X93321253Y-60408134D01*
X93222157Y-60336136D01*
X93172094Y-60299763D01*
X93172093Y-60299762D01*
X93166752Y-60295882D01*
X93160724Y-60293198D01*
X93160722Y-60293197D01*
X92998319Y-60220891D01*
X92998318Y-60220891D01*
X92992288Y-60218206D01*
X92898887Y-60198353D01*
X92811944Y-60179872D01*
X92811939Y-60179872D01*
X92805487Y-60178500D01*
X92614513Y-60178500D01*
X92608061Y-60179872D01*
X92608056Y-60179872D01*
X92521113Y-60198353D01*
X92427712Y-60218206D01*
X92421682Y-60220891D01*
X92421681Y-60220891D01*
X92259278Y-60293197D01*
X92259276Y-60293198D01*
X92253248Y-60295882D01*
X92247907Y-60299762D01*
X92247906Y-60299763D01*
X92197843Y-60336136D01*
X92098747Y-60408134D01*
X91970960Y-60550056D01*
X91875473Y-60715444D01*
X91816458Y-60897072D01*
X91796496Y-61087000D01*
X91797186Y-61093565D01*
X91814863Y-61261749D01*
X91816458Y-61276928D01*
X91875473Y-61458556D01*
X91970960Y-61623944D01*
X92044137Y-61705215D01*
X92074853Y-61769221D01*
X92076500Y-61789524D01*
X92076500Y-63737329D01*
X92075973Y-63748512D01*
X92074298Y-63756005D01*
X92074547Y-63763931D01*
X92074547Y-63763932D01*
X92076308Y-63819962D01*
X92058455Y-63888677D01*
X92024432Y-63925855D01*
X91977093Y-63960249D01*
X91977088Y-63960254D01*
X91971747Y-63964134D01*
X91843960Y-64106056D01*
X91748473Y-64271444D01*
X91689458Y-64453072D01*
X91669496Y-64643000D01*
X70993000Y-64643000D01*
X70993000Y-55630368D01*
X71013002Y-55562247D01*
X71021595Y-55550442D01*
X71024014Y-55547494D01*
X71041486Y-55530021D01*
X71121810Y-55464101D01*
X71187157Y-55436347D01*
X71201743Y-55435500D01*
X127426257Y-55435500D01*
X127494378Y-55455502D01*
G37*
%TD.AperFunction*%
%TD*%
M02*
