%FSLAX45Y45*%
G04 Gerber Fmt 4.5, Leading zero omitted, Abs format (unit mm)*
G04 Created by KiCad (PCBNEW 6.0.2+dfsg-1) date 2024-09-23 07:34:09*
%MOMM*%
%LPD*%
G01*
G04 APERTURE LIST*
%TA.AperFunction,Profile*%
%ADD10C,0.100000*%
%TD*%
%ADD11C,0.200000*%
%ADD12C,0.100000*%
%ADD13C,0.102000*%
%ADD14C,0.130000*%
G04 APERTURE END LIST*
D10*
X7048500Y-5492750D02*
X12827000Y-5492750D01*
X12827000Y-5492750D02*
X12827000Y-8909050D01*
X12827000Y-8909050D02*
X7048500Y-8909050D01*
X7048500Y-8909050D02*
X7048500Y-5492750D01*
D11*
D12*
X11341900Y-7442000D02*
X11441900Y-7542000D01*
X11441900Y-7442000D02*
X11341900Y-7542000D01*
D13*
X8026600Y-8331200D02*
G75*
G03*
X8026600Y-8331200I-51000J0D01*
G01*
X8661600Y-8331200D02*
G75*
G03*
X8661600Y-8331200I-51000J0D01*
G01*
D14*
X11391900Y-6677000D02*
X11391900Y-6807000D01*
X11326900Y-6742000D02*
X11456900Y-6742000D01*
D11*
X7301119Y-9224526D02*
X7301119Y-9024526D01*
X7348738Y-9024526D01*
X7377309Y-9034050D01*
X7396357Y-9053098D01*
X7405881Y-9072145D01*
X7415405Y-9110240D01*
X7415405Y-9138812D01*
X7405881Y-9176907D01*
X7396357Y-9195955D01*
X7377309Y-9215002D01*
X7348738Y-9224526D01*
X7301119Y-9224526D01*
X7501119Y-9224526D02*
X7501119Y-9091193D01*
X7501119Y-9129288D02*
X7510643Y-9110240D01*
X7520167Y-9100717D01*
X7539214Y-9091193D01*
X7558262Y-9091193D01*
X7624928Y-9224526D02*
X7624928Y-9091193D01*
X7624928Y-9024526D02*
X7615405Y-9034050D01*
X7624928Y-9043574D01*
X7634452Y-9034050D01*
X7624928Y-9024526D01*
X7624928Y-9043574D01*
X7748738Y-9224526D02*
X7729690Y-9215002D01*
X7720167Y-9195955D01*
X7720167Y-9024526D01*
X7853500Y-9224526D02*
X7834452Y-9215002D01*
X7824928Y-9195955D01*
X7824928Y-9024526D01*
X8082071Y-9224526D02*
X8082071Y-9024526D01*
X8148738Y-9167383D01*
X8215405Y-9024526D01*
X8215405Y-9224526D01*
X8396357Y-9224526D02*
X8396357Y-9119764D01*
X8386833Y-9100717D01*
X8367786Y-9091193D01*
X8329690Y-9091193D01*
X8310643Y-9100717D01*
X8396357Y-9215002D02*
X8377309Y-9224526D01*
X8329690Y-9224526D01*
X8310643Y-9215002D01*
X8301119Y-9195955D01*
X8301119Y-9176907D01*
X8310643Y-9157860D01*
X8329690Y-9148336D01*
X8377309Y-9148336D01*
X8396357Y-9138812D01*
X8491595Y-9091193D02*
X8491595Y-9291193D01*
X8491595Y-9100717D02*
X8510643Y-9091193D01*
X8548738Y-9091193D01*
X8567786Y-9100717D01*
X8577310Y-9110240D01*
X8586833Y-9129288D01*
X8586833Y-9186431D01*
X8577310Y-9205479D01*
X8567786Y-9215002D01*
X8548738Y-9224526D01*
X8510643Y-9224526D01*
X8491595Y-9215002D01*
X8672548Y-9205479D02*
X8682071Y-9215002D01*
X8672548Y-9224526D01*
X8663024Y-9215002D01*
X8672548Y-9205479D01*
X8672548Y-9224526D01*
X8672548Y-9100717D02*
X8682071Y-9110240D01*
X8672548Y-9119764D01*
X8663024Y-9110240D01*
X8672548Y-9100717D01*
X8672548Y-9119764D01*
D12*
X6943500Y-9504050D02*
X7043500Y-9604050D01*
X7043500Y-9504050D02*
X6943500Y-9604050D01*
D11*
X7405881Y-9644526D02*
X7291595Y-9644526D01*
X7348738Y-9644526D02*
X7348738Y-9444526D01*
X7329690Y-9473098D01*
X7310643Y-9492145D01*
X7291595Y-9501669D01*
X7491595Y-9625479D02*
X7501119Y-9635002D01*
X7491595Y-9644526D01*
X7482071Y-9635002D01*
X7491595Y-9625479D01*
X7491595Y-9644526D01*
X7624928Y-9444526D02*
X7643976Y-9444526D01*
X7663024Y-9454050D01*
X7672548Y-9463574D01*
X7682071Y-9482621D01*
X7691595Y-9520717D01*
X7691595Y-9568336D01*
X7682071Y-9606431D01*
X7672548Y-9625479D01*
X7663024Y-9635002D01*
X7643976Y-9644526D01*
X7624928Y-9644526D01*
X7605881Y-9635002D01*
X7596357Y-9625479D01*
X7586833Y-9606431D01*
X7577309Y-9568336D01*
X7577309Y-9520717D01*
X7586833Y-9482621D01*
X7596357Y-9463574D01*
X7605881Y-9454050D01*
X7624928Y-9444526D01*
X7815405Y-9444526D02*
X7834452Y-9444526D01*
X7853500Y-9454050D01*
X7863024Y-9463574D01*
X7872548Y-9482621D01*
X7882071Y-9520717D01*
X7882071Y-9568336D01*
X7872548Y-9606431D01*
X7863024Y-9625479D01*
X7853500Y-9635002D01*
X7834452Y-9644526D01*
X7815405Y-9644526D01*
X7796357Y-9635002D01*
X7786833Y-9625479D01*
X7777309Y-9606431D01*
X7767786Y-9568336D01*
X7767786Y-9520717D01*
X7777309Y-9482621D01*
X7786833Y-9463574D01*
X7796357Y-9454050D01*
X7815405Y-9444526D01*
X8005881Y-9444526D02*
X8024928Y-9444526D01*
X8043976Y-9454050D01*
X8053500Y-9463574D01*
X8063024Y-9482621D01*
X8072548Y-9520717D01*
X8072548Y-9568336D01*
X8063024Y-9606431D01*
X8053500Y-9625479D01*
X8043976Y-9635002D01*
X8024928Y-9644526D01*
X8005881Y-9644526D01*
X7986833Y-9635002D01*
X7977309Y-9625479D01*
X7967786Y-9606431D01*
X7958262Y-9568336D01*
X7958262Y-9520717D01*
X7967786Y-9482621D01*
X7977309Y-9463574D01*
X7986833Y-9454050D01*
X8005881Y-9444526D01*
X8158262Y-9644526D02*
X8158262Y-9511193D01*
X8158262Y-9530240D02*
X8167786Y-9520717D01*
X8186833Y-9511193D01*
X8215405Y-9511193D01*
X8234452Y-9520717D01*
X8243976Y-9539764D01*
X8243976Y-9644526D01*
X8243976Y-9539764D02*
X8253500Y-9520717D01*
X8272548Y-9511193D01*
X8301119Y-9511193D01*
X8320167Y-9520717D01*
X8329690Y-9539764D01*
X8329690Y-9644526D01*
X8424929Y-9644526D02*
X8424929Y-9511193D01*
X8424929Y-9530240D02*
X8434452Y-9520717D01*
X8453500Y-9511193D01*
X8482071Y-9511193D01*
X8501119Y-9520717D01*
X8510643Y-9539764D01*
X8510643Y-9644526D01*
X8510643Y-9539764D02*
X8520167Y-9520717D01*
X8539214Y-9511193D01*
X8567786Y-9511193D01*
X8586833Y-9520717D01*
X8596357Y-9539764D01*
X8596357Y-9644526D01*
X8986833Y-9435002D02*
X8815405Y-9692145D01*
X9243976Y-9444526D02*
X9263024Y-9444526D01*
X9282071Y-9454050D01*
X9291595Y-9463574D01*
X9301119Y-9482621D01*
X9310643Y-9520717D01*
X9310643Y-9568336D01*
X9301119Y-9606431D01*
X9291595Y-9625479D01*
X9282071Y-9635002D01*
X9263024Y-9644526D01*
X9243976Y-9644526D01*
X9224929Y-9635002D01*
X9215405Y-9625479D01*
X9205881Y-9606431D01*
X9196357Y-9568336D01*
X9196357Y-9520717D01*
X9205881Y-9482621D01*
X9215405Y-9463574D01*
X9224929Y-9454050D01*
X9243976Y-9444526D01*
X9396357Y-9625479D02*
X9405881Y-9635002D01*
X9396357Y-9644526D01*
X9386833Y-9635002D01*
X9396357Y-9625479D01*
X9396357Y-9644526D01*
X9529690Y-9444526D02*
X9548738Y-9444526D01*
X9567786Y-9454050D01*
X9577310Y-9463574D01*
X9586833Y-9482621D01*
X9596357Y-9520717D01*
X9596357Y-9568336D01*
X9586833Y-9606431D01*
X9577310Y-9625479D01*
X9567786Y-9635002D01*
X9548738Y-9644526D01*
X9529690Y-9644526D01*
X9510643Y-9635002D01*
X9501119Y-9625479D01*
X9491595Y-9606431D01*
X9482071Y-9568336D01*
X9482071Y-9520717D01*
X9491595Y-9482621D01*
X9501119Y-9463574D01*
X9510643Y-9454050D01*
X9529690Y-9444526D01*
X9663024Y-9444526D02*
X9786833Y-9444526D01*
X9720167Y-9520717D01*
X9748738Y-9520717D01*
X9767786Y-9530240D01*
X9777310Y-9539764D01*
X9786833Y-9558812D01*
X9786833Y-9606431D01*
X9777310Y-9625479D01*
X9767786Y-9635002D01*
X9748738Y-9644526D01*
X9691595Y-9644526D01*
X9672548Y-9635002D01*
X9663024Y-9625479D01*
X9882071Y-9644526D02*
X9920167Y-9644526D01*
X9939214Y-9635002D01*
X9948738Y-9625479D01*
X9967786Y-9596907D01*
X9977310Y-9558812D01*
X9977310Y-9482621D01*
X9967786Y-9463574D01*
X9958262Y-9454050D01*
X9939214Y-9444526D01*
X9901119Y-9444526D01*
X9882071Y-9454050D01*
X9872548Y-9463574D01*
X9863024Y-9482621D01*
X9863024Y-9530240D01*
X9872548Y-9549288D01*
X9882071Y-9558812D01*
X9901119Y-9568336D01*
X9939214Y-9568336D01*
X9958262Y-9558812D01*
X9967786Y-9549288D01*
X9977310Y-9530240D01*
X10148738Y-9511193D02*
X10148738Y-9644526D01*
X10101119Y-9435002D02*
X10053500Y-9577860D01*
X10177310Y-9577860D01*
X10243976Y-9444526D02*
X10243976Y-9482621D01*
X10320167Y-9444526D02*
X10320167Y-9482621D01*
X10615405Y-9720717D02*
X10605881Y-9711193D01*
X10586833Y-9682621D01*
X10577310Y-9663574D01*
X10567786Y-9635002D01*
X10558262Y-9587383D01*
X10558262Y-9549288D01*
X10567786Y-9501669D01*
X10577310Y-9473098D01*
X10586833Y-9454050D01*
X10605881Y-9425479D01*
X10615405Y-9415955D01*
X10796357Y-9644526D02*
X10682071Y-9644526D01*
X10739214Y-9644526D02*
X10739214Y-9444526D01*
X10720167Y-9473098D01*
X10701119Y-9492145D01*
X10682071Y-9501669D01*
X11034452Y-9644526D02*
X11034452Y-9444526D01*
X11120167Y-9644526D02*
X11120167Y-9539764D01*
X11110643Y-9520717D01*
X11091595Y-9511193D01*
X11063024Y-9511193D01*
X11043976Y-9520717D01*
X11034452Y-9530240D01*
X11243976Y-9644526D02*
X11224928Y-9635002D01*
X11215405Y-9625479D01*
X11205881Y-9606431D01*
X11205881Y-9549288D01*
X11215405Y-9530240D01*
X11224928Y-9520717D01*
X11243976Y-9511193D01*
X11272548Y-9511193D01*
X11291595Y-9520717D01*
X11301119Y-9530240D01*
X11310643Y-9549288D01*
X11310643Y-9606431D01*
X11301119Y-9625479D01*
X11291595Y-9635002D01*
X11272548Y-9644526D01*
X11243976Y-9644526D01*
X11424928Y-9644526D02*
X11405881Y-9635002D01*
X11396357Y-9615955D01*
X11396357Y-9444526D01*
X11577309Y-9635002D02*
X11558262Y-9644526D01*
X11520167Y-9644526D01*
X11501119Y-9635002D01*
X11491595Y-9615955D01*
X11491595Y-9539764D01*
X11501119Y-9520717D01*
X11520167Y-9511193D01*
X11558262Y-9511193D01*
X11577309Y-9520717D01*
X11586833Y-9539764D01*
X11586833Y-9558812D01*
X11491595Y-9577860D01*
X11653500Y-9720717D02*
X11663024Y-9711193D01*
X11682071Y-9682621D01*
X11691595Y-9663574D01*
X11701119Y-9635002D01*
X11710643Y-9587383D01*
X11710643Y-9549288D01*
X11701119Y-9501669D01*
X11691595Y-9473098D01*
X11682071Y-9454050D01*
X11663024Y-9425479D01*
X11653500Y-9415955D01*
X12015405Y-9720717D02*
X12005881Y-9711193D01*
X11986833Y-9682621D01*
X11977309Y-9663574D01*
X11967786Y-9635002D01*
X11958262Y-9587383D01*
X11958262Y-9549288D01*
X11967786Y-9501669D01*
X11977309Y-9473098D01*
X11986833Y-9454050D01*
X12005881Y-9425479D01*
X12015405Y-9415955D01*
X12091595Y-9511193D02*
X12091595Y-9644526D01*
X12091595Y-9530240D02*
X12101119Y-9520717D01*
X12120167Y-9511193D01*
X12148738Y-9511193D01*
X12167786Y-9520717D01*
X12177309Y-9539764D01*
X12177309Y-9644526D01*
X12301119Y-9644526D02*
X12282071Y-9635002D01*
X12272548Y-9625479D01*
X12263024Y-9606431D01*
X12263024Y-9549288D01*
X12272548Y-9530240D01*
X12282071Y-9520717D01*
X12301119Y-9511193D01*
X12329690Y-9511193D01*
X12348738Y-9520717D01*
X12358262Y-9530240D01*
X12367786Y-9549288D01*
X12367786Y-9606431D01*
X12358262Y-9625479D01*
X12348738Y-9635002D01*
X12329690Y-9644526D01*
X12301119Y-9644526D01*
X12424928Y-9511193D02*
X12501119Y-9511193D01*
X12453500Y-9444526D02*
X12453500Y-9615955D01*
X12463024Y-9635002D01*
X12482071Y-9644526D01*
X12501119Y-9644526D01*
X12720167Y-9511193D02*
X12720167Y-9711193D01*
X12720167Y-9520717D02*
X12739214Y-9511193D01*
X12777309Y-9511193D01*
X12796357Y-9520717D01*
X12805881Y-9530240D01*
X12815405Y-9549288D01*
X12815405Y-9606431D01*
X12805881Y-9625479D01*
X12796357Y-9635002D01*
X12777309Y-9644526D01*
X12739214Y-9644526D01*
X12720167Y-9635002D01*
X12929690Y-9644526D02*
X12910643Y-9635002D01*
X12901119Y-9615955D01*
X12901119Y-9444526D01*
X13091595Y-9644526D02*
X13091595Y-9539764D01*
X13082071Y-9520717D01*
X13063024Y-9511193D01*
X13024928Y-9511193D01*
X13005881Y-9520717D01*
X13091595Y-9635002D02*
X13072548Y-9644526D01*
X13024928Y-9644526D01*
X13005881Y-9635002D01*
X12996357Y-9615955D01*
X12996357Y-9596907D01*
X13005881Y-9577860D01*
X13024928Y-9568336D01*
X13072548Y-9568336D01*
X13091595Y-9558812D01*
X13158262Y-9511193D02*
X13234452Y-9511193D01*
X13186833Y-9444526D02*
X13186833Y-9615955D01*
X13196357Y-9635002D01*
X13215405Y-9644526D01*
X13234452Y-9644526D01*
X13377309Y-9635002D02*
X13358262Y-9644526D01*
X13320167Y-9644526D01*
X13301119Y-9635002D01*
X13291595Y-9615955D01*
X13291595Y-9539764D01*
X13301119Y-9520717D01*
X13320167Y-9511193D01*
X13358262Y-9511193D01*
X13377309Y-9520717D01*
X13386833Y-9539764D01*
X13386833Y-9558812D01*
X13291595Y-9577860D01*
X13558262Y-9644526D02*
X13558262Y-9444526D01*
X13558262Y-9635002D02*
X13539214Y-9644526D01*
X13501119Y-9644526D01*
X13482071Y-9635002D01*
X13472548Y-9625479D01*
X13463024Y-9606431D01*
X13463024Y-9549288D01*
X13472548Y-9530240D01*
X13482071Y-9520717D01*
X13501119Y-9511193D01*
X13539214Y-9511193D01*
X13558262Y-9520717D01*
X13634452Y-9720717D02*
X13643976Y-9711193D01*
X13663024Y-9682621D01*
X13672548Y-9663574D01*
X13682071Y-9635002D01*
X13691595Y-9587383D01*
X13691595Y-9549288D01*
X13682071Y-9501669D01*
X13672548Y-9473098D01*
X13663024Y-9454050D01*
X13643976Y-9425479D01*
X13634452Y-9415955D01*
D13*
X7043500Y-9818050D02*
G75*
G03*
X7043500Y-9818050I-51000J0D01*
G01*
D11*
X7405881Y-9908526D02*
X7291595Y-9908526D01*
X7348738Y-9908526D02*
X7348738Y-9708526D01*
X7329690Y-9737098D01*
X7310643Y-9756145D01*
X7291595Y-9765669D01*
X7491595Y-9889479D02*
X7501119Y-9899002D01*
X7491595Y-9908526D01*
X7482071Y-9899002D01*
X7491595Y-9889479D01*
X7491595Y-9908526D01*
X7624928Y-9708526D02*
X7643976Y-9708526D01*
X7663024Y-9718050D01*
X7672548Y-9727574D01*
X7682071Y-9746621D01*
X7691595Y-9784717D01*
X7691595Y-9832336D01*
X7682071Y-9870431D01*
X7672548Y-9889479D01*
X7663024Y-9899002D01*
X7643976Y-9908526D01*
X7624928Y-9908526D01*
X7605881Y-9899002D01*
X7596357Y-9889479D01*
X7586833Y-9870431D01*
X7577309Y-9832336D01*
X7577309Y-9784717D01*
X7586833Y-9746621D01*
X7596357Y-9727574D01*
X7605881Y-9718050D01*
X7624928Y-9708526D01*
X7767786Y-9727574D02*
X7777309Y-9718050D01*
X7796357Y-9708526D01*
X7843976Y-9708526D01*
X7863024Y-9718050D01*
X7872548Y-9727574D01*
X7882071Y-9746621D01*
X7882071Y-9765669D01*
X7872548Y-9794240D01*
X7758262Y-9908526D01*
X7882071Y-9908526D01*
X8005881Y-9708526D02*
X8024928Y-9708526D01*
X8043976Y-9718050D01*
X8053500Y-9727574D01*
X8063024Y-9746621D01*
X8072548Y-9784717D01*
X8072548Y-9832336D01*
X8063024Y-9870431D01*
X8053500Y-9889479D01*
X8043976Y-9899002D01*
X8024928Y-9908526D01*
X8005881Y-9908526D01*
X7986833Y-9899002D01*
X7977309Y-9889479D01*
X7967786Y-9870431D01*
X7958262Y-9832336D01*
X7958262Y-9784717D01*
X7967786Y-9746621D01*
X7977309Y-9727574D01*
X7986833Y-9718050D01*
X8005881Y-9708526D01*
X8158262Y-9908526D02*
X8158262Y-9775193D01*
X8158262Y-9794240D02*
X8167786Y-9784717D01*
X8186833Y-9775193D01*
X8215405Y-9775193D01*
X8234452Y-9784717D01*
X8243976Y-9803764D01*
X8243976Y-9908526D01*
X8243976Y-9803764D02*
X8253500Y-9784717D01*
X8272548Y-9775193D01*
X8301119Y-9775193D01*
X8320167Y-9784717D01*
X8329690Y-9803764D01*
X8329690Y-9908526D01*
X8424929Y-9908526D02*
X8424929Y-9775193D01*
X8424929Y-9794240D02*
X8434452Y-9784717D01*
X8453500Y-9775193D01*
X8482071Y-9775193D01*
X8501119Y-9784717D01*
X8510643Y-9803764D01*
X8510643Y-9908526D01*
X8510643Y-9803764D02*
X8520167Y-9784717D01*
X8539214Y-9775193D01*
X8567786Y-9775193D01*
X8586833Y-9784717D01*
X8596357Y-9803764D01*
X8596357Y-9908526D01*
X8986833Y-9699002D02*
X8815405Y-9956145D01*
X9243976Y-9708526D02*
X9263024Y-9708526D01*
X9282071Y-9718050D01*
X9291595Y-9727574D01*
X9301119Y-9746621D01*
X9310643Y-9784717D01*
X9310643Y-9832336D01*
X9301119Y-9870431D01*
X9291595Y-9889479D01*
X9282071Y-9899002D01*
X9263024Y-9908526D01*
X9243976Y-9908526D01*
X9224929Y-9899002D01*
X9215405Y-9889479D01*
X9205881Y-9870431D01*
X9196357Y-9832336D01*
X9196357Y-9784717D01*
X9205881Y-9746621D01*
X9215405Y-9727574D01*
X9224929Y-9718050D01*
X9243976Y-9708526D01*
X9396357Y-9889479D02*
X9405881Y-9899002D01*
X9396357Y-9908526D01*
X9386833Y-9899002D01*
X9396357Y-9889479D01*
X9396357Y-9908526D01*
X9529690Y-9708526D02*
X9548738Y-9708526D01*
X9567786Y-9718050D01*
X9577310Y-9727574D01*
X9586833Y-9746621D01*
X9596357Y-9784717D01*
X9596357Y-9832336D01*
X9586833Y-9870431D01*
X9577310Y-9889479D01*
X9567786Y-9899002D01*
X9548738Y-9908526D01*
X9529690Y-9908526D01*
X9510643Y-9899002D01*
X9501119Y-9889479D01*
X9491595Y-9870431D01*
X9482071Y-9832336D01*
X9482071Y-9784717D01*
X9491595Y-9746621D01*
X9501119Y-9727574D01*
X9510643Y-9718050D01*
X9529690Y-9708526D01*
X9767786Y-9775193D02*
X9767786Y-9908526D01*
X9720167Y-9699002D02*
X9672548Y-9841860D01*
X9796357Y-9841860D01*
X9910643Y-9708526D02*
X9929690Y-9708526D01*
X9948738Y-9718050D01*
X9958262Y-9727574D01*
X9967786Y-9746621D01*
X9977310Y-9784717D01*
X9977310Y-9832336D01*
X9967786Y-9870431D01*
X9958262Y-9889479D01*
X9948738Y-9899002D01*
X9929690Y-9908526D01*
X9910643Y-9908526D01*
X9891595Y-9899002D01*
X9882071Y-9889479D01*
X9872548Y-9870431D01*
X9863024Y-9832336D01*
X9863024Y-9784717D01*
X9872548Y-9746621D01*
X9882071Y-9727574D01*
X9891595Y-9718050D01*
X9910643Y-9708526D01*
X10053500Y-9727574D02*
X10063024Y-9718050D01*
X10082071Y-9708526D01*
X10129690Y-9708526D01*
X10148738Y-9718050D01*
X10158262Y-9727574D01*
X10167786Y-9746621D01*
X10167786Y-9765669D01*
X10158262Y-9794240D01*
X10043976Y-9908526D01*
X10167786Y-9908526D01*
X10243976Y-9708526D02*
X10243976Y-9746621D01*
X10320167Y-9708526D02*
X10320167Y-9746621D01*
X10615405Y-9984717D02*
X10605881Y-9975193D01*
X10586833Y-9946621D01*
X10577310Y-9927574D01*
X10567786Y-9899002D01*
X10558262Y-9851383D01*
X10558262Y-9813288D01*
X10567786Y-9765669D01*
X10577310Y-9737098D01*
X10586833Y-9718050D01*
X10605881Y-9689479D01*
X10615405Y-9679955D01*
X10682071Y-9727574D02*
X10691595Y-9718050D01*
X10710643Y-9708526D01*
X10758262Y-9708526D01*
X10777310Y-9718050D01*
X10786833Y-9727574D01*
X10796357Y-9746621D01*
X10796357Y-9765669D01*
X10786833Y-9794240D01*
X10672548Y-9908526D01*
X10796357Y-9908526D01*
X11034452Y-9908526D02*
X11034452Y-9708526D01*
X11120167Y-9908526D02*
X11120167Y-9803764D01*
X11110643Y-9784717D01*
X11091595Y-9775193D01*
X11063024Y-9775193D01*
X11043976Y-9784717D01*
X11034452Y-9794240D01*
X11243976Y-9908526D02*
X11224928Y-9899002D01*
X11215405Y-9889479D01*
X11205881Y-9870431D01*
X11205881Y-9813288D01*
X11215405Y-9794240D01*
X11224928Y-9784717D01*
X11243976Y-9775193D01*
X11272548Y-9775193D01*
X11291595Y-9784717D01*
X11301119Y-9794240D01*
X11310643Y-9813288D01*
X11310643Y-9870431D01*
X11301119Y-9889479D01*
X11291595Y-9899002D01*
X11272548Y-9908526D01*
X11243976Y-9908526D01*
X11424928Y-9908526D02*
X11405881Y-9899002D01*
X11396357Y-9879955D01*
X11396357Y-9708526D01*
X11577309Y-9899002D02*
X11558262Y-9908526D01*
X11520167Y-9908526D01*
X11501119Y-9899002D01*
X11491595Y-9879955D01*
X11491595Y-9803764D01*
X11501119Y-9784717D01*
X11520167Y-9775193D01*
X11558262Y-9775193D01*
X11577309Y-9784717D01*
X11586833Y-9803764D01*
X11586833Y-9822812D01*
X11491595Y-9841860D01*
X11663024Y-9899002D02*
X11682071Y-9908526D01*
X11720167Y-9908526D01*
X11739214Y-9899002D01*
X11748738Y-9879955D01*
X11748738Y-9870431D01*
X11739214Y-9851383D01*
X11720167Y-9841860D01*
X11691595Y-9841860D01*
X11672548Y-9832336D01*
X11663024Y-9813288D01*
X11663024Y-9803764D01*
X11672548Y-9784717D01*
X11691595Y-9775193D01*
X11720167Y-9775193D01*
X11739214Y-9784717D01*
X11815405Y-9984717D02*
X11824928Y-9975193D01*
X11843976Y-9946621D01*
X11853500Y-9927574D01*
X11863024Y-9899002D01*
X11872548Y-9851383D01*
X11872548Y-9813288D01*
X11863024Y-9765669D01*
X11853500Y-9737098D01*
X11843976Y-9718050D01*
X11824928Y-9689479D01*
X11815405Y-9679955D01*
X12177309Y-9984717D02*
X12167786Y-9975193D01*
X12148738Y-9946621D01*
X12139214Y-9927574D01*
X12129690Y-9899002D01*
X12120167Y-9851383D01*
X12120167Y-9813288D01*
X12129690Y-9765669D01*
X12139214Y-9737098D01*
X12148738Y-9718050D01*
X12167786Y-9689479D01*
X12177309Y-9679955D01*
X12253500Y-9775193D02*
X12253500Y-9908526D01*
X12253500Y-9794240D02*
X12263024Y-9784717D01*
X12282071Y-9775193D01*
X12310643Y-9775193D01*
X12329690Y-9784717D01*
X12339214Y-9803764D01*
X12339214Y-9908526D01*
X12463024Y-9908526D02*
X12443976Y-9899002D01*
X12434452Y-9889479D01*
X12424928Y-9870431D01*
X12424928Y-9813288D01*
X12434452Y-9794240D01*
X12443976Y-9784717D01*
X12463024Y-9775193D01*
X12491595Y-9775193D01*
X12510643Y-9784717D01*
X12520167Y-9794240D01*
X12529690Y-9813288D01*
X12529690Y-9870431D01*
X12520167Y-9889479D01*
X12510643Y-9899002D01*
X12491595Y-9908526D01*
X12463024Y-9908526D01*
X12586833Y-9775193D02*
X12663024Y-9775193D01*
X12615405Y-9708526D02*
X12615405Y-9879955D01*
X12624928Y-9899002D01*
X12643976Y-9908526D01*
X12663024Y-9908526D01*
X12882071Y-9775193D02*
X12882071Y-9975193D01*
X12882071Y-9784717D02*
X12901119Y-9775193D01*
X12939214Y-9775193D01*
X12958262Y-9784717D01*
X12967786Y-9794240D01*
X12977309Y-9813288D01*
X12977309Y-9870431D01*
X12967786Y-9889479D01*
X12958262Y-9899002D01*
X12939214Y-9908526D01*
X12901119Y-9908526D01*
X12882071Y-9899002D01*
X13091595Y-9908526D02*
X13072548Y-9899002D01*
X13063024Y-9879955D01*
X13063024Y-9708526D01*
X13253500Y-9908526D02*
X13253500Y-9803764D01*
X13243976Y-9784717D01*
X13224928Y-9775193D01*
X13186833Y-9775193D01*
X13167786Y-9784717D01*
X13253500Y-9899002D02*
X13234452Y-9908526D01*
X13186833Y-9908526D01*
X13167786Y-9899002D01*
X13158262Y-9879955D01*
X13158262Y-9860907D01*
X13167786Y-9841860D01*
X13186833Y-9832336D01*
X13234452Y-9832336D01*
X13253500Y-9822812D01*
X13320167Y-9775193D02*
X13396357Y-9775193D01*
X13348738Y-9708526D02*
X13348738Y-9879955D01*
X13358262Y-9899002D01*
X13377309Y-9908526D01*
X13396357Y-9908526D01*
X13539214Y-9899002D02*
X13520167Y-9908526D01*
X13482071Y-9908526D01*
X13463024Y-9899002D01*
X13453500Y-9879955D01*
X13453500Y-9803764D01*
X13463024Y-9784717D01*
X13482071Y-9775193D01*
X13520167Y-9775193D01*
X13539214Y-9784717D01*
X13548738Y-9803764D01*
X13548738Y-9822812D01*
X13453500Y-9841860D01*
X13720167Y-9908526D02*
X13720167Y-9708526D01*
X13720167Y-9899002D02*
X13701119Y-9908526D01*
X13663024Y-9908526D01*
X13643976Y-9899002D01*
X13634452Y-9889479D01*
X13624928Y-9870431D01*
X13624928Y-9813288D01*
X13634452Y-9794240D01*
X13643976Y-9784717D01*
X13663024Y-9775193D01*
X13701119Y-9775193D01*
X13720167Y-9784717D01*
X13796357Y-9984717D02*
X13805881Y-9975193D01*
X13824928Y-9946621D01*
X13834452Y-9927574D01*
X13843976Y-9899002D01*
X13853500Y-9851383D01*
X13853500Y-9813288D01*
X13843976Y-9765669D01*
X13834452Y-9737098D01*
X13824928Y-9718050D01*
X13805881Y-9689479D01*
X13796357Y-9679955D01*
D14*
X6978500Y-10017050D02*
X6978500Y-10147050D01*
X6913500Y-10082050D02*
X7043500Y-10082050D01*
D11*
X7405881Y-10172526D02*
X7291595Y-10172526D01*
X7348738Y-10172526D02*
X7348738Y-9972526D01*
X7329690Y-10001098D01*
X7310643Y-10020145D01*
X7291595Y-10029669D01*
X7491595Y-10153479D02*
X7501119Y-10163002D01*
X7491595Y-10172526D01*
X7482071Y-10163002D01*
X7491595Y-10153479D01*
X7491595Y-10172526D01*
X7567786Y-9972526D02*
X7691595Y-9972526D01*
X7624928Y-10048717D01*
X7653500Y-10048717D01*
X7672548Y-10058240D01*
X7682071Y-10067764D01*
X7691595Y-10086812D01*
X7691595Y-10134431D01*
X7682071Y-10153479D01*
X7672548Y-10163002D01*
X7653500Y-10172526D01*
X7596357Y-10172526D01*
X7577309Y-10163002D01*
X7567786Y-10153479D01*
X7815405Y-9972526D02*
X7834452Y-9972526D01*
X7853500Y-9982050D01*
X7863024Y-9991574D01*
X7872548Y-10010621D01*
X7882071Y-10048717D01*
X7882071Y-10096336D01*
X7872548Y-10134431D01*
X7863024Y-10153479D01*
X7853500Y-10163002D01*
X7834452Y-10172526D01*
X7815405Y-10172526D01*
X7796357Y-10163002D01*
X7786833Y-10153479D01*
X7777309Y-10134431D01*
X7767786Y-10096336D01*
X7767786Y-10048717D01*
X7777309Y-10010621D01*
X7786833Y-9991574D01*
X7796357Y-9982050D01*
X7815405Y-9972526D01*
X8005881Y-9972526D02*
X8024928Y-9972526D01*
X8043976Y-9982050D01*
X8053500Y-9991574D01*
X8063024Y-10010621D01*
X8072548Y-10048717D01*
X8072548Y-10096336D01*
X8063024Y-10134431D01*
X8053500Y-10153479D01*
X8043976Y-10163002D01*
X8024928Y-10172526D01*
X8005881Y-10172526D01*
X7986833Y-10163002D01*
X7977309Y-10153479D01*
X7967786Y-10134431D01*
X7958262Y-10096336D01*
X7958262Y-10048717D01*
X7967786Y-10010621D01*
X7977309Y-9991574D01*
X7986833Y-9982050D01*
X8005881Y-9972526D01*
X8158262Y-10172526D02*
X8158262Y-10039193D01*
X8158262Y-10058240D02*
X8167786Y-10048717D01*
X8186833Y-10039193D01*
X8215405Y-10039193D01*
X8234452Y-10048717D01*
X8243976Y-10067764D01*
X8243976Y-10172526D01*
X8243976Y-10067764D02*
X8253500Y-10048717D01*
X8272548Y-10039193D01*
X8301119Y-10039193D01*
X8320167Y-10048717D01*
X8329690Y-10067764D01*
X8329690Y-10172526D01*
X8424929Y-10172526D02*
X8424929Y-10039193D01*
X8424929Y-10058240D02*
X8434452Y-10048717D01*
X8453500Y-10039193D01*
X8482071Y-10039193D01*
X8501119Y-10048717D01*
X8510643Y-10067764D01*
X8510643Y-10172526D01*
X8510643Y-10067764D02*
X8520167Y-10048717D01*
X8539214Y-10039193D01*
X8567786Y-10039193D01*
X8586833Y-10048717D01*
X8596357Y-10067764D01*
X8596357Y-10172526D01*
X8986833Y-9963002D02*
X8815405Y-10220145D01*
X9243976Y-9972526D02*
X9263024Y-9972526D01*
X9282071Y-9982050D01*
X9291595Y-9991574D01*
X9301119Y-10010621D01*
X9310643Y-10048717D01*
X9310643Y-10096336D01*
X9301119Y-10134431D01*
X9291595Y-10153479D01*
X9282071Y-10163002D01*
X9263024Y-10172526D01*
X9243976Y-10172526D01*
X9224929Y-10163002D01*
X9215405Y-10153479D01*
X9205881Y-10134431D01*
X9196357Y-10096336D01*
X9196357Y-10048717D01*
X9205881Y-10010621D01*
X9215405Y-9991574D01*
X9224929Y-9982050D01*
X9243976Y-9972526D01*
X9396357Y-10153479D02*
X9405881Y-10163002D01*
X9396357Y-10172526D01*
X9386833Y-10163002D01*
X9396357Y-10153479D01*
X9396357Y-10172526D01*
X9529690Y-9972526D02*
X9548738Y-9972526D01*
X9567786Y-9982050D01*
X9577310Y-9991574D01*
X9586833Y-10010621D01*
X9596357Y-10048717D01*
X9596357Y-10096336D01*
X9586833Y-10134431D01*
X9577310Y-10153479D01*
X9567786Y-10163002D01*
X9548738Y-10172526D01*
X9529690Y-10172526D01*
X9510643Y-10163002D01*
X9501119Y-10153479D01*
X9491595Y-10134431D01*
X9482071Y-10096336D01*
X9482071Y-10048717D01*
X9491595Y-10010621D01*
X9501119Y-9991574D01*
X9510643Y-9982050D01*
X9529690Y-9972526D01*
X9777310Y-9972526D02*
X9682071Y-9972526D01*
X9672548Y-10067764D01*
X9682071Y-10058240D01*
X9701119Y-10048717D01*
X9748738Y-10048717D01*
X9767786Y-10058240D01*
X9777310Y-10067764D01*
X9786833Y-10086812D01*
X9786833Y-10134431D01*
X9777310Y-10153479D01*
X9767786Y-10163002D01*
X9748738Y-10172526D01*
X9701119Y-10172526D01*
X9682071Y-10163002D01*
X9672548Y-10153479D01*
X9977310Y-10172526D02*
X9863024Y-10172526D01*
X9920167Y-10172526D02*
X9920167Y-9972526D01*
X9901119Y-10001098D01*
X9882071Y-10020145D01*
X9863024Y-10029669D01*
X10053500Y-9991574D02*
X10063024Y-9982050D01*
X10082071Y-9972526D01*
X10129690Y-9972526D01*
X10148738Y-9982050D01*
X10158262Y-9991574D01*
X10167786Y-10010621D01*
X10167786Y-10029669D01*
X10158262Y-10058240D01*
X10043976Y-10172526D01*
X10167786Y-10172526D01*
X10243976Y-9972526D02*
X10243976Y-10010621D01*
X10320167Y-9972526D02*
X10320167Y-10010621D01*
X10615405Y-10248717D02*
X10605881Y-10239193D01*
X10586833Y-10210621D01*
X10577310Y-10191574D01*
X10567786Y-10163002D01*
X10558262Y-10115383D01*
X10558262Y-10077288D01*
X10567786Y-10029669D01*
X10577310Y-10001098D01*
X10586833Y-9982050D01*
X10605881Y-9953479D01*
X10615405Y-9943955D01*
X10796357Y-10172526D02*
X10682071Y-10172526D01*
X10739214Y-10172526D02*
X10739214Y-9972526D01*
X10720167Y-10001098D01*
X10701119Y-10020145D01*
X10682071Y-10029669D01*
X11034452Y-10172526D02*
X11034452Y-9972526D01*
X11120167Y-10172526D02*
X11120167Y-10067764D01*
X11110643Y-10048717D01*
X11091595Y-10039193D01*
X11063024Y-10039193D01*
X11043976Y-10048717D01*
X11034452Y-10058240D01*
X11243976Y-10172526D02*
X11224928Y-10163002D01*
X11215405Y-10153479D01*
X11205881Y-10134431D01*
X11205881Y-10077288D01*
X11215405Y-10058240D01*
X11224928Y-10048717D01*
X11243976Y-10039193D01*
X11272548Y-10039193D01*
X11291595Y-10048717D01*
X11301119Y-10058240D01*
X11310643Y-10077288D01*
X11310643Y-10134431D01*
X11301119Y-10153479D01*
X11291595Y-10163002D01*
X11272548Y-10172526D01*
X11243976Y-10172526D01*
X11424928Y-10172526D02*
X11405881Y-10163002D01*
X11396357Y-10143955D01*
X11396357Y-9972526D01*
X11577309Y-10163002D02*
X11558262Y-10172526D01*
X11520167Y-10172526D01*
X11501119Y-10163002D01*
X11491595Y-10143955D01*
X11491595Y-10067764D01*
X11501119Y-10048717D01*
X11520167Y-10039193D01*
X11558262Y-10039193D01*
X11577309Y-10048717D01*
X11586833Y-10067764D01*
X11586833Y-10086812D01*
X11491595Y-10105860D01*
X11653500Y-10248717D02*
X11663024Y-10239193D01*
X11682071Y-10210621D01*
X11691595Y-10191574D01*
X11701119Y-10163002D01*
X11710643Y-10115383D01*
X11710643Y-10077288D01*
X11701119Y-10029669D01*
X11691595Y-10001098D01*
X11682071Y-9982050D01*
X11663024Y-9953479D01*
X11653500Y-9943955D01*
X12015405Y-10248717D02*
X12005881Y-10239193D01*
X11986833Y-10210621D01*
X11977309Y-10191574D01*
X11967786Y-10163002D01*
X11958262Y-10115383D01*
X11958262Y-10077288D01*
X11967786Y-10029669D01*
X11977309Y-10001098D01*
X11986833Y-9982050D01*
X12005881Y-9953479D01*
X12015405Y-9943955D01*
X12091595Y-10039193D02*
X12091595Y-10172526D01*
X12091595Y-10058240D02*
X12101119Y-10048717D01*
X12120167Y-10039193D01*
X12148738Y-10039193D01*
X12167786Y-10048717D01*
X12177309Y-10067764D01*
X12177309Y-10172526D01*
X12301119Y-10172526D02*
X12282071Y-10163002D01*
X12272548Y-10153479D01*
X12263024Y-10134431D01*
X12263024Y-10077288D01*
X12272548Y-10058240D01*
X12282071Y-10048717D01*
X12301119Y-10039193D01*
X12329690Y-10039193D01*
X12348738Y-10048717D01*
X12358262Y-10058240D01*
X12367786Y-10077288D01*
X12367786Y-10134431D01*
X12358262Y-10153479D01*
X12348738Y-10163002D01*
X12329690Y-10172526D01*
X12301119Y-10172526D01*
X12424928Y-10039193D02*
X12501119Y-10039193D01*
X12453500Y-9972526D02*
X12453500Y-10143955D01*
X12463024Y-10163002D01*
X12482071Y-10172526D01*
X12501119Y-10172526D01*
X12720167Y-10039193D02*
X12720167Y-10239193D01*
X12720167Y-10048717D02*
X12739214Y-10039193D01*
X12777309Y-10039193D01*
X12796357Y-10048717D01*
X12805881Y-10058240D01*
X12815405Y-10077288D01*
X12815405Y-10134431D01*
X12805881Y-10153479D01*
X12796357Y-10163002D01*
X12777309Y-10172526D01*
X12739214Y-10172526D01*
X12720167Y-10163002D01*
X12929690Y-10172526D02*
X12910643Y-10163002D01*
X12901119Y-10143955D01*
X12901119Y-9972526D01*
X13091595Y-10172526D02*
X13091595Y-10067764D01*
X13082071Y-10048717D01*
X13063024Y-10039193D01*
X13024928Y-10039193D01*
X13005881Y-10048717D01*
X13091595Y-10163002D02*
X13072548Y-10172526D01*
X13024928Y-10172526D01*
X13005881Y-10163002D01*
X12996357Y-10143955D01*
X12996357Y-10124907D01*
X13005881Y-10105860D01*
X13024928Y-10096336D01*
X13072548Y-10096336D01*
X13091595Y-10086812D01*
X13158262Y-10039193D02*
X13234452Y-10039193D01*
X13186833Y-9972526D02*
X13186833Y-10143955D01*
X13196357Y-10163002D01*
X13215405Y-10172526D01*
X13234452Y-10172526D01*
X13377309Y-10163002D02*
X13358262Y-10172526D01*
X13320167Y-10172526D01*
X13301119Y-10163002D01*
X13291595Y-10143955D01*
X13291595Y-10067764D01*
X13301119Y-10048717D01*
X13320167Y-10039193D01*
X13358262Y-10039193D01*
X13377309Y-10048717D01*
X13386833Y-10067764D01*
X13386833Y-10086812D01*
X13291595Y-10105860D01*
X13558262Y-10172526D02*
X13558262Y-9972526D01*
X13558262Y-10163002D02*
X13539214Y-10172526D01*
X13501119Y-10172526D01*
X13482071Y-10163002D01*
X13472548Y-10153479D01*
X13463024Y-10134431D01*
X13463024Y-10077288D01*
X13472548Y-10058240D01*
X13482071Y-10048717D01*
X13501119Y-10039193D01*
X13539214Y-10039193D01*
X13558262Y-10048717D01*
X13634452Y-10248717D02*
X13643976Y-10239193D01*
X13663024Y-10210621D01*
X13672548Y-10191574D01*
X13682071Y-10163002D01*
X13691595Y-10115383D01*
X13691595Y-10077288D01*
X13682071Y-10029669D01*
X13672548Y-10001098D01*
X13663024Y-9982050D01*
X13643976Y-9953479D01*
X13634452Y-9943955D01*
M02*
