%TF.GenerationSoftware,KiCad,Pcbnew,6.0.2+dfsg-1*%
%TF.CreationDate,2024-09-23T07:34:14+01:00*%
%TF.ProjectId,Circuit,43697263-7569-4742-9e6b-696361645f70,rev?*%
%TF.SameCoordinates,Original*%
%TF.FileFunction,Copper,L1,Top*%
%TF.FilePolarity,Positive*%
%FSLAX46Y46*%
G04 Gerber Fmt 4.6, Leading zero omitted, Abs format (unit mm)*
G04 Created by KiCad (PCBNEW 6.0.2+dfsg-1) date 2024-09-23 07:34:14*
%MOMM*%
%LPD*%
G01*
G04 APERTURE LIST*
G04 Aperture macros list*
%AMRoundRect*
0 Rectangle with rounded corners*
0 $1 Rounding radius*
0 $2 $3 $4 $5 $6 $7 $8 $9 X,Y pos of 4 corners*
0 Add a 4 corners polygon primitive as box body*
4,1,4,$2,$3,$4,$5,$6,$7,$8,$9,$2,$3,0*
0 Add four circle primitives for the rounded corners*
1,1,$1+$1,$2,$3*
1,1,$1+$1,$4,$5*
1,1,$1+$1,$6,$7*
1,1,$1+$1,$8,$9*
0 Add four rect primitives between the rounded corners*
20,1,$1+$1,$2,$3,$4,$5,0*
20,1,$1+$1,$4,$5,$6,$7,0*
20,1,$1+$1,$6,$7,$8,$9,0*
20,1,$1+$1,$8,$9,$2,$3,0*%
G04 Aperture macros list end*
%TA.AperFunction,SMDPad,CuDef*%
%ADD10RoundRect,0.250000X-0.262500X-0.450000X0.262500X-0.450000X0.262500X0.450000X-0.262500X0.450000X0*%
%TD*%
%TA.AperFunction,ComponentPad*%
%ADD11C,0.700000*%
%TD*%
%TA.AperFunction,ComponentPad*%
%ADD12O,2.400000X0.900000*%
%TD*%
%TA.AperFunction,ComponentPad*%
%ADD13O,1.700000X0.900000*%
%TD*%
%TA.AperFunction,SMDPad,CuDef*%
%ADD14R,2.600000X3.600000*%
%TD*%
%TA.AperFunction,SMDPad,CuDef*%
%ADD15R,1.200000X2.200000*%
%TD*%
%TA.AperFunction,SMDPad,CuDef*%
%ADD16R,5.800000X6.400000*%
%TD*%
%TA.AperFunction,SMDPad,CuDef*%
%ADD17RoundRect,0.250000X-0.250000X-0.475000X0.250000X-0.475000X0.250000X0.475000X-0.250000X0.475000X0*%
%TD*%
%TA.AperFunction,SMDPad,CuDef*%
%ADD18RoundRect,0.250000X0.262500X0.450000X-0.262500X0.450000X-0.262500X-0.450000X0.262500X-0.450000X0*%
%TD*%
%TA.AperFunction,SMDPad,CuDef*%
%ADD19RoundRect,0.075000X0.075000X-0.662500X0.075000X0.662500X-0.075000X0.662500X-0.075000X-0.662500X0*%
%TD*%
%TA.AperFunction,SMDPad,CuDef*%
%ADD20RoundRect,0.075000X0.662500X-0.075000X0.662500X0.075000X-0.662500X0.075000X-0.662500X-0.075000X0*%
%TD*%
%TA.AperFunction,SMDPad,CuDef*%
%ADD21RoundRect,0.250000X0.250000X0.475000X-0.250000X0.475000X-0.250000X-0.475000X0.250000X-0.475000X0*%
%TD*%
%TA.AperFunction,SMDPad,CuDef*%
%ADD22RoundRect,0.250000X-0.450000X0.262500X-0.450000X-0.262500X0.450000X-0.262500X0.450000X0.262500X0*%
%TD*%
%TA.AperFunction,SMDPad,CuDef*%
%ADD23R,2.000000X1.800000*%
%TD*%
%TA.AperFunction,SMDPad,CuDef*%
%ADD24RoundRect,0.250000X0.475000X-0.250000X0.475000X0.250000X-0.475000X0.250000X-0.475000X-0.250000X0*%
%TD*%
%TA.AperFunction,SMDPad,CuDef*%
%ADD25R,0.740000X2.790000*%
%TD*%
%TA.AperFunction,SMDPad,CuDef*%
%ADD26R,1.000000X1.800000*%
%TD*%
%TA.AperFunction,ComponentPad*%
%ADD27C,2.010000*%
%TD*%
%TA.AperFunction,ComponentPad*%
%ADD28R,1.700000X1.700000*%
%TD*%
%TA.AperFunction,ComponentPad*%
%ADD29O,1.700000X1.700000*%
%TD*%
%TA.AperFunction,ViaPad*%
%ADD30C,0.800000*%
%TD*%
%TA.AperFunction,ViaPad*%
%ADD31C,1.400000*%
%TD*%
%TA.AperFunction,Conductor*%
%ADD32C,0.400000*%
%TD*%
%TA.AperFunction,Conductor*%
%ADD33C,0.250000*%
%TD*%
%TA.AperFunction,Conductor*%
%ADD34C,0.200000*%
%TD*%
G04 APERTURE END LIST*
D10*
%TO.P,R2,1*%
%TO.N,Net-(P1-PadB5)*%
X75287500Y-77470000D03*
%TO.P,R2,2*%
%TO.N,LCD_GND*%
X77112500Y-77470000D03*
%TD*%
D11*
%TO.P,P1,A1,GND*%
%TO.N,LCD_GND*%
X76415000Y-68145000D03*
%TO.P,P1,A4,VBUS*%
%TO.N,+5V*%
X76415000Y-68995000D03*
%TO.P,P1,A5,CC1*%
%TO.N,Net-(P1-PadA5)*%
X76415000Y-69845000D03*
%TO.P,P1,A6,D+*%
%TO.N,Net-(P1-PadA6)*%
X76415000Y-70695000D03*
%TO.P,P1,A7,D-*%
%TO.N,Net-(P1-PadA7)*%
X76415000Y-71545000D03*
%TO.P,P1,A8,SBU1*%
%TO.N,unconnected-(P1-PadA8)*%
X76415000Y-72395000D03*
%TO.P,P1,A9,VBUS*%
%TO.N,+5V*%
X76415000Y-73245000D03*
%TO.P,P1,A12,GND*%
%TO.N,LCD_GND*%
X76415000Y-74095000D03*
%TO.P,P1,B1,GND*%
X75065000Y-74095000D03*
%TO.P,P1,B4,VBUS*%
%TO.N,+5V*%
X75065000Y-73245000D03*
%TO.P,P1,B5,CC2*%
%TO.N,Net-(P1-PadB5)*%
X75065000Y-72395000D03*
%TO.P,P1,B6,D+*%
%TO.N,Net-(P1-PadA6)*%
X75065000Y-71545000D03*
%TO.P,P1,B7,D-*%
%TO.N,Net-(P1-PadA7)*%
X75065000Y-70695000D03*
%TO.P,P1,B8,SBU2*%
%TO.N,unconnected-(P1-PadB8)*%
X75065000Y-69845000D03*
%TO.P,P1,B9,VBUS*%
%TO.N,+5V*%
X75065000Y-68995000D03*
%TO.P,P1,B12,GND*%
%TO.N,LCD_GND*%
X75065000Y-68145000D03*
D12*
%TO.P,P1,S1,SHIELD*%
X75435000Y-66795000D03*
X75435000Y-75445000D03*
D13*
X72055000Y-75445000D03*
X72055000Y-66795000D03*
%TD*%
D14*
%TO.P,B1,C1,C1*%
%TO.N,+1V5*%
X113919000Y-79020000D03*
%TO.P,B1,C2,C2*%
%TO.N,LCD_GND*%
X113919000Y-63220000D03*
%TD*%
D15*
%TO.P,U2,1,GND*%
%TO.N,LCD_GND*%
X81285000Y-69395000D03*
D16*
%TO.P,U2,2,Q*%
%TO.N,/3V3 UNFUSED*%
X83565000Y-63095000D03*
D15*
X83565000Y-69395000D03*
%TO.P,U2,3,I*%
%TO.N,+5V*%
X85845000Y-69395000D03*
%TD*%
D17*
%TO.P,C7,1*%
%TO.N,LCD_VCC*%
X93726000Y-64770000D03*
%TO.P,C7,2*%
%TO.N,LCD_GND*%
X95626000Y-64770000D03*
%TD*%
D18*
%TO.P,R1,1*%
%TO.N,Net-(P1-PadA5)*%
X77112500Y-64770000D03*
%TO.P,R1,2*%
%TO.N,LCD_GND*%
X75287500Y-64770000D03*
%TD*%
D19*
%TO.P,U1,1,PC13*%
%TO.N,unconnected-(U1-Pad1)*%
X92500000Y-75282500D03*
%TO.P,U1,2,PC14-OSC32_IN*%
%TO.N,OSC 32 A*%
X93000000Y-75282500D03*
%TO.P,U1,3,PC15-OSC32_OUT*%
%TO.N,OSC 32 B*%
X93500000Y-75282500D03*
%TO.P,U1,4,VBAT*%
%TO.N,+1V5*%
X94000000Y-75282500D03*
%TO.P,U1,5,VREF+*%
%TO.N,unconnected-(U1-Pad5)*%
X94500000Y-75282500D03*
%TO.P,U1,6,VDD/VDDA*%
%TO.N,LCD_VCC*%
X95000000Y-75282500D03*
%TO.P,U1,7,VSS/VSSA*%
%TO.N,LCD_GND*%
X95500000Y-75282500D03*
%TO.P,U1,8,PF0-OSC_IN*%
%TO.N,OSC 48M A*%
X96000000Y-75282500D03*
%TO.P,U1,9,PF1-OSC_OUT*%
%TO.N,unconnected-(U1-Pad9)*%
X96500000Y-75282500D03*
%TO.P,U1,10,PF2-NRST*%
%TO.N,NRST*%
X97000000Y-75282500D03*
%TO.P,U1,11,PA0*%
%TO.N,SPI_DC*%
X97500000Y-75282500D03*
%TO.P,U1,12,PA1*%
%TO.N,SPI_SCK*%
X98000000Y-75282500D03*
D20*
%TO.P,U1,13,PA2*%
%TO.N,SPI_MOSI*%
X99412500Y-73870000D03*
%TO.P,U1,14,PA3*%
%TO.N,SPI_CS*%
X99412500Y-73370000D03*
%TO.P,U1,15,PA4*%
%TO.N,unconnected-(U1-Pad15)*%
X99412500Y-72870000D03*
%TO.P,U1,16,PA5*%
%TO.N,unconnected-(U1-Pad16)*%
X99412500Y-72370000D03*
%TO.P,U1,17,PA6*%
%TO.N,unconnected-(U1-Pad17)*%
X99412500Y-71870000D03*
%TO.P,U1,18,PA7*%
%TO.N,unconnected-(U1-Pad18)*%
X99412500Y-71370000D03*
%TO.P,U1,19,PB0*%
%TO.N,unconnected-(U1-Pad19)*%
X99412500Y-70870000D03*
%TO.P,U1,20,PB1*%
%TO.N,unconnected-(U1-Pad20)*%
X99412500Y-70370000D03*
%TO.P,U1,21,PB2*%
%TO.N,unconnected-(U1-Pad21)*%
X99412500Y-69870000D03*
%TO.P,U1,22,PB10*%
%TO.N,unconnected-(U1-Pad22)*%
X99412500Y-69370000D03*
%TO.P,U1,23,PB11*%
%TO.N,unconnected-(U1-Pad23)*%
X99412500Y-68870000D03*
%TO.P,U1,24,PB12*%
%TO.N,unconnected-(U1-Pad24)*%
X99412500Y-68370000D03*
D19*
%TO.P,U1,25,PB13*%
%TO.N,unconnected-(U1-Pad25)*%
X98000000Y-66957500D03*
%TO.P,U1,26,PB14*%
%TO.N,unconnected-(U1-Pad26)*%
X97500000Y-66957500D03*
%TO.P,U1,27,PB15*%
%TO.N,unconnected-(U1-Pad27)*%
X97000000Y-66957500D03*
%TO.P,U1,28,PA8*%
%TO.N,unconnected-(U1-Pad28)*%
X96500000Y-66957500D03*
%TO.P,U1,29,PA9*%
%TO.N,unconnected-(U1-Pad29)*%
X96000000Y-66957500D03*
%TO.P,U1,30,VSS*%
%TO.N,LCD_GND*%
X95500000Y-66957500D03*
%TO.P,U1,31,VDDIO2*%
%TO.N,LCD_VCC*%
X95000000Y-66957500D03*
%TO.P,U1,32,PA10*%
%TO.N,unconnected-(U1-Pad32)*%
X94500000Y-66957500D03*
%TO.P,U1,33,PA11_[PA9]*%
%TO.N,unconnected-(U1-Pad33)*%
X94000000Y-66957500D03*
%TO.P,U1,34,PA12_[PA10]*%
%TO.N,unconnected-(U1-Pad34)*%
X93500000Y-66957500D03*
%TO.P,U1,35,PA13*%
%TO.N,SWDIO*%
X93000000Y-66957500D03*
%TO.P,U1,36,PA14-BOOT0*%
%TO.N,SWCLK*%
X92500000Y-66957500D03*
D20*
%TO.P,U1,37,PA15*%
%TO.N,unconnected-(U1-Pad37)*%
X91087500Y-68370000D03*
%TO.P,U1,38,PD0*%
%TO.N,unconnected-(U1-Pad38)*%
X91087500Y-68870000D03*
%TO.P,U1,39,PD1*%
%TO.N,unconnected-(U1-Pad39)*%
X91087500Y-69370000D03*
%TO.P,U1,40,PD2*%
%TO.N,unconnected-(U1-Pad40)*%
X91087500Y-69870000D03*
%TO.P,U1,41,PD3*%
%TO.N,unconnected-(U1-Pad41)*%
X91087500Y-70370000D03*
%TO.P,U1,42,PB3*%
%TO.N,unconnected-(U1-Pad42)*%
X91087500Y-70870000D03*
%TO.P,U1,43,PB4*%
%TO.N,unconnected-(U1-Pad43)*%
X91087500Y-71370000D03*
%TO.P,U1,44,PB5*%
%TO.N,unconnected-(U1-Pad44)*%
X91087500Y-71870000D03*
%TO.P,U1,45,PB6*%
%TO.N,unconnected-(U1-Pad45)*%
X91087500Y-72370000D03*
%TO.P,U1,46,PB7*%
%TO.N,unconnected-(U1-Pad46)*%
X91087500Y-72870000D03*
%TO.P,U1,47,PB8*%
%TO.N,unconnected-(U1-Pad47)*%
X91087500Y-73370000D03*
%TO.P,U1,48,PB9*%
%TO.N,unconnected-(U1-Pad48)*%
X91087500Y-73870000D03*
%TD*%
D21*
%TO.P,C1,1*%
%TO.N,LCD_VCC*%
X93660000Y-77470000D03*
%TO.P,C1,2*%
%TO.N,LCD_GND*%
X91760000Y-77470000D03*
%TD*%
D22*
%TO.P,R3,1*%
%TO.N,LCD_GND*%
X89535000Y-80367500D03*
%TO.P,R3,2*%
%TO.N,Net-(J2-Pad11)*%
X89535000Y-82192500D03*
%TD*%
D23*
%TO.P,X1,1,~{ST}*%
%TO.N,unconnected-(X1-Pad1)*%
X102997000Y-63754000D03*
%TO.P,X1,2,GND*%
%TO.N,LCD_GND*%
X102997000Y-58674000D03*
%TO.P,X1,3,OUT*%
%TO.N,OSC 48M A*%
X98797000Y-58674000D03*
%TO.P,X1,4,VCC*%
%TO.N,LCD_VCC*%
X98797000Y-63754000D03*
%TD*%
D24*
%TO.P,C5,1*%
%TO.N,OSC 32 B*%
X91567000Y-60386000D03*
%TO.P,C5,2*%
%TO.N,LCD_GND*%
X91567000Y-58486000D03*
%TD*%
%TO.P,C3,1*%
%TO.N,LCD_VCC*%
X105342000Y-60640000D03*
%TO.P,C3,2*%
%TO.N,LCD_GND*%
X105342000Y-58740000D03*
%TD*%
D17*
%TO.P,C2,1*%
%TO.N,LCD_VCC*%
X95570000Y-77470000D03*
%TO.P,C2,2*%
%TO.N,LCD_GND*%
X97470000Y-77470000D03*
%TD*%
D24*
%TO.P,C4,1*%
%TO.N,OSC 32 A*%
X89535000Y-60386000D03*
%TO.P,C4,2*%
%TO.N,LCD_GND*%
X89535000Y-58486000D03*
%TD*%
D25*
%TO.P,J2,1,1*%
%TO.N,unconnected-(J2-Pad1)*%
X79121000Y-85347000D03*
%TO.P,J2,2,2*%
%TO.N,unconnected-(J2-Pad2)*%
X79121000Y-81277000D03*
%TO.P,J2,3,3*%
%TO.N,LCD_VCC*%
X80391000Y-85347000D03*
%TO.P,J2,4,4*%
%TO.N,SWDIO*%
X80391000Y-81277000D03*
%TO.P,J2,5,5*%
%TO.N,LCD_GND*%
X81661000Y-85347000D03*
%TO.P,J2,6,6*%
%TO.N,SWCLK*%
X81661000Y-81277000D03*
%TO.P,J2,7,7*%
%TO.N,LCD_GND*%
X82931000Y-85347000D03*
%TO.P,J2,8,8*%
%TO.N,SWO*%
X82931000Y-81277000D03*
%TO.P,J2,9,9*%
%TO.N,unconnected-(J2-Pad9)*%
X84201000Y-85347000D03*
%TO.P,J2,10,10*%
%TO.N,unconnected-(J2-Pad10)*%
X84201000Y-81277000D03*
%TO.P,J2,11,11*%
%TO.N,Net-(J2-Pad11)*%
X85471000Y-85347000D03*
%TO.P,J2,12,12*%
%TO.N,NRST*%
X85471000Y-81277000D03*
%TO.P,J2,13,13*%
%TO.N,unconnected-(J2-Pad13)*%
X86741000Y-85347000D03*
%TO.P,J2,14,14*%
%TO.N,unconnected-(J2-Pad14)*%
X86741000Y-81277000D03*
%TD*%
D26*
%TO.P,Y1,1,1*%
%TO.N,OSC 32 A*%
X89301000Y-62357000D03*
%TO.P,Y1,2,2*%
%TO.N,OSC 32 B*%
X91801000Y-62357000D03*
%TD*%
D17*
%TO.P,C6,1*%
%TO.N,LCD_VCC*%
X93726000Y-62611000D03*
%TO.P,C6,2*%
%TO.N,LCD_GND*%
X95626000Y-62611000D03*
%TD*%
D27*
%TO.P,F1,1*%
%TO.N,/3V3 UNFUSED*%
X82077000Y-73142000D03*
%TO.P,F1,2*%
%TO.N,LCD_VCC*%
X83277000Y-78242000D03*
%TD*%
D28*
%TO.P,J1,1,Pin_1*%
%TO.N,LCD_VCC*%
X124587000Y-64135000D03*
D29*
%TO.P,J1,2,Pin_2*%
%TO.N,LCD_GND*%
X124587000Y-66675000D03*
%TO.P,J1,3,Pin_3*%
%TO.N,SPI_CS*%
X124587000Y-69215000D03*
%TO.P,J1,4,Pin_4*%
%TO.N,LCD_RST*%
X124587000Y-71755000D03*
%TO.P,J1,5,Pin_5*%
%TO.N,SPI_DC*%
X124587000Y-74295000D03*
%TO.P,J1,6,Pin_6*%
%TO.N,SPI_MOSI*%
X124587000Y-76835000D03*
%TO.P,J1,7,Pin_7*%
%TO.N,SPI_SCK*%
X124587000Y-79375000D03*
%TO.P,J1,8,Pin_8*%
%TO.N,LCD_LED*%
X124587000Y-81915000D03*
%TD*%
D30*
%TO.N,+1V5*%
X109220000Y-79045000D03*
X90894511Y-75654511D03*
D31*
%TO.N,LCD_GND*%
X88900000Y-76200000D03*
D30*
X81661000Y-83312000D03*
X78740000Y-71120000D03*
X78740000Y-74930000D03*
D31*
X98970569Y-77559431D03*
D30*
X91000000Y-80400000D03*
%TO.N,LCD_VCC*%
X117475000Y-73025000D03*
X94869000Y-61214000D03*
D31*
X94869000Y-69850000D03*
D30*
%TO.N,OSC 32 A*%
X92583000Y-64643000D03*
X93001948Y-73545554D03*
%TO.N,OSC 32 B*%
X93726578Y-72593957D03*
X92710000Y-61087000D03*
%TO.N,SPI_DC*%
X113030000Y-70395500D03*
%TO.N,NRST*%
X100330000Y-78105000D03*
X87630000Y-79375000D03*
%TO.N,OSC 48M A*%
X95999446Y-73545554D03*
X98806000Y-60579000D03*
%TD*%
D32*
%TO.N,LCD_VCC*%
X94869000Y-61214000D02*
X97917000Y-61214000D01*
X97917000Y-61214000D02*
X98806000Y-62103000D01*
X94869000Y-61214000D02*
X94107000Y-61214000D01*
X94107000Y-61214000D02*
X93726000Y-61595000D01*
X93726000Y-61595000D02*
X93726000Y-62611000D01*
D33*
%TO.N,+1V5*%
X113894000Y-79045000D02*
X109220000Y-79045000D01*
X94000000Y-76085006D02*
X94000000Y-75282500D01*
X93664526Y-76420480D02*
X94000000Y-76085006D01*
X91660480Y-76420480D02*
X93664526Y-76420480D01*
X90894511Y-75654511D02*
X91660480Y-76420480D01*
X113919000Y-79020000D02*
X113894000Y-79045000D01*
D32*
%TO.N,+5V*%
X78520000Y-73245000D02*
X80010000Y-71755000D01*
X75065000Y-68995000D02*
X76415000Y-68995000D01*
X80010000Y-71755000D02*
X85090000Y-71755000D01*
X85090000Y-71755000D02*
X85845000Y-71000000D01*
X76415000Y-73245000D02*
X75065000Y-73245000D01*
X76415000Y-73245000D02*
X78520000Y-73245000D01*
X85845000Y-71000000D02*
X85845000Y-69395000D01*
D33*
%TO.N,Net-(P1-PadA5)*%
X76518904Y-69845000D02*
X76415000Y-69845000D01*
X77112500Y-64770000D02*
X77112500Y-69251404D01*
X77112500Y-69251404D02*
X76518904Y-69845000D01*
%TO.N,Net-(P1-PadA6)*%
X75168904Y-71545000D02*
X75065000Y-71545000D01*
X76018904Y-70695000D02*
X75168904Y-71545000D01*
X76415000Y-70695000D02*
X76018904Y-70695000D01*
%TO.N,Net-(P1-PadB5)*%
X73910480Y-76092980D02*
X73910480Y-73409520D01*
X73910480Y-73409520D02*
X74925000Y-72395000D01*
X75287500Y-77470000D02*
X73910480Y-76092980D01*
X74925000Y-72395000D02*
X75065000Y-72395000D01*
D32*
%TO.N,LCD_GND*%
X81661000Y-83312000D02*
X81661000Y-85347000D01*
D34*
X95626000Y-64770000D02*
X95626000Y-62611000D01*
X95500000Y-75282500D02*
X95500000Y-76049651D01*
X97470000Y-77470000D02*
X98881138Y-77470000D01*
X95500000Y-66957500D02*
X95500000Y-64896000D01*
D32*
X75065000Y-68145000D02*
X76415000Y-68145000D01*
D34*
X98881138Y-77470000D02*
X98970569Y-77559431D01*
D32*
X82423000Y-83312000D02*
X82931000Y-83820000D01*
X82931000Y-83820000D02*
X82931000Y-85347000D01*
X90170000Y-77470000D02*
X91760000Y-77470000D01*
X88900000Y-76200000D02*
X90170000Y-77470000D01*
X90967500Y-80367500D02*
X89535000Y-80367500D01*
X81661000Y-83312000D02*
X82423000Y-83312000D01*
D34*
X95500000Y-76049651D02*
X95885000Y-76434651D01*
X95885000Y-76434651D02*
X96434651Y-76434651D01*
D32*
X75065000Y-74095000D02*
X76415000Y-74095000D01*
D34*
X95500000Y-64896000D02*
X95626000Y-64770000D01*
X96434651Y-76434651D02*
X97470000Y-77470000D01*
D32*
X91000000Y-80400000D02*
X90967500Y-80367500D01*
D34*
%TO.N,LCD_VCC*%
X98806000Y-63745000D02*
X98797000Y-63754000D01*
X94599073Y-76702653D02*
X94599073Y-77422408D01*
D32*
X92535480Y-78594520D02*
X93660000Y-77470000D01*
X97004511Y-78904511D02*
X105245489Y-78904511D01*
X105245489Y-78904511D02*
X111125000Y-73025000D01*
X90932000Y-83983072D02*
X90932000Y-81534000D01*
D34*
X95000000Y-75282500D02*
X95000000Y-76301726D01*
D32*
X94646665Y-77470000D02*
X95570000Y-77470000D01*
X105342000Y-60640000D02*
X104641000Y-61341000D01*
X95570000Y-77470000D02*
X97004511Y-78904511D01*
X93726000Y-62611000D02*
X93726000Y-64770000D01*
X89434520Y-78594520D02*
X92535480Y-78594520D01*
D34*
X95000000Y-69981000D02*
X95000000Y-75282500D01*
D33*
X94599073Y-77422408D02*
X94646665Y-77470000D01*
D32*
X104641000Y-61341000D02*
X99568000Y-61341000D01*
X81341009Y-87491031D02*
X87424041Y-87491031D01*
D34*
X95000000Y-66957500D02*
X95000000Y-66044000D01*
X94869000Y-69850000D02*
X95000000Y-69981000D01*
D32*
X89434520Y-78594520D02*
X89092000Y-78252000D01*
X87424041Y-87491031D02*
X90932000Y-83983072D01*
X89092000Y-78252000D02*
X82988000Y-78252000D01*
D34*
X95000000Y-76301726D02*
X94599073Y-76702653D01*
D32*
X80391000Y-85347000D02*
X80391000Y-86541022D01*
D34*
X95000000Y-66044000D02*
X93726000Y-64770000D01*
D32*
X92535480Y-79930520D02*
X92535480Y-78594520D01*
X80391000Y-86541022D02*
X81341009Y-87491031D01*
X98806000Y-62103000D02*
X98806000Y-63745000D01*
X111125000Y-73025000D02*
X117475000Y-73025000D01*
X99568000Y-61341000D02*
X98806000Y-62103000D01*
X90932000Y-81534000D02*
X92535480Y-79930520D01*
X93660000Y-77470000D02*
X94646665Y-77470000D01*
%TO.N,/3V3 UNFUSED*%
X82829000Y-72390000D02*
X82077000Y-73142000D01*
X86995000Y-71120000D02*
X85725000Y-72390000D01*
X83565000Y-63095000D02*
X86590000Y-63095000D01*
X86590000Y-63095000D02*
X86995000Y-63500000D01*
X85725000Y-72390000D02*
X82829000Y-72390000D01*
X83565000Y-69395000D02*
X83565000Y-63095000D01*
X86995000Y-63500000D02*
X86995000Y-71120000D01*
D33*
%TO.N,OSC 32 A*%
X92137978Y-64643000D02*
X90678000Y-63183022D01*
X92583000Y-64643000D02*
X92137978Y-64643000D01*
X93000000Y-74479994D02*
X93001948Y-74478046D01*
X89535000Y-62123000D02*
X89301000Y-62357000D01*
X89535000Y-60386000D02*
X89535000Y-62123000D01*
X93001948Y-74478046D02*
X93001948Y-73545554D01*
X93000000Y-75282500D02*
X93000000Y-74479994D01*
X90170000Y-62357000D02*
X89301000Y-62357000D01*
X90678000Y-63183022D02*
X90678000Y-62865000D01*
X90678000Y-62865000D02*
X90170000Y-62357000D01*
%TO.N,OSC 32 B*%
X91567000Y-60386000D02*
X91567000Y-62123000D01*
X93500000Y-75282500D02*
X93500000Y-74072116D01*
X93500000Y-74072116D02*
X93726578Y-73845538D01*
X93726578Y-73845538D02*
X93726578Y-72593957D01*
X91567000Y-62123000D02*
X91801000Y-62357000D01*
X91801000Y-61996000D02*
X91801000Y-62357000D01*
X92710000Y-61087000D02*
X91801000Y-61996000D01*
%TO.N,SPI_SCK*%
X108125717Y-75282500D02*
X111107728Y-72300489D01*
X119380000Y-74295000D02*
X124460000Y-79375000D01*
X119380000Y-73025000D02*
X119380000Y-74295000D01*
X98000000Y-75282500D02*
X108125717Y-75282500D01*
X111107728Y-72300489D02*
X118655489Y-72300489D01*
X118655489Y-72300489D02*
X119380000Y-73025000D01*
%TO.N,SPI_MOSI*%
X99412500Y-73870000D02*
X108375000Y-73870000D01*
X110490000Y-71755000D02*
X119380000Y-71755000D01*
X119380000Y-71755000D02*
X124460000Y-76835000D01*
X108375000Y-73870000D02*
X110490000Y-71755000D01*
%TO.N,SPI_DC*%
X107949044Y-67945480D02*
X110488564Y-70485000D01*
X98605225Y-67945480D02*
X107949044Y-67945480D01*
X110488564Y-70485000D02*
X113030000Y-70485000D01*
X113030000Y-70485000D02*
X113030000Y-70395500D01*
X97500000Y-75282500D02*
X97500000Y-69050705D01*
X97500000Y-69050705D02*
X98605225Y-67945480D01*
%TO.N,SPI_CS*%
X99412500Y-73370000D02*
X108239282Y-73370000D01*
X108239282Y-73370000D02*
X110489282Y-71120000D01*
X110489282Y-71120000D02*
X122555000Y-71120000D01*
X122555000Y-71120000D02*
X124460000Y-69215000D01*
%TO.N,SWDIO*%
X80391000Y-77724000D02*
X80391000Y-81277000D01*
X93000000Y-66154994D02*
X93000000Y-66957500D01*
X86360000Y-73025000D02*
X88265000Y-71120000D01*
X90170000Y-64770000D02*
X91615006Y-64770000D01*
X88265000Y-66675000D02*
X90170000Y-64770000D01*
X91615006Y-64770000D02*
X93000000Y-66154994D01*
X85090000Y-73025000D02*
X80391000Y-77724000D01*
X85090000Y-73025000D02*
X86360000Y-73025000D01*
X88265000Y-71120000D02*
X88265000Y-66675000D01*
%TO.N,SWCLK*%
X88714520Y-71306197D02*
X86546197Y-73474520D01*
X91428808Y-65219520D02*
X90356198Y-65219520D01*
X85205486Y-73474520D02*
X81661000Y-77019006D01*
X81661000Y-77019006D02*
X81661000Y-81277000D01*
X88714520Y-66861198D02*
X88714520Y-71306197D01*
X92500000Y-66290712D02*
X91428808Y-65219520D01*
X86546197Y-73474520D02*
X85205486Y-73474520D01*
X92500000Y-66957500D02*
X92500000Y-66290712D01*
X90356198Y-65219520D02*
X88714520Y-66861198D01*
%TO.N,NRST*%
X85471000Y-79629000D02*
X85471000Y-81277000D01*
X100330000Y-77470000D02*
X99204520Y-76344520D01*
X87630000Y-79375000D02*
X85725000Y-79375000D01*
X97000000Y-76099511D02*
X97000000Y-75282500D01*
X97245009Y-76344520D02*
X97000000Y-76099511D01*
X85725000Y-79375000D02*
X85471000Y-79629000D01*
X99204520Y-76344520D02*
X97245009Y-76344520D01*
X100330000Y-78105000D02*
X100330000Y-77470000D01*
%TO.N,OSC 48M A*%
X98806000Y-58683000D02*
X98797000Y-58674000D01*
X95999446Y-75281946D02*
X95999446Y-73545554D01*
X98806000Y-60579000D02*
X98806000Y-58683000D01*
X96000000Y-75282500D02*
X95999446Y-75281946D01*
%TO.N,Net-(J2-Pad11)*%
X85471000Y-85347000D02*
X85471000Y-86372000D01*
X86115511Y-87016511D02*
X87227489Y-87016511D01*
X89535000Y-84709000D02*
X89535000Y-82192500D01*
X87227489Y-87016511D02*
X89535000Y-84709000D01*
X85471000Y-86372000D02*
X86115511Y-87016511D01*
%TD*%
%TA.AperFunction,Conductor*%
%TO.N,LCD_GND*%
G36*
X127494378Y-55455502D02*
G01*
X127506191Y-55464101D01*
X127586517Y-55530023D01*
X127603979Y-55547485D01*
X127712601Y-55679842D01*
X127726319Y-55700372D01*
X127747122Y-55739292D01*
X127762000Y-55798688D01*
X127762000Y-88346312D01*
X127747123Y-88405706D01*
X127726320Y-88444626D01*
X127712597Y-88465163D01*
X127654106Y-88536434D01*
X127595429Y-88576403D01*
X127556707Y-88582500D01*
X71119000Y-88582500D01*
X71050879Y-88562498D01*
X71004386Y-88508842D01*
X70993000Y-88456500D01*
X70993000Y-76392166D01*
X71013002Y-76324045D01*
X71066658Y-76277552D01*
X71136932Y-76267448D01*
X71180475Y-76282180D01*
X71191083Y-76288109D01*
X71357980Y-76360332D01*
X71370083Y-76364171D01*
X71549600Y-76401675D01*
X71559152Y-76402915D01*
X71562384Y-76403000D01*
X71782885Y-76403000D01*
X71798124Y-76398525D01*
X71799329Y-76397135D01*
X71801000Y-76389452D01*
X71801000Y-76384885D01*
X72309000Y-76384885D01*
X72313475Y-76400124D01*
X72314865Y-76401329D01*
X72322548Y-76403000D01*
X72500447Y-76403000D01*
X72506822Y-76402677D01*
X72642277Y-76388918D01*
X72654717Y-76386364D01*
X72828244Y-76331984D01*
X72839932Y-76326975D01*
X72998979Y-76238813D01*
X73009407Y-76231566D01*
X73084417Y-76167274D01*
X73149156Y-76138130D01*
X73219375Y-76148612D01*
X73272779Y-76195394D01*
X73287623Y-76236601D01*
X73289042Y-76236237D01*
X73291012Y-76243910D01*
X73292006Y-76251777D01*
X73294925Y-76259148D01*
X73294925Y-76259150D01*
X73308284Y-76292892D01*
X73312129Y-76304122D01*
X73320282Y-76332184D01*
X73324462Y-76346573D01*
X73328495Y-76353392D01*
X73328497Y-76353397D01*
X73334773Y-76364008D01*
X73343468Y-76381756D01*
X73350928Y-76400597D01*
X73355590Y-76407013D01*
X73355590Y-76407014D01*
X73376916Y-76436367D01*
X73383432Y-76446287D01*
X73405938Y-76484342D01*
X73420259Y-76498663D01*
X73433099Y-76513696D01*
X73445008Y-76530087D01*
X73451114Y-76535138D01*
X73479085Y-76558278D01*
X73487864Y-76566268D01*
X74229595Y-77307999D01*
X74263621Y-77370311D01*
X74266500Y-77397094D01*
X74266500Y-77970400D01*
X74266837Y-77973646D01*
X74266837Y-77973650D01*
X74276618Y-78067914D01*
X74277474Y-78076166D01*
X74279655Y-78082702D01*
X74279655Y-78082704D01*
X74310392Y-78174834D01*
X74333450Y-78243946D01*
X74426522Y-78394348D01*
X74551697Y-78519305D01*
X74557927Y-78523145D01*
X74557928Y-78523146D01*
X74695288Y-78607816D01*
X74702262Y-78612115D01*
X74764306Y-78632694D01*
X74863611Y-78665632D01*
X74863613Y-78665632D01*
X74870139Y-78667797D01*
X74876975Y-78668497D01*
X74876978Y-78668498D01*
X74920031Y-78672909D01*
X74974600Y-78678500D01*
X75600400Y-78678500D01*
X75603646Y-78678163D01*
X75603650Y-78678163D01*
X75699308Y-78668238D01*
X75699312Y-78668237D01*
X75706166Y-78667526D01*
X75712702Y-78665345D01*
X75712704Y-78665345D01*
X75844806Y-78621272D01*
X75873946Y-78611550D01*
X76024348Y-78518478D01*
X76111137Y-78431537D01*
X76173421Y-78397458D01*
X76244241Y-78402461D01*
X76289329Y-78431382D01*
X76371829Y-78513739D01*
X76383240Y-78522751D01*
X76521243Y-78607816D01*
X76534424Y-78613963D01*
X76688710Y-78665138D01*
X76702086Y-78668005D01*
X76796438Y-78677672D01*
X76802854Y-78678000D01*
X76840385Y-78678000D01*
X76855624Y-78673525D01*
X76856829Y-78672135D01*
X76858500Y-78664452D01*
X76858500Y-78659884D01*
X77366500Y-78659884D01*
X77370975Y-78675123D01*
X77372365Y-78676328D01*
X77380048Y-78677999D01*
X77422095Y-78677999D01*
X77428614Y-78677662D01*
X77524206Y-78667743D01*
X77537600Y-78664851D01*
X77691784Y-78613412D01*
X77704962Y-78607239D01*
X77842807Y-78521937D01*
X77854208Y-78512901D01*
X77968739Y-78398171D01*
X77977751Y-78386760D01*
X78062816Y-78248757D01*
X78068963Y-78235576D01*
X78120138Y-78081290D01*
X78123005Y-78067914D01*
X78132672Y-77973562D01*
X78133000Y-77967146D01*
X78133000Y-77742115D01*
X78128525Y-77726876D01*
X78127135Y-77725671D01*
X78119452Y-77724000D01*
X77384615Y-77724000D01*
X77369376Y-77728475D01*
X77368171Y-77729865D01*
X77366500Y-77737548D01*
X77366500Y-78659884D01*
X76858500Y-78659884D01*
X76858500Y-77197885D01*
X77366500Y-77197885D01*
X77370975Y-77213124D01*
X77372365Y-77214329D01*
X77380048Y-77216000D01*
X78114884Y-77216000D01*
X78130123Y-77211525D01*
X78131328Y-77210135D01*
X78132999Y-77202452D01*
X78132999Y-76972905D01*
X78132662Y-76966386D01*
X78122743Y-76870794D01*
X78119851Y-76857400D01*
X78068412Y-76703216D01*
X78062239Y-76690038D01*
X77976937Y-76552193D01*
X77967901Y-76540792D01*
X77853171Y-76426261D01*
X77841760Y-76417249D01*
X77703757Y-76332184D01*
X77690576Y-76326037D01*
X77536290Y-76274862D01*
X77522914Y-76271995D01*
X77428562Y-76262328D01*
X77422145Y-76262000D01*
X77384615Y-76262000D01*
X77369376Y-76266475D01*
X77368171Y-76267865D01*
X77366500Y-76275548D01*
X77366500Y-77197885D01*
X76858500Y-77197885D01*
X76858500Y-76280118D01*
X76845998Y-76237540D01*
X76845998Y-76166543D01*
X76875650Y-76115147D01*
X76886248Y-76104019D01*
X76997711Y-75960320D01*
X77004435Y-75949560D01*
X77084732Y-75786375D01*
X77089155Y-75774481D01*
X77104251Y-75716530D01*
X77103817Y-75702436D01*
X77095636Y-75699000D01*
X75307000Y-75699000D01*
X75238879Y-75678998D01*
X75192386Y-75625342D01*
X75181000Y-75573000D01*
X75181000Y-74573000D01*
X75201002Y-74504879D01*
X75254658Y-74458386D01*
X75307000Y-74447000D01*
X75563000Y-74447000D01*
X75631121Y-74467002D01*
X75677614Y-74520658D01*
X75689000Y-74573000D01*
X75689000Y-75172885D01*
X75693475Y-75188124D01*
X75694865Y-75189329D01*
X75702548Y-75191000D01*
X77094229Y-75191000D01*
X77107760Y-75187027D01*
X77108637Y-75180925D01*
X77052690Y-75028864D01*
X77047123Y-75017451D01*
X76951292Y-74862891D01*
X76946509Y-74856681D01*
X76934292Y-74849560D01*
X76919947Y-74850184D01*
X76874172Y-74862935D01*
X76806336Y-74841986D01*
X76786832Y-74826042D01*
X76279385Y-74318595D01*
X76245359Y-74256283D01*
X76250424Y-74185468D01*
X76292971Y-74128632D01*
X76359491Y-74103821D01*
X76368480Y-74103500D01*
X76505232Y-74103500D01*
X76511685Y-74102128D01*
X76511689Y-74102128D01*
X76667153Y-74069083D01*
X76737944Y-74074485D01*
X76782445Y-74103235D01*
X77161767Y-74482557D01*
X77174147Y-74489317D01*
X77181062Y-74484141D01*
X77199835Y-74451625D01*
X77205181Y-74439617D01*
X77256833Y-74280650D01*
X77259563Y-74267807D01*
X77277036Y-74101565D01*
X77277036Y-74081829D01*
X77279466Y-74081829D01*
X77290248Y-74022842D01*
X77338745Y-73970991D01*
X77402791Y-73953500D01*
X78491088Y-73953500D01*
X78499658Y-73953792D01*
X78549776Y-73957209D01*
X78549780Y-73957209D01*
X78557352Y-73957725D01*
X78564829Y-73956420D01*
X78564830Y-73956420D01*
X78591308Y-73951799D01*
X78620303Y-73946738D01*
X78626821Y-73945777D01*
X78690242Y-73938102D01*
X78697343Y-73935419D01*
X78699952Y-73934778D01*
X78716262Y-73930315D01*
X78718798Y-73929550D01*
X78726284Y-73928243D01*
X78784800Y-73902556D01*
X78790904Y-73900065D01*
X78843548Y-73880173D01*
X78843549Y-73880172D01*
X78850656Y-73877487D01*
X78856919Y-73873183D01*
X78859285Y-73871946D01*
X78874097Y-73863701D01*
X78876351Y-73862368D01*
X78883305Y-73859315D01*
X78934002Y-73820413D01*
X78939332Y-73816541D01*
X78985720Y-73784661D01*
X78985725Y-73784656D01*
X78991981Y-73780357D01*
X79033436Y-73733829D01*
X79038416Y-73728554D01*
X80266566Y-72500405D01*
X80328878Y-72466379D01*
X80355661Y-72463500D01*
X80531271Y-72463500D01*
X80599392Y-72483502D01*
X80645885Y-72537158D01*
X80655989Y-72607432D01*
X80647680Y-72637718D01*
X80645711Y-72642473D01*
X80633125Y-72672857D01*
X80631970Y-72677669D01*
X80578666Y-72899691D01*
X80578665Y-72899697D01*
X80577511Y-72904504D01*
X80558820Y-73142000D01*
X80577511Y-73379496D01*
X80578665Y-73384303D01*
X80578666Y-73384309D01*
X80596708Y-73459457D01*
X80633125Y-73611143D01*
X80635018Y-73615714D01*
X80635019Y-73615716D01*
X80721636Y-73824826D01*
X80724292Y-73831239D01*
X80848767Y-74034364D01*
X80929280Y-74128632D01*
X80995089Y-74205684D01*
X81003485Y-74215515D01*
X81184636Y-74370233D01*
X81387761Y-74494708D01*
X81392331Y-74496601D01*
X81392335Y-74496603D01*
X81602816Y-74583787D01*
X81607857Y-74585875D01*
X81646890Y-74595246D01*
X81834691Y-74640334D01*
X81834697Y-74640335D01*
X81839504Y-74641489D01*
X82077000Y-74660180D01*
X82259600Y-74645809D01*
X82329078Y-74660405D01*
X82379638Y-74710247D01*
X82395224Y-74779512D01*
X82370889Y-74846208D01*
X82358579Y-74860516D01*
X79998747Y-77220348D01*
X79990461Y-77227888D01*
X79983982Y-77232000D01*
X79978557Y-77237777D01*
X79937357Y-77281651D01*
X79934602Y-77284493D01*
X79914865Y-77304230D01*
X79912385Y-77307427D01*
X79904682Y-77316447D01*
X79874414Y-77348679D01*
X79870595Y-77355625D01*
X79870593Y-77355628D01*
X79864652Y-77366434D01*
X79853801Y-77382953D01*
X79841386Y-77398959D01*
X79838241Y-77406228D01*
X79838238Y-77406232D01*
X79823826Y-77439537D01*
X79818609Y-77450187D01*
X79797305Y-77488940D01*
X79795334Y-77496615D01*
X79795334Y-77496616D01*
X79792267Y-77508562D01*
X79785863Y-77527266D01*
X79781618Y-77537077D01*
X79777819Y-77545855D01*
X79776580Y-77553678D01*
X79776577Y-77553688D01*
X79770901Y-77589524D01*
X79768495Y-77601144D01*
X79757500Y-77643970D01*
X79757500Y-77664224D01*
X79755949Y-77683934D01*
X79752780Y-77703943D01*
X79754992Y-77727338D01*
X79756941Y-77747961D01*
X79757500Y-77759819D01*
X79757500Y-79258933D01*
X79737498Y-79327054D01*
X79683842Y-79373547D01*
X79613568Y-79383651D01*
X79607079Y-79382415D01*
X79601316Y-79380255D01*
X79539134Y-79373500D01*
X78702866Y-79373500D01*
X78640684Y-79380255D01*
X78504295Y-79431385D01*
X78387739Y-79518739D01*
X78300385Y-79635295D01*
X78249255Y-79771684D01*
X78242500Y-79833866D01*
X78242500Y-82720134D01*
X78249255Y-82782316D01*
X78300385Y-82918705D01*
X78387739Y-83035261D01*
X78504295Y-83122615D01*
X78640684Y-83173745D01*
X78640557Y-83174083D01*
X78698058Y-83206929D01*
X78730881Y-83269883D01*
X78733266Y-83295175D01*
X78733241Y-83298725D01*
X78732597Y-83304855D01*
X78733797Y-83318036D01*
X78720049Y-83387689D01*
X78670827Y-83438852D01*
X78642454Y-83450063D01*
X78640684Y-83450255D01*
X78633289Y-83453027D01*
X78633286Y-83453028D01*
X78518978Y-83495880D01*
X78504295Y-83501385D01*
X78387739Y-83588739D01*
X78300385Y-83705295D01*
X78249255Y-83841684D01*
X78242500Y-83903866D01*
X78242500Y-86790134D01*
X78249255Y-86852316D01*
X78300385Y-86988705D01*
X78387739Y-87105261D01*
X78504295Y-87192615D01*
X78640684Y-87243745D01*
X78702866Y-87250500D01*
X79539134Y-87250500D01*
X79601316Y-87243745D01*
X79608712Y-87240973D01*
X79608718Y-87240971D01*
X79711771Y-87202338D01*
X79782578Y-87197155D01*
X79800229Y-87202338D01*
X79903282Y-87240971D01*
X79903288Y-87240973D01*
X79910684Y-87243745D01*
X79972866Y-87250500D01*
X80046318Y-87250500D01*
X80114439Y-87270502D01*
X80135413Y-87287405D01*
X80819559Y-87971551D01*
X80825413Y-87977816D01*
X80863448Y-88021416D01*
X80869666Y-88025786D01*
X80915706Y-88058143D01*
X80921002Y-88062076D01*
X80971291Y-88101508D01*
X80978213Y-88104633D01*
X80980461Y-88105995D01*
X80995194Y-88114399D01*
X80997533Y-88115653D01*
X81003748Y-88120021D01*
X81010824Y-88122780D01*
X81010828Y-88122782D01*
X81063283Y-88143233D01*
X81069361Y-88145788D01*
X81127583Y-88172076D01*
X81135054Y-88173460D01*
X81137608Y-88174261D01*
X81153887Y-88178898D01*
X81156442Y-88179554D01*
X81163518Y-88182313D01*
X81184271Y-88185045D01*
X81226860Y-88190652D01*
X81233376Y-88191684D01*
X81286874Y-88201599D01*
X81296196Y-88203327D01*
X81303776Y-88202890D01*
X81303777Y-88202890D01*
X81358407Y-88199740D01*
X81365660Y-88199531D01*
X87395129Y-88199531D01*
X87403699Y-88199823D01*
X87453817Y-88203240D01*
X87453821Y-88203240D01*
X87461393Y-88203756D01*
X87468870Y-88202451D01*
X87468871Y-88202451D01*
X87495349Y-88197830D01*
X87524344Y-88192769D01*
X87530862Y-88191808D01*
X87594283Y-88184133D01*
X87601384Y-88181450D01*
X87603993Y-88180809D01*
X87620303Y-88176346D01*
X87622839Y-88175581D01*
X87630325Y-88174274D01*
X87688841Y-88148587D01*
X87694945Y-88146096D01*
X87695758Y-88145789D01*
X87754697Y-88123518D01*
X87760960Y-88119214D01*
X87763326Y-88117977D01*
X87778138Y-88109732D01*
X87780392Y-88108399D01*
X87787346Y-88105346D01*
X87838043Y-88066444D01*
X87843373Y-88062572D01*
X87889761Y-88030692D01*
X87889766Y-88030687D01*
X87896022Y-88026388D01*
X87937477Y-87979860D01*
X87942457Y-87974585D01*
X91412528Y-84504515D01*
X91418793Y-84498661D01*
X91456664Y-84465624D01*
X91456665Y-84465623D01*
X91462385Y-84460633D01*
X91499136Y-84408343D01*
X91503028Y-84403101D01*
X91542476Y-84352790D01*
X91545600Y-84345871D01*
X91546988Y-84343579D01*
X91555357Y-84328907D01*
X91556622Y-84326547D01*
X91560990Y-84320333D01*
X91584203Y-84260795D01*
X91586759Y-84254714D01*
X91609918Y-84203424D01*
X91613045Y-84196499D01*
X91614430Y-84189026D01*
X91615234Y-84186460D01*
X91619855Y-84170237D01*
X91620520Y-84167645D01*
X91623282Y-84160563D01*
X91631622Y-84097211D01*
X91632654Y-84090695D01*
X91642911Y-84035353D01*
X91644295Y-84027886D01*
X91640709Y-83965692D01*
X91640500Y-83958439D01*
X91640500Y-81879660D01*
X91660502Y-81811539D01*
X91677405Y-81790565D01*
X93016008Y-80451963D01*
X93022273Y-80446109D01*
X93060144Y-80413072D01*
X93060145Y-80413071D01*
X93065865Y-80408081D01*
X93102616Y-80355791D01*
X93106508Y-80350549D01*
X93145956Y-80300238D01*
X93149080Y-80293319D01*
X93150468Y-80291027D01*
X93158837Y-80276355D01*
X93160102Y-80273995D01*
X93164470Y-80267781D01*
X93187683Y-80208243D01*
X93190239Y-80202162D01*
X93198445Y-80183990D01*
X93216525Y-80143947D01*
X93217910Y-80136474D01*
X93218714Y-80133908D01*
X93223335Y-80117685D01*
X93224000Y-80115093D01*
X93226762Y-80108011D01*
X93235102Y-80044659D01*
X93236134Y-80038143D01*
X93246391Y-79982801D01*
X93247775Y-79975334D01*
X93244189Y-79913140D01*
X93243980Y-79905887D01*
X93243980Y-78940180D01*
X93263982Y-78872059D01*
X93280885Y-78851085D01*
X93391565Y-78740405D01*
X93453877Y-78706379D01*
X93480660Y-78703500D01*
X93960400Y-78703500D01*
X93963646Y-78703163D01*
X93963650Y-78703163D01*
X94059308Y-78693238D01*
X94059312Y-78693237D01*
X94066166Y-78692526D01*
X94072702Y-78690345D01*
X94072704Y-78690345D01*
X94204806Y-78646272D01*
X94233946Y-78636550D01*
X94384348Y-78543478D01*
X94405852Y-78521937D01*
X94504133Y-78423484D01*
X94509305Y-78418303D01*
X94513147Y-78412071D01*
X94516104Y-78408326D01*
X94574020Y-78367263D01*
X94644943Y-78364031D01*
X94706355Y-78399656D01*
X94713733Y-78408155D01*
X94717668Y-78413120D01*
X94721522Y-78419348D01*
X94846697Y-78544305D01*
X94852927Y-78548145D01*
X94852928Y-78548146D01*
X94990090Y-78632694D01*
X94997262Y-78637115D01*
X95065909Y-78659884D01*
X95158611Y-78690632D01*
X95158613Y-78690632D01*
X95165139Y-78692797D01*
X95171975Y-78693497D01*
X95171978Y-78693498D01*
X95215031Y-78697909D01*
X95269600Y-78703500D01*
X95749340Y-78703500D01*
X95817461Y-78723502D01*
X95838435Y-78740405D01*
X96483061Y-79385031D01*
X96488915Y-79391296D01*
X96526950Y-79434896D01*
X96541196Y-79444908D01*
X96579230Y-79471639D01*
X96584525Y-79475572D01*
X96634793Y-79514987D01*
X96641709Y-79518110D01*
X96643995Y-79519494D01*
X96658676Y-79527868D01*
X96661036Y-79529133D01*
X96667250Y-79533501D01*
X96674329Y-79536261D01*
X96674331Y-79536262D01*
X96726786Y-79556713D01*
X96732855Y-79559264D01*
X96791084Y-79585556D01*
X96798551Y-79586940D01*
X96801106Y-79587741D01*
X96817359Y-79592370D01*
X96819939Y-79593033D01*
X96827020Y-79595793D01*
X96834551Y-79596784D01*
X96834553Y-79596785D01*
X96864172Y-79600684D01*
X96890372Y-79604133D01*
X96896870Y-79605163D01*
X96959697Y-79616807D01*
X96967277Y-79616370D01*
X96967278Y-79616370D01*
X97021903Y-79613220D01*
X97029157Y-79613011D01*
X105216577Y-79613011D01*
X105225147Y-79613303D01*
X105275265Y-79616720D01*
X105275269Y-79616720D01*
X105282841Y-79617236D01*
X105290318Y-79615931D01*
X105290319Y-79615931D01*
X105316797Y-79611310D01*
X105345792Y-79606249D01*
X105352310Y-79605288D01*
X105415731Y-79597613D01*
X105422832Y-79594930D01*
X105425441Y-79594289D01*
X105441751Y-79589826D01*
X105444287Y-79589061D01*
X105451773Y-79587754D01*
X105510289Y-79562067D01*
X105516393Y-79559576D01*
X105569037Y-79539684D01*
X105569038Y-79539683D01*
X105576145Y-79536998D01*
X105582408Y-79532694D01*
X105584774Y-79531457D01*
X105599586Y-79523212D01*
X105601840Y-79521879D01*
X105608794Y-79518826D01*
X105659491Y-79479924D01*
X105664821Y-79476052D01*
X105711209Y-79444172D01*
X105711214Y-79444167D01*
X105717470Y-79439868D01*
X105727837Y-79428233D01*
X105758924Y-79393341D01*
X105763905Y-79388065D01*
X106106970Y-79045000D01*
X108306496Y-79045000D01*
X108307186Y-79051565D01*
X108314334Y-79119570D01*
X108326458Y-79234928D01*
X108385473Y-79416556D01*
X108388776Y-79422278D01*
X108388777Y-79422279D01*
X108417275Y-79471639D01*
X108480960Y-79581944D01*
X108485378Y-79586851D01*
X108485379Y-79586852D01*
X108511562Y-79615931D01*
X108608747Y-79723866D01*
X108763248Y-79836118D01*
X108769276Y-79838802D01*
X108769278Y-79838803D01*
X108928101Y-79909515D01*
X108937712Y-79913794D01*
X109031113Y-79933647D01*
X109118056Y-79952128D01*
X109118061Y-79952128D01*
X109124513Y-79953500D01*
X109315487Y-79953500D01*
X109321939Y-79952128D01*
X109321944Y-79952128D01*
X109408887Y-79933647D01*
X109502288Y-79913794D01*
X109511899Y-79909515D01*
X109670722Y-79838803D01*
X109670724Y-79838802D01*
X109676752Y-79836118D01*
X109765438Y-79771684D01*
X109809671Y-79739546D01*
X109831253Y-79723866D01*
X109835668Y-79718963D01*
X109840580Y-79714540D01*
X109841705Y-79715789D01*
X109895014Y-79682949D01*
X109928200Y-79678500D01*
X111984500Y-79678500D01*
X112052621Y-79698502D01*
X112099114Y-79752158D01*
X112110500Y-79804500D01*
X112110500Y-80868134D01*
X112117255Y-80930316D01*
X112168385Y-81066705D01*
X112255739Y-81183261D01*
X112372295Y-81270615D01*
X112508684Y-81321745D01*
X112570866Y-81328500D01*
X115267134Y-81328500D01*
X115329316Y-81321745D01*
X115465705Y-81270615D01*
X115582261Y-81183261D01*
X115669615Y-81066705D01*
X115720745Y-80930316D01*
X115727500Y-80868134D01*
X115727500Y-77171866D01*
X115720745Y-77109684D01*
X115669615Y-76973295D01*
X115582261Y-76856739D01*
X115465705Y-76769385D01*
X115329316Y-76718255D01*
X115267134Y-76711500D01*
X112570866Y-76711500D01*
X112508684Y-76718255D01*
X112372295Y-76769385D01*
X112255739Y-76856739D01*
X112168385Y-76973295D01*
X112117255Y-77109684D01*
X112110500Y-77171866D01*
X112110500Y-78285500D01*
X112090498Y-78353621D01*
X112036842Y-78400114D01*
X111984500Y-78411500D01*
X109928200Y-78411500D01*
X109860079Y-78391498D01*
X109840853Y-78375157D01*
X109840580Y-78375460D01*
X109835668Y-78371037D01*
X109831253Y-78366134D01*
X109676752Y-78253882D01*
X109670724Y-78251198D01*
X109670722Y-78251197D01*
X109508319Y-78178891D01*
X109508318Y-78178891D01*
X109502288Y-78176206D01*
X109408887Y-78156353D01*
X109321944Y-78137872D01*
X109321939Y-78137872D01*
X109315487Y-78136500D01*
X109124513Y-78136500D01*
X109118061Y-78137872D01*
X109118056Y-78137872D01*
X109031113Y-78156353D01*
X108937712Y-78176206D01*
X108931682Y-78178891D01*
X108931681Y-78178891D01*
X108769278Y-78251197D01*
X108769276Y-78251198D01*
X108763248Y-78253882D01*
X108608747Y-78366134D01*
X108604326Y-78371044D01*
X108604325Y-78371045D01*
X108549998Y-78431382D01*
X108480960Y-78508056D01*
X108457814Y-78548146D01*
X108390665Y-78664452D01*
X108385473Y-78673444D01*
X108326458Y-78855072D01*
X108325768Y-78861633D01*
X108325768Y-78861635D01*
X108317513Y-78940180D01*
X108306496Y-79045000D01*
X106106970Y-79045000D01*
X111381566Y-73770405D01*
X111443878Y-73736379D01*
X111470661Y-73733500D01*
X113506224Y-73733500D01*
X113574345Y-73753502D01*
X113620838Y-73807158D01*
X113630942Y-73877432D01*
X113601448Y-73942012D01*
X113542643Y-73980121D01*
X113532831Y-73983084D01*
X113358204Y-74075934D01*
X113316163Y-74110222D01*
X113209713Y-74197040D01*
X113209710Y-74197043D01*
X113204938Y-74200935D01*
X113201011Y-74205682D01*
X113201009Y-74205684D01*
X113082799Y-74348575D01*
X113082797Y-74348579D01*
X113078870Y-74353325D01*
X112984802Y-74527299D01*
X112926318Y-74716232D01*
X112925674Y-74722357D01*
X112925674Y-74722358D01*
X112914777Y-74826042D01*
X112905645Y-74912925D01*
X112923570Y-75109888D01*
X112979410Y-75299619D01*
X112982263Y-75305077D01*
X112982265Y-75305081D01*
X112996615Y-75332529D01*
X113071040Y-75474890D01*
X113194968Y-75629025D01*
X113199692Y-75632989D01*
X113206933Y-75639065D01*
X113346474Y-75756154D01*
X113351872Y-75759121D01*
X113351877Y-75759125D01*
X113481846Y-75830575D01*
X113519787Y-75851433D01*
X113525654Y-75853294D01*
X113525656Y-75853295D01*
X113702436Y-75909373D01*
X113708306Y-75911235D01*
X113862227Y-75928500D01*
X113968769Y-75928500D01*
X113971825Y-75928200D01*
X113971832Y-75928200D01*
X114030340Y-75922463D01*
X114115833Y-75914080D01*
X114121734Y-75912298D01*
X114121736Y-75912298D01*
X114195053Y-75890162D01*
X114305169Y-75856916D01*
X114479796Y-75764066D01*
X114566062Y-75693709D01*
X114628287Y-75642960D01*
X114628290Y-75642957D01*
X114633062Y-75639065D01*
X114691539Y-75568379D01*
X114755201Y-75491425D01*
X114755203Y-75491421D01*
X114759130Y-75486675D01*
X114853198Y-75312701D01*
X114911682Y-75123768D01*
X114932355Y-74927075D01*
X114919735Y-74788402D01*
X114914989Y-74736251D01*
X114914988Y-74736248D01*
X114914430Y-74730112D01*
X114910194Y-74715717D01*
X114874737Y-74595246D01*
X114858590Y-74540381D01*
X114852990Y-74529668D01*
X114792696Y-74414339D01*
X114766960Y-74365110D01*
X114643032Y-74210975D01*
X114636727Y-74205684D01*
X114564317Y-74144925D01*
X114491526Y-74083846D01*
X114486128Y-74080879D01*
X114486123Y-74080875D01*
X114323608Y-73991533D01*
X114323609Y-73991533D01*
X114318213Y-73988567D01*
X114312346Y-73986706D01*
X114312344Y-73986705D01*
X114289952Y-73979602D01*
X114231068Y-73939938D01*
X114202976Y-73874736D01*
X114214594Y-73804697D01*
X114262234Y-73752057D01*
X114328051Y-73733500D01*
X116863595Y-73733500D01*
X116931716Y-73753502D01*
X116937656Y-73757564D01*
X117005916Y-73807158D01*
X117018248Y-73816118D01*
X117024276Y-73818802D01*
X117024278Y-73818803D01*
X117186681Y-73891109D01*
X117192712Y-73893794D01*
X117249737Y-73905915D01*
X117373056Y-73932128D01*
X117373061Y-73932128D01*
X117379513Y-73933500D01*
X117570487Y-73933500D01*
X117576939Y-73932128D01*
X117576944Y-73932128D01*
X117700263Y-73905915D01*
X117757288Y-73893794D01*
X117763319Y-73891109D01*
X117925722Y-73818803D01*
X117925724Y-73818802D01*
X117931752Y-73816118D01*
X117944085Y-73807158D01*
X118045465Y-73733500D01*
X118086253Y-73703866D01*
X118141349Y-73642676D01*
X118209621Y-73566852D01*
X118209622Y-73566851D01*
X118214040Y-73561944D01*
X118309527Y-73396556D01*
X118368542Y-73214928D01*
X118369983Y-73201217D01*
X118396996Y-73135560D01*
X118455217Y-73094930D01*
X118526162Y-73092227D01*
X118584388Y-73125292D01*
X118709595Y-73250499D01*
X118743621Y-73312811D01*
X118746500Y-73339594D01*
X118746500Y-74216233D01*
X118745973Y-74227416D01*
X118744298Y-74234909D01*
X118744547Y-74242835D01*
X118744547Y-74242836D01*
X118746438Y-74302986D01*
X118746500Y-74306945D01*
X118746500Y-74334856D01*
X118746997Y-74338790D01*
X118746997Y-74338791D01*
X118747005Y-74338856D01*
X118747938Y-74350693D01*
X118749327Y-74394889D01*
X118754978Y-74414339D01*
X118758987Y-74433700D01*
X118759735Y-74439617D01*
X118761526Y-74453797D01*
X118764445Y-74461168D01*
X118764445Y-74461170D01*
X118777804Y-74494912D01*
X118781649Y-74506142D01*
X118788484Y-74529668D01*
X118793982Y-74548593D01*
X118798015Y-74555412D01*
X118798017Y-74555417D01*
X118804293Y-74566028D01*
X118812988Y-74583776D01*
X118820448Y-74602617D01*
X118825110Y-74609033D01*
X118825110Y-74609034D01*
X118846436Y-74638387D01*
X118852952Y-74648307D01*
X118867220Y-74672432D01*
X118875458Y-74686362D01*
X118889779Y-74700683D01*
X118902619Y-74715716D01*
X118914528Y-74732107D01*
X118920634Y-74737158D01*
X118948605Y-74760298D01*
X118957384Y-74768288D01*
X123211255Y-79022160D01*
X123245281Y-79084472D01*
X123247447Y-79124642D01*
X123224251Y-79341695D01*
X123224548Y-79346848D01*
X123224548Y-79346851D01*
X123233973Y-79510302D01*
X123237110Y-79564715D01*
X123238247Y-79569761D01*
X123238248Y-79569767D01*
X123253016Y-79635295D01*
X123286222Y-79782639D01*
X123370266Y-79989616D01*
X123372965Y-79994020D01*
X123448747Y-80117685D01*
X123486987Y-80180088D01*
X123633250Y-80348938D01*
X123805126Y-80491632D01*
X123875595Y-80532811D01*
X123878445Y-80534476D01*
X123927169Y-80586114D01*
X123940240Y-80655897D01*
X123913509Y-80721669D01*
X123873055Y-80755027D01*
X123860607Y-80761507D01*
X123856474Y-80764610D01*
X123856471Y-80764612D01*
X123686100Y-80892530D01*
X123681965Y-80895635D01*
X123527629Y-81057138D01*
X123401743Y-81241680D01*
X123307688Y-81444305D01*
X123247989Y-81659570D01*
X123224251Y-81881695D01*
X123224548Y-81886848D01*
X123224548Y-81886851D01*
X123230011Y-81981590D01*
X123237110Y-82104715D01*
X123238247Y-82109761D01*
X123238248Y-82109767D01*
X123258119Y-82197939D01*
X123286222Y-82322639D01*
X123370266Y-82529616D01*
X123486987Y-82720088D01*
X123633250Y-82888938D01*
X123805126Y-83031632D01*
X123998000Y-83144338D01*
X124206692Y-83224030D01*
X124211760Y-83225061D01*
X124211763Y-83225062D01*
X124319017Y-83246883D01*
X124425597Y-83268567D01*
X124430772Y-83268757D01*
X124430774Y-83268757D01*
X124643673Y-83276564D01*
X124643677Y-83276564D01*
X124648837Y-83276753D01*
X124653957Y-83276097D01*
X124653959Y-83276097D01*
X124865288Y-83249025D01*
X124865289Y-83249025D01*
X124870416Y-83248368D01*
X124875366Y-83246883D01*
X125079429Y-83185661D01*
X125079434Y-83185659D01*
X125084384Y-83184174D01*
X125284994Y-83085896D01*
X125466860Y-82956173D01*
X125625096Y-82798489D01*
X125636718Y-82782316D01*
X125752435Y-82621277D01*
X125755453Y-82617077D01*
X125854430Y-82416811D01*
X125919370Y-82203069D01*
X125948529Y-81981590D01*
X125950156Y-81915000D01*
X125931852Y-81692361D01*
X125877431Y-81475702D01*
X125788354Y-81270840D01*
X125731697Y-81183261D01*
X125669822Y-81087617D01*
X125669820Y-81087614D01*
X125667014Y-81083277D01*
X125516670Y-80918051D01*
X125512619Y-80914852D01*
X125512615Y-80914848D01*
X125345414Y-80782800D01*
X125345410Y-80782798D01*
X125341359Y-80779598D01*
X125300053Y-80756796D01*
X125250084Y-80706364D01*
X125235312Y-80636921D01*
X125260428Y-80570516D01*
X125287780Y-80543909D01*
X125331603Y-80512650D01*
X125466860Y-80416173D01*
X125474981Y-80408081D01*
X125621435Y-80262137D01*
X125625096Y-80258489D01*
X125684594Y-80175689D01*
X125752435Y-80081277D01*
X125755453Y-80077077D01*
X125774696Y-80038143D01*
X125852136Y-79881453D01*
X125852137Y-79881451D01*
X125854430Y-79876811D01*
X125900898Y-79723866D01*
X125917865Y-79668023D01*
X125917865Y-79668021D01*
X125919370Y-79663069D01*
X125948529Y-79441590D01*
X125948778Y-79431385D01*
X125950074Y-79378365D01*
X125950074Y-79378361D01*
X125950156Y-79375000D01*
X125931852Y-79152361D01*
X125877431Y-78935702D01*
X125788354Y-78730840D01*
X125745406Y-78664452D01*
X125669822Y-78547617D01*
X125669820Y-78547614D01*
X125667014Y-78543277D01*
X125516670Y-78378051D01*
X125512619Y-78374852D01*
X125512615Y-78374848D01*
X125345414Y-78242800D01*
X125345410Y-78242798D01*
X125341359Y-78239598D01*
X125300053Y-78216796D01*
X125250084Y-78166364D01*
X125235312Y-78096921D01*
X125260428Y-78030516D01*
X125287780Y-78003909D01*
X125339337Y-77967134D01*
X125466860Y-77876173D01*
X125625096Y-77718489D01*
X125629878Y-77711835D01*
X125752435Y-77541277D01*
X125755453Y-77537077D01*
X125764800Y-77518166D01*
X125852136Y-77341453D01*
X125852137Y-77341451D01*
X125854430Y-77336811D01*
X125898902Y-77190437D01*
X125917865Y-77128023D01*
X125917865Y-77128021D01*
X125919370Y-77123069D01*
X125948529Y-76901590D01*
X125948766Y-76891878D01*
X125950074Y-76838365D01*
X125950074Y-76838361D01*
X125950156Y-76835000D01*
X125931852Y-76612361D01*
X125877431Y-76395702D01*
X125788354Y-76190840D01*
X125667014Y-76003277D01*
X125516670Y-75838051D01*
X125512619Y-75834852D01*
X125512615Y-75834848D01*
X125345414Y-75702800D01*
X125345410Y-75702798D01*
X125341359Y-75699598D01*
X125300053Y-75676796D01*
X125250084Y-75626364D01*
X125235312Y-75556921D01*
X125260428Y-75490516D01*
X125287780Y-75463909D01*
X125331603Y-75432650D01*
X125466860Y-75336173D01*
X125625096Y-75178489D01*
X125755453Y-74997077D01*
X125766046Y-74975645D01*
X125852136Y-74801453D01*
X125852137Y-74801451D01*
X125854430Y-74796811D01*
X125911481Y-74609034D01*
X125917865Y-74588023D01*
X125917865Y-74588021D01*
X125919370Y-74583069D01*
X125948529Y-74361590D01*
X125948940Y-74344760D01*
X125950074Y-74298365D01*
X125950074Y-74298361D01*
X125950156Y-74295000D01*
X125931852Y-74072361D01*
X125877431Y-73855702D01*
X125788354Y-73650840D01*
X125730845Y-73561944D01*
X125669822Y-73467617D01*
X125669820Y-73467614D01*
X125667014Y-73463277D01*
X125516670Y-73298051D01*
X125512619Y-73294852D01*
X125512615Y-73294848D01*
X125345414Y-73162800D01*
X125345410Y-73162798D01*
X125341359Y-73159598D01*
X125300053Y-73136796D01*
X125250084Y-73086364D01*
X125235312Y-73016921D01*
X125260428Y-72950516D01*
X125287780Y-72923909D01*
X125331603Y-72892650D01*
X125466860Y-72796173D01*
X125625096Y-72638489D01*
X125755453Y-72457077D01*
X125854430Y-72256811D01*
X125889169Y-72142473D01*
X125917865Y-72048023D01*
X125917865Y-72048021D01*
X125919370Y-72043069D01*
X125948529Y-71821590D01*
X125948816Y-71809849D01*
X125950074Y-71758365D01*
X125950074Y-71758361D01*
X125950156Y-71755000D01*
X125931852Y-71532361D01*
X125877431Y-71315702D01*
X125788354Y-71110840D01*
X125727921Y-71017425D01*
X125669822Y-70927617D01*
X125669820Y-70927614D01*
X125667014Y-70923277D01*
X125516670Y-70758051D01*
X125512619Y-70754852D01*
X125512615Y-70754848D01*
X125345414Y-70622800D01*
X125345410Y-70622798D01*
X125341359Y-70619598D01*
X125300053Y-70596796D01*
X125250084Y-70546364D01*
X125235312Y-70476921D01*
X125260428Y-70410516D01*
X125287780Y-70383909D01*
X125343880Y-70343893D01*
X125466860Y-70256173D01*
X125625096Y-70098489D01*
X125707908Y-69983244D01*
X125752435Y-69921277D01*
X125755453Y-69917077D01*
X125786802Y-69853648D01*
X125852136Y-69721453D01*
X125852137Y-69721451D01*
X125854430Y-69716811D01*
X125912641Y-69525216D01*
X125917865Y-69508023D01*
X125917865Y-69508021D01*
X125919370Y-69503069D01*
X125948529Y-69281590D01*
X125948611Y-69278240D01*
X125950074Y-69218365D01*
X125950074Y-69218361D01*
X125950156Y-69215000D01*
X125931852Y-68992361D01*
X125877431Y-68775702D01*
X125788354Y-68570840D01*
X125737484Y-68492207D01*
X125669822Y-68387617D01*
X125669820Y-68387614D01*
X125667014Y-68383277D01*
X125516670Y-68218051D01*
X125512619Y-68214852D01*
X125512615Y-68214848D01*
X125345414Y-68082800D01*
X125345410Y-68082798D01*
X125341359Y-68079598D01*
X125299569Y-68056529D01*
X125249598Y-68006097D01*
X125234826Y-67936654D01*
X125259942Y-67870248D01*
X125287294Y-67843641D01*
X125462328Y-67718792D01*
X125470200Y-67712139D01*
X125621052Y-67561812D01*
X125627730Y-67553965D01*
X125752003Y-67381020D01*
X125757313Y-67372183D01*
X125851670Y-67181267D01*
X125855469Y-67171672D01*
X125917377Y-66967910D01*
X125919555Y-66957837D01*
X125920986Y-66946962D01*
X125918775Y-66932778D01*
X125905617Y-66929000D01*
X123270225Y-66929000D01*
X123256694Y-66932973D01*
X123255257Y-66942966D01*
X123285565Y-67077446D01*
X123288645Y-67087275D01*
X123368770Y-67284603D01*
X123373413Y-67293794D01*
X123484694Y-67475388D01*
X123490777Y-67483699D01*
X123630213Y-67644667D01*
X123637580Y-67651883D01*
X123801434Y-67787916D01*
X123809881Y-67793831D01*
X123878969Y-67834203D01*
X123927693Y-67885842D01*
X123940764Y-67955625D01*
X123914033Y-68021396D01*
X123873584Y-68054752D01*
X123860607Y-68061507D01*
X123856474Y-68064610D01*
X123856471Y-68064612D01*
X123696550Y-68184684D01*
X123681965Y-68195635D01*
X123632476Y-68247422D01*
X123552942Y-68330650D01*
X123527629Y-68357138D01*
X123524715Y-68361410D01*
X123524714Y-68361411D01*
X123444417Y-68479122D01*
X123401743Y-68541680D01*
X123307688Y-68744305D01*
X123247989Y-68959570D01*
X123224251Y-69181695D01*
X123224548Y-69186848D01*
X123224548Y-69186851D01*
X123234359Y-69357001D01*
X123237110Y-69404715D01*
X123238247Y-69409762D01*
X123238248Y-69409766D01*
X123247096Y-69449025D01*
X123242560Y-69519876D01*
X123213274Y-69565821D01*
X122329500Y-70449595D01*
X122267188Y-70483621D01*
X122240405Y-70486500D01*
X114066520Y-70486500D01*
X113998399Y-70466498D01*
X113951906Y-70412842D01*
X113941210Y-70373671D01*
X113924232Y-70212135D01*
X113924232Y-70212133D01*
X113923542Y-70205572D01*
X113864527Y-70023944D01*
X113843389Y-69987331D01*
X113772341Y-69864274D01*
X113769040Y-69858556D01*
X113729458Y-69814595D01*
X113645675Y-69721545D01*
X113645674Y-69721544D01*
X113641253Y-69716634D01*
X113532492Y-69637614D01*
X113492094Y-69608263D01*
X113492093Y-69608262D01*
X113486752Y-69604382D01*
X113480724Y-69601698D01*
X113480722Y-69601697D01*
X113318319Y-69529391D01*
X113318318Y-69529391D01*
X113312288Y-69526706D01*
X113218887Y-69506853D01*
X113131944Y-69488372D01*
X113131939Y-69488372D01*
X113125487Y-69487000D01*
X112934513Y-69487000D01*
X112928061Y-69488372D01*
X112928056Y-69488372D01*
X112841113Y-69506853D01*
X112747712Y-69526706D01*
X112741682Y-69529391D01*
X112741681Y-69529391D01*
X112579278Y-69601697D01*
X112579276Y-69601698D01*
X112573248Y-69604382D01*
X112567907Y-69608262D01*
X112567906Y-69608263D01*
X112527508Y-69637614D01*
X112418747Y-69716634D01*
X112414326Y-69721544D01*
X112414325Y-69721545D01*
X112334851Y-69809810D01*
X112274405Y-69847050D01*
X112241215Y-69851500D01*
X110803158Y-69851500D01*
X110735037Y-69831498D01*
X110714063Y-69814595D01*
X108452696Y-67553227D01*
X108445156Y-67544941D01*
X108441044Y-67538462D01*
X108412102Y-67511284D01*
X112759124Y-67511284D01*
X112760103Y-67516981D01*
X112760103Y-67516982D01*
X112793637Y-67712139D01*
X112795181Y-67721126D01*
X112868875Y-67920884D01*
X112891760Y-67959350D01*
X112958781Y-68072000D01*
X112977739Y-68103866D01*
X113118125Y-68263946D01*
X113285333Y-68395762D01*
X113290444Y-68398451D01*
X113290447Y-68398453D01*
X113393961Y-68452915D01*
X113473762Y-68494900D01*
X113479283Y-68496614D01*
X113479287Y-68496616D01*
X113639538Y-68546375D01*
X113677102Y-68558039D01*
X113849982Y-68578500D01*
X113973013Y-68578500D01*
X114058645Y-68570632D01*
X114125270Y-68564510D01*
X114125273Y-68564509D01*
X114131024Y-68563981D01*
X114152093Y-68558039D01*
X114330389Y-68507754D01*
X114330391Y-68507753D01*
X114335948Y-68506186D01*
X114341123Y-68503634D01*
X114341128Y-68503632D01*
X114521727Y-68414570D01*
X114526908Y-68412015D01*
X114697509Y-68284622D01*
X114842037Y-68128271D01*
X114946928Y-67962029D01*
X114952574Y-67953081D01*
X114955653Y-67948201D01*
X115034551Y-67750441D01*
X115037599Y-67735121D01*
X115074962Y-67547282D01*
X115074962Y-67547280D01*
X115076089Y-67541615D01*
X115076202Y-67533037D01*
X115078227Y-67378306D01*
X115078876Y-67328716D01*
X115075402Y-67308500D01*
X115043797Y-67124564D01*
X115043796Y-67124561D01*
X115042819Y-67118874D01*
X114969125Y-66919116D01*
X114860261Y-66736134D01*
X114719875Y-66576054D01*
X114552667Y-66444238D01*
X114547556Y-66441549D01*
X114547553Y-66441547D01*
X114373473Y-66349959D01*
X114364238Y-66345100D01*
X114358717Y-66343386D01*
X114358713Y-66343384D01*
X114166421Y-66283676D01*
X114166422Y-66283676D01*
X114160898Y-66281961D01*
X113988018Y-66261500D01*
X113864987Y-66261500D01*
X113779355Y-66269368D01*
X113712730Y-66275490D01*
X113712727Y-66275491D01*
X113706976Y-66276019D01*
X113701417Y-66277587D01*
X113701416Y-66277587D01*
X113507611Y-66332246D01*
X113507609Y-66332247D01*
X113502052Y-66333814D01*
X113496877Y-66336366D01*
X113496872Y-66336368D01*
X113325256Y-66421000D01*
X113311092Y-66427985D01*
X113306466Y-66431439D01*
X113306465Y-66431440D01*
X113229867Y-66488638D01*
X113140491Y-66555378D01*
X112995963Y-66711729D01*
X112882347Y-66891799D01*
X112803449Y-67089559D01*
X112802323Y-67095219D01*
X112802322Y-67095223D01*
X112773858Y-67238322D01*
X112761911Y-67298385D01*
X112761835Y-67304160D01*
X112761835Y-67304164D01*
X112761514Y-67328716D01*
X112759124Y-67511284D01*
X108412102Y-67511284D01*
X108391392Y-67491836D01*
X108388551Y-67489082D01*
X108368814Y-67469345D01*
X108365617Y-67466865D01*
X108356595Y-67459160D01*
X108330144Y-67434321D01*
X108324365Y-67428894D01*
X108317419Y-67425075D01*
X108317416Y-67425073D01*
X108306610Y-67419132D01*
X108290091Y-67408281D01*
X108289627Y-67407921D01*
X108274085Y-67395866D01*
X108266816Y-67392721D01*
X108266812Y-67392718D01*
X108233507Y-67378306D01*
X108222857Y-67373089D01*
X108184104Y-67351785D01*
X108164481Y-67346747D01*
X108145778Y-67340343D01*
X108134464Y-67335447D01*
X108134463Y-67335447D01*
X108127189Y-67332299D01*
X108119366Y-67331060D01*
X108119356Y-67331057D01*
X108083520Y-67325381D01*
X108071900Y-67322975D01*
X108036755Y-67313952D01*
X108036754Y-67313952D01*
X108029074Y-67311980D01*
X108008820Y-67311980D01*
X107989109Y-67310429D01*
X107976930Y-67308500D01*
X107969101Y-67307260D01*
X107961209Y-67308006D01*
X107925083Y-67311421D01*
X107913225Y-67311980D01*
X98784500Y-67311980D01*
X98716379Y-67291978D01*
X98669886Y-67238322D01*
X98658500Y-67185980D01*
X98658500Y-66256756D01*
X98655515Y-66234079D01*
X98645699Y-66159526D01*
X98643481Y-66142676D01*
X98636367Y-66125500D01*
X98610228Y-66062395D01*
X98584686Y-66000732D01*
X98491157Y-65878843D01*
X98458307Y-65853636D01*
X98405734Y-65813296D01*
X98369267Y-65785314D01*
X98227324Y-65726519D01*
X98153562Y-65716808D01*
X98117331Y-65712038D01*
X98117330Y-65712038D01*
X98113244Y-65711500D01*
X97886756Y-65711500D01*
X97882670Y-65712038D01*
X97882669Y-65712038D01*
X97772676Y-65726519D01*
X97772473Y-65724974D01*
X97727527Y-65724974D01*
X97727324Y-65726519D01*
X97617331Y-65712038D01*
X97617330Y-65712038D01*
X97613244Y-65711500D01*
X97386756Y-65711500D01*
X97382670Y-65712038D01*
X97382669Y-65712038D01*
X97272676Y-65726519D01*
X97272473Y-65724974D01*
X97227527Y-65724974D01*
X97227324Y-65726519D01*
X97117331Y-65712038D01*
X97117330Y-65712038D01*
X97113244Y-65711500D01*
X96886756Y-65711500D01*
X96882670Y-65712038D01*
X96882669Y-65712038D01*
X96772676Y-65726519D01*
X96772473Y-65724974D01*
X96727528Y-65724974D01*
X96727325Y-65726519D01*
X96712634Y-65724585D01*
X96674948Y-65719624D01*
X96610021Y-65690902D01*
X96570929Y-65631637D01*
X96571801Y-65555034D01*
X96621138Y-65406290D01*
X96624005Y-65392914D01*
X96633672Y-65298562D01*
X96634000Y-65292146D01*
X96634000Y-65042115D01*
X96629525Y-65026876D01*
X96628135Y-65025671D01*
X96620452Y-65024000D01*
X95898115Y-65024000D01*
X95882876Y-65028475D01*
X95881671Y-65029865D01*
X95880000Y-65037548D01*
X95880000Y-65602194D01*
X95859998Y-65670315D01*
X95806342Y-65716808D01*
X95786612Y-65723900D01*
X95780859Y-65725442D01*
X95772676Y-65726519D01*
X95731236Y-65743684D01*
X95672833Y-65767875D01*
X95602243Y-65775464D01*
X95538756Y-65743684D01*
X95524653Y-65728170D01*
X95521377Y-65723900D01*
X95458477Y-65641928D01*
X95458474Y-65641925D01*
X95433987Y-65610013D01*
X95427432Y-65604983D01*
X95421296Y-65600274D01*
X95379429Y-65542936D01*
X95372000Y-65500312D01*
X95372000Y-64497885D01*
X95880000Y-64497885D01*
X95884475Y-64513124D01*
X95885865Y-64514329D01*
X95893548Y-64516000D01*
X96615884Y-64516000D01*
X96631123Y-64511525D01*
X96632328Y-64510135D01*
X96633999Y-64502452D01*
X96633999Y-64247905D01*
X96633662Y-64241386D01*
X96623743Y-64145794D01*
X96620851Y-64132400D01*
X96569412Y-63978216D01*
X96563239Y-63965038D01*
X96477937Y-63827193D01*
X96468901Y-63815792D01*
X96432683Y-63779637D01*
X96398604Y-63717354D01*
X96403607Y-63646534D01*
X96432529Y-63601445D01*
X96469739Y-63564171D01*
X96478751Y-63552760D01*
X96563816Y-63414757D01*
X96569963Y-63401576D01*
X96621138Y-63247290D01*
X96624005Y-63233914D01*
X96633672Y-63139562D01*
X96634000Y-63133146D01*
X96634000Y-62883115D01*
X96629525Y-62867876D01*
X96628135Y-62866671D01*
X96620452Y-62865000D01*
X95898115Y-62865000D01*
X95882876Y-62869475D01*
X95881671Y-62870865D01*
X95880000Y-62878548D01*
X95880000Y-64497885D01*
X95372000Y-64497885D01*
X95372000Y-62483000D01*
X95392002Y-62414879D01*
X95445658Y-62368386D01*
X95498000Y-62357000D01*
X96615884Y-62357000D01*
X96631123Y-62352525D01*
X96632328Y-62351135D01*
X96633999Y-62343452D01*
X96633999Y-62088905D01*
X96633662Y-62082386D01*
X96631495Y-62061503D01*
X96644360Y-61991681D01*
X96692932Y-61939900D01*
X96756822Y-61922500D01*
X97571340Y-61922500D01*
X97639461Y-61942502D01*
X97660435Y-61959405D01*
X97831770Y-62130740D01*
X97865796Y-62193052D01*
X97860731Y-62263867D01*
X97818184Y-62320703D01*
X97749907Y-62345500D01*
X97748866Y-62345500D01*
X97745490Y-62345867D01*
X97745485Y-62345867D01*
X97724755Y-62348119D01*
X97686684Y-62352255D01*
X97550295Y-62403385D01*
X97433739Y-62490739D01*
X97346385Y-62607295D01*
X97295255Y-62743684D01*
X97288500Y-62805866D01*
X97288500Y-64702134D01*
X97295255Y-64764316D01*
X97346385Y-64900705D01*
X97433739Y-65017261D01*
X97550295Y-65104615D01*
X97686684Y-65155745D01*
X97748866Y-65162500D01*
X99845134Y-65162500D01*
X99907316Y-65155745D01*
X100043705Y-65104615D01*
X100160261Y-65017261D01*
X100247615Y-64900705D01*
X100298745Y-64764316D01*
X100305500Y-64702134D01*
X101488500Y-64702134D01*
X101495255Y-64764316D01*
X101546385Y-64900705D01*
X101633739Y-65017261D01*
X101750295Y-65104615D01*
X101886684Y-65155745D01*
X101948866Y-65162500D01*
X104045134Y-65162500D01*
X104107316Y-65155745D01*
X104243705Y-65104615D01*
X104297005Y-65064669D01*
X112111001Y-65064669D01*
X112111371Y-65071490D01*
X112116895Y-65122352D01*
X112120521Y-65137604D01*
X112165676Y-65258054D01*
X112174214Y-65273649D01*
X112250715Y-65375724D01*
X112263276Y-65388285D01*
X112365351Y-65464786D01*
X112380946Y-65473324D01*
X112501394Y-65518478D01*
X112516649Y-65522105D01*
X112567514Y-65527631D01*
X112574328Y-65528000D01*
X113646885Y-65528000D01*
X113662124Y-65523525D01*
X113663329Y-65522135D01*
X113665000Y-65514452D01*
X113665000Y-65509884D01*
X114173000Y-65509884D01*
X114177475Y-65525123D01*
X114178865Y-65526328D01*
X114186548Y-65527999D01*
X115263669Y-65527999D01*
X115270490Y-65527629D01*
X115321352Y-65522105D01*
X115336604Y-65518479D01*
X115457054Y-65473324D01*
X115472649Y-65464786D01*
X115574724Y-65388285D01*
X115587285Y-65375724D01*
X115663786Y-65273649D01*
X115672324Y-65258054D01*
X115717478Y-65137606D01*
X115721105Y-65122351D01*
X115726631Y-65071486D01*
X115727000Y-65064672D01*
X115727000Y-65033134D01*
X123228500Y-65033134D01*
X123228869Y-65036531D01*
X123229185Y-65039440D01*
X123235255Y-65095316D01*
X123286385Y-65231705D01*
X123373739Y-65348261D01*
X123490295Y-65435615D01*
X123498704Y-65438767D01*
X123498705Y-65438768D01*
X123607960Y-65479726D01*
X123664725Y-65522367D01*
X123689425Y-65588929D01*
X123674218Y-65658278D01*
X123654825Y-65684759D01*
X123531590Y-65813717D01*
X123525104Y-65821727D01*
X123405098Y-65997649D01*
X123400000Y-66006623D01*
X123310338Y-66199783D01*
X123306775Y-66209470D01*
X123251389Y-66409183D01*
X123252912Y-66417607D01*
X123265292Y-66421000D01*
X125905344Y-66421000D01*
X125918875Y-66417027D01*
X125920180Y-66407947D01*
X125878214Y-66240875D01*
X125874894Y-66231124D01*
X125789972Y-66035814D01*
X125785105Y-66026739D01*
X125669426Y-65847926D01*
X125663136Y-65839757D01*
X125519293Y-65681677D01*
X125488241Y-65617831D01*
X125496635Y-65547333D01*
X125541812Y-65492564D01*
X125568256Y-65478895D01*
X125675297Y-65438767D01*
X125683705Y-65435615D01*
X125800261Y-65348261D01*
X125887615Y-65231705D01*
X125938745Y-65095316D01*
X125944815Y-65039440D01*
X125945131Y-65036531D01*
X125945500Y-65033134D01*
X125945500Y-63236866D01*
X125938745Y-63174684D01*
X125887615Y-63038295D01*
X125800261Y-62921739D01*
X125683705Y-62834385D01*
X125547316Y-62783255D01*
X125485134Y-62776500D01*
X123688866Y-62776500D01*
X123626684Y-62783255D01*
X123490295Y-62834385D01*
X123373739Y-62921739D01*
X123286385Y-63038295D01*
X123235255Y-63174684D01*
X123228500Y-63236866D01*
X123228500Y-65033134D01*
X115727000Y-65033134D01*
X115727000Y-63492115D01*
X115722525Y-63476876D01*
X115721135Y-63475671D01*
X115713452Y-63474000D01*
X114191115Y-63474000D01*
X114175876Y-63478475D01*
X114174671Y-63479865D01*
X114173000Y-63487548D01*
X114173000Y-65509884D01*
X113665000Y-65509884D01*
X113665000Y-63492115D01*
X113660525Y-63476876D01*
X113659135Y-63475671D01*
X113651452Y-63474000D01*
X112129116Y-63474000D01*
X112113877Y-63478475D01*
X112112672Y-63479865D01*
X112111001Y-63487548D01*
X112111001Y-65064669D01*
X104297005Y-65064669D01*
X104360261Y-65017261D01*
X104447615Y-64900705D01*
X104498745Y-64764316D01*
X104505500Y-64702134D01*
X104505500Y-62947885D01*
X112111000Y-62947885D01*
X112115475Y-62963124D01*
X112116865Y-62964329D01*
X112124548Y-62966000D01*
X113646885Y-62966000D01*
X113662124Y-62961525D01*
X113663329Y-62960135D01*
X113665000Y-62952452D01*
X113665000Y-62947885D01*
X114173000Y-62947885D01*
X114177475Y-62963124D01*
X114178865Y-62964329D01*
X114186548Y-62966000D01*
X115708884Y-62966000D01*
X115724123Y-62961525D01*
X115725328Y-62960135D01*
X115726999Y-62952452D01*
X115726999Y-61375331D01*
X115726629Y-61368510D01*
X115721105Y-61317648D01*
X115717479Y-61302396D01*
X115672324Y-61181946D01*
X115663786Y-61166351D01*
X115587285Y-61064276D01*
X115574724Y-61051715D01*
X115472649Y-60975214D01*
X115457054Y-60966676D01*
X115336606Y-60921522D01*
X115321351Y-60917895D01*
X115270486Y-60912369D01*
X115263672Y-60912000D01*
X114191115Y-60912000D01*
X114175876Y-60916475D01*
X114174671Y-60917865D01*
X114173000Y-60925548D01*
X114173000Y-62947885D01*
X113665000Y-62947885D01*
X113665000Y-60930116D01*
X113660525Y-60914877D01*
X113659135Y-60913672D01*
X113651452Y-60912001D01*
X112574331Y-60912001D01*
X112567510Y-60912371D01*
X112516648Y-60917895D01*
X112501396Y-60921521D01*
X112380946Y-60966676D01*
X112365351Y-60975214D01*
X112263276Y-61051715D01*
X112250715Y-61064276D01*
X112174214Y-61166351D01*
X112165676Y-61181946D01*
X112120522Y-61302394D01*
X112116895Y-61317649D01*
X112111369Y-61368514D01*
X112111000Y-61375328D01*
X112111000Y-62947885D01*
X104505500Y-62947885D01*
X104505500Y-62805866D01*
X104498745Y-62743684D01*
X104447615Y-62607295D01*
X104360261Y-62490739D01*
X104243705Y-62403385D01*
X104107316Y-62352255D01*
X104045134Y-62345500D01*
X101948866Y-62345500D01*
X101886684Y-62352255D01*
X101750295Y-62403385D01*
X101633739Y-62490739D01*
X101546385Y-62607295D01*
X101495255Y-62743684D01*
X101488500Y-62805866D01*
X101488500Y-64702134D01*
X100305500Y-64702134D01*
X100305500Y-62805866D01*
X100298745Y-62743684D01*
X100247615Y-62607295D01*
X100160261Y-62490739D01*
X100043705Y-62403385D01*
X99907316Y-62352255D01*
X99854317Y-62346498D01*
X99788756Y-62319257D01*
X99748329Y-62260894D01*
X99745873Y-62189940D01*
X99778830Y-62132140D01*
X99824565Y-62086405D01*
X99886877Y-62052379D01*
X99913660Y-62049500D01*
X104612088Y-62049500D01*
X104620658Y-62049792D01*
X104670776Y-62053209D01*
X104670780Y-62053209D01*
X104678352Y-62053725D01*
X104685829Y-62052420D01*
X104685830Y-62052420D01*
X104712308Y-62047799D01*
X104741303Y-62042738D01*
X104747821Y-62041777D01*
X104811242Y-62034102D01*
X104818343Y-62031419D01*
X104820952Y-62030778D01*
X104837262Y-62026315D01*
X104839798Y-62025550D01*
X104847284Y-62024243D01*
X104905800Y-61998556D01*
X104911904Y-61996065D01*
X104964548Y-61976173D01*
X104964549Y-61976172D01*
X104971656Y-61973487D01*
X104977919Y-61969183D01*
X104980285Y-61967946D01*
X104995097Y-61959701D01*
X104997351Y-61958368D01*
X105004305Y-61955315D01*
X105055002Y-61916413D01*
X105060332Y-61912541D01*
X105106720Y-61880661D01*
X105106725Y-61880656D01*
X105112981Y-61876357D01*
X105154436Y-61829829D01*
X105159416Y-61824554D01*
X105298565Y-61685405D01*
X105360877Y-61651379D01*
X105387660Y-61648500D01*
X105867400Y-61648500D01*
X105870646Y-61648163D01*
X105870650Y-61648163D01*
X105966308Y-61638238D01*
X105966312Y-61638237D01*
X105973166Y-61637526D01*
X105979702Y-61635345D01*
X105979704Y-61635345D01*
X106133998Y-61583868D01*
X106140946Y-61581550D01*
X106291348Y-61488478D01*
X106416305Y-61363303D01*
X106431275Y-61339017D01*
X106505275Y-61218968D01*
X106505276Y-61218966D01*
X106509115Y-61212738D01*
X106553397Y-61079232D01*
X106562632Y-61051389D01*
X106562632Y-61051387D01*
X106564797Y-61044861D01*
X106575500Y-60940400D01*
X106575500Y-60339600D01*
X106575163Y-60336350D01*
X106565238Y-60240692D01*
X106565237Y-60240688D01*
X106564526Y-60233834D01*
X106562057Y-60226432D01*
X106510868Y-60073002D01*
X106508550Y-60066054D01*
X106415478Y-59915652D01*
X106290303Y-59790695D01*
X106285765Y-59787898D01*
X106245176Y-59730647D01*
X106241946Y-59659724D01*
X106277572Y-59598313D01*
X106286068Y-59590938D01*
X106296207Y-59582902D01*
X106410739Y-59468171D01*
X106419751Y-59456760D01*
X106504816Y-59318757D01*
X106510963Y-59305576D01*
X106562138Y-59151290D01*
X106565005Y-59137914D01*
X106574672Y-59043562D01*
X106575000Y-59037146D01*
X106575000Y-59012115D01*
X106570525Y-58996876D01*
X106569135Y-58995671D01*
X106561452Y-58994000D01*
X104177383Y-58994000D01*
X104109262Y-58973998D01*
X104092688Y-58954871D01*
X104092486Y-58955104D01*
X104063135Y-58929671D01*
X104055452Y-58928000D01*
X100431500Y-58928000D01*
X100363379Y-58907998D01*
X100316886Y-58854342D01*
X100305500Y-58802000D01*
X100305500Y-58401885D01*
X101489000Y-58401885D01*
X101493475Y-58417124D01*
X101494865Y-58418329D01*
X101502548Y-58420000D01*
X102724885Y-58420000D01*
X102740124Y-58415525D01*
X102741329Y-58414135D01*
X102743000Y-58406452D01*
X102743000Y-58401885D01*
X103251000Y-58401885D01*
X103255475Y-58417124D01*
X103256865Y-58418329D01*
X103264548Y-58420000D01*
X104436617Y-58420000D01*
X104504738Y-58440002D01*
X104521312Y-58459129D01*
X104521514Y-58458896D01*
X104550865Y-58484329D01*
X104558548Y-58486000D01*
X105069885Y-58486000D01*
X105085124Y-58481525D01*
X105086329Y-58480135D01*
X105088000Y-58472452D01*
X105088000Y-58467885D01*
X105596000Y-58467885D01*
X105600475Y-58483124D01*
X105601865Y-58484329D01*
X105609548Y-58486000D01*
X106556884Y-58486000D01*
X106572123Y-58481525D01*
X106573328Y-58480135D01*
X106574999Y-58472452D01*
X106574999Y-58442905D01*
X106574662Y-58436386D01*
X106564743Y-58340794D01*
X106561851Y-58327400D01*
X106510412Y-58173216D01*
X106504239Y-58160038D01*
X106418937Y-58022193D01*
X106409901Y-58010792D01*
X106295171Y-57896261D01*
X106283760Y-57887249D01*
X106145757Y-57802184D01*
X106132576Y-57796037D01*
X105978290Y-57744862D01*
X105964914Y-57741995D01*
X105870562Y-57732328D01*
X105864145Y-57732000D01*
X105614115Y-57732000D01*
X105598876Y-57736475D01*
X105597671Y-57737865D01*
X105596000Y-57745548D01*
X105596000Y-58467885D01*
X105088000Y-58467885D01*
X105088000Y-57750116D01*
X105083525Y-57734877D01*
X105082135Y-57733672D01*
X105074452Y-57732001D01*
X104819905Y-57732001D01*
X104813386Y-57732338D01*
X104717794Y-57742257D01*
X104704400Y-57745149D01*
X104660994Y-57759630D01*
X104590044Y-57762214D01*
X104528960Y-57726030D01*
X104498535Y-57669250D01*
X104495479Y-57656396D01*
X104450324Y-57535946D01*
X104441786Y-57520351D01*
X104365285Y-57418276D01*
X104352724Y-57405715D01*
X104250649Y-57329214D01*
X104235054Y-57320676D01*
X104114606Y-57275522D01*
X104099351Y-57271895D01*
X104048486Y-57266369D01*
X104041672Y-57266000D01*
X103269115Y-57266000D01*
X103253876Y-57270475D01*
X103252671Y-57271865D01*
X103251000Y-57279548D01*
X103251000Y-58401885D01*
X102743000Y-58401885D01*
X102743000Y-57284116D01*
X102738525Y-57268877D01*
X102737135Y-57267672D01*
X102729452Y-57266001D01*
X101952331Y-57266001D01*
X101945510Y-57266371D01*
X101894648Y-57271895D01*
X101879396Y-57275521D01*
X101758946Y-57320676D01*
X101743351Y-57329214D01*
X101641276Y-57405715D01*
X101628715Y-57418276D01*
X101552214Y-57520351D01*
X101543676Y-57535946D01*
X101498522Y-57656394D01*
X101494895Y-57671649D01*
X101489369Y-57722514D01*
X101489000Y-57729328D01*
X101489000Y-58401885D01*
X100305500Y-58401885D01*
X100305500Y-57725866D01*
X100298745Y-57663684D01*
X100247615Y-57527295D01*
X100160261Y-57410739D01*
X100043705Y-57323385D01*
X99907316Y-57272255D01*
X99845134Y-57265500D01*
X97748866Y-57265500D01*
X97686684Y-57272255D01*
X97550295Y-57323385D01*
X97433739Y-57410739D01*
X97346385Y-57527295D01*
X97295255Y-57663684D01*
X97288500Y-57725866D01*
X97288500Y-59622134D01*
X97295255Y-59684316D01*
X97346385Y-59820705D01*
X97433739Y-59937261D01*
X97550295Y-60024615D01*
X97686684Y-60075745D01*
X97748866Y-60082500D01*
X97838646Y-60082500D01*
X97906767Y-60102502D01*
X97953260Y-60156158D01*
X97963364Y-60226432D01*
X97958481Y-60247430D01*
X97912458Y-60389072D01*
X97911768Y-60395635D01*
X97910394Y-60402100D01*
X97908375Y-60401671D01*
X97885070Y-60458323D01*
X97826851Y-60498955D01*
X97786770Y-60505500D01*
X95480405Y-60505500D01*
X95412284Y-60485498D01*
X95406344Y-60481436D01*
X95331094Y-60426763D01*
X95331093Y-60426762D01*
X95325752Y-60422882D01*
X95319724Y-60420198D01*
X95319722Y-60420197D01*
X95157319Y-60347891D01*
X95157318Y-60347891D01*
X95151288Y-60345206D01*
X95057887Y-60325353D01*
X94970944Y-60306872D01*
X94970939Y-60306872D01*
X94964487Y-60305500D01*
X94773513Y-60305500D01*
X94767061Y-60306872D01*
X94767056Y-60306872D01*
X94680113Y-60325353D01*
X94586712Y-60345206D01*
X94580682Y-60347891D01*
X94580681Y-60347891D01*
X94418278Y-60420197D01*
X94418276Y-60420198D01*
X94412248Y-60422882D01*
X94406907Y-60426762D01*
X94406906Y-60426763D01*
X94331656Y-60481436D01*
X94264789Y-60505294D01*
X94257595Y-60505500D01*
X94135912Y-60505500D01*
X94127342Y-60505208D01*
X94077224Y-60501791D01*
X94077220Y-60501791D01*
X94069648Y-60501275D01*
X94062171Y-60502580D01*
X94062170Y-60502580D01*
X94046620Y-60505294D01*
X94006703Y-60512261D01*
X94000186Y-60513222D01*
X93936758Y-60520898D01*
X93929650Y-60523584D01*
X93927056Y-60524221D01*
X93910750Y-60528682D01*
X93908199Y-60529452D01*
X93900716Y-60530758D01*
X93893764Y-60533810D01*
X93893763Y-60533810D01*
X93842212Y-60556439D01*
X93836105Y-60558931D01*
X93783452Y-60578827D01*
X93776344Y-60581513D01*
X93770083Y-60585816D01*
X93767717Y-60587053D01*
X93752937Y-60595280D01*
X93750652Y-60596631D01*
X93743695Y-60599685D01*
X93737675Y-60604305D01*
X93737669Y-60604308D01*
X93706542Y-60628194D01*
X93692998Y-60638587D01*
X93687685Y-60642447D01*
X93667354Y-60656420D01*
X93599885Y-60678519D01*
X93531178Y-60660633D01*
X93486870Y-60615579D01*
X93452342Y-60555774D01*
X93452339Y-60555769D01*
X93449040Y-60550056D01*
X93415876Y-60513223D01*
X93325675Y-60413045D01*
X93325674Y-60413044D01*
X93321253Y-60408134D01*
X93222157Y-60336136D01*
X93172094Y-60299763D01*
X93172093Y-60299762D01*
X93166752Y-60295882D01*
X93160724Y-60293198D01*
X93160722Y-60293197D01*
X92998319Y-60220891D01*
X92998318Y-60220891D01*
X92992288Y-60218206D01*
X92985833Y-60216834D01*
X92985824Y-60216831D01*
X92899769Y-60198539D01*
X92837296Y-60164811D01*
X92802975Y-60102661D01*
X92800648Y-60085585D01*
X92800500Y-60085600D01*
X92790238Y-59986692D01*
X92790237Y-59986688D01*
X92789526Y-59979834D01*
X92775323Y-59937261D01*
X92735868Y-59819002D01*
X92733550Y-59812054D01*
X92640478Y-59661652D01*
X92515303Y-59536695D01*
X92510765Y-59533898D01*
X92470176Y-59476647D01*
X92466946Y-59405724D01*
X92502572Y-59344313D01*
X92511068Y-59336938D01*
X92521207Y-59328902D01*
X92635739Y-59214171D01*
X92644751Y-59202760D01*
X92729816Y-59064757D01*
X92735963Y-59051576D01*
X92787138Y-58897290D01*
X92790005Y-58883914D01*
X92799672Y-58789562D01*
X92800000Y-58783146D01*
X92800000Y-58758115D01*
X92795525Y-58742876D01*
X92794135Y-58741671D01*
X92786452Y-58740000D01*
X88320116Y-58740000D01*
X88304877Y-58744475D01*
X88303672Y-58745865D01*
X88302001Y-58753548D01*
X88302001Y-58783095D01*
X88302338Y-58789614D01*
X88312257Y-58885206D01*
X88315149Y-58898600D01*
X88366588Y-59052784D01*
X88372761Y-59065962D01*
X88458063Y-59203807D01*
X88467099Y-59215208D01*
X88581828Y-59329738D01*
X88590762Y-59336794D01*
X88631823Y-59394712D01*
X88635053Y-59465635D01*
X88599426Y-59527046D01*
X88591593Y-59533846D01*
X88585652Y-59537522D01*
X88460695Y-59662697D01*
X88456855Y-59668927D01*
X88456854Y-59668928D01*
X88381796Y-59790695D01*
X88367885Y-59813262D01*
X88365581Y-59820209D01*
X88326757Y-59937261D01*
X88312203Y-59981139D01*
X88301500Y-60085600D01*
X88301500Y-60686400D01*
X88301837Y-60689646D01*
X88301837Y-60689650D01*
X88309139Y-60760019D01*
X88312474Y-60792166D01*
X88368450Y-60959946D01*
X88372306Y-60966177D01*
X88399907Y-61010780D01*
X88418745Y-61079232D01*
X88393589Y-61152648D01*
X88350385Y-61210295D01*
X88299255Y-61346684D01*
X88292500Y-61408866D01*
X88292500Y-63305134D01*
X88299255Y-63367316D01*
X88350385Y-63503705D01*
X88437739Y-63620261D01*
X88554295Y-63707615D01*
X88690684Y-63758745D01*
X88752866Y-63765500D01*
X89849134Y-63765500D01*
X89911316Y-63758745D01*
X90047705Y-63707615D01*
X90054888Y-63702232D01*
X90054891Y-63702230D01*
X90108328Y-63662181D01*
X90174834Y-63637334D01*
X90244217Y-63652387D01*
X90272987Y-63673913D01*
X90520479Y-63921405D01*
X90554505Y-63983717D01*
X90549440Y-64054532D01*
X90506893Y-64111368D01*
X90440373Y-64136179D01*
X90431384Y-64136500D01*
X90248767Y-64136500D01*
X90237584Y-64135973D01*
X90230091Y-64134298D01*
X90222165Y-64134547D01*
X90222164Y-64134547D01*
X90162001Y-64136438D01*
X90158043Y-64136500D01*
X90130144Y-64136500D01*
X90126154Y-64137004D01*
X90114320Y-64137936D01*
X90070111Y-64139326D01*
X90062497Y-64141538D01*
X90062492Y-64141539D01*
X90050659Y-64144977D01*
X90031296Y-64148988D01*
X90011203Y-64151526D01*
X90003836Y-64154443D01*
X90003831Y-64154444D01*
X89970092Y-64167802D01*
X89958865Y-64171646D01*
X89916407Y-64183982D01*
X89909581Y-64188019D01*
X89898972Y-64194293D01*
X89881224Y-64202988D01*
X89862383Y-64210448D01*
X89855967Y-64215110D01*
X89855966Y-64215110D01*
X89826613Y-64236436D01*
X89816693Y-64242952D01*
X89785465Y-64261420D01*
X89785462Y-64261422D01*
X89778638Y-64265458D01*
X89764317Y-64279779D01*
X89749284Y-64292619D01*
X89732893Y-64304528D01*
X89727842Y-64310634D01*
X89704702Y-64338605D01*
X89696712Y-64347384D01*
X87918595Y-66125500D01*
X87856283Y-66159526D01*
X87785467Y-66154461D01*
X87728632Y-66111914D01*
X87703821Y-66045394D01*
X87703500Y-66036405D01*
X87703500Y-63528911D01*
X87703792Y-63520342D01*
X87707209Y-63470223D01*
X87707209Y-63470219D01*
X87707725Y-63462647D01*
X87696736Y-63399685D01*
X87695777Y-63393182D01*
X87693543Y-63374715D01*
X87688102Y-63329758D01*
X87685416Y-63322649D01*
X87684784Y-63320078D01*
X87680324Y-63303772D01*
X87679549Y-63301204D01*
X87678242Y-63293716D01*
X87652561Y-63235212D01*
X87650069Y-63229105D01*
X87630173Y-63176452D01*
X87630173Y-63176451D01*
X87627487Y-63169344D01*
X87623184Y-63163083D01*
X87621947Y-63160717D01*
X87613720Y-63145937D01*
X87612369Y-63143652D01*
X87609315Y-63136695D01*
X87604695Y-63130675D01*
X87604692Y-63130669D01*
X87570421Y-63086009D01*
X87566541Y-63080668D01*
X87534661Y-63034280D01*
X87534656Y-63034275D01*
X87530357Y-63028019D01*
X87483829Y-62986564D01*
X87478554Y-62981584D01*
X87111450Y-62614480D01*
X87105596Y-62608215D01*
X87098525Y-62600109D01*
X87067561Y-62564615D01*
X87061347Y-62560248D01*
X87061344Y-62560245D01*
X87027050Y-62536143D01*
X86982818Y-62480609D01*
X86973500Y-62433056D01*
X86973500Y-59846866D01*
X86966745Y-59784684D01*
X86915615Y-59648295D01*
X86828261Y-59531739D01*
X86711705Y-59444385D01*
X86575316Y-59393255D01*
X86513134Y-59386500D01*
X80616866Y-59386500D01*
X80554684Y-59393255D01*
X80418295Y-59444385D01*
X80301739Y-59531739D01*
X80214385Y-59648295D01*
X80163255Y-59784684D01*
X80156500Y-59846866D01*
X80156500Y-66343134D01*
X80163255Y-66405316D01*
X80214385Y-66541705D01*
X80301739Y-66658261D01*
X80418295Y-66745615D01*
X80554684Y-66796745D01*
X80616866Y-66803500D01*
X81408000Y-66803500D01*
X81476121Y-66823502D01*
X81522614Y-66877158D01*
X81534000Y-66929500D01*
X81534000Y-67945000D01*
X81536551Y-67945000D01*
X81539000Y-67962029D01*
X81539000Y-69523000D01*
X81518998Y-69591121D01*
X81465342Y-69637614D01*
X81413000Y-69649000D01*
X80195116Y-69649000D01*
X80179877Y-69653475D01*
X80178672Y-69654865D01*
X80177001Y-69662548D01*
X80177001Y-70539669D01*
X80177371Y-70546490D01*
X80182895Y-70597352D01*
X80186521Y-70612604D01*
X80231676Y-70733054D01*
X80240211Y-70748644D01*
X80312377Y-70844935D01*
X80337224Y-70911442D01*
X80322171Y-70980824D01*
X80271996Y-71031054D01*
X80211550Y-71046500D01*
X80038912Y-71046500D01*
X80030342Y-71046208D01*
X79980224Y-71042791D01*
X79980220Y-71042791D01*
X79972648Y-71042275D01*
X79965171Y-71043580D01*
X79965170Y-71043580D01*
X79950113Y-71046208D01*
X79909703Y-71053261D01*
X79903186Y-71054222D01*
X79839758Y-71061898D01*
X79832650Y-71064584D01*
X79830056Y-71065221D01*
X79813750Y-71069682D01*
X79811199Y-71070452D01*
X79803716Y-71071758D01*
X79796764Y-71074810D01*
X79796763Y-71074810D01*
X79745212Y-71097439D01*
X79739105Y-71099931D01*
X79701862Y-71114004D01*
X79679344Y-71122513D01*
X79673083Y-71126816D01*
X79670717Y-71128053D01*
X79655937Y-71136280D01*
X79653652Y-71137631D01*
X79646695Y-71140685D01*
X79640675Y-71145305D01*
X79640669Y-71145308D01*
X79609542Y-71169194D01*
X79595998Y-71179587D01*
X79590668Y-71183459D01*
X79544280Y-71215339D01*
X79544275Y-71215344D01*
X79538019Y-71219643D01*
X79532968Y-71225313D01*
X79532966Y-71225314D01*
X79496565Y-71266170D01*
X79491584Y-71271446D01*
X78263435Y-72499595D01*
X78201123Y-72533621D01*
X78174340Y-72536500D01*
X77403294Y-72536500D01*
X77335173Y-72516498D01*
X77288680Y-72462842D01*
X77279756Y-72408171D01*
X77277539Y-72408171D01*
X77277539Y-72401565D01*
X77278229Y-72395000D01*
X77259365Y-72215525D01*
X77253559Y-72197654D01*
X77205641Y-72050178D01*
X77203599Y-72043893D01*
X77197309Y-72032998D01*
X77180572Y-71964004D01*
X77197309Y-71907001D01*
X77203599Y-71896107D01*
X77259365Y-71724475D01*
X77260493Y-71713748D01*
X77277539Y-71551565D01*
X77278229Y-71545000D01*
X77259365Y-71365525D01*
X77203599Y-71193893D01*
X77197309Y-71182998D01*
X77180572Y-71114004D01*
X77197309Y-71057001D01*
X77199469Y-71053260D01*
X77203599Y-71046107D01*
X77242098Y-70927617D01*
X77257325Y-70880754D01*
X77257325Y-70880753D01*
X77259365Y-70874475D01*
X77278229Y-70695000D01*
X77259365Y-70515525D01*
X77203599Y-70343893D01*
X77197309Y-70332998D01*
X77180572Y-70264004D01*
X77197309Y-70207001D01*
X77198134Y-70205572D01*
X77203599Y-70196107D01*
X77259365Y-70024475D01*
X77260698Y-70024908D01*
X77291348Y-69968460D01*
X77504747Y-69755061D01*
X77513037Y-69747517D01*
X77519518Y-69743404D01*
X77544657Y-69716634D01*
X77566158Y-69693737D01*
X77568913Y-69690895D01*
X77588635Y-69671173D01*
X77591112Y-69667980D01*
X77598817Y-69658959D01*
X77623659Y-69632504D01*
X77629086Y-69626725D01*
X77632907Y-69619775D01*
X77638846Y-69608972D01*
X77649702Y-69592445D01*
X77657257Y-69582706D01*
X77657258Y-69582704D01*
X77662114Y-69576444D01*
X77679674Y-69535864D01*
X77684891Y-69525216D01*
X77702375Y-69493413D01*
X77702376Y-69493411D01*
X77706195Y-69486464D01*
X77711233Y-69466841D01*
X77717637Y-69448138D01*
X77722533Y-69436824D01*
X77722533Y-69436823D01*
X77725681Y-69429549D01*
X77726920Y-69421726D01*
X77726923Y-69421716D01*
X77732599Y-69385880D01*
X77735005Y-69374260D01*
X77744028Y-69339115D01*
X77744028Y-69339114D01*
X77746000Y-69331434D01*
X77746000Y-69311180D01*
X77747551Y-69291469D01*
X77749480Y-69279290D01*
X77750720Y-69271461D01*
X77746559Y-69227442D01*
X77746000Y-69215585D01*
X77746000Y-69122885D01*
X80177000Y-69122885D01*
X80181475Y-69138124D01*
X80182865Y-69139329D01*
X80190548Y-69141000D01*
X81012885Y-69141000D01*
X81028124Y-69136525D01*
X81029329Y-69135135D01*
X81031000Y-69127452D01*
X81031000Y-67805116D01*
X81026525Y-67789877D01*
X81025135Y-67788672D01*
X81017452Y-67787001D01*
X80640331Y-67787001D01*
X80633510Y-67787371D01*
X80582648Y-67792895D01*
X80567396Y-67796521D01*
X80446946Y-67841676D01*
X80431351Y-67850214D01*
X80329276Y-67926715D01*
X80316715Y-67939276D01*
X80240214Y-68041351D01*
X80231676Y-68056946D01*
X80186522Y-68177394D01*
X80182895Y-68192649D01*
X80177369Y-68243514D01*
X80177000Y-68250328D01*
X80177000Y-69122885D01*
X77746000Y-69122885D01*
X77746000Y-65952634D01*
X77766002Y-65884513D01*
X77805697Y-65845490D01*
X77814962Y-65839757D01*
X77849348Y-65818478D01*
X77974305Y-65693303D01*
X77979572Y-65684759D01*
X78063275Y-65548968D01*
X78063276Y-65548966D01*
X78067115Y-65542738D01*
X78101600Y-65438768D01*
X78120632Y-65381389D01*
X78120632Y-65381387D01*
X78122797Y-65374861D01*
X78125523Y-65348261D01*
X78127909Y-65324969D01*
X78133500Y-65270400D01*
X78133500Y-64269600D01*
X78130059Y-64236436D01*
X78123238Y-64170692D01*
X78123237Y-64170688D01*
X78122526Y-64163834D01*
X78118089Y-64150533D01*
X78076272Y-64025194D01*
X78066550Y-63996054D01*
X77973478Y-63845652D01*
X77848303Y-63720695D01*
X77832197Y-63710767D01*
X77703968Y-63631725D01*
X77703966Y-63631724D01*
X77697738Y-63627885D01*
X77600760Y-63595719D01*
X77536389Y-63574368D01*
X77536387Y-63574368D01*
X77529861Y-63572203D01*
X77523025Y-63571503D01*
X77523022Y-63571502D01*
X77479969Y-63567091D01*
X77425400Y-63561500D01*
X76799600Y-63561500D01*
X76796354Y-63561837D01*
X76796350Y-63561837D01*
X76700692Y-63571762D01*
X76700688Y-63571763D01*
X76693834Y-63572474D01*
X76687298Y-63574655D01*
X76687296Y-63574655D01*
X76572120Y-63613081D01*
X76526054Y-63628450D01*
X76375652Y-63721522D01*
X76370479Y-63726704D01*
X76288862Y-63808463D01*
X76226579Y-63842542D01*
X76155759Y-63837539D01*
X76110671Y-63808618D01*
X76028171Y-63726261D01*
X76016760Y-63717249D01*
X75878757Y-63632184D01*
X75865576Y-63626037D01*
X75711290Y-63574862D01*
X75697914Y-63571995D01*
X75603562Y-63562328D01*
X75597145Y-63562000D01*
X75559615Y-63562000D01*
X75544376Y-63566475D01*
X75543171Y-63567865D01*
X75541500Y-63575548D01*
X75541500Y-65778885D01*
X75545975Y-65794124D01*
X75547365Y-65795329D01*
X75555048Y-65797000D01*
X75563000Y-65797000D01*
X75631121Y-65817002D01*
X75677614Y-65870658D01*
X75689000Y-65923000D01*
X75689000Y-67667000D01*
X75668998Y-67735121D01*
X75615342Y-67781614D01*
X75563000Y-67793000D01*
X75307000Y-67793000D01*
X75238879Y-67772998D01*
X75192386Y-67719342D01*
X75181000Y-67667000D01*
X75181000Y-67067115D01*
X75176525Y-67051876D01*
X75175135Y-67050671D01*
X75167452Y-67049000D01*
X73775771Y-67049000D01*
X73762240Y-67052973D01*
X73761363Y-67059075D01*
X73817310Y-67211136D01*
X73822877Y-67222549D01*
X73918708Y-67377108D01*
X73926460Y-67387174D01*
X74051408Y-67519303D01*
X74061026Y-67527605D01*
X74209983Y-67631905D01*
X74221530Y-67638358D01*
X74271237Y-67689051D01*
X74285647Y-67758569D01*
X74276594Y-67794011D01*
X74276861Y-67794098D01*
X74275511Y-67798252D01*
X74275167Y-67799600D01*
X74274820Y-67800379D01*
X74223167Y-67959350D01*
X74220437Y-67972193D01*
X74202964Y-68138435D01*
X74202964Y-68151565D01*
X74220437Y-68317807D01*
X74223167Y-68330650D01*
X74274819Y-68489617D01*
X74280165Y-68501625D01*
X74282981Y-68506503D01*
X74299717Y-68575498D01*
X74282978Y-68632501D01*
X74276401Y-68643893D01*
X74274359Y-68650178D01*
X74242154Y-68749297D01*
X74220635Y-68815525D01*
X74201771Y-68995000D01*
X74202461Y-69001565D01*
X74217117Y-69141000D01*
X74220635Y-69174475D01*
X74222675Y-69180753D01*
X74222675Y-69180754D01*
X74235924Y-69221529D01*
X74276401Y-69346107D01*
X74282691Y-69357001D01*
X74299428Y-69425996D01*
X74282691Y-69482998D01*
X74276401Y-69493893D01*
X74274359Y-69500178D01*
X74224099Y-69654865D01*
X74220635Y-69665525D01*
X74219945Y-69672088D01*
X74219945Y-69672089D01*
X74214757Y-69721453D01*
X74201771Y-69845000D01*
X74220635Y-70024475D01*
X74276401Y-70196107D01*
X74281866Y-70205572D01*
X74282691Y-70207001D01*
X74299428Y-70275996D01*
X74282691Y-70332998D01*
X74276401Y-70343893D01*
X74220635Y-70515525D01*
X74201771Y-70695000D01*
X74220635Y-70874475D01*
X74222675Y-70880753D01*
X74222675Y-70880754D01*
X74237902Y-70927617D01*
X74276401Y-71046107D01*
X74280531Y-71053260D01*
X74282691Y-71057001D01*
X74299428Y-71125996D01*
X74282691Y-71182998D01*
X74276401Y-71193893D01*
X74220635Y-71365525D01*
X74201771Y-71545000D01*
X74202461Y-71551565D01*
X74219508Y-71713748D01*
X74220635Y-71724475D01*
X74276401Y-71896107D01*
X74282691Y-71907001D01*
X74299428Y-71975996D01*
X74282691Y-72032998D01*
X74276401Y-72043893D01*
X74274362Y-72050170D01*
X74235790Y-72168884D01*
X74205052Y-72219044D01*
X73518222Y-72905873D01*
X73509943Y-72913407D01*
X73503462Y-72917520D01*
X73487997Y-72933989D01*
X73456837Y-72967171D01*
X73454082Y-72970013D01*
X73434345Y-72989750D01*
X73431865Y-72992947D01*
X73424162Y-73001967D01*
X73393894Y-73034199D01*
X73390075Y-73041145D01*
X73390073Y-73041148D01*
X73384132Y-73051954D01*
X73373281Y-73068473D01*
X73360866Y-73084479D01*
X73357721Y-73091748D01*
X73357718Y-73091752D01*
X73343306Y-73125057D01*
X73338089Y-73135707D01*
X73316785Y-73174460D01*
X73314814Y-73182135D01*
X73314814Y-73182136D01*
X73311747Y-73194082D01*
X73305343Y-73212786D01*
X73297299Y-73231375D01*
X73296060Y-73239198D01*
X73296057Y-73239208D01*
X73290381Y-73275044D01*
X73287975Y-73286664D01*
X73276980Y-73329490D01*
X73276980Y-73349744D01*
X73275429Y-73369454D01*
X73272260Y-73389463D01*
X73273006Y-73397355D01*
X73276421Y-73433481D01*
X73276980Y-73445339D01*
X73276980Y-74608997D01*
X73256978Y-74677118D01*
X73203322Y-74723611D01*
X73133048Y-74733715D01*
X73078710Y-74712210D01*
X72930014Y-74608093D01*
X72918919Y-74601892D01*
X72752020Y-74529668D01*
X72739917Y-74525829D01*
X72560400Y-74488325D01*
X72550848Y-74487085D01*
X72547616Y-74487000D01*
X72327115Y-74487000D01*
X72311876Y-74491475D01*
X72310671Y-74492865D01*
X72309000Y-74500548D01*
X72309000Y-76384885D01*
X71801000Y-76384885D01*
X71801000Y-74505115D01*
X71796525Y-74489876D01*
X71795135Y-74488671D01*
X71787452Y-74487000D01*
X71609553Y-74487000D01*
X71603178Y-74487323D01*
X71467723Y-74501082D01*
X71455283Y-74503636D01*
X71281756Y-74558016D01*
X71270068Y-74563025D01*
X71180086Y-74612903D01*
X71110809Y-74628434D01*
X71044133Y-74604046D01*
X71001226Y-74547482D01*
X70993000Y-74502701D01*
X70993000Y-67742166D01*
X71013002Y-67674045D01*
X71066658Y-67627552D01*
X71136932Y-67617448D01*
X71180475Y-67632180D01*
X71191083Y-67638109D01*
X71357980Y-67710332D01*
X71370083Y-67714171D01*
X71549600Y-67751675D01*
X71559152Y-67752915D01*
X71562384Y-67753000D01*
X71782885Y-67753000D01*
X71798124Y-67748525D01*
X71799329Y-67747135D01*
X71801000Y-67739452D01*
X71801000Y-67734885D01*
X72309000Y-67734885D01*
X72313475Y-67750124D01*
X72314865Y-67751329D01*
X72322548Y-67753000D01*
X72500447Y-67753000D01*
X72506822Y-67752677D01*
X72642277Y-67738918D01*
X72654717Y-67736364D01*
X72828244Y-67681984D01*
X72839932Y-67676975D01*
X72998979Y-67588813D01*
X73009412Y-67581562D01*
X73147491Y-67463215D01*
X73156244Y-67454024D01*
X73267711Y-67310320D01*
X73274435Y-67299560D01*
X73354732Y-67136375D01*
X73359155Y-67124481D01*
X73374251Y-67066530D01*
X73373817Y-67052436D01*
X73365636Y-67049000D01*
X72327115Y-67049000D01*
X72311876Y-67053475D01*
X72310671Y-67054865D01*
X72309000Y-67062548D01*
X72309000Y-67734885D01*
X71801000Y-67734885D01*
X71801000Y-66522885D01*
X72309000Y-66522885D01*
X72313475Y-66538124D01*
X72314865Y-66539329D01*
X72322548Y-66541000D01*
X73364229Y-66541000D01*
X73377760Y-66537027D01*
X73378637Y-66530925D01*
X73375894Y-66523470D01*
X73765749Y-66523470D01*
X73766183Y-66537564D01*
X73774364Y-66541000D01*
X75162885Y-66541000D01*
X75178124Y-66536525D01*
X75179329Y-66535135D01*
X75181000Y-66527452D01*
X75181000Y-66036115D01*
X75176525Y-66020876D01*
X75175135Y-66019671D01*
X75167452Y-66018000D01*
X75159500Y-66018000D01*
X75091379Y-65997998D01*
X75044886Y-65944342D01*
X75033500Y-65892000D01*
X75033500Y-65042115D01*
X75029025Y-65026876D01*
X75027635Y-65025671D01*
X75019952Y-65024000D01*
X74285116Y-65024000D01*
X74269877Y-65028475D01*
X74268672Y-65029865D01*
X74267001Y-65037548D01*
X74267001Y-65267095D01*
X74267338Y-65273614D01*
X74277257Y-65369206D01*
X74280149Y-65382600D01*
X74331588Y-65536784D01*
X74337761Y-65549962D01*
X74423064Y-65687809D01*
X74426849Y-65692584D01*
X74453488Y-65758393D01*
X74440318Y-65828158D01*
X74391522Y-65879727D01*
X74365785Y-65891084D01*
X74311753Y-65908017D01*
X74300068Y-65913025D01*
X74141021Y-66001187D01*
X74130588Y-66008438D01*
X73992509Y-66126785D01*
X73983756Y-66135976D01*
X73872289Y-66279680D01*
X73865565Y-66290440D01*
X73785268Y-66453625D01*
X73780845Y-66465519D01*
X73765749Y-66523470D01*
X73375894Y-66523470D01*
X73322690Y-66378864D01*
X73317123Y-66367451D01*
X73221292Y-66212892D01*
X73213540Y-66202826D01*
X73088592Y-66070697D01*
X73078974Y-66062395D01*
X72930013Y-65958092D01*
X72918919Y-65951892D01*
X72752020Y-65879668D01*
X72739917Y-65875829D01*
X72560400Y-65838325D01*
X72550848Y-65837085D01*
X72547616Y-65837000D01*
X72327115Y-65837000D01*
X72311876Y-65841475D01*
X72310671Y-65842865D01*
X72309000Y-65850548D01*
X72309000Y-66522885D01*
X71801000Y-66522885D01*
X71801000Y-65855115D01*
X71796525Y-65839876D01*
X71795135Y-65838671D01*
X71787452Y-65837000D01*
X71609553Y-65837000D01*
X71603178Y-65837323D01*
X71467723Y-65851082D01*
X71455283Y-65853636D01*
X71281756Y-65908016D01*
X71270068Y-65913025D01*
X71180086Y-65962903D01*
X71110809Y-65978434D01*
X71044133Y-65954046D01*
X71001226Y-65897482D01*
X70993000Y-65852701D01*
X70993000Y-64497885D01*
X74267000Y-64497885D01*
X74271475Y-64513124D01*
X74272865Y-64514329D01*
X74280548Y-64516000D01*
X75015385Y-64516000D01*
X75030624Y-64511525D01*
X75031829Y-64510135D01*
X75033500Y-64502452D01*
X75033500Y-63580116D01*
X75029025Y-63564877D01*
X75027635Y-63563672D01*
X75019952Y-63562001D01*
X74977905Y-63562001D01*
X74971386Y-63562338D01*
X74875794Y-63572257D01*
X74862400Y-63575149D01*
X74708216Y-63626588D01*
X74695038Y-63632761D01*
X74557193Y-63718063D01*
X74545792Y-63727099D01*
X74431261Y-63841829D01*
X74422249Y-63853240D01*
X74337184Y-63991243D01*
X74331037Y-64004424D01*
X74279862Y-64158710D01*
X74276995Y-64172086D01*
X74267328Y-64266438D01*
X74267000Y-64272855D01*
X74267000Y-64497885D01*
X70993000Y-64497885D01*
X70993000Y-58213885D01*
X88302000Y-58213885D01*
X88306475Y-58229124D01*
X88307865Y-58230329D01*
X88315548Y-58232000D01*
X89262885Y-58232000D01*
X89278124Y-58227525D01*
X89279329Y-58226135D01*
X89281000Y-58218452D01*
X89281000Y-58213885D01*
X89789000Y-58213885D01*
X89793475Y-58229124D01*
X89794865Y-58230329D01*
X89802548Y-58232000D01*
X91294885Y-58232000D01*
X91310124Y-58227525D01*
X91311329Y-58226135D01*
X91313000Y-58218452D01*
X91313000Y-58213885D01*
X91821000Y-58213885D01*
X91825475Y-58229124D01*
X91826865Y-58230329D01*
X91834548Y-58232000D01*
X92781884Y-58232000D01*
X92797123Y-58227525D01*
X92798328Y-58226135D01*
X92799999Y-58218452D01*
X92799999Y-58188905D01*
X92799662Y-58182386D01*
X92789743Y-58086794D01*
X92786851Y-58073400D01*
X92735412Y-57919216D01*
X92729239Y-57906038D01*
X92643937Y-57768193D01*
X92634901Y-57756792D01*
X92520171Y-57642261D01*
X92508760Y-57633249D01*
X92370757Y-57548184D01*
X92357576Y-57542037D01*
X92203290Y-57490862D01*
X92189914Y-57487995D01*
X92095562Y-57478328D01*
X92089145Y-57478000D01*
X91839115Y-57478000D01*
X91823876Y-57482475D01*
X91822671Y-57483865D01*
X91821000Y-57491548D01*
X91821000Y-58213885D01*
X91313000Y-58213885D01*
X91313000Y-57496116D01*
X91308525Y-57480877D01*
X91307135Y-57479672D01*
X91299452Y-57478001D01*
X91044905Y-57478001D01*
X91038386Y-57478338D01*
X90942794Y-57488257D01*
X90929400Y-57491149D01*
X90775216Y-57542588D01*
X90762038Y-57548761D01*
X90617965Y-57637917D01*
X90616337Y-57635286D01*
X90563418Y-57656696D01*
X90493656Y-57643515D01*
X90483175Y-57636792D01*
X90482991Y-57637090D01*
X90338757Y-57548184D01*
X90325576Y-57542037D01*
X90171290Y-57490862D01*
X90157914Y-57487995D01*
X90063562Y-57478328D01*
X90057145Y-57478000D01*
X89807115Y-57478000D01*
X89791876Y-57482475D01*
X89790671Y-57483865D01*
X89789000Y-57491548D01*
X89789000Y-58213885D01*
X89281000Y-58213885D01*
X89281000Y-57496116D01*
X89276525Y-57480877D01*
X89275135Y-57479672D01*
X89267452Y-57478001D01*
X89012905Y-57478001D01*
X89006386Y-57478338D01*
X88910794Y-57488257D01*
X88897400Y-57491149D01*
X88743216Y-57542588D01*
X88730038Y-57548761D01*
X88592193Y-57634063D01*
X88580792Y-57643099D01*
X88466261Y-57757829D01*
X88457249Y-57769240D01*
X88372184Y-57907243D01*
X88366037Y-57920424D01*
X88314862Y-58074710D01*
X88311995Y-58088086D01*
X88302328Y-58182438D01*
X88302000Y-58188855D01*
X88302000Y-58213885D01*
X70993000Y-58213885D01*
X70993000Y-55630368D01*
X71013002Y-55562247D01*
X71021595Y-55550442D01*
X71024014Y-55547494D01*
X71041486Y-55530021D01*
X71121810Y-55464101D01*
X71187157Y-55436347D01*
X71201743Y-55435500D01*
X127426257Y-55435500D01*
X127494378Y-55455502D01*
G37*
%TD.AperFunction*%
%TA.AperFunction,Conductor*%
G36*
X83127121Y-85113002D02*
G01*
X83173614Y-85166658D01*
X83185000Y-85219000D01*
X83185000Y-85475000D01*
X83164998Y-85543121D01*
X83111342Y-85589614D01*
X83059000Y-85601000D01*
X81533000Y-85601000D01*
X81464879Y-85580998D01*
X81418386Y-85527342D01*
X81407000Y-85475000D01*
X81407000Y-85219000D01*
X81427002Y-85150879D01*
X81480658Y-85104386D01*
X81533000Y-85093000D01*
X83059000Y-85093000D01*
X83127121Y-85113002D01*
G37*
%TD.AperFunction*%
%TA.AperFunction,Conductor*%
G36*
X98958046Y-76998022D02*
G01*
X98979020Y-77014925D01*
X99501069Y-77536974D01*
X99535095Y-77599286D01*
X99530030Y-77670101D01*
X99521094Y-77689067D01*
X99495473Y-77733444D01*
X99436458Y-77915072D01*
X99435769Y-77921631D01*
X99435768Y-77921634D01*
X99418789Y-78083182D01*
X99391776Y-78148838D01*
X99333554Y-78189468D01*
X99293479Y-78196011D01*
X98597012Y-78196011D01*
X98528891Y-78176009D01*
X98482398Y-78122353D01*
X98471668Y-78057170D01*
X98477672Y-77998565D01*
X98478000Y-77992146D01*
X98478000Y-77742115D01*
X98473525Y-77726876D01*
X98472135Y-77725671D01*
X98464452Y-77724000D01*
X97342000Y-77724000D01*
X97273879Y-77703998D01*
X97227386Y-77650342D01*
X97216000Y-77598000D01*
X97216000Y-77342000D01*
X97236002Y-77273879D01*
X97289658Y-77227386D01*
X97342000Y-77216000D01*
X98459884Y-77216000D01*
X98475123Y-77211525D01*
X98476328Y-77210135D01*
X98477999Y-77202452D01*
X98477999Y-77104020D01*
X98498001Y-77035899D01*
X98551657Y-76989406D01*
X98603999Y-76978020D01*
X98889925Y-76978020D01*
X98958046Y-76998022D01*
G37*
%TD.AperFunction*%
%TA.AperFunction,Conductor*%
G36*
X91182335Y-65873022D02*
G01*
X91203309Y-65889925D01*
X91804595Y-66491211D01*
X91838621Y-66553523D01*
X91841500Y-66580306D01*
X91841500Y-67585500D01*
X91821498Y-67653621D01*
X91767842Y-67700114D01*
X91715500Y-67711500D01*
X90386756Y-67711500D01*
X90382670Y-67712038D01*
X90382669Y-67712038D01*
X90381902Y-67712139D01*
X90272676Y-67726519D01*
X90265049Y-67729678D01*
X90265046Y-67729679D01*
X90215688Y-67750124D01*
X90130732Y-67785314D01*
X90008843Y-67878843D01*
X90003817Y-67885393D01*
X90003816Y-67885394D01*
X90001084Y-67888955D01*
X89915314Y-68000733D01*
X89856519Y-68142676D01*
X89841500Y-68256756D01*
X89841500Y-68483244D01*
X89842038Y-68487330D01*
X89842038Y-68487331D01*
X89856519Y-68597324D01*
X89854974Y-68597527D01*
X89854974Y-68642473D01*
X89856519Y-68642676D01*
X89841500Y-68756756D01*
X89841500Y-68983244D01*
X89842038Y-68987330D01*
X89842038Y-68987331D01*
X89856519Y-69097324D01*
X89854974Y-69097527D01*
X89854974Y-69142473D01*
X89856519Y-69142676D01*
X89841500Y-69256756D01*
X89841500Y-69483244D01*
X89842038Y-69487330D01*
X89842038Y-69487331D01*
X89856519Y-69597324D01*
X89854974Y-69597527D01*
X89854974Y-69642473D01*
X89856519Y-69642676D01*
X89854338Y-69659246D01*
X89841500Y-69756756D01*
X89841500Y-69983244D01*
X89842038Y-69987330D01*
X89842038Y-69987331D01*
X89856519Y-70097324D01*
X89854974Y-70097527D01*
X89854974Y-70142473D01*
X89856519Y-70142676D01*
X89841500Y-70256756D01*
X89841500Y-70483244D01*
X89842038Y-70487330D01*
X89842038Y-70487331D01*
X89856519Y-70597324D01*
X89854974Y-70597527D01*
X89854974Y-70642473D01*
X89856519Y-70642676D01*
X89841500Y-70756756D01*
X89841500Y-70983244D01*
X89842038Y-70987330D01*
X89842038Y-70987331D01*
X89856519Y-71097324D01*
X89854974Y-71097527D01*
X89854974Y-71142473D01*
X89856519Y-71142676D01*
X89841500Y-71256756D01*
X89841500Y-71483244D01*
X89842038Y-71487330D01*
X89842038Y-71487331D01*
X89856519Y-71597324D01*
X89854974Y-71597527D01*
X89854974Y-71642473D01*
X89856519Y-71642676D01*
X89850645Y-71687297D01*
X89841500Y-71756756D01*
X89841500Y-71983244D01*
X89842038Y-71987330D01*
X89842038Y-71987331D01*
X89856519Y-72097324D01*
X89854974Y-72097527D01*
X89854974Y-72142473D01*
X89856519Y-72142676D01*
X89841500Y-72256756D01*
X89841500Y-72483244D01*
X89842038Y-72487330D01*
X89842038Y-72487331D01*
X89856519Y-72597324D01*
X89854974Y-72597527D01*
X89854974Y-72642473D01*
X89856519Y-72642676D01*
X89841500Y-72756756D01*
X89841500Y-72983244D01*
X89842038Y-72987330D01*
X89842038Y-72987331D01*
X89856519Y-73097324D01*
X89854974Y-73097527D01*
X89854974Y-73142473D01*
X89856519Y-73142676D01*
X89854620Y-73157104D01*
X89841500Y-73256756D01*
X89841500Y-73483244D01*
X89842038Y-73487330D01*
X89842038Y-73487331D01*
X89856519Y-73597324D01*
X89854974Y-73597527D01*
X89854974Y-73642473D01*
X89856519Y-73642676D01*
X89844875Y-73731124D01*
X89841500Y-73756756D01*
X89841500Y-73983244D01*
X89856519Y-74097324D01*
X89859678Y-74104951D01*
X89859679Y-74104954D01*
X89862142Y-74110899D01*
X89915314Y-74239268D01*
X90008843Y-74361157D01*
X90015393Y-74366183D01*
X90015394Y-74366184D01*
X90024036Y-74372815D01*
X90130733Y-74454686D01*
X90272676Y-74513481D01*
X90336480Y-74521881D01*
X90382669Y-74527962D01*
X90382670Y-74527962D01*
X90386756Y-74528500D01*
X90623522Y-74528500D01*
X90691643Y-74548502D01*
X90738136Y-74602158D01*
X90748240Y-74672432D01*
X90718746Y-74737012D01*
X90659020Y-74775396D01*
X90649721Y-74777747D01*
X90612223Y-74785717D01*
X90606193Y-74788402D01*
X90606192Y-74788402D01*
X90443789Y-74860708D01*
X90443787Y-74860709D01*
X90437759Y-74863393D01*
X90283258Y-74975645D01*
X90278837Y-74980555D01*
X90278836Y-74980556D01*
X90263961Y-74997077D01*
X90155471Y-75117567D01*
X90059984Y-75282955D01*
X90000969Y-75464583D01*
X90000279Y-75471144D01*
X90000279Y-75471146D01*
X89999381Y-75479694D01*
X89981007Y-75654511D01*
X89981697Y-75661076D01*
X89992826Y-75766959D01*
X90000969Y-75844439D01*
X90059984Y-76026067D01*
X90155471Y-76191455D01*
X90159889Y-76196362D01*
X90159890Y-76196363D01*
X90278313Y-76327885D01*
X90283258Y-76333377D01*
X90437759Y-76445629D01*
X90443787Y-76448313D01*
X90443789Y-76448314D01*
X90606192Y-76520620D01*
X90612223Y-76523305D01*
X90689259Y-76539680D01*
X90713263Y-76544782D01*
X90775737Y-76578511D01*
X90810058Y-76640660D01*
X90806659Y-76707696D01*
X90764863Y-76833707D01*
X90761995Y-76847086D01*
X90752328Y-76941438D01*
X90752000Y-76947855D01*
X90752000Y-77197885D01*
X90756475Y-77213124D01*
X90757865Y-77214329D01*
X90765548Y-77216000D01*
X91888000Y-77216000D01*
X91956121Y-77236002D01*
X92002614Y-77289658D01*
X92014000Y-77342000D01*
X92014000Y-77598000D01*
X91993998Y-77666121D01*
X91940342Y-77712614D01*
X91888000Y-77724000D01*
X90770116Y-77724000D01*
X90754877Y-77728475D01*
X90753672Y-77729865D01*
X90752001Y-77737548D01*
X90752001Y-77760020D01*
X90731999Y-77828141D01*
X90678343Y-77874634D01*
X90626001Y-77886020D01*
X89780180Y-77886020D01*
X89712059Y-77866018D01*
X89691085Y-77849115D01*
X89613450Y-77771480D01*
X89607596Y-77765215D01*
X89579880Y-77733444D01*
X89569561Y-77721615D01*
X89517280Y-77684871D01*
X89511986Y-77680939D01*
X89467693Y-77646209D01*
X89461718Y-77641524D01*
X89454802Y-77638401D01*
X89452516Y-77637017D01*
X89437835Y-77628643D01*
X89435475Y-77627378D01*
X89429261Y-77623010D01*
X89422182Y-77620250D01*
X89422180Y-77620249D01*
X89369725Y-77599798D01*
X89363656Y-77597247D01*
X89305427Y-77570955D01*
X89297960Y-77569571D01*
X89295405Y-77568770D01*
X89279152Y-77564141D01*
X89276572Y-77563478D01*
X89269491Y-77560718D01*
X89261960Y-77559727D01*
X89261958Y-77559726D01*
X89232339Y-77555827D01*
X89206139Y-77552378D01*
X89199641Y-77551348D01*
X89136814Y-77539704D01*
X89129234Y-77540141D01*
X89129233Y-77540141D01*
X89074608Y-77543291D01*
X89067354Y-77543500D01*
X84694597Y-77543500D01*
X84626476Y-77523498D01*
X84587164Y-77483335D01*
X84531622Y-77392699D01*
X84505233Y-77349636D01*
X84350515Y-77168485D01*
X84343371Y-77162383D01*
X84290866Y-77117540D01*
X84169364Y-77013767D01*
X83966239Y-76889292D01*
X83961669Y-76887399D01*
X83961665Y-76887397D01*
X83750716Y-76800019D01*
X83750714Y-76800018D01*
X83746143Y-76798125D01*
X83664584Y-76778544D01*
X83519309Y-76743666D01*
X83519303Y-76743665D01*
X83514496Y-76742511D01*
X83277000Y-76723820D01*
X83156277Y-76733321D01*
X83086797Y-76718725D01*
X83036237Y-76668882D01*
X83020651Y-76599618D01*
X83044986Y-76532922D01*
X83057296Y-76518614D01*
X85430985Y-74144925D01*
X85493297Y-74110899D01*
X85520080Y-74108020D01*
X86467430Y-74108020D01*
X86478613Y-74108547D01*
X86486106Y-74110222D01*
X86494032Y-74109973D01*
X86494033Y-74109973D01*
X86554183Y-74108082D01*
X86558142Y-74108020D01*
X86586053Y-74108020D01*
X86589988Y-74107523D01*
X86590053Y-74107515D01*
X86601890Y-74106582D01*
X86634148Y-74105568D01*
X86638167Y-74105442D01*
X86646086Y-74105193D01*
X86665540Y-74099541D01*
X86684897Y-74095533D01*
X86697127Y-74093988D01*
X86697128Y-74093988D01*
X86704994Y-74092994D01*
X86712365Y-74090075D01*
X86712367Y-74090075D01*
X86746109Y-74076716D01*
X86757339Y-74072871D01*
X86792180Y-74062749D01*
X86792181Y-74062749D01*
X86799790Y-74060538D01*
X86806609Y-74056505D01*
X86806614Y-74056503D01*
X86817225Y-74050227D01*
X86834973Y-74041532D01*
X86853814Y-74034072D01*
X86889584Y-74008084D01*
X86899504Y-74001568D01*
X86930732Y-73983100D01*
X86930735Y-73983098D01*
X86937559Y-73979062D01*
X86951880Y-73964741D01*
X86966914Y-73951900D01*
X86983304Y-73939992D01*
X87011495Y-73905915D01*
X87019485Y-73897136D01*
X89106773Y-71809849D01*
X89115059Y-71802309D01*
X89121538Y-71798197D01*
X89168164Y-71748545D01*
X89170918Y-71745704D01*
X89190655Y-71725967D01*
X89193135Y-71722770D01*
X89200840Y-71713748D01*
X89225679Y-71687297D01*
X89231106Y-71681518D01*
X89234925Y-71674572D01*
X89234927Y-71674569D01*
X89240868Y-71663763D01*
X89251719Y-71647244D01*
X89255262Y-71642676D01*
X89264134Y-71631238D01*
X89267279Y-71623969D01*
X89267282Y-71623965D01*
X89281694Y-71590660D01*
X89286911Y-71580010D01*
X89308215Y-71541257D01*
X89313253Y-71521634D01*
X89319657Y-71502931D01*
X89324553Y-71491617D01*
X89324553Y-71491616D01*
X89327701Y-71484342D01*
X89328940Y-71476519D01*
X89328943Y-71476509D01*
X89334619Y-71440673D01*
X89337025Y-71429053D01*
X89346048Y-71393908D01*
X89346048Y-71393907D01*
X89348020Y-71386227D01*
X89348020Y-71365973D01*
X89349571Y-71346262D01*
X89351500Y-71334083D01*
X89352740Y-71326254D01*
X89348579Y-71282235D01*
X89348020Y-71270378D01*
X89348020Y-67175792D01*
X89368022Y-67107671D01*
X89384925Y-67086697D01*
X90581697Y-65889925D01*
X90644009Y-65855899D01*
X90670792Y-65853020D01*
X91114214Y-65853020D01*
X91182335Y-65873022D01*
G37*
%TD.AperFunction*%
%TD*%
%TA.AperFunction,NonConductor*%
G36*
X90608305Y-61229107D02*
G01*
X90618492Y-61235638D01*
X90618697Y-61235305D01*
X90732616Y-61305526D01*
X90780109Y-61358298D01*
X90792500Y-61412786D01*
X90792500Y-61780921D01*
X90772498Y-61849042D01*
X90718842Y-61895535D01*
X90648568Y-61905639D01*
X90589281Y-61880486D01*
X90586570Y-61878383D01*
X90577551Y-61870680D01*
X90551100Y-61845841D01*
X90545321Y-61840414D01*
X90538375Y-61836595D01*
X90538372Y-61836593D01*
X90527566Y-61830652D01*
X90511047Y-61819801D01*
X90510583Y-61819441D01*
X90495041Y-61807386D01*
X90487772Y-61804241D01*
X90487768Y-61804238D01*
X90454463Y-61789826D01*
X90443813Y-61784609D01*
X90405060Y-61763305D01*
X90397384Y-61761334D01*
X90390013Y-61758416D01*
X90391218Y-61755374D01*
X90343141Y-61726741D01*
X90311465Y-61663202D01*
X90309500Y-61641034D01*
X90309500Y-61412880D01*
X90329502Y-61344759D01*
X90369197Y-61305736D01*
X90484348Y-61234478D01*
X90486040Y-61237212D01*
X90538538Y-61215951D01*
X90608305Y-61229107D01*
G37*
%TD.AperFunction*%
%TA.AperFunction,NonConductor*%
G36*
X107702571Y-68598982D02*
G01*
X107723545Y-68615885D01*
X109821424Y-70713764D01*
X109855450Y-70776076D01*
X109850385Y-70846891D01*
X109821424Y-70891954D01*
X108915180Y-71798197D01*
X108013782Y-72699595D01*
X107951470Y-72733621D01*
X107924687Y-72736500D01*
X100768834Y-72736500D01*
X100700713Y-72716498D01*
X100654220Y-72662842D01*
X100643912Y-72594054D01*
X100657962Y-72487331D01*
X100657962Y-72487330D01*
X100658500Y-72483244D01*
X100658500Y-72256756D01*
X100643481Y-72142676D01*
X100645026Y-72142473D01*
X100645026Y-72097527D01*
X100643481Y-72097324D01*
X100657962Y-71987331D01*
X100657962Y-71987330D01*
X100658500Y-71983244D01*
X100658500Y-71756756D01*
X100649356Y-71687297D01*
X100643481Y-71642676D01*
X100645026Y-71642473D01*
X100645026Y-71597527D01*
X100643481Y-71597324D01*
X100657962Y-71487331D01*
X100657962Y-71487330D01*
X100658500Y-71483244D01*
X100658500Y-71256756D01*
X100643481Y-71142676D01*
X100645026Y-71142473D01*
X100645026Y-71097527D01*
X100643481Y-71097324D01*
X100657962Y-70987331D01*
X100657962Y-70987330D01*
X100658500Y-70983244D01*
X100658500Y-70756756D01*
X100643481Y-70642676D01*
X100645026Y-70642473D01*
X100645026Y-70597527D01*
X100643481Y-70597324D01*
X100657962Y-70487331D01*
X100657962Y-70487330D01*
X100658500Y-70483244D01*
X100658500Y-70256756D01*
X100643481Y-70142676D01*
X100645026Y-70142473D01*
X100645026Y-70097527D01*
X100643481Y-70097324D01*
X100657962Y-69987331D01*
X100657962Y-69987330D01*
X100658500Y-69983244D01*
X100658500Y-69756756D01*
X100645663Y-69659246D01*
X100643481Y-69642676D01*
X100645026Y-69642473D01*
X100645026Y-69597527D01*
X100643481Y-69597324D01*
X100657962Y-69487331D01*
X100657962Y-69487330D01*
X100658500Y-69483244D01*
X100658500Y-69256756D01*
X100643481Y-69142676D01*
X100645026Y-69142473D01*
X100645026Y-69097527D01*
X100643481Y-69097324D01*
X100657962Y-68987331D01*
X100657962Y-68987330D01*
X100658500Y-68983244D01*
X100658500Y-68756756D01*
X100653849Y-68721425D01*
X100664789Y-68651277D01*
X100711917Y-68598178D01*
X100778771Y-68578980D01*
X107634450Y-68578980D01*
X107702571Y-68598982D01*
G37*
%TD.AperFunction*%
%TA.AperFunction,NonConductor*%
G36*
X106995961Y-75936002D02*
G01*
X107042454Y-75989658D01*
X107052558Y-76059932D01*
X107023064Y-76124512D01*
X107016935Y-76131095D01*
X104988924Y-78159106D01*
X104926612Y-78193132D01*
X104899829Y-78196011D01*
X101366521Y-78196011D01*
X101298400Y-78176009D01*
X101251907Y-78122353D01*
X101241211Y-78083182D01*
X101224232Y-77921634D01*
X101224231Y-77921631D01*
X101223542Y-77915072D01*
X101164527Y-77733444D01*
X101159075Y-77724000D01*
X101087366Y-77599798D01*
X101069040Y-77568056D01*
X100994053Y-77484774D01*
X100963336Y-77420767D01*
X100961752Y-77404425D01*
X100960922Y-77378030D01*
X100960673Y-77370111D01*
X100955021Y-77350657D01*
X100951013Y-77331300D01*
X100949468Y-77319070D01*
X100949468Y-77319069D01*
X100948474Y-77311203D01*
X100937339Y-77283079D01*
X100932196Y-77270088D01*
X100928351Y-77258858D01*
X100918229Y-77224017D01*
X100918229Y-77224016D01*
X100916018Y-77216407D01*
X100911985Y-77209588D01*
X100911983Y-77209583D01*
X100905707Y-77198972D01*
X100897012Y-77181224D01*
X100889552Y-77162383D01*
X100863564Y-77126613D01*
X100857048Y-77116693D01*
X100838580Y-77085465D01*
X100838578Y-77085462D01*
X100834542Y-77078638D01*
X100820221Y-77064317D01*
X100807380Y-77049283D01*
X100800131Y-77039306D01*
X100795472Y-77032893D01*
X100761395Y-77004702D01*
X100752626Y-76996722D01*
X99886998Y-76131093D01*
X99852974Y-76068783D01*
X99858039Y-75997967D01*
X99900586Y-75941132D01*
X99967106Y-75916321D01*
X99976095Y-75916000D01*
X106927840Y-75916000D01*
X106995961Y-75936002D01*
G37*
%TD.AperFunction*%
M02*
