%TF.GenerationSoftware,KiCad,Pcbnew,6.0.2+dfsg-1*%
%TF.CreationDate,2024-09-23T07:34:14+01:00*%
%TF.ProjectId,Circuit,43697263-7569-4742-9e6b-696361645f70,rev?*%
%TF.SameCoordinates,Original*%
%TF.FileFunction,Legend,Bot*%
%TF.FilePolarity,Positive*%
%FSLAX46Y46*%
G04 Gerber Fmt 4.6, Leading zero omitted, Abs format (unit mm)*
G04 Created by KiCad (PCBNEW 6.0.2+dfsg-1) date 2024-09-23 07:34:14*
%MOMM*%
%LPD*%
G01*
G04 APERTURE LIST*
%ADD10C,0.250000*%
%ADD11C,0.300000*%
%ADD12C,0.150000*%
%ADD13C,0.010000*%
%ADD14C,0.120000*%
G04 APERTURE END LIST*
D10*
X81835047Y-86701380D02*
X81835047Y-87415666D01*
X81882666Y-87558523D01*
X81977904Y-87653761D01*
X82120761Y-87701380D01*
X82216000Y-87701380D01*
X80882666Y-87701380D02*
X81358857Y-87701380D01*
X81358857Y-86701380D01*
X79977904Y-87606142D02*
X80025523Y-87653761D01*
X80168380Y-87701380D01*
X80263619Y-87701380D01*
X80406476Y-87653761D01*
X80501714Y-87558523D01*
X80549333Y-87463285D01*
X80596952Y-87272809D01*
X80596952Y-87129952D01*
X80549333Y-86939476D01*
X80501714Y-86844238D01*
X80406476Y-86749000D01*
X80263619Y-86701380D01*
X80168380Y-86701380D01*
X80025523Y-86749000D01*
X79977904Y-86796619D01*
X79263619Y-86701380D02*
X79263619Y-87415666D01*
X79311238Y-87558523D01*
X79406476Y-87653761D01*
X79549333Y-87701380D01*
X79644571Y-87701380D01*
X78311238Y-87701380D02*
X78787428Y-87701380D01*
X78787428Y-86701380D01*
X77406476Y-87606142D02*
X77454095Y-87653761D01*
X77596952Y-87701380D01*
X77692190Y-87701380D01*
X77835047Y-87653761D01*
X77930285Y-87558523D01*
X77977904Y-87463285D01*
X78025523Y-87272809D01*
X78025523Y-87129952D01*
X77977904Y-86939476D01*
X77930285Y-86844238D01*
X77835047Y-86749000D01*
X77692190Y-86701380D01*
X77596952Y-86701380D01*
X77454095Y-86749000D01*
X77406476Y-86796619D01*
X76692190Y-86701380D02*
X76692190Y-87415666D01*
X76739809Y-87558523D01*
X76835047Y-87653761D01*
X76977904Y-87701380D01*
X77073142Y-87701380D01*
X75739809Y-87701380D02*
X76216000Y-87701380D01*
X76216000Y-86701380D01*
X74835047Y-87606142D02*
X74882666Y-87653761D01*
X75025523Y-87701380D01*
X75120761Y-87701380D01*
X75263619Y-87653761D01*
X75358857Y-87558523D01*
X75406476Y-87463285D01*
X75454095Y-87272809D01*
X75454095Y-87129952D01*
X75406476Y-86939476D01*
X75358857Y-86844238D01*
X75263619Y-86749000D01*
X75120761Y-86701380D01*
X75025523Y-86701380D01*
X74882666Y-86749000D01*
X74835047Y-86796619D01*
X74120761Y-86701380D02*
X74120761Y-87415666D01*
X74168380Y-87558523D01*
X74263619Y-87653761D01*
X74406476Y-87701380D01*
X74501714Y-87701380D01*
X73168380Y-87701380D02*
X73644571Y-87701380D01*
X73644571Y-86701380D01*
X72263619Y-87606142D02*
X72311238Y-87653761D01*
X72454095Y-87701380D01*
X72549333Y-87701380D01*
X72692190Y-87653761D01*
X72787428Y-87558523D01*
X72835047Y-87463285D01*
X72882666Y-87272809D01*
X72882666Y-87129952D01*
X72835047Y-86939476D01*
X72787428Y-86844238D01*
X72692190Y-86749000D01*
X72549333Y-86701380D01*
X72454095Y-86701380D01*
X72311238Y-86749000D01*
X72263619Y-86796619D01*
D11*
X121217142Y-65925000D02*
X121360000Y-65853571D01*
X121574285Y-65853571D01*
X121788571Y-65925000D01*
X121931428Y-66067857D01*
X122002857Y-66210714D01*
X122074285Y-66496428D01*
X122074285Y-66710714D01*
X122002857Y-66996428D01*
X121931428Y-67139285D01*
X121788571Y-67282142D01*
X121574285Y-67353571D01*
X121431428Y-67353571D01*
X121217142Y-67282142D01*
X121145714Y-67210714D01*
X121145714Y-66710714D01*
X121431428Y-66710714D01*
X120502857Y-67353571D02*
X120502857Y-65853571D01*
X119645714Y-67353571D01*
X119645714Y-65853571D01*
X118931428Y-67353571D02*
X118931428Y-65853571D01*
X118574285Y-65853571D01*
X118360000Y-65925000D01*
X118217142Y-66067857D01*
X118145714Y-66210714D01*
X118074285Y-66496428D01*
X118074285Y-66710714D01*
X118145714Y-66996428D01*
X118217142Y-67139285D01*
X118360000Y-67282142D01*
X118574285Y-67353571D01*
X118931428Y-67353571D01*
X121145714Y-72433571D02*
X121645714Y-71719285D01*
X122002857Y-72433571D02*
X122002857Y-70933571D01*
X121431428Y-70933571D01*
X121288571Y-71005000D01*
X121217142Y-71076428D01*
X121145714Y-71219285D01*
X121145714Y-71433571D01*
X121217142Y-71576428D01*
X121288571Y-71647857D01*
X121431428Y-71719285D01*
X122002857Y-71719285D01*
X120574285Y-72362142D02*
X120360000Y-72433571D01*
X120002857Y-72433571D01*
X119860000Y-72362142D01*
X119788571Y-72290714D01*
X119717142Y-72147857D01*
X119717142Y-72005000D01*
X119788571Y-71862142D01*
X119860000Y-71790714D01*
X120002857Y-71719285D01*
X120288571Y-71647857D01*
X120431428Y-71576428D01*
X120502857Y-71505000D01*
X120574285Y-71362142D01*
X120574285Y-71219285D01*
X120502857Y-71076428D01*
X120431428Y-71005000D01*
X120288571Y-70933571D01*
X119931428Y-70933571D01*
X119717142Y-71005000D01*
X119288571Y-70933571D02*
X118431428Y-70933571D01*
X118860000Y-72433571D02*
X118860000Y-70933571D01*
X121145714Y-69750714D02*
X121217142Y-69822142D01*
X121431428Y-69893571D01*
X121574285Y-69893571D01*
X121788571Y-69822142D01*
X121931428Y-69679285D01*
X122002857Y-69536428D01*
X122074285Y-69250714D01*
X122074285Y-69036428D01*
X122002857Y-68750714D01*
X121931428Y-68607857D01*
X121788571Y-68465000D01*
X121574285Y-68393571D01*
X121431428Y-68393571D01*
X121217142Y-68465000D01*
X121145714Y-68536428D01*
X120574285Y-69822142D02*
X120360000Y-69893571D01*
X120002857Y-69893571D01*
X119860000Y-69822142D01*
X119788571Y-69750714D01*
X119717142Y-69607857D01*
X119717142Y-69465000D01*
X119788571Y-69322142D01*
X119860000Y-69250714D01*
X120002857Y-69179285D01*
X120288571Y-69107857D01*
X120431428Y-69036428D01*
X120502857Y-68965000D01*
X120574285Y-68822142D01*
X120574285Y-68679285D01*
X120502857Y-68536428D01*
X120431428Y-68465000D01*
X120288571Y-68393571D01*
X119931428Y-68393571D01*
X119717142Y-68465000D01*
X122002857Y-77513571D02*
X122002857Y-76013571D01*
X121502857Y-77085000D01*
X121002857Y-76013571D01*
X121002857Y-77513571D01*
X120002857Y-76013571D02*
X119717142Y-76013571D01*
X119574285Y-76085000D01*
X119431428Y-76227857D01*
X119360000Y-76513571D01*
X119360000Y-77013571D01*
X119431428Y-77299285D01*
X119574285Y-77442142D01*
X119717142Y-77513571D01*
X120002857Y-77513571D01*
X120145714Y-77442142D01*
X120288571Y-77299285D01*
X120360000Y-77013571D01*
X120360000Y-76513571D01*
X120288571Y-76227857D01*
X120145714Y-76085000D01*
X120002857Y-76013571D01*
X118788571Y-77442142D02*
X118574285Y-77513571D01*
X118217142Y-77513571D01*
X118074285Y-77442142D01*
X118002857Y-77370714D01*
X117931428Y-77227857D01*
X117931428Y-77085000D01*
X118002857Y-76942142D01*
X118074285Y-76870714D01*
X118217142Y-76799285D01*
X118502857Y-76727857D01*
X118645714Y-76656428D01*
X118717142Y-76585000D01*
X118788571Y-76442142D01*
X118788571Y-76299285D01*
X118717142Y-76156428D01*
X118645714Y-76085000D01*
X118502857Y-76013571D01*
X118145714Y-76013571D01*
X117931428Y-76085000D01*
X117288571Y-77513571D02*
X117288571Y-76013571D01*
X121288571Y-82593571D02*
X122002857Y-82593571D01*
X122002857Y-81093571D01*
X120788571Y-81807857D02*
X120288571Y-81807857D01*
X120074285Y-82593571D02*
X120788571Y-82593571D01*
X120788571Y-81093571D01*
X120074285Y-81093571D01*
X119431428Y-82593571D02*
X119431428Y-81093571D01*
X119074285Y-81093571D01*
X118860000Y-81165000D01*
X118717142Y-81307857D01*
X118645714Y-81450714D01*
X118574285Y-81736428D01*
X118574285Y-81950714D01*
X118645714Y-82236428D01*
X118717142Y-82379285D01*
X118860000Y-82522142D01*
X119074285Y-82593571D01*
X119431428Y-82593571D01*
X122074285Y-79982142D02*
X121860000Y-80053571D01*
X121502857Y-80053571D01*
X121360000Y-79982142D01*
X121288571Y-79910714D01*
X121217142Y-79767857D01*
X121217142Y-79625000D01*
X121288571Y-79482142D01*
X121360000Y-79410714D01*
X121502857Y-79339285D01*
X121788571Y-79267857D01*
X121931428Y-79196428D01*
X122002857Y-79125000D01*
X122074285Y-78982142D01*
X122074285Y-78839285D01*
X122002857Y-78696428D01*
X121931428Y-78625000D01*
X121788571Y-78553571D01*
X121431428Y-78553571D01*
X121217142Y-78625000D01*
X119717142Y-79910714D02*
X119788571Y-79982142D01*
X120002857Y-80053571D01*
X120145714Y-80053571D01*
X120360000Y-79982142D01*
X120502857Y-79839285D01*
X120574285Y-79696428D01*
X120645714Y-79410714D01*
X120645714Y-79196428D01*
X120574285Y-78910714D01*
X120502857Y-78767857D01*
X120360000Y-78625000D01*
X120145714Y-78553571D01*
X120002857Y-78553571D01*
X119788571Y-78625000D01*
X119717142Y-78696428D01*
X119074285Y-80053571D02*
X119074285Y-78553571D01*
X118217142Y-80053571D02*
X118860000Y-79196428D01*
X118217142Y-78553571D02*
X119074285Y-79410714D01*
X122217142Y-63313571D02*
X121717142Y-64813571D01*
X121217142Y-63313571D01*
X119860000Y-64670714D02*
X119931428Y-64742142D01*
X120145714Y-64813571D01*
X120288571Y-64813571D01*
X120502857Y-64742142D01*
X120645714Y-64599285D01*
X120717142Y-64456428D01*
X120788571Y-64170714D01*
X120788571Y-63956428D01*
X120717142Y-63670714D01*
X120645714Y-63527857D01*
X120502857Y-63385000D01*
X120288571Y-63313571D01*
X120145714Y-63313571D01*
X119931428Y-63385000D01*
X119860000Y-63456428D01*
X118360000Y-64670714D02*
X118431428Y-64742142D01*
X118645714Y-64813571D01*
X118788571Y-64813571D01*
X119002857Y-64742142D01*
X119145714Y-64599285D01*
X119217142Y-64456428D01*
X119288571Y-64170714D01*
X119288571Y-63956428D01*
X119217142Y-63670714D01*
X119145714Y-63527857D01*
X119002857Y-63385000D01*
X118788571Y-63313571D01*
X118645714Y-63313571D01*
X118431428Y-63385000D01*
X118360000Y-63456428D01*
X122002857Y-74973571D02*
X122002857Y-73473571D01*
X121645714Y-73473571D01*
X121431428Y-73545000D01*
X121288571Y-73687857D01*
X121217142Y-73830714D01*
X121145714Y-74116428D01*
X121145714Y-74330714D01*
X121217142Y-74616428D01*
X121288571Y-74759285D01*
X121431428Y-74902142D01*
X121645714Y-74973571D01*
X122002857Y-74973571D01*
X119645714Y-74830714D02*
X119717142Y-74902142D01*
X119931428Y-74973571D01*
X120074285Y-74973571D01*
X120288571Y-74902142D01*
X120431428Y-74759285D01*
X120502857Y-74616428D01*
X120574285Y-74330714D01*
X120574285Y-74116428D01*
X120502857Y-73830714D01*
X120431428Y-73687857D01*
X120288571Y-73545000D01*
X120074285Y-73473571D01*
X119931428Y-73473571D01*
X119717142Y-73545000D01*
X119645714Y-73616428D01*
D12*
%TO.C,F1*%
X85145571Y-75231666D02*
X85145571Y-74898333D01*
X85669380Y-74898333D02*
X84669380Y-74898333D01*
X84669380Y-75374523D01*
X85669380Y-76279285D02*
X85669380Y-75707857D01*
X85669380Y-75993571D02*
X84669380Y-75993571D01*
X84812238Y-75898333D01*
X84907476Y-75803095D01*
X84955095Y-75707857D01*
%TO.C,J1*%
X124920333Y-60817380D02*
X124920333Y-61531666D01*
X124967952Y-61674523D01*
X125063190Y-61769761D01*
X125206047Y-61817380D01*
X125301285Y-61817380D01*
X123920333Y-61817380D02*
X124491761Y-61817380D01*
X124206047Y-61817380D02*
X124206047Y-60817380D01*
X124301285Y-60960238D01*
X124396523Y-61055476D01*
X124491761Y-61103095D01*
D13*
%TO.C,REF\u002A\u002A*%
X102609426Y-84718552D02*
X102457508Y-84738567D01*
X102457508Y-84738567D02*
X102322244Y-84772202D01*
X102322244Y-84772202D02*
X102202761Y-84819725D01*
X102202761Y-84819725D02*
X102098185Y-84881405D01*
X102098185Y-84881405D02*
X102020576Y-84944965D01*
X102020576Y-84944965D02*
X101951735Y-85019099D01*
X101951735Y-85019099D02*
X101897994Y-85098871D01*
X101897994Y-85098871D02*
X101855090Y-85191091D01*
X101855090Y-85191091D02*
X101839616Y-85234161D01*
X101839616Y-85234161D02*
X101826756Y-85273142D01*
X101826756Y-85273142D02*
X101815554Y-85309289D01*
X101815554Y-85309289D02*
X101805880Y-85344434D01*
X101805880Y-85344434D02*
X101797604Y-85380410D01*
X101797604Y-85380410D02*
X101790597Y-85419050D01*
X101790597Y-85419050D02*
X101784728Y-85462185D01*
X101784728Y-85462185D02*
X101779869Y-85511649D01*
X101779869Y-85511649D02*
X101775890Y-85569273D01*
X101775890Y-85569273D02*
X101772660Y-85636891D01*
X101772660Y-85636891D02*
X101770051Y-85716334D01*
X101770051Y-85716334D02*
X101767933Y-85809436D01*
X101767933Y-85809436D02*
X101766176Y-85918027D01*
X101766176Y-85918027D02*
X101764651Y-86043942D01*
X101764651Y-86043942D02*
X101763228Y-86189012D01*
X101763228Y-86189012D02*
X101761975Y-86331778D01*
X101761975Y-86331778D02*
X101760649Y-86487968D01*
X101760649Y-86487968D02*
X101759444Y-86623239D01*
X101759444Y-86623239D02*
X101758234Y-86739246D01*
X101758234Y-86739246D02*
X101756894Y-86837645D01*
X101756894Y-86837645D02*
X101755300Y-86920093D01*
X101755300Y-86920093D02*
X101753325Y-86988246D01*
X101753325Y-86988246D02*
X101750844Y-87043760D01*
X101750844Y-87043760D02*
X101747731Y-87088292D01*
X101747731Y-87088292D02*
X101743862Y-87123498D01*
X101743862Y-87123498D02*
X101739111Y-87151034D01*
X101739111Y-87151034D02*
X101733352Y-87172556D01*
X101733352Y-87172556D02*
X101726461Y-87189722D01*
X101726461Y-87189722D02*
X101718311Y-87204186D01*
X101718311Y-87204186D02*
X101708777Y-87217606D01*
X101708777Y-87217606D02*
X101697734Y-87231638D01*
X101697734Y-87231638D02*
X101693434Y-87237071D01*
X101693434Y-87237071D02*
X101677614Y-87259910D01*
X101677614Y-87259910D02*
X101670578Y-87275463D01*
X101670578Y-87275463D02*
X101670556Y-87275922D01*
X101670556Y-87275922D02*
X101681433Y-87278121D01*
X101681433Y-87278121D02*
X101712418Y-87280147D01*
X101712418Y-87280147D02*
X101761043Y-87281942D01*
X101761043Y-87281942D02*
X101824837Y-87283451D01*
X101824837Y-87283451D02*
X101901331Y-87284616D01*
X101901331Y-87284616D02*
X101988056Y-87285380D01*
X101988056Y-87285380D02*
X102082543Y-87285686D01*
X102082543Y-87285686D02*
X102093450Y-87285689D01*
X102093450Y-87285689D02*
X102516343Y-87285689D01*
X102516343Y-87285689D02*
X102519605Y-87189622D01*
X102519605Y-87189622D02*
X102522867Y-87093556D01*
X102522867Y-87093556D02*
X102584956Y-87144543D01*
X102584956Y-87144543D02*
X102682286Y-87212057D01*
X102682286Y-87212057D02*
X102792187Y-87266749D01*
X102792187Y-87266749D02*
X102878651Y-87296978D01*
X102878651Y-87296978D02*
X102947722Y-87311666D01*
X102947722Y-87311666D02*
X103031075Y-87321659D01*
X103031075Y-87321659D02*
X103120841Y-87326646D01*
X103120841Y-87326646D02*
X103209155Y-87326313D01*
X103209155Y-87326313D02*
X103288149Y-87320351D01*
X103288149Y-87320351D02*
X103324378Y-87314638D01*
X103324378Y-87314638D02*
X103464397Y-87276776D01*
X103464397Y-87276776D02*
X103590822Y-87221932D01*
X103590822Y-87221932D02*
X103702740Y-87150924D01*
X103702740Y-87150924D02*
X103799238Y-87064568D01*
X103799238Y-87064568D02*
X103879400Y-86963679D01*
X103879400Y-86963679D02*
X103942313Y-86849076D01*
X103942313Y-86849076D02*
X103986688Y-86722984D01*
X103986688Y-86722984D02*
X103999022Y-86666401D01*
X103999022Y-86666401D02*
X104006632Y-86604202D01*
X104006632Y-86604202D02*
X104010261Y-86529363D01*
X104010261Y-86529363D02*
X104010755Y-86495467D01*
X104010755Y-86495467D02*
X104010690Y-86492282D01*
X104010690Y-86492282D02*
X103250752Y-86492282D01*
X103250752Y-86492282D02*
X103241459Y-86567333D01*
X103241459Y-86567333D02*
X103213272Y-86631160D01*
X103213272Y-86631160D02*
X103164803Y-86686798D01*
X103164803Y-86686798D02*
X103159746Y-86691211D01*
X103159746Y-86691211D02*
X103111452Y-86726037D01*
X103111452Y-86726037D02*
X103059743Y-86748620D01*
X103059743Y-86748620D02*
X102999011Y-86760540D01*
X102999011Y-86760540D02*
X102923648Y-86763383D01*
X102923648Y-86763383D02*
X102905541Y-86762978D01*
X102905541Y-86762978D02*
X102851722Y-86760325D01*
X102851722Y-86760325D02*
X102811692Y-86754909D01*
X102811692Y-86754909D02*
X102776676Y-86744745D01*
X102776676Y-86744745D02*
X102737897Y-86727850D01*
X102737897Y-86727850D02*
X102727255Y-86722672D01*
X102727255Y-86722672D02*
X102666604Y-86686844D01*
X102666604Y-86686844D02*
X102619785Y-86644212D01*
X102619785Y-86644212D02*
X102607048Y-86628973D01*
X102607048Y-86628973D02*
X102562378Y-86572462D01*
X102562378Y-86572462D02*
X102562378Y-86376586D01*
X102562378Y-86376586D02*
X102562914Y-86297939D01*
X102562914Y-86297939D02*
X102564604Y-86239988D01*
X102564604Y-86239988D02*
X102567572Y-86200875D01*
X102567572Y-86200875D02*
X102571943Y-86178741D01*
X102571943Y-86178741D02*
X102576028Y-86172274D01*
X102576028Y-86172274D02*
X102591953Y-86169111D01*
X102591953Y-86169111D02*
X102625736Y-86166488D01*
X102625736Y-86166488D02*
X102672660Y-86164655D01*
X102672660Y-86164655D02*
X102728007Y-86163857D01*
X102728007Y-86163857D02*
X102736894Y-86163842D01*
X102736894Y-86163842D02*
X102857670Y-86169096D01*
X102857670Y-86169096D02*
X102960340Y-86185263D01*
X102960340Y-86185263D02*
X103046894Y-86212961D01*
X103046894Y-86212961D02*
X103119319Y-86252808D01*
X103119319Y-86252808D02*
X103174249Y-86299758D01*
X103174249Y-86299758D02*
X103218796Y-86357645D01*
X103218796Y-86357645D02*
X103243520Y-86420693D01*
X103243520Y-86420693D02*
X103250752Y-86492282D01*
X103250752Y-86492282D02*
X104010690Y-86492282D01*
X104010690Y-86492282D02*
X104008822Y-86401712D01*
X104008822Y-86401712D02*
X104000478Y-86322812D01*
X104000478Y-86322812D02*
X103984232Y-86251590D01*
X103984232Y-86251590D02*
X103958595Y-86180864D01*
X103958595Y-86180864D02*
X103934599Y-86128493D01*
X103934599Y-86128493D02*
X103875980Y-86033196D01*
X103875980Y-86033196D02*
X103797883Y-85945170D01*
X103797883Y-85945170D02*
X103702685Y-85866017D01*
X103702685Y-85866017D02*
X103592762Y-85797340D01*
X103592762Y-85797340D02*
X103470490Y-85740741D01*
X103470490Y-85740741D02*
X103338245Y-85697821D01*
X103338245Y-85697821D02*
X103273578Y-85682882D01*
X103273578Y-85682882D02*
X103137396Y-85660777D01*
X103137396Y-85660777D02*
X102988951Y-85646194D01*
X102988951Y-85646194D02*
X102837495Y-85639813D01*
X102837495Y-85639813D02*
X102710936Y-85641445D01*
X102710936Y-85641445D02*
X102549050Y-85648224D01*
X102549050Y-85648224D02*
X102556470Y-85589245D01*
X102556470Y-85589245D02*
X102575762Y-85490092D01*
X102575762Y-85490092D02*
X102606896Y-85409372D01*
X102606896Y-85409372D02*
X102650731Y-85346466D01*
X102650731Y-85346466D02*
X102708129Y-85300756D01*
X102708129Y-85300756D02*
X102779952Y-85271622D01*
X102779952Y-85271622D02*
X102867059Y-85258447D01*
X102867059Y-85258447D02*
X102970314Y-85260611D01*
X102970314Y-85260611D02*
X103008289Y-85264612D01*
X103008289Y-85264612D02*
X103149480Y-85289780D01*
X103149480Y-85289780D02*
X103286293Y-85330814D01*
X103286293Y-85330814D02*
X103380822Y-85368815D01*
X103380822Y-85368815D02*
X103425982Y-85388190D01*
X103425982Y-85388190D02*
X103464415Y-85403760D01*
X103464415Y-85403760D02*
X103490766Y-85413405D01*
X103490766Y-85413405D02*
X103498454Y-85415452D01*
X103498454Y-85415452D02*
X103508198Y-85406374D01*
X103508198Y-85406374D02*
X103524917Y-85377405D01*
X103524917Y-85377405D02*
X103548768Y-85328217D01*
X103548768Y-85328217D02*
X103579907Y-85258484D01*
X103579907Y-85258484D02*
X103618493Y-85167879D01*
X103618493Y-85167879D02*
X103625090Y-85152089D01*
X103625090Y-85152089D02*
X103655147Y-85079772D01*
X103655147Y-85079772D02*
X103682126Y-85014425D01*
X103682126Y-85014425D02*
X103704864Y-84958906D01*
X103704864Y-84958906D02*
X103722194Y-84916072D01*
X103722194Y-84916072D02*
X103732952Y-84888781D01*
X103732952Y-84888781D02*
X103736059Y-84879942D01*
X103736059Y-84879942D02*
X103726060Y-84875187D01*
X103726060Y-84875187D02*
X103699783Y-84869910D01*
X103699783Y-84869910D02*
X103671511Y-84866231D01*
X103671511Y-84866231D02*
X103641354Y-84861474D01*
X103641354Y-84861474D02*
X103593567Y-84852028D01*
X103593567Y-84852028D02*
X103532388Y-84838820D01*
X103532388Y-84838820D02*
X103462054Y-84822776D01*
X103462054Y-84822776D02*
X103386806Y-84804820D01*
X103386806Y-84804820D02*
X103358245Y-84797797D01*
X103358245Y-84797797D02*
X103253184Y-84772209D01*
X103253184Y-84772209D02*
X103165520Y-84752147D01*
X103165520Y-84752147D02*
X103090932Y-84736969D01*
X103090932Y-84736969D02*
X103025097Y-84726035D01*
X103025097Y-84726035D02*
X102963693Y-84718704D01*
X102963693Y-84718704D02*
X102902398Y-84714335D01*
X102902398Y-84714335D02*
X102836890Y-84712287D01*
X102836890Y-84712287D02*
X102778872Y-84711889D01*
X102778872Y-84711889D02*
X102609426Y-84718552D01*
X102609426Y-84718552D02*
X102609426Y-84718552D01*
G36*
X104010261Y-86529363D02*
G01*
X104006632Y-86604202D01*
X103999022Y-86666401D01*
X103986688Y-86722984D01*
X103942313Y-86849076D01*
X103879400Y-86963679D01*
X103799238Y-87064568D01*
X103702740Y-87150924D01*
X103590822Y-87221932D01*
X103464397Y-87276776D01*
X103324378Y-87314638D01*
X103288149Y-87320351D01*
X103209155Y-87326313D01*
X103120841Y-87326646D01*
X103031075Y-87321659D01*
X102947722Y-87311666D01*
X102878651Y-87296978D01*
X102792187Y-87266749D01*
X102682286Y-87212057D01*
X102584956Y-87144543D01*
X102522867Y-87093556D01*
X102519605Y-87189622D01*
X102516343Y-87285689D01*
X102093450Y-87285689D01*
X102082543Y-87285686D01*
X101988056Y-87285380D01*
X101901331Y-87284616D01*
X101824837Y-87283451D01*
X101761043Y-87281942D01*
X101712418Y-87280147D01*
X101681433Y-87278121D01*
X101670556Y-87275922D01*
X101670578Y-87275463D01*
X101677614Y-87259910D01*
X101693434Y-87237071D01*
X101697734Y-87231638D01*
X101708777Y-87217606D01*
X101718311Y-87204186D01*
X101726461Y-87189722D01*
X101733352Y-87172556D01*
X101739111Y-87151034D01*
X101743862Y-87123498D01*
X101747731Y-87088292D01*
X101750844Y-87043760D01*
X101753325Y-86988246D01*
X101755300Y-86920093D01*
X101756894Y-86837645D01*
X101758234Y-86739246D01*
X101759444Y-86623239D01*
X101759896Y-86572462D01*
X102562378Y-86572462D01*
X102607048Y-86628973D01*
X102619785Y-86644212D01*
X102666604Y-86686844D01*
X102727255Y-86722672D01*
X102737897Y-86727850D01*
X102776676Y-86744745D01*
X102811692Y-86754909D01*
X102851722Y-86760325D01*
X102905541Y-86762978D01*
X102923648Y-86763383D01*
X102999011Y-86760540D01*
X103059743Y-86748620D01*
X103111452Y-86726037D01*
X103159746Y-86691211D01*
X103164803Y-86686798D01*
X103213272Y-86631160D01*
X103241459Y-86567333D01*
X103250752Y-86492282D01*
X103243520Y-86420693D01*
X103218796Y-86357645D01*
X103174249Y-86299758D01*
X103119319Y-86252808D01*
X103046894Y-86212961D01*
X102960340Y-86185263D01*
X102857670Y-86169096D01*
X102736894Y-86163842D01*
X102728007Y-86163857D01*
X102672660Y-86164655D01*
X102625736Y-86166488D01*
X102591953Y-86169111D01*
X102576028Y-86172274D01*
X102571943Y-86178741D01*
X102567572Y-86200875D01*
X102564604Y-86239988D01*
X102562914Y-86297939D01*
X102562378Y-86376586D01*
X102562378Y-86572462D01*
X101759896Y-86572462D01*
X101760649Y-86487968D01*
X101761975Y-86331778D01*
X101763228Y-86189012D01*
X101764651Y-86043942D01*
X101766176Y-85918027D01*
X101767933Y-85809436D01*
X101770051Y-85716334D01*
X101772660Y-85636891D01*
X101775890Y-85569273D01*
X101779869Y-85511649D01*
X101784728Y-85462185D01*
X101790597Y-85419050D01*
X101797604Y-85380410D01*
X101805880Y-85344434D01*
X101815554Y-85309289D01*
X101826756Y-85273142D01*
X101839616Y-85234161D01*
X101855090Y-85191091D01*
X101897994Y-85098871D01*
X101951735Y-85019099D01*
X102020576Y-84944965D01*
X102098185Y-84881405D01*
X102202761Y-84819725D01*
X102322244Y-84772202D01*
X102457508Y-84738567D01*
X102609426Y-84718552D01*
X102778872Y-84711889D01*
X102836890Y-84712287D01*
X102902398Y-84714335D01*
X102963693Y-84718704D01*
X103025097Y-84726035D01*
X103090932Y-84736969D01*
X103165520Y-84752147D01*
X103253184Y-84772209D01*
X103358245Y-84797797D01*
X103386806Y-84804820D01*
X103462054Y-84822776D01*
X103532388Y-84838820D01*
X103593567Y-84852028D01*
X103641354Y-84861474D01*
X103671511Y-84866231D01*
X103699783Y-84869910D01*
X103726060Y-84875187D01*
X103736059Y-84879942D01*
X103732952Y-84888781D01*
X103722194Y-84916072D01*
X103704864Y-84958906D01*
X103682126Y-85014425D01*
X103655147Y-85079772D01*
X103625090Y-85152089D01*
X103618493Y-85167879D01*
X103579907Y-85258484D01*
X103548768Y-85328217D01*
X103524917Y-85377405D01*
X103508198Y-85406374D01*
X103498454Y-85415452D01*
X103490766Y-85413405D01*
X103464415Y-85403760D01*
X103425982Y-85388190D01*
X103380822Y-85368815D01*
X103286293Y-85330814D01*
X103149480Y-85289780D01*
X103008289Y-85264612D01*
X102970314Y-85260611D01*
X102867059Y-85258447D01*
X102779952Y-85271622D01*
X102708129Y-85300756D01*
X102650731Y-85346466D01*
X102606896Y-85409372D01*
X102575762Y-85490092D01*
X102556470Y-85589245D01*
X102549050Y-85648224D01*
X102710936Y-85641445D01*
X102837495Y-85639813D01*
X102988951Y-85646194D01*
X103137396Y-85660777D01*
X103273578Y-85682882D01*
X103338245Y-85697821D01*
X103470490Y-85740741D01*
X103592762Y-85797340D01*
X103702685Y-85866017D01*
X103797883Y-85945170D01*
X103875980Y-86033196D01*
X103934599Y-86128493D01*
X103958595Y-86180864D01*
X103984232Y-86251590D01*
X104000478Y-86322812D01*
X104008822Y-86401712D01*
X104010690Y-86492282D01*
X104010755Y-86495467D01*
X104010261Y-86529363D01*
G37*
X104010261Y-86529363D02*
X104006632Y-86604202D01*
X103999022Y-86666401D01*
X103986688Y-86722984D01*
X103942313Y-86849076D01*
X103879400Y-86963679D01*
X103799238Y-87064568D01*
X103702740Y-87150924D01*
X103590822Y-87221932D01*
X103464397Y-87276776D01*
X103324378Y-87314638D01*
X103288149Y-87320351D01*
X103209155Y-87326313D01*
X103120841Y-87326646D01*
X103031075Y-87321659D01*
X102947722Y-87311666D01*
X102878651Y-87296978D01*
X102792187Y-87266749D01*
X102682286Y-87212057D01*
X102584956Y-87144543D01*
X102522867Y-87093556D01*
X102519605Y-87189622D01*
X102516343Y-87285689D01*
X102093450Y-87285689D01*
X102082543Y-87285686D01*
X101988056Y-87285380D01*
X101901331Y-87284616D01*
X101824837Y-87283451D01*
X101761043Y-87281942D01*
X101712418Y-87280147D01*
X101681433Y-87278121D01*
X101670556Y-87275922D01*
X101670578Y-87275463D01*
X101677614Y-87259910D01*
X101693434Y-87237071D01*
X101697734Y-87231638D01*
X101708777Y-87217606D01*
X101718311Y-87204186D01*
X101726461Y-87189722D01*
X101733352Y-87172556D01*
X101739111Y-87151034D01*
X101743862Y-87123498D01*
X101747731Y-87088292D01*
X101750844Y-87043760D01*
X101753325Y-86988246D01*
X101755300Y-86920093D01*
X101756894Y-86837645D01*
X101758234Y-86739246D01*
X101759444Y-86623239D01*
X101759896Y-86572462D01*
X102562378Y-86572462D01*
X102607048Y-86628973D01*
X102619785Y-86644212D01*
X102666604Y-86686844D01*
X102727255Y-86722672D01*
X102737897Y-86727850D01*
X102776676Y-86744745D01*
X102811692Y-86754909D01*
X102851722Y-86760325D01*
X102905541Y-86762978D01*
X102923648Y-86763383D01*
X102999011Y-86760540D01*
X103059743Y-86748620D01*
X103111452Y-86726037D01*
X103159746Y-86691211D01*
X103164803Y-86686798D01*
X103213272Y-86631160D01*
X103241459Y-86567333D01*
X103250752Y-86492282D01*
X103243520Y-86420693D01*
X103218796Y-86357645D01*
X103174249Y-86299758D01*
X103119319Y-86252808D01*
X103046894Y-86212961D01*
X102960340Y-86185263D01*
X102857670Y-86169096D01*
X102736894Y-86163842D01*
X102728007Y-86163857D01*
X102672660Y-86164655D01*
X102625736Y-86166488D01*
X102591953Y-86169111D01*
X102576028Y-86172274D01*
X102571943Y-86178741D01*
X102567572Y-86200875D01*
X102564604Y-86239988D01*
X102562914Y-86297939D01*
X102562378Y-86376586D01*
X102562378Y-86572462D01*
X101759896Y-86572462D01*
X101760649Y-86487968D01*
X101761975Y-86331778D01*
X101763228Y-86189012D01*
X101764651Y-86043942D01*
X101766176Y-85918027D01*
X101767933Y-85809436D01*
X101770051Y-85716334D01*
X101772660Y-85636891D01*
X101775890Y-85569273D01*
X101779869Y-85511649D01*
X101784728Y-85462185D01*
X101790597Y-85419050D01*
X101797604Y-85380410D01*
X101805880Y-85344434D01*
X101815554Y-85309289D01*
X101826756Y-85273142D01*
X101839616Y-85234161D01*
X101855090Y-85191091D01*
X101897994Y-85098871D01*
X101951735Y-85019099D01*
X102020576Y-84944965D01*
X102098185Y-84881405D01*
X102202761Y-84819725D01*
X102322244Y-84772202D01*
X102457508Y-84738567D01*
X102609426Y-84718552D01*
X102778872Y-84711889D01*
X102836890Y-84712287D01*
X102902398Y-84714335D01*
X102963693Y-84718704D01*
X103025097Y-84726035D01*
X103090932Y-84736969D01*
X103165520Y-84752147D01*
X103253184Y-84772209D01*
X103358245Y-84797797D01*
X103386806Y-84804820D01*
X103462054Y-84822776D01*
X103532388Y-84838820D01*
X103593567Y-84852028D01*
X103641354Y-84861474D01*
X103671511Y-84866231D01*
X103699783Y-84869910D01*
X103726060Y-84875187D01*
X103736059Y-84879942D01*
X103732952Y-84888781D01*
X103722194Y-84916072D01*
X103704864Y-84958906D01*
X103682126Y-85014425D01*
X103655147Y-85079772D01*
X103625090Y-85152089D01*
X103618493Y-85167879D01*
X103579907Y-85258484D01*
X103548768Y-85328217D01*
X103524917Y-85377405D01*
X103508198Y-85406374D01*
X103498454Y-85415452D01*
X103490766Y-85413405D01*
X103464415Y-85403760D01*
X103425982Y-85388190D01*
X103380822Y-85368815D01*
X103286293Y-85330814D01*
X103149480Y-85289780D01*
X103008289Y-85264612D01*
X102970314Y-85260611D01*
X102867059Y-85258447D01*
X102779952Y-85271622D01*
X102708129Y-85300756D01*
X102650731Y-85346466D01*
X102606896Y-85409372D01*
X102575762Y-85490092D01*
X102556470Y-85589245D01*
X102549050Y-85648224D01*
X102710936Y-85641445D01*
X102837495Y-85639813D01*
X102988951Y-85646194D01*
X103137396Y-85660777D01*
X103273578Y-85682882D01*
X103338245Y-85697821D01*
X103470490Y-85740741D01*
X103592762Y-85797340D01*
X103702685Y-85866017D01*
X103797883Y-85945170D01*
X103875980Y-86033196D01*
X103934599Y-86128493D01*
X103958595Y-86180864D01*
X103984232Y-86251590D01*
X104000478Y-86322812D01*
X104008822Y-86401712D01*
X104010690Y-86492282D01*
X104010755Y-86495467D01*
X104010261Y-86529363D01*
X107556043Y-82878571D02*
X107459768Y-82902809D01*
X107459768Y-82902809D02*
X107373184Y-82945641D01*
X107373184Y-82945641D02*
X107298373Y-83005419D01*
X107298373Y-83005419D02*
X107237418Y-83080494D01*
X107237418Y-83080494D02*
X107192399Y-83169220D01*
X107192399Y-83169220D02*
X107166136Y-83265530D01*
X107166136Y-83265530D02*
X107160286Y-83362795D01*
X107160286Y-83362795D02*
X107175140Y-83456654D01*
X107175140Y-83456654D02*
X107208840Y-83544511D01*
X107208840Y-83544511D02*
X107259528Y-83623770D01*
X107259528Y-83623770D02*
X107325345Y-83691836D01*
X107325345Y-83691836D02*
X107404434Y-83746112D01*
X107404434Y-83746112D02*
X107494934Y-83784002D01*
X107494934Y-83784002D02*
X107546200Y-83796426D01*
X107546200Y-83796426D02*
X107590698Y-83803947D01*
X107590698Y-83803947D02*
X107624999Y-83806919D01*
X107624999Y-83806919D02*
X107657960Y-83805094D01*
X107657960Y-83805094D02*
X107698434Y-83798225D01*
X107698434Y-83798225D02*
X107731531Y-83791250D01*
X107731531Y-83791250D02*
X107824947Y-83759741D01*
X107824947Y-83759741D02*
X107908619Y-83708617D01*
X107908619Y-83708617D02*
X107980665Y-83639429D01*
X107980665Y-83639429D02*
X108039200Y-83553728D01*
X108039200Y-83553728D02*
X108053148Y-83526489D01*
X108053148Y-83526489D02*
X108069586Y-83490122D01*
X108069586Y-83490122D02*
X108079894Y-83459582D01*
X108079894Y-83459582D02*
X108085460Y-83427450D01*
X108085460Y-83427450D02*
X108087669Y-83386307D01*
X108087669Y-83386307D02*
X108087948Y-83340222D01*
X108087948Y-83340222D02*
X108083861Y-83255865D01*
X108083861Y-83255865D02*
X108070446Y-83186586D01*
X108070446Y-83186586D02*
X108045256Y-83125961D01*
X108045256Y-83125961D02*
X108005846Y-83067567D01*
X108005846Y-83067567D02*
X107967298Y-83023302D01*
X107967298Y-83023302D02*
X107895406Y-82957484D01*
X107895406Y-82957484D02*
X107820313Y-82912053D01*
X107820313Y-82912053D02*
X107737562Y-82884850D01*
X107737562Y-82884850D02*
X107659928Y-82874576D01*
X107659928Y-82874576D02*
X107556043Y-82878571D01*
X107556043Y-82878571D02*
X107556043Y-82878571D01*
G36*
X107737562Y-82884850D02*
G01*
X107820313Y-82912053D01*
X107895406Y-82957484D01*
X107967298Y-83023302D01*
X108005846Y-83067567D01*
X108045256Y-83125961D01*
X108070446Y-83186586D01*
X108083861Y-83255865D01*
X108087948Y-83340222D01*
X108087669Y-83386307D01*
X108085460Y-83427450D01*
X108079894Y-83459582D01*
X108069586Y-83490122D01*
X108053148Y-83526489D01*
X108039200Y-83553728D01*
X107980665Y-83639429D01*
X107908619Y-83708617D01*
X107824947Y-83759741D01*
X107731531Y-83791250D01*
X107698434Y-83798225D01*
X107657960Y-83805094D01*
X107624999Y-83806919D01*
X107590698Y-83803947D01*
X107546200Y-83796426D01*
X107494934Y-83784002D01*
X107404434Y-83746112D01*
X107325345Y-83691836D01*
X107259528Y-83623770D01*
X107208840Y-83544511D01*
X107175140Y-83456654D01*
X107160286Y-83362795D01*
X107166136Y-83265530D01*
X107192399Y-83169220D01*
X107237418Y-83080494D01*
X107298373Y-83005419D01*
X107373184Y-82945641D01*
X107459768Y-82902809D01*
X107556043Y-82878571D01*
X107659928Y-82874576D01*
X107737562Y-82884850D01*
G37*
X107737562Y-82884850D02*
X107820313Y-82912053D01*
X107895406Y-82957484D01*
X107967298Y-83023302D01*
X108005846Y-83067567D01*
X108045256Y-83125961D01*
X108070446Y-83186586D01*
X108083861Y-83255865D01*
X108087948Y-83340222D01*
X108087669Y-83386307D01*
X108085460Y-83427450D01*
X108079894Y-83459582D01*
X108069586Y-83490122D01*
X108053148Y-83526489D01*
X108039200Y-83553728D01*
X107980665Y-83639429D01*
X107908619Y-83708617D01*
X107824947Y-83759741D01*
X107731531Y-83791250D01*
X107698434Y-83798225D01*
X107657960Y-83805094D01*
X107624999Y-83806919D01*
X107590698Y-83803947D01*
X107546200Y-83796426D01*
X107494934Y-83784002D01*
X107404434Y-83746112D01*
X107325345Y-83691836D01*
X107259528Y-83623770D01*
X107208840Y-83544511D01*
X107175140Y-83456654D01*
X107160286Y-83362795D01*
X107166136Y-83265530D01*
X107192399Y-83169220D01*
X107237418Y-83080494D01*
X107298373Y-83005419D01*
X107373184Y-82945641D01*
X107459768Y-82902809D01*
X107556043Y-82878571D01*
X107659928Y-82874576D01*
X107737562Y-82884850D01*
X99096493Y-85324245D02*
X99096474Y-85558662D01*
X99096474Y-85558662D02*
X99096448Y-85771603D01*
X99096448Y-85771603D02*
X99096375Y-85964168D01*
X99096375Y-85964168D02*
X99096218Y-86137459D01*
X99096218Y-86137459D02*
X99095936Y-86292576D01*
X99095936Y-86292576D02*
X99095491Y-86430620D01*
X99095491Y-86430620D02*
X99094844Y-86552692D01*
X99094844Y-86552692D02*
X99093955Y-86659894D01*
X99093955Y-86659894D02*
X99092787Y-86753326D01*
X99092787Y-86753326D02*
X99091299Y-86834090D01*
X99091299Y-86834090D02*
X99089454Y-86903286D01*
X99089454Y-86903286D02*
X99087211Y-86962015D01*
X99087211Y-86962015D02*
X99084531Y-87011379D01*
X99084531Y-87011379D02*
X99081377Y-87052478D01*
X99081377Y-87052478D02*
X99077708Y-87086413D01*
X99077708Y-87086413D02*
X99073487Y-87114286D01*
X99073487Y-87114286D02*
X99068673Y-87137198D01*
X99068673Y-87137198D02*
X99063227Y-87156249D01*
X99063227Y-87156249D02*
X99057112Y-87172540D01*
X99057112Y-87172540D02*
X99050288Y-87187173D01*
X99050288Y-87187173D02*
X99042715Y-87201249D01*
X99042715Y-87201249D02*
X99034355Y-87215868D01*
X99034355Y-87215868D02*
X99029161Y-87224974D01*
X99029161Y-87224974D02*
X98994896Y-87285689D01*
X98994896Y-87285689D02*
X99853045Y-87285689D01*
X99853045Y-87285689D02*
X99853045Y-87189733D01*
X99853045Y-87189733D02*
X99853776Y-87146370D01*
X99853776Y-87146370D02*
X99855728Y-87113205D01*
X99855728Y-87113205D02*
X99858537Y-87095424D01*
X99858537Y-87095424D02*
X99859779Y-87093778D01*
X99859779Y-87093778D02*
X99871201Y-87100662D01*
X99871201Y-87100662D02*
X99893916Y-87118505D01*
X99893916Y-87118505D02*
X99916615Y-87137879D01*
X99916615Y-87137879D02*
X99971200Y-87178614D01*
X99971200Y-87178614D02*
X100040679Y-87219617D01*
X100040679Y-87219617D02*
X100117730Y-87257123D01*
X100117730Y-87257123D02*
X100195035Y-87287364D01*
X100195035Y-87287364D02*
X100225887Y-87297012D01*
X100225887Y-87297012D02*
X100294384Y-87311578D01*
X100294384Y-87311578D02*
X100377236Y-87321539D01*
X100377236Y-87321539D02*
X100466629Y-87326583D01*
X100466629Y-87326583D02*
X100554752Y-87326396D01*
X100554752Y-87326396D02*
X100633793Y-87320666D01*
X100633793Y-87320666D02*
X100671489Y-87314858D01*
X100671489Y-87314858D02*
X100809586Y-87276797D01*
X100809586Y-87276797D02*
X100936887Y-87219073D01*
X100936887Y-87219073D02*
X101052708Y-87142211D01*
X101052708Y-87142211D02*
X101156363Y-87046739D01*
X101156363Y-87046739D02*
X101247167Y-86933179D01*
X101247167Y-86933179D02*
X101313969Y-86822381D01*
X101313969Y-86822381D02*
X101368836Y-86705625D01*
X101368836Y-86705625D02*
X101410837Y-86586276D01*
X101410837Y-86586276D02*
X101440833Y-86460283D01*
X101440833Y-86460283D02*
X101459689Y-86323594D01*
X101459689Y-86323594D02*
X101468268Y-86172158D01*
X101468268Y-86172158D02*
X101468994Y-86094711D01*
X101468994Y-86094711D02*
X101466900Y-86037934D01*
X101466900Y-86037934D02*
X100637783Y-86037934D01*
X100637783Y-86037934D02*
X100637576Y-86131002D01*
X100637576Y-86131002D02*
X100634663Y-86218692D01*
X100634663Y-86218692D02*
X100629000Y-86295772D01*
X100629000Y-86295772D02*
X100620545Y-86357009D01*
X100620545Y-86357009D02*
X100617962Y-86369350D01*
X100617962Y-86369350D02*
X100586160Y-86476633D01*
X100586160Y-86476633D02*
X100544502Y-86563658D01*
X100544502Y-86563658D02*
X100492637Y-86630642D01*
X100492637Y-86630642D02*
X100430219Y-86677805D01*
X100430219Y-86677805D02*
X100356900Y-86705365D01*
X100356900Y-86705365D02*
X100272331Y-86713541D01*
X100272331Y-86713541D02*
X100176165Y-86702551D01*
X100176165Y-86702551D02*
X100112689Y-86686829D01*
X100112689Y-86686829D02*
X100063546Y-86668639D01*
X100063546Y-86668639D02*
X100009417Y-86642791D01*
X100009417Y-86642791D02*
X99968756Y-86619089D01*
X99968756Y-86619089D02*
X99898200Y-86572721D01*
X99898200Y-86572721D02*
X99898200Y-85422530D01*
X99898200Y-85422530D02*
X99965608Y-85378962D01*
X99965608Y-85378962D02*
X100044133Y-85338040D01*
X100044133Y-85338040D02*
X100128319Y-85311389D01*
X100128319Y-85311389D02*
X100213443Y-85299465D01*
X100213443Y-85299465D02*
X100294784Y-85302722D01*
X100294784Y-85302722D02*
X100367620Y-85321615D01*
X100367620Y-85321615D02*
X100399574Y-85337184D01*
X100399574Y-85337184D02*
X100457499Y-85380181D01*
X100457499Y-85380181D02*
X100506456Y-85436953D01*
X100506456Y-85436953D02*
X100547610Y-85509575D01*
X100547610Y-85509575D02*
X100582126Y-85600121D01*
X100582126Y-85600121D02*
X100611167Y-85710666D01*
X100611167Y-85710666D02*
X100612448Y-85716533D01*
X100612448Y-85716533D02*
X100622619Y-85778788D01*
X100622619Y-85778788D02*
X100630261Y-85856594D01*
X100630261Y-85856594D02*
X100635330Y-85944720D01*
X100635330Y-85944720D02*
X100637783Y-86037934D01*
X100637783Y-86037934D02*
X101466900Y-86037934D01*
X101466900Y-86037934D02*
X101461143Y-85881895D01*
X101461143Y-85881895D02*
X101439198Y-85686059D01*
X101439198Y-85686059D02*
X101403214Y-85507332D01*
X101403214Y-85507332D02*
X101353241Y-85345845D01*
X101353241Y-85345845D02*
X101289332Y-85201726D01*
X101289332Y-85201726D02*
X101211538Y-85075106D01*
X101211538Y-85075106D02*
X101119911Y-84966115D01*
X101119911Y-84966115D02*
X101014503Y-84874883D01*
X101014503Y-84874883D02*
X100969338Y-84843932D01*
X100969338Y-84843932D02*
X100868389Y-84787785D01*
X100868389Y-84787785D02*
X100765099Y-84748174D01*
X100765099Y-84748174D02*
X100655011Y-84724014D01*
X100655011Y-84724014D02*
X100533670Y-84714219D01*
X100533670Y-84714219D02*
X100441164Y-84715265D01*
X100441164Y-84715265D02*
X100311510Y-84726231D01*
X100311510Y-84726231D02*
X100198916Y-84748046D01*
X100198916Y-84748046D02*
X100100125Y-84781714D01*
X100100125Y-84781714D02*
X100011879Y-84828236D01*
X100011879Y-84828236D02*
X99963014Y-84862448D01*
X99963014Y-84862448D02*
X99933647Y-84884362D01*
X99933647Y-84884362D02*
X99911957Y-84899333D01*
X99911957Y-84899333D02*
X99903747Y-84903733D01*
X99903747Y-84903733D02*
X99902132Y-84892904D01*
X99902132Y-84892904D02*
X99900841Y-84862251D01*
X99900841Y-84862251D02*
X99899862Y-84814526D01*
X99899862Y-84814526D02*
X99899183Y-84752479D01*
X99899183Y-84752479D02*
X99898790Y-84678862D01*
X99898790Y-84678862D02*
X99898670Y-84596427D01*
X99898670Y-84596427D02*
X99898812Y-84507925D01*
X99898812Y-84507925D02*
X99899203Y-84416107D01*
X99899203Y-84416107D02*
X99899829Y-84323724D01*
X99899829Y-84323724D02*
X99900680Y-84233528D01*
X99900680Y-84233528D02*
X99901740Y-84148271D01*
X99901740Y-84148271D02*
X99902999Y-84070703D01*
X99902999Y-84070703D02*
X99904444Y-84003576D01*
X99904444Y-84003576D02*
X99906062Y-83949641D01*
X99906062Y-83949641D02*
X99907839Y-83911650D01*
X99907839Y-83911650D02*
X99908331Y-83904667D01*
X99908331Y-83904667D02*
X99915908Y-83834251D01*
X99915908Y-83834251D02*
X99927469Y-83779102D01*
X99927469Y-83779102D02*
X99945208Y-83731981D01*
X99945208Y-83731981D02*
X99971318Y-83685647D01*
X99971318Y-83685647D02*
X99977585Y-83676067D01*
X99977585Y-83676067D02*
X100002017Y-83639378D01*
X100002017Y-83639378D02*
X99096689Y-83639378D01*
X99096689Y-83639378D02*
X99096493Y-85324245D01*
X99096493Y-85324245D02*
X99096493Y-85324245D01*
G36*
X101468268Y-86172158D02*
G01*
X101459689Y-86323594D01*
X101440833Y-86460283D01*
X101410837Y-86586276D01*
X101368836Y-86705625D01*
X101313969Y-86822381D01*
X101247167Y-86933179D01*
X101156363Y-87046739D01*
X101052708Y-87142211D01*
X100936887Y-87219073D01*
X100809586Y-87276797D01*
X100671489Y-87314858D01*
X100633793Y-87320666D01*
X100554752Y-87326396D01*
X100466629Y-87326583D01*
X100377236Y-87321539D01*
X100294384Y-87311578D01*
X100225887Y-87297012D01*
X100195035Y-87287364D01*
X100117730Y-87257123D01*
X100040679Y-87219617D01*
X99971200Y-87178614D01*
X99916615Y-87137879D01*
X99893916Y-87118505D01*
X99871201Y-87100662D01*
X99859779Y-87093778D01*
X99858537Y-87095424D01*
X99855728Y-87113205D01*
X99853776Y-87146370D01*
X99853045Y-87189733D01*
X99853045Y-87285689D01*
X98994896Y-87285689D01*
X99029161Y-87224974D01*
X99034355Y-87215868D01*
X99042715Y-87201249D01*
X99050288Y-87187173D01*
X99057112Y-87172540D01*
X99063227Y-87156249D01*
X99068673Y-87137198D01*
X99073487Y-87114286D01*
X99077708Y-87086413D01*
X99081377Y-87052478D01*
X99084531Y-87011379D01*
X99087211Y-86962015D01*
X99089454Y-86903286D01*
X99091299Y-86834090D01*
X99092787Y-86753326D01*
X99093955Y-86659894D01*
X99094678Y-86572721D01*
X99898200Y-86572721D01*
X99968756Y-86619089D01*
X100009417Y-86642791D01*
X100063546Y-86668639D01*
X100112689Y-86686829D01*
X100176165Y-86702551D01*
X100272331Y-86713541D01*
X100356900Y-86705365D01*
X100430219Y-86677805D01*
X100492637Y-86630642D01*
X100544502Y-86563658D01*
X100586160Y-86476633D01*
X100617962Y-86369350D01*
X100620545Y-86357009D01*
X100629000Y-86295772D01*
X100634663Y-86218692D01*
X100637576Y-86131002D01*
X100637783Y-86037934D01*
X100635330Y-85944720D01*
X100630261Y-85856594D01*
X100622619Y-85778788D01*
X100612448Y-85716533D01*
X100611167Y-85710666D01*
X100582126Y-85600121D01*
X100547610Y-85509575D01*
X100506456Y-85436953D01*
X100457499Y-85380181D01*
X100399574Y-85337184D01*
X100367620Y-85321615D01*
X100294784Y-85302722D01*
X100213443Y-85299465D01*
X100128319Y-85311389D01*
X100044133Y-85338040D01*
X99965608Y-85378962D01*
X99898200Y-85422530D01*
X99898200Y-86572721D01*
X99094678Y-86572721D01*
X99094844Y-86552692D01*
X99095491Y-86430620D01*
X99095936Y-86292576D01*
X99096218Y-86137459D01*
X99096375Y-85964168D01*
X99096448Y-85771603D01*
X99096474Y-85558662D01*
X99096493Y-85324245D01*
X99096689Y-83639378D01*
X100002017Y-83639378D01*
X99977585Y-83676067D01*
X99971318Y-83685647D01*
X99945208Y-83731981D01*
X99927469Y-83779102D01*
X99915908Y-83834251D01*
X99908331Y-83904667D01*
X99907839Y-83911650D01*
X99906062Y-83949641D01*
X99904444Y-84003576D01*
X99902999Y-84070703D01*
X99901740Y-84148271D01*
X99900680Y-84233528D01*
X99899829Y-84323724D01*
X99899203Y-84416107D01*
X99898812Y-84507925D01*
X99898670Y-84596427D01*
X99898790Y-84678862D01*
X99899183Y-84752479D01*
X99899862Y-84814526D01*
X99900841Y-84862251D01*
X99902132Y-84892904D01*
X99903747Y-84903733D01*
X99911957Y-84899333D01*
X99933647Y-84884362D01*
X99963014Y-84862448D01*
X100011879Y-84828236D01*
X100100125Y-84781714D01*
X100198916Y-84748046D01*
X100311510Y-84726231D01*
X100441164Y-84715265D01*
X100533670Y-84714219D01*
X100655011Y-84724014D01*
X100765099Y-84748174D01*
X100868389Y-84787785D01*
X100969338Y-84843932D01*
X101014503Y-84874883D01*
X101119911Y-84966115D01*
X101211538Y-85075106D01*
X101289332Y-85201726D01*
X101353241Y-85345845D01*
X101403214Y-85507332D01*
X101439198Y-85686059D01*
X101461143Y-85881895D01*
X101466900Y-86037934D01*
X101468994Y-86094711D01*
X101468268Y-86172158D01*
G37*
X101468268Y-86172158D02*
X101459689Y-86323594D01*
X101440833Y-86460283D01*
X101410837Y-86586276D01*
X101368836Y-86705625D01*
X101313969Y-86822381D01*
X101247167Y-86933179D01*
X101156363Y-87046739D01*
X101052708Y-87142211D01*
X100936887Y-87219073D01*
X100809586Y-87276797D01*
X100671489Y-87314858D01*
X100633793Y-87320666D01*
X100554752Y-87326396D01*
X100466629Y-87326583D01*
X100377236Y-87321539D01*
X100294384Y-87311578D01*
X100225887Y-87297012D01*
X100195035Y-87287364D01*
X100117730Y-87257123D01*
X100040679Y-87219617D01*
X99971200Y-87178614D01*
X99916615Y-87137879D01*
X99893916Y-87118505D01*
X99871201Y-87100662D01*
X99859779Y-87093778D01*
X99858537Y-87095424D01*
X99855728Y-87113205D01*
X99853776Y-87146370D01*
X99853045Y-87189733D01*
X99853045Y-87285689D01*
X98994896Y-87285689D01*
X99029161Y-87224974D01*
X99034355Y-87215868D01*
X99042715Y-87201249D01*
X99050288Y-87187173D01*
X99057112Y-87172540D01*
X99063227Y-87156249D01*
X99068673Y-87137198D01*
X99073487Y-87114286D01*
X99077708Y-87086413D01*
X99081377Y-87052478D01*
X99084531Y-87011379D01*
X99087211Y-86962015D01*
X99089454Y-86903286D01*
X99091299Y-86834090D01*
X99092787Y-86753326D01*
X99093955Y-86659894D01*
X99094678Y-86572721D01*
X99898200Y-86572721D01*
X99968756Y-86619089D01*
X100009417Y-86642791D01*
X100063546Y-86668639D01*
X100112689Y-86686829D01*
X100176165Y-86702551D01*
X100272331Y-86713541D01*
X100356900Y-86705365D01*
X100430219Y-86677805D01*
X100492637Y-86630642D01*
X100544502Y-86563658D01*
X100586160Y-86476633D01*
X100617962Y-86369350D01*
X100620545Y-86357009D01*
X100629000Y-86295772D01*
X100634663Y-86218692D01*
X100637576Y-86131002D01*
X100637783Y-86037934D01*
X100635330Y-85944720D01*
X100630261Y-85856594D01*
X100622619Y-85778788D01*
X100612448Y-85716533D01*
X100611167Y-85710666D01*
X100582126Y-85600121D01*
X100547610Y-85509575D01*
X100506456Y-85436953D01*
X100457499Y-85380181D01*
X100399574Y-85337184D01*
X100367620Y-85321615D01*
X100294784Y-85302722D01*
X100213443Y-85299465D01*
X100128319Y-85311389D01*
X100044133Y-85338040D01*
X99965608Y-85378962D01*
X99898200Y-85422530D01*
X99898200Y-86572721D01*
X99094678Y-86572721D01*
X99094844Y-86552692D01*
X99095491Y-86430620D01*
X99095936Y-86292576D01*
X99096218Y-86137459D01*
X99096375Y-85964168D01*
X99096448Y-85771603D01*
X99096474Y-85558662D01*
X99096493Y-85324245D01*
X99096689Y-83639378D01*
X100002017Y-83639378D01*
X99977585Y-83676067D01*
X99971318Y-83685647D01*
X99945208Y-83731981D01*
X99927469Y-83779102D01*
X99915908Y-83834251D01*
X99908331Y-83904667D01*
X99907839Y-83911650D01*
X99906062Y-83949641D01*
X99904444Y-84003576D01*
X99902999Y-84070703D01*
X99901740Y-84148271D01*
X99900680Y-84233528D01*
X99899829Y-84323724D01*
X99899203Y-84416107D01*
X99898812Y-84507925D01*
X99898670Y-84596427D01*
X99898790Y-84678862D01*
X99899183Y-84752479D01*
X99899862Y-84814526D01*
X99900841Y-84862251D01*
X99902132Y-84892904D01*
X99903747Y-84903733D01*
X99911957Y-84899333D01*
X99933647Y-84884362D01*
X99963014Y-84862448D01*
X100011879Y-84828236D01*
X100100125Y-84781714D01*
X100198916Y-84748046D01*
X100311510Y-84726231D01*
X100441164Y-84715265D01*
X100533670Y-84714219D01*
X100655011Y-84724014D01*
X100765099Y-84748174D01*
X100868389Y-84787785D01*
X100969338Y-84843932D01*
X101014503Y-84874883D01*
X101119911Y-84966115D01*
X101211538Y-85075106D01*
X101289332Y-85201726D01*
X101353241Y-85345845D01*
X101403214Y-85507332D01*
X101439198Y-85686059D01*
X101461143Y-85881895D01*
X101466900Y-86037934D01*
X101468994Y-86094711D01*
X101468268Y-86172158D01*
X108229400Y-83341054D02*
X108218535Y-83454993D01*
X108218535Y-83454993D02*
X108186918Y-83562616D01*
X108186918Y-83562616D02*
X108136015Y-83661615D01*
X108136015Y-83661615D02*
X108067293Y-83749684D01*
X108067293Y-83749684D02*
X107982219Y-83824516D01*
X107982219Y-83824516D02*
X107885232Y-83882384D01*
X107885232Y-83882384D02*
X107778964Y-83922005D01*
X107778964Y-83922005D02*
X107671950Y-83940573D01*
X107671950Y-83940573D02*
X107566300Y-83939434D01*
X107566300Y-83939434D02*
X107464125Y-83919930D01*
X107464125Y-83919930D02*
X107367534Y-83883406D01*
X107367534Y-83883406D02*
X107278638Y-83831205D01*
X107278638Y-83831205D02*
X107199546Y-83764673D01*
X107199546Y-83764673D02*
X107132369Y-83685152D01*
X107132369Y-83685152D02*
X107079217Y-83593987D01*
X107079217Y-83593987D02*
X107042199Y-83492523D01*
X107042199Y-83492523D02*
X107023427Y-83382102D01*
X107023427Y-83382102D02*
X107021489Y-83332206D01*
X107021489Y-83332206D02*
X107021489Y-83244267D01*
X107021489Y-83244267D02*
X106969560Y-83244267D01*
X106969560Y-83244267D02*
X106933253Y-83247111D01*
X106933253Y-83247111D02*
X106906355Y-83258911D01*
X106906355Y-83258911D02*
X106879249Y-83282649D01*
X106879249Y-83282649D02*
X106840867Y-83321031D01*
X106840867Y-83321031D02*
X106840867Y-85512602D01*
X106840867Y-85512602D02*
X106840876Y-85774739D01*
X106840876Y-85774739D02*
X106840908Y-86015241D01*
X106840908Y-86015241D02*
X106840972Y-86235048D01*
X106840972Y-86235048D02*
X106841076Y-86435101D01*
X106841076Y-86435101D02*
X106841227Y-86616344D01*
X106841227Y-86616344D02*
X106841434Y-86779716D01*
X106841434Y-86779716D02*
X106841706Y-86926160D01*
X106841706Y-86926160D02*
X106842050Y-87056617D01*
X106842050Y-87056617D02*
X106842474Y-87172029D01*
X106842474Y-87172029D02*
X106842987Y-87273338D01*
X106842987Y-87273338D02*
X106843597Y-87361484D01*
X106843597Y-87361484D02*
X106844312Y-87437410D01*
X106844312Y-87437410D02*
X106845140Y-87502057D01*
X106845140Y-87502057D02*
X106846089Y-87556367D01*
X106846089Y-87556367D02*
X106847167Y-87601280D01*
X106847167Y-87601280D02*
X106848383Y-87637740D01*
X106848383Y-87637740D02*
X106849745Y-87666687D01*
X106849745Y-87666687D02*
X106851261Y-87689063D01*
X106851261Y-87689063D02*
X106852938Y-87705809D01*
X106852938Y-87705809D02*
X106854786Y-87717868D01*
X106854786Y-87717868D02*
X106856813Y-87726180D01*
X106856813Y-87726180D02*
X106859025Y-87731687D01*
X106859025Y-87731687D02*
X106860108Y-87733537D01*
X106860108Y-87733537D02*
X106864271Y-87740549D01*
X106864271Y-87740549D02*
X106867805Y-87746996D01*
X106867805Y-87746996D02*
X106871635Y-87752900D01*
X106871635Y-87752900D02*
X106876682Y-87758286D01*
X106876682Y-87758286D02*
X106883871Y-87763178D01*
X106883871Y-87763178D02*
X106894123Y-87767598D01*
X106894123Y-87767598D02*
X106908364Y-87771572D01*
X106908364Y-87771572D02*
X106927514Y-87775121D01*
X106927514Y-87775121D02*
X106952499Y-87778270D01*
X106952499Y-87778270D02*
X106984240Y-87781042D01*
X106984240Y-87781042D02*
X107023662Y-87783461D01*
X107023662Y-87783461D02*
X107071686Y-87785551D01*
X107071686Y-87785551D02*
X107129237Y-87787335D01*
X107129237Y-87787335D02*
X107197237Y-87788837D01*
X107197237Y-87788837D02*
X107276610Y-87790080D01*
X107276610Y-87790080D02*
X107368279Y-87791089D01*
X107368279Y-87791089D02*
X107473166Y-87791885D01*
X107473166Y-87791885D02*
X107592196Y-87792494D01*
X107592196Y-87792494D02*
X107726290Y-87792939D01*
X107726290Y-87792939D02*
X107876373Y-87793243D01*
X107876373Y-87793243D02*
X108043367Y-87793430D01*
X108043367Y-87793430D02*
X108228196Y-87793524D01*
X108228196Y-87793524D02*
X108431783Y-87793548D01*
X108431783Y-87793548D02*
X108655050Y-87793525D01*
X108655050Y-87793525D02*
X108898922Y-87793480D01*
X108898922Y-87793480D02*
X109164321Y-87793437D01*
X109164321Y-87793437D02*
X109202704Y-87793432D01*
X109202704Y-87793432D02*
X109469682Y-87793389D01*
X109469682Y-87793389D02*
X109715002Y-87793318D01*
X109715002Y-87793318D02*
X109939583Y-87793213D01*
X109939583Y-87793213D02*
X110144345Y-87793066D01*
X110144345Y-87793066D02*
X110330206Y-87792869D01*
X110330206Y-87792869D02*
X110498088Y-87792616D01*
X110498088Y-87792616D02*
X110648908Y-87792300D01*
X110648908Y-87792300D02*
X110783587Y-87791913D01*
X110783587Y-87791913D02*
X110903044Y-87791447D01*
X110903044Y-87791447D02*
X111008199Y-87790897D01*
X111008199Y-87790897D02*
X111099971Y-87790253D01*
X111099971Y-87790253D02*
X111179279Y-87789511D01*
X111179279Y-87789511D02*
X111247043Y-87788661D01*
X111247043Y-87788661D02*
X111304182Y-87787697D01*
X111304182Y-87787697D02*
X111351617Y-87786611D01*
X111351617Y-87786611D02*
X111390266Y-87785397D01*
X111390266Y-87785397D02*
X111421049Y-87784047D01*
X111421049Y-87784047D02*
X111444885Y-87782555D01*
X111444885Y-87782555D02*
X111462694Y-87780911D01*
X111462694Y-87780911D02*
X111475395Y-87779111D01*
X111475395Y-87779111D02*
X111483908Y-87777145D01*
X111483908Y-87777145D02*
X111488266Y-87775477D01*
X111488266Y-87775477D02*
X111496728Y-87771906D01*
X111496728Y-87771906D02*
X111504497Y-87769270D01*
X111504497Y-87769270D02*
X111511602Y-87766634D01*
X111511602Y-87766634D02*
X111518073Y-87763062D01*
X111518073Y-87763062D02*
X111523939Y-87757621D01*
X111523939Y-87757621D02*
X111529229Y-87749375D01*
X111529229Y-87749375D02*
X111533974Y-87737390D01*
X111533974Y-87737390D02*
X111538202Y-87720731D01*
X111538202Y-87720731D02*
X111541943Y-87698463D01*
X111541943Y-87698463D02*
X111545227Y-87669652D01*
X111545227Y-87669652D02*
X111548083Y-87633363D01*
X111548083Y-87633363D02*
X111550540Y-87588661D01*
X111550540Y-87588661D02*
X111552629Y-87534611D01*
X111552629Y-87534611D02*
X111554378Y-87470279D01*
X111554378Y-87470279D02*
X111555817Y-87394730D01*
X111555817Y-87394730D02*
X111556976Y-87307030D01*
X111556976Y-87307030D02*
X111557883Y-87206243D01*
X111557883Y-87206243D02*
X111558569Y-87091434D01*
X111558569Y-87091434D02*
X111559063Y-86961670D01*
X111559063Y-86961670D02*
X111559395Y-86816015D01*
X111559395Y-86816015D02*
X111559593Y-86653535D01*
X111559593Y-86653535D02*
X111559687Y-86473295D01*
X111559687Y-86473295D02*
X111559708Y-86274360D01*
X111559708Y-86274360D02*
X111559685Y-86055796D01*
X111559685Y-86055796D02*
X111559646Y-85816668D01*
X111559646Y-85816668D02*
X111559622Y-85556040D01*
X111559622Y-85556040D02*
X111559622Y-85513889D01*
X111559622Y-85513889D02*
X111559636Y-85250992D01*
X111559636Y-85250992D02*
X111559661Y-85009732D01*
X111559661Y-85009732D02*
X111559671Y-84789165D01*
X111559671Y-84789165D02*
X111559642Y-84588352D01*
X111559642Y-84588352D02*
X111559548Y-84406349D01*
X111559548Y-84406349D02*
X111559362Y-84242216D01*
X111559362Y-84242216D02*
X111559059Y-84095011D01*
X111559059Y-84095011D02*
X111558614Y-83963792D01*
X111558614Y-83963792D02*
X111558034Y-83853867D01*
X111558034Y-83853867D02*
X111255197Y-83853867D01*
X111255197Y-83853867D02*
X111215407Y-83911711D01*
X111215407Y-83911711D02*
X111204236Y-83927479D01*
X111204236Y-83927479D02*
X111194166Y-83941441D01*
X111194166Y-83941441D02*
X111185138Y-83954784D01*
X111185138Y-83954784D02*
X111177097Y-83968693D01*
X111177097Y-83968693D02*
X111169986Y-83984356D01*
X111169986Y-83984356D02*
X111163747Y-84002958D01*
X111163747Y-84002958D02*
X111158325Y-84025686D01*
X111158325Y-84025686D02*
X111153662Y-84053727D01*
X111153662Y-84053727D02*
X111149701Y-84088267D01*
X111149701Y-84088267D02*
X111146385Y-84130492D01*
X111146385Y-84130492D02*
X111143659Y-84181589D01*
X111143659Y-84181589D02*
X111141464Y-84242744D01*
X111141464Y-84242744D02*
X111139745Y-84315144D01*
X111139745Y-84315144D02*
X111138444Y-84399975D01*
X111138444Y-84399975D02*
X111137505Y-84498422D01*
X111137505Y-84498422D02*
X111136870Y-84611674D01*
X111136870Y-84611674D02*
X111136484Y-84740916D01*
X111136484Y-84740916D02*
X111136288Y-84887334D01*
X111136288Y-84887334D02*
X111136227Y-85052116D01*
X111136227Y-85052116D02*
X111136243Y-85236447D01*
X111136243Y-85236447D02*
X111136280Y-85441513D01*
X111136280Y-85441513D02*
X111136289Y-85564133D01*
X111136289Y-85564133D02*
X111136265Y-85781082D01*
X111136265Y-85781082D02*
X111136231Y-85976642D01*
X111136231Y-85976642D02*
X111136243Y-86151999D01*
X111136243Y-86151999D02*
X111136358Y-86308341D01*
X111136358Y-86308341D02*
X111136630Y-86446857D01*
X111136630Y-86446857D02*
X111137118Y-86568734D01*
X111137118Y-86568734D02*
X111137876Y-86675160D01*
X111137876Y-86675160D02*
X111138962Y-86767322D01*
X111138962Y-86767322D02*
X111140431Y-86846409D01*
X111140431Y-86846409D02*
X111142340Y-86913608D01*
X111142340Y-86913608D02*
X111144744Y-86970107D01*
X111144744Y-86970107D02*
X111147701Y-87017093D01*
X111147701Y-87017093D02*
X111151266Y-87055755D01*
X111151266Y-87055755D02*
X111155495Y-87087280D01*
X111155495Y-87087280D02*
X111160446Y-87112855D01*
X111160446Y-87112855D02*
X111166173Y-87133670D01*
X111166173Y-87133670D02*
X111172733Y-87150911D01*
X111172733Y-87150911D02*
X111180183Y-87165765D01*
X111180183Y-87165765D02*
X111188579Y-87179422D01*
X111188579Y-87179422D02*
X111197976Y-87193069D01*
X111197976Y-87193069D02*
X111208432Y-87207893D01*
X111208432Y-87207893D02*
X111214523Y-87216783D01*
X111214523Y-87216783D02*
X111253296Y-87274400D01*
X111253296Y-87274400D02*
X110721732Y-87274400D01*
X110721732Y-87274400D02*
X110598483Y-87274365D01*
X110598483Y-87274365D02*
X110495987Y-87274215D01*
X110495987Y-87274215D02*
X110412420Y-87273878D01*
X110412420Y-87273878D02*
X110345956Y-87273286D01*
X110345956Y-87273286D02*
X110294771Y-87272367D01*
X110294771Y-87272367D02*
X110257041Y-87271051D01*
X110257041Y-87271051D02*
X110230940Y-87269269D01*
X110230940Y-87269269D02*
X110214644Y-87266951D01*
X110214644Y-87266951D02*
X110206328Y-87264026D01*
X110206328Y-87264026D02*
X110204168Y-87260424D01*
X110204168Y-87260424D02*
X110206339Y-87256075D01*
X110206339Y-87256075D02*
X110207535Y-87254645D01*
X110207535Y-87254645D02*
X110232685Y-87217573D01*
X110232685Y-87217573D02*
X110258583Y-87164772D01*
X110258583Y-87164772D02*
X110282192Y-87102770D01*
X110282192Y-87102770D02*
X110290461Y-87076357D01*
X110290461Y-87076357D02*
X110295078Y-87058416D01*
X110295078Y-87058416D02*
X110298979Y-87037355D01*
X110298979Y-87037355D02*
X110302248Y-87011089D01*
X110302248Y-87011089D02*
X110304966Y-86977532D01*
X110304966Y-86977532D02*
X110307215Y-86934599D01*
X110307215Y-86934599D02*
X110309077Y-86880204D01*
X110309077Y-86880204D02*
X110310636Y-86812262D01*
X110310636Y-86812262D02*
X110311972Y-86728688D01*
X110311972Y-86728688D02*
X110313169Y-86627395D01*
X110313169Y-86627395D02*
X110314308Y-86506300D01*
X110314308Y-86506300D02*
X110314685Y-86461600D01*
X110314685Y-86461600D02*
X110315702Y-86336449D01*
X110315702Y-86336449D02*
X110316460Y-86232082D01*
X110316460Y-86232082D02*
X110316903Y-86146707D01*
X110316903Y-86146707D02*
X110316970Y-86078533D01*
X110316970Y-86078533D02*
X110316605Y-86025765D01*
X110316605Y-86025765D02*
X110315748Y-85986614D01*
X110315748Y-85986614D02*
X110314341Y-85959285D01*
X110314341Y-85959285D02*
X110312325Y-85941986D01*
X110312325Y-85941986D02*
X110309643Y-85932926D01*
X110309643Y-85932926D02*
X110306236Y-85930312D01*
X110306236Y-85930312D02*
X110302044Y-85932351D01*
X110302044Y-85932351D02*
X110297571Y-85936667D01*
X110297571Y-85936667D02*
X110287216Y-85949602D01*
X110287216Y-85949602D02*
X110265158Y-85978676D01*
X110265158Y-85978676D02*
X110232957Y-86021759D01*
X110232957Y-86021759D02*
X110192174Y-86076718D01*
X110192174Y-86076718D02*
X110144370Y-86141423D01*
X110144370Y-86141423D02*
X110091105Y-86213742D01*
X110091105Y-86213742D02*
X110033940Y-86291544D01*
X110033940Y-86291544D02*
X109974437Y-86372698D01*
X109974437Y-86372698D02*
X109914155Y-86455072D01*
X109914155Y-86455072D02*
X109854655Y-86536536D01*
X109854655Y-86536536D02*
X109797498Y-86614957D01*
X109797498Y-86614957D02*
X109744245Y-86688204D01*
X109744245Y-86688204D02*
X109696457Y-86754147D01*
X109696457Y-86754147D02*
X109655693Y-86810654D01*
X109655693Y-86810654D02*
X109623516Y-86855593D01*
X109623516Y-86855593D02*
X109601485Y-86886834D01*
X109601485Y-86886834D02*
X109596917Y-86893466D01*
X109596917Y-86893466D02*
X109573996Y-86930369D01*
X109573996Y-86930369D02*
X109547188Y-86978359D01*
X109547188Y-86978359D02*
X109521789Y-87027897D01*
X109521789Y-87027897D02*
X109518568Y-87034577D01*
X109518568Y-87034577D02*
X109496890Y-87082772D01*
X109496890Y-87082772D02*
X109484304Y-87120334D01*
X109484304Y-87120334D02*
X109478574Y-87156160D01*
X109478574Y-87156160D02*
X109477456Y-87198200D01*
X109477456Y-87198200D02*
X109478090Y-87274400D01*
X109478090Y-87274400D02*
X108323651Y-87274400D01*
X108323651Y-87274400D02*
X108414815Y-87180669D01*
X108414815Y-87180669D02*
X108461612Y-87130775D01*
X108461612Y-87130775D02*
X108511899Y-87074295D01*
X108511899Y-87074295D02*
X108557944Y-87020026D01*
X108557944Y-87020026D02*
X108578369Y-86994673D01*
X108578369Y-86994673D02*
X108608807Y-86955128D01*
X108608807Y-86955128D02*
X108648862Y-86901916D01*
X108648862Y-86901916D02*
X108697361Y-86836667D01*
X108697361Y-86836667D02*
X108753135Y-86761011D01*
X108753135Y-86761011D02*
X108815011Y-86676577D01*
X108815011Y-86676577D02*
X108881819Y-86584994D01*
X108881819Y-86584994D02*
X108952387Y-86487892D01*
X108952387Y-86487892D02*
X109025545Y-86386901D01*
X109025545Y-86386901D02*
X109100121Y-86283650D01*
X109100121Y-86283650D02*
X109174944Y-86179768D01*
X109174944Y-86179768D02*
X109248843Y-86076885D01*
X109248843Y-86076885D02*
X109320646Y-85976631D01*
X109320646Y-85976631D02*
X109389184Y-85880636D01*
X109389184Y-85880636D02*
X109453284Y-85790527D01*
X109453284Y-85790527D02*
X109511775Y-85707936D01*
X109511775Y-85707936D02*
X109563486Y-85634492D01*
X109563486Y-85634492D02*
X109607247Y-85571824D01*
X109607247Y-85571824D02*
X109641885Y-85521561D01*
X109641885Y-85521561D02*
X109666230Y-85485334D01*
X109666230Y-85485334D02*
X109679111Y-85464771D01*
X109679111Y-85464771D02*
X109680869Y-85460668D01*
X109680869Y-85460668D02*
X109672910Y-85449342D01*
X109672910Y-85449342D02*
X109652115Y-85422162D01*
X109652115Y-85422162D02*
X109619847Y-85380829D01*
X109619847Y-85380829D02*
X109577470Y-85327044D01*
X109577470Y-85327044D02*
X109526347Y-85262506D01*
X109526347Y-85262506D02*
X109467841Y-85188918D01*
X109467841Y-85188918D02*
X109403314Y-85107978D01*
X109403314Y-85107978D02*
X109334131Y-85021388D01*
X109334131Y-85021388D02*
X109261653Y-84930848D01*
X109261653Y-84930848D02*
X109187246Y-84838060D01*
X109187246Y-84838060D02*
X109127517Y-84763702D01*
X109127517Y-84763702D02*
X108116511Y-84763702D01*
X108116511Y-84763702D02*
X108110602Y-84776659D01*
X108110602Y-84776659D02*
X108096272Y-84798908D01*
X108096272Y-84798908D02*
X108095225Y-84800391D01*
X108095225Y-84800391D02*
X108076438Y-84830544D01*
X108076438Y-84830544D02*
X108056791Y-84867375D01*
X108056791Y-84867375D02*
X108052892Y-84875511D01*
X108052892Y-84875511D02*
X108049356Y-84883940D01*
X108049356Y-84883940D02*
X108046230Y-84894059D01*
X108046230Y-84894059D02*
X108043486Y-84907260D01*
X108043486Y-84907260D02*
X108041092Y-84924938D01*
X108041092Y-84924938D02*
X108039019Y-84948484D01*
X108039019Y-84948484D02*
X108037235Y-84979293D01*
X108037235Y-84979293D02*
X108035712Y-85018757D01*
X108035712Y-85018757D02*
X108034419Y-85068269D01*
X108034419Y-85068269D02*
X108033326Y-85129223D01*
X108033326Y-85129223D02*
X108032403Y-85203011D01*
X108032403Y-85203011D02*
X108031619Y-85291028D01*
X108031619Y-85291028D02*
X108030945Y-85394665D01*
X108030945Y-85394665D02*
X108030350Y-85515316D01*
X108030350Y-85515316D02*
X108029805Y-85654374D01*
X108029805Y-85654374D02*
X108029279Y-85813232D01*
X108029279Y-85813232D02*
X108028745Y-85992089D01*
X108028745Y-85992089D02*
X108028206Y-86177207D01*
X108028206Y-86177207D02*
X108027772Y-86341145D01*
X108027772Y-86341145D02*
X108027509Y-86485303D01*
X108027509Y-86485303D02*
X108027484Y-86611079D01*
X108027484Y-86611079D02*
X108027765Y-86719871D01*
X108027765Y-86719871D02*
X108028419Y-86813077D01*
X108028419Y-86813077D02*
X108029514Y-86892097D01*
X108029514Y-86892097D02*
X108031118Y-86958328D01*
X108031118Y-86958328D02*
X108033297Y-87013170D01*
X108033297Y-87013170D02*
X108036119Y-87058021D01*
X108036119Y-87058021D02*
X108039651Y-87094278D01*
X108039651Y-87094278D02*
X108043961Y-87123341D01*
X108043961Y-87123341D02*
X108049117Y-87146609D01*
X108049117Y-87146609D02*
X108055185Y-87165479D01*
X108055185Y-87165479D02*
X108062233Y-87181351D01*
X108062233Y-87181351D02*
X108070329Y-87195622D01*
X108070329Y-87195622D02*
X108079540Y-87209691D01*
X108079540Y-87209691D02*
X108088040Y-87222158D01*
X108088040Y-87222158D02*
X108105176Y-87248452D01*
X108105176Y-87248452D02*
X108115322Y-87266037D01*
X108115322Y-87266037D02*
X108116511Y-87269257D01*
X108116511Y-87269257D02*
X108105604Y-87270334D01*
X108105604Y-87270334D02*
X108074411Y-87271335D01*
X108074411Y-87271335D02*
X108025223Y-87272235D01*
X108025223Y-87272235D02*
X107960333Y-87273010D01*
X107960333Y-87273010D02*
X107882030Y-87273637D01*
X107882030Y-87273637D02*
X107792607Y-87274091D01*
X107792607Y-87274091D02*
X107694356Y-87274349D01*
X107694356Y-87274349D02*
X107625445Y-87274400D01*
X107625445Y-87274400D02*
X107520452Y-87274180D01*
X107520452Y-87274180D02*
X107423610Y-87273548D01*
X107423610Y-87273548D02*
X107337107Y-87272549D01*
X107337107Y-87272549D02*
X107263132Y-87271227D01*
X107263132Y-87271227D02*
X107203874Y-87269626D01*
X107203874Y-87269626D02*
X107161520Y-87267791D01*
X107161520Y-87267791D02*
X107138260Y-87265765D01*
X107138260Y-87265765D02*
X107134378Y-87264493D01*
X107134378Y-87264493D02*
X107142076Y-87249591D01*
X107142076Y-87249591D02*
X107150074Y-87241560D01*
X107150074Y-87241560D02*
X107163246Y-87224434D01*
X107163246Y-87224434D02*
X107180485Y-87194183D01*
X107180485Y-87194183D02*
X107192407Y-87169622D01*
X107192407Y-87169622D02*
X107219045Y-87110711D01*
X107219045Y-87110711D02*
X107222120Y-85933845D01*
X107222120Y-85933845D02*
X107225195Y-84756978D01*
X107225195Y-84756978D02*
X107670853Y-84756978D01*
X107670853Y-84756978D02*
X107768670Y-84757142D01*
X107768670Y-84757142D02*
X107859064Y-84757611D01*
X107859064Y-84757611D02*
X107939630Y-84758347D01*
X107939630Y-84758347D02*
X108007962Y-84759316D01*
X108007962Y-84759316D02*
X108061656Y-84760480D01*
X108061656Y-84760480D02*
X108098305Y-84761803D01*
X108098305Y-84761803D02*
X108115504Y-84763249D01*
X108115504Y-84763249D02*
X108116511Y-84763702D01*
X108116511Y-84763702D02*
X109127517Y-84763702D01*
X109127517Y-84763702D02*
X109112270Y-84744722D01*
X109112270Y-84744722D02*
X109038090Y-84652537D01*
X109038090Y-84652537D02*
X108966069Y-84563204D01*
X108966069Y-84563204D02*
X108897569Y-84478424D01*
X108897569Y-84478424D02*
X108833955Y-84399898D01*
X108833955Y-84399898D02*
X108776588Y-84329326D01*
X108776588Y-84329326D02*
X108726833Y-84268409D01*
X108726833Y-84268409D02*
X108686052Y-84218847D01*
X108686052Y-84218847D02*
X108668888Y-84198178D01*
X108668888Y-84198178D02*
X108582596Y-84097516D01*
X108582596Y-84097516D02*
X108505997Y-84014259D01*
X108505997Y-84014259D02*
X108437183Y-83946438D01*
X108437183Y-83946438D02*
X108374248Y-83892089D01*
X108374248Y-83892089D02*
X108364867Y-83884722D01*
X108364867Y-83884722D02*
X108325356Y-83854117D01*
X108325356Y-83854117D02*
X109457116Y-83853867D01*
X109457116Y-83853867D02*
X109451827Y-83901844D01*
X109451827Y-83901844D02*
X109455130Y-83959188D01*
X109455130Y-83959188D02*
X109476661Y-84027463D01*
X109476661Y-84027463D02*
X109516635Y-84107212D01*
X109516635Y-84107212D02*
X109561943Y-84179495D01*
X109561943Y-84179495D02*
X109578161Y-84202140D01*
X109578161Y-84202140D02*
X109606214Y-84239696D01*
X109606214Y-84239696D02*
X109644430Y-84290021D01*
X109644430Y-84290021D02*
X109691137Y-84350973D01*
X109691137Y-84350973D02*
X109744661Y-84420411D01*
X109744661Y-84420411D02*
X109803331Y-84496194D01*
X109803331Y-84496194D02*
X109865475Y-84576180D01*
X109865475Y-84576180D02*
X109929421Y-84658228D01*
X109929421Y-84658228D02*
X109993495Y-84740196D01*
X109993495Y-84740196D02*
X110056027Y-84819943D01*
X110056027Y-84819943D02*
X110115343Y-84895327D01*
X110115343Y-84895327D02*
X110169771Y-84964207D01*
X110169771Y-84964207D02*
X110217639Y-85024442D01*
X110217639Y-85024442D02*
X110257275Y-85073889D01*
X110257275Y-85073889D02*
X110287006Y-85110408D01*
X110287006Y-85110408D02*
X110305161Y-85131858D01*
X110305161Y-85131858D02*
X110308220Y-85135156D01*
X110308220Y-85135156D02*
X110311079Y-85127149D01*
X110311079Y-85127149D02*
X110313293Y-85096855D01*
X110313293Y-85096855D02*
X110314857Y-85044556D01*
X110314857Y-85044556D02*
X110315767Y-84970531D01*
X110315767Y-84970531D02*
X110316020Y-84875063D01*
X110316020Y-84875063D02*
X110315613Y-84758434D01*
X110315613Y-84758434D02*
X110314704Y-84638445D01*
X110314704Y-84638445D02*
X110313382Y-84506333D01*
X110313382Y-84506333D02*
X110311857Y-84394594D01*
X110311857Y-84394594D02*
X110309881Y-84301025D01*
X110309881Y-84301025D02*
X110307206Y-84223419D01*
X110307206Y-84223419D02*
X110303582Y-84159574D01*
X110303582Y-84159574D02*
X110298761Y-84107283D01*
X110298761Y-84107283D02*
X110292494Y-84064344D01*
X110292494Y-84064344D02*
X110284532Y-84028551D01*
X110284532Y-84028551D02*
X110274627Y-83997700D01*
X110274627Y-83997700D02*
X110262531Y-83969586D01*
X110262531Y-83969586D02*
X110247993Y-83942005D01*
X110247993Y-83942005D02*
X110233311Y-83916966D01*
X110233311Y-83916966D02*
X110195314Y-83853867D01*
X110195314Y-83853867D02*
X111255197Y-83853867D01*
X111255197Y-83853867D02*
X111558034Y-83853867D01*
X111558034Y-83853867D02*
X111558001Y-83847617D01*
X111558001Y-83847617D02*
X111557195Y-83745544D01*
X111557195Y-83745544D02*
X111556170Y-83656633D01*
X111556170Y-83656633D02*
X111554900Y-83579941D01*
X111554900Y-83579941D02*
X111553360Y-83514527D01*
X111553360Y-83514527D02*
X111551524Y-83459449D01*
X111551524Y-83459449D02*
X111549367Y-83413765D01*
X111549367Y-83413765D02*
X111546863Y-83376534D01*
X111546863Y-83376534D02*
X111543987Y-83346813D01*
X111543987Y-83346813D02*
X111540713Y-83323662D01*
X111540713Y-83323662D02*
X111537015Y-83306139D01*
X111537015Y-83306139D02*
X111532869Y-83293301D01*
X111532869Y-83293301D02*
X111528247Y-83284208D01*
X111528247Y-83284208D02*
X111523126Y-83277918D01*
X111523126Y-83277918D02*
X111517478Y-83273488D01*
X111517478Y-83273488D02*
X111511279Y-83269978D01*
X111511279Y-83269978D02*
X111504504Y-83266445D01*
X111504504Y-83266445D02*
X111498508Y-83262876D01*
X111498508Y-83262876D02*
X111493275Y-83260300D01*
X111493275Y-83260300D02*
X111485099Y-83257972D01*
X111485099Y-83257972D02*
X111472886Y-83255878D01*
X111472886Y-83255878D02*
X111455541Y-83254007D01*
X111455541Y-83254007D02*
X111431969Y-83252347D01*
X111431969Y-83252347D02*
X111401077Y-83250884D01*
X111401077Y-83250884D02*
X111361768Y-83249608D01*
X111361768Y-83249608D02*
X111312950Y-83248504D01*
X111312950Y-83248504D02*
X111253527Y-83247561D01*
X111253527Y-83247561D02*
X111182404Y-83246767D01*
X111182404Y-83246767D02*
X111098488Y-83246109D01*
X111098488Y-83246109D02*
X111000683Y-83245575D01*
X111000683Y-83245575D02*
X110887894Y-83245153D01*
X110887894Y-83245153D02*
X110759029Y-83244829D01*
X110759029Y-83244829D02*
X110612991Y-83244592D01*
X110612991Y-83244592D02*
X110448686Y-83244430D01*
X110448686Y-83244430D02*
X110265020Y-83244330D01*
X110265020Y-83244330D02*
X110060897Y-83244280D01*
X110060897Y-83244280D02*
X109849753Y-83244267D01*
X109849753Y-83244267D02*
X108229400Y-83244267D01*
X108229400Y-83244267D02*
X108229400Y-83341054D01*
X108229400Y-83341054D02*
X108229400Y-83341054D01*
G36*
X111559059Y-84095011D02*
G01*
X111559362Y-84242216D01*
X111559548Y-84406349D01*
X111559642Y-84588352D01*
X111559671Y-84789165D01*
X111559661Y-85009732D01*
X111559636Y-85250992D01*
X111559622Y-85513889D01*
X111559622Y-85556040D01*
X111559646Y-85816668D01*
X111559685Y-86055796D01*
X111559708Y-86274360D01*
X111559687Y-86473295D01*
X111559593Y-86653535D01*
X111559395Y-86816015D01*
X111559063Y-86961670D01*
X111558569Y-87091434D01*
X111557883Y-87206243D01*
X111556976Y-87307030D01*
X111555817Y-87394730D01*
X111554378Y-87470279D01*
X111552629Y-87534611D01*
X111550540Y-87588661D01*
X111548083Y-87633363D01*
X111545227Y-87669652D01*
X111541943Y-87698463D01*
X111538202Y-87720731D01*
X111533974Y-87737390D01*
X111529229Y-87749375D01*
X111523939Y-87757621D01*
X111518073Y-87763062D01*
X111511602Y-87766634D01*
X111504497Y-87769270D01*
X111496728Y-87771906D01*
X111488266Y-87775477D01*
X111483908Y-87777145D01*
X111475395Y-87779111D01*
X111462694Y-87780911D01*
X111444885Y-87782555D01*
X111421049Y-87784047D01*
X111390266Y-87785397D01*
X111351617Y-87786611D01*
X111304182Y-87787697D01*
X111247043Y-87788661D01*
X111179279Y-87789511D01*
X111099971Y-87790253D01*
X111008199Y-87790897D01*
X110903044Y-87791447D01*
X110783587Y-87791913D01*
X110648908Y-87792300D01*
X110498088Y-87792616D01*
X110330206Y-87792869D01*
X110144345Y-87793066D01*
X109939583Y-87793213D01*
X109715002Y-87793318D01*
X109469682Y-87793389D01*
X109202704Y-87793432D01*
X109164321Y-87793437D01*
X108898922Y-87793480D01*
X108655050Y-87793525D01*
X108431783Y-87793548D01*
X108228196Y-87793524D01*
X108043367Y-87793430D01*
X107876373Y-87793243D01*
X107726290Y-87792939D01*
X107592196Y-87792494D01*
X107473166Y-87791885D01*
X107368279Y-87791089D01*
X107276610Y-87790080D01*
X107197237Y-87788837D01*
X107129237Y-87787335D01*
X107071686Y-87785551D01*
X107023662Y-87783461D01*
X106984240Y-87781042D01*
X106952499Y-87778270D01*
X106927514Y-87775121D01*
X106908364Y-87771572D01*
X106894123Y-87767598D01*
X106883871Y-87763178D01*
X106876682Y-87758286D01*
X106871635Y-87752900D01*
X106867805Y-87746996D01*
X106864271Y-87740549D01*
X106860108Y-87733537D01*
X106859025Y-87731687D01*
X106856813Y-87726180D01*
X106854786Y-87717868D01*
X106852938Y-87705809D01*
X106851261Y-87689063D01*
X106849745Y-87666687D01*
X106848383Y-87637740D01*
X106847167Y-87601280D01*
X106846089Y-87556367D01*
X106845140Y-87502057D01*
X106844312Y-87437410D01*
X106843597Y-87361484D01*
X106842987Y-87273338D01*
X106842942Y-87264493D01*
X107134378Y-87264493D01*
X107138260Y-87265765D01*
X107161520Y-87267791D01*
X107203874Y-87269626D01*
X107263132Y-87271227D01*
X107337107Y-87272549D01*
X107423610Y-87273548D01*
X107520452Y-87274180D01*
X107625445Y-87274400D01*
X108323651Y-87274400D01*
X109478090Y-87274400D01*
X109477456Y-87198200D01*
X109478574Y-87156160D01*
X109484304Y-87120334D01*
X109496890Y-87082772D01*
X109518568Y-87034577D01*
X109521789Y-87027897D01*
X109547188Y-86978359D01*
X109573996Y-86930369D01*
X109596917Y-86893466D01*
X109601485Y-86886834D01*
X109623516Y-86855593D01*
X109655693Y-86810654D01*
X109696457Y-86754147D01*
X109744245Y-86688204D01*
X109797498Y-86614957D01*
X109854655Y-86536536D01*
X109914155Y-86455072D01*
X109974437Y-86372698D01*
X110033940Y-86291544D01*
X110091105Y-86213742D01*
X110144370Y-86141423D01*
X110192174Y-86076718D01*
X110232957Y-86021759D01*
X110265158Y-85978676D01*
X110287216Y-85949602D01*
X110297571Y-85936667D01*
X110302044Y-85932351D01*
X110306236Y-85930312D01*
X110309643Y-85932926D01*
X110312325Y-85941986D01*
X110314341Y-85959285D01*
X110315748Y-85986614D01*
X110316605Y-86025765D01*
X110316970Y-86078533D01*
X110316903Y-86146707D01*
X110316460Y-86232082D01*
X110315702Y-86336449D01*
X110314685Y-86461600D01*
X110314308Y-86506300D01*
X110313169Y-86627395D01*
X110311972Y-86728688D01*
X110310636Y-86812262D01*
X110309077Y-86880204D01*
X110307215Y-86934599D01*
X110304966Y-86977532D01*
X110302248Y-87011089D01*
X110298979Y-87037355D01*
X110295078Y-87058416D01*
X110290461Y-87076357D01*
X110282192Y-87102770D01*
X110258583Y-87164772D01*
X110232685Y-87217573D01*
X110207535Y-87254645D01*
X110206339Y-87256075D01*
X110204168Y-87260424D01*
X110206328Y-87264026D01*
X110214644Y-87266951D01*
X110230940Y-87269269D01*
X110257041Y-87271051D01*
X110294771Y-87272367D01*
X110345956Y-87273286D01*
X110412420Y-87273878D01*
X110495987Y-87274215D01*
X110598483Y-87274365D01*
X110721732Y-87274400D01*
X111253296Y-87274400D01*
X111214523Y-87216783D01*
X111208432Y-87207893D01*
X111197976Y-87193069D01*
X111188579Y-87179422D01*
X111180183Y-87165765D01*
X111172733Y-87150911D01*
X111166173Y-87133670D01*
X111160446Y-87112855D01*
X111155495Y-87087280D01*
X111151266Y-87055755D01*
X111147701Y-87017093D01*
X111144744Y-86970107D01*
X111142340Y-86913608D01*
X111140431Y-86846409D01*
X111138962Y-86767322D01*
X111137876Y-86675160D01*
X111137118Y-86568734D01*
X111136630Y-86446857D01*
X111136358Y-86308341D01*
X111136243Y-86151999D01*
X111136231Y-85976642D01*
X111136265Y-85781082D01*
X111136289Y-85564133D01*
X111136280Y-85441513D01*
X111136243Y-85236447D01*
X111136227Y-85052116D01*
X111136288Y-84887334D01*
X111136484Y-84740916D01*
X111136870Y-84611674D01*
X111137505Y-84498422D01*
X111138444Y-84399975D01*
X111139745Y-84315144D01*
X111141464Y-84242744D01*
X111143659Y-84181589D01*
X111146385Y-84130492D01*
X111149701Y-84088267D01*
X111153662Y-84053727D01*
X111158325Y-84025686D01*
X111163747Y-84002958D01*
X111169986Y-83984356D01*
X111177097Y-83968693D01*
X111185138Y-83954784D01*
X111194166Y-83941441D01*
X111204236Y-83927479D01*
X111215407Y-83911711D01*
X111255197Y-83853867D01*
X110195314Y-83853867D01*
X110233311Y-83916966D01*
X110247993Y-83942005D01*
X110262531Y-83969586D01*
X110274627Y-83997700D01*
X110284532Y-84028551D01*
X110292494Y-84064344D01*
X110298761Y-84107283D01*
X110303582Y-84159574D01*
X110307206Y-84223419D01*
X110309881Y-84301025D01*
X110311857Y-84394594D01*
X110313382Y-84506333D01*
X110314704Y-84638445D01*
X110315613Y-84758434D01*
X110316020Y-84875063D01*
X110315767Y-84970531D01*
X110314857Y-85044556D01*
X110313293Y-85096855D01*
X110311079Y-85127149D01*
X110308220Y-85135156D01*
X110305161Y-85131858D01*
X110287006Y-85110408D01*
X110257275Y-85073889D01*
X110217639Y-85024442D01*
X110169771Y-84964207D01*
X110115343Y-84895327D01*
X110056027Y-84819943D01*
X109993495Y-84740196D01*
X109929421Y-84658228D01*
X109865475Y-84576180D01*
X109803331Y-84496194D01*
X109744661Y-84420411D01*
X109691137Y-84350973D01*
X109644430Y-84290021D01*
X109606214Y-84239696D01*
X109578161Y-84202140D01*
X109561943Y-84179495D01*
X109516635Y-84107212D01*
X109476661Y-84027463D01*
X109455130Y-83959188D01*
X109451827Y-83901844D01*
X109457116Y-83853867D01*
X108325356Y-83854117D01*
X108364867Y-83884722D01*
X108374248Y-83892089D01*
X108437183Y-83946438D01*
X108505997Y-84014259D01*
X108582596Y-84097516D01*
X108668888Y-84198178D01*
X108686052Y-84218847D01*
X108726833Y-84268409D01*
X108776588Y-84329326D01*
X108833955Y-84399898D01*
X108897569Y-84478424D01*
X108966069Y-84563204D01*
X109038090Y-84652537D01*
X109112270Y-84744722D01*
X109127517Y-84763702D01*
X109187246Y-84838060D01*
X109261653Y-84930848D01*
X109334131Y-85021388D01*
X109403314Y-85107978D01*
X109467841Y-85188918D01*
X109526347Y-85262506D01*
X109577470Y-85327044D01*
X109619847Y-85380829D01*
X109652115Y-85422162D01*
X109672910Y-85449342D01*
X109680869Y-85460668D01*
X109679111Y-85464771D01*
X109666230Y-85485334D01*
X109641885Y-85521561D01*
X109607247Y-85571824D01*
X109563486Y-85634492D01*
X109511775Y-85707936D01*
X109453284Y-85790527D01*
X109389184Y-85880636D01*
X109320646Y-85976631D01*
X109248843Y-86076885D01*
X109174944Y-86179768D01*
X109100121Y-86283650D01*
X109025545Y-86386901D01*
X108952387Y-86487892D01*
X108881819Y-86584994D01*
X108815011Y-86676577D01*
X108753135Y-86761011D01*
X108697361Y-86836667D01*
X108648862Y-86901916D01*
X108608807Y-86955128D01*
X108578369Y-86994673D01*
X108557944Y-87020026D01*
X108511899Y-87074295D01*
X108461612Y-87130775D01*
X108414815Y-87180669D01*
X108323651Y-87274400D01*
X107625445Y-87274400D01*
X107694356Y-87274349D01*
X107792607Y-87274091D01*
X107882030Y-87273637D01*
X107960333Y-87273010D01*
X108025223Y-87272235D01*
X108074411Y-87271335D01*
X108105604Y-87270334D01*
X108116511Y-87269257D01*
X108115322Y-87266037D01*
X108105176Y-87248452D01*
X108088040Y-87222158D01*
X108079540Y-87209691D01*
X108070329Y-87195622D01*
X108062233Y-87181351D01*
X108055185Y-87165479D01*
X108049117Y-87146609D01*
X108043961Y-87123341D01*
X108039651Y-87094278D01*
X108036119Y-87058021D01*
X108033297Y-87013170D01*
X108031118Y-86958328D01*
X108029514Y-86892097D01*
X108028419Y-86813077D01*
X108027765Y-86719871D01*
X108027484Y-86611079D01*
X108027509Y-86485303D01*
X108027772Y-86341145D01*
X108028206Y-86177207D01*
X108028745Y-85992089D01*
X108029279Y-85813232D01*
X108029805Y-85654374D01*
X108030350Y-85515316D01*
X108030945Y-85394665D01*
X108031619Y-85291028D01*
X108032403Y-85203011D01*
X108033326Y-85129223D01*
X108034419Y-85068269D01*
X108035712Y-85018757D01*
X108037235Y-84979293D01*
X108039019Y-84948484D01*
X108041092Y-84924938D01*
X108043486Y-84907260D01*
X108046230Y-84894059D01*
X108049356Y-84883940D01*
X108052892Y-84875511D01*
X108056791Y-84867375D01*
X108076438Y-84830544D01*
X108095225Y-84800391D01*
X108096272Y-84798908D01*
X108110602Y-84776659D01*
X108116511Y-84763702D01*
X108115504Y-84763249D01*
X108098305Y-84761803D01*
X108061656Y-84760480D01*
X108007962Y-84759316D01*
X107939630Y-84758347D01*
X107859064Y-84757611D01*
X107768670Y-84757142D01*
X107670853Y-84756978D01*
X107225195Y-84756978D01*
X107222120Y-85933845D01*
X107219045Y-87110711D01*
X107192407Y-87169622D01*
X107180485Y-87194183D01*
X107163246Y-87224434D01*
X107150074Y-87241560D01*
X107142076Y-87249591D01*
X107134378Y-87264493D01*
X106842942Y-87264493D01*
X106842474Y-87172029D01*
X106842050Y-87056617D01*
X106841706Y-86926160D01*
X106841434Y-86779716D01*
X106841227Y-86616344D01*
X106841076Y-86435101D01*
X106840972Y-86235048D01*
X106840908Y-86015241D01*
X106840876Y-85774739D01*
X106840867Y-85512602D01*
X106840867Y-83321031D01*
X106879249Y-83282649D01*
X106906355Y-83258911D01*
X106933253Y-83247111D01*
X106969560Y-83244267D01*
X107021489Y-83244267D01*
X107021489Y-83332206D01*
X107023427Y-83382102D01*
X107042199Y-83492523D01*
X107079217Y-83593987D01*
X107132369Y-83685152D01*
X107199546Y-83764673D01*
X107278638Y-83831205D01*
X107367534Y-83883406D01*
X107464125Y-83919930D01*
X107566300Y-83939434D01*
X107671950Y-83940573D01*
X107778964Y-83922005D01*
X107885232Y-83882384D01*
X107982219Y-83824516D01*
X108067293Y-83749684D01*
X108136015Y-83661615D01*
X108186918Y-83562616D01*
X108218535Y-83454993D01*
X108229400Y-83341054D01*
X108229400Y-83244267D01*
X109849753Y-83244267D01*
X110060897Y-83244280D01*
X110265020Y-83244330D01*
X110448686Y-83244430D01*
X110612991Y-83244592D01*
X110759029Y-83244829D01*
X110887894Y-83245153D01*
X111000683Y-83245575D01*
X111098488Y-83246109D01*
X111182404Y-83246767D01*
X111253527Y-83247561D01*
X111312950Y-83248504D01*
X111361768Y-83249608D01*
X111401077Y-83250884D01*
X111431969Y-83252347D01*
X111455541Y-83254007D01*
X111472886Y-83255878D01*
X111485099Y-83257972D01*
X111493275Y-83260300D01*
X111498508Y-83262876D01*
X111504504Y-83266445D01*
X111511279Y-83269978D01*
X111517478Y-83273488D01*
X111523126Y-83277918D01*
X111528247Y-83284208D01*
X111532869Y-83293301D01*
X111537015Y-83306139D01*
X111540713Y-83323662D01*
X111543987Y-83346813D01*
X111546863Y-83376534D01*
X111549367Y-83413765D01*
X111551524Y-83459449D01*
X111553360Y-83514527D01*
X111554900Y-83579941D01*
X111556170Y-83656633D01*
X111557195Y-83745544D01*
X111558001Y-83847617D01*
X111558034Y-83853867D01*
X111558614Y-83963792D01*
X111559059Y-84095011D01*
G37*
X111559059Y-84095011D02*
X111559362Y-84242216D01*
X111559548Y-84406349D01*
X111559642Y-84588352D01*
X111559671Y-84789165D01*
X111559661Y-85009732D01*
X111559636Y-85250992D01*
X111559622Y-85513889D01*
X111559622Y-85556040D01*
X111559646Y-85816668D01*
X111559685Y-86055796D01*
X111559708Y-86274360D01*
X111559687Y-86473295D01*
X111559593Y-86653535D01*
X111559395Y-86816015D01*
X111559063Y-86961670D01*
X111558569Y-87091434D01*
X111557883Y-87206243D01*
X111556976Y-87307030D01*
X111555817Y-87394730D01*
X111554378Y-87470279D01*
X111552629Y-87534611D01*
X111550540Y-87588661D01*
X111548083Y-87633363D01*
X111545227Y-87669652D01*
X111541943Y-87698463D01*
X111538202Y-87720731D01*
X111533974Y-87737390D01*
X111529229Y-87749375D01*
X111523939Y-87757621D01*
X111518073Y-87763062D01*
X111511602Y-87766634D01*
X111504497Y-87769270D01*
X111496728Y-87771906D01*
X111488266Y-87775477D01*
X111483908Y-87777145D01*
X111475395Y-87779111D01*
X111462694Y-87780911D01*
X111444885Y-87782555D01*
X111421049Y-87784047D01*
X111390266Y-87785397D01*
X111351617Y-87786611D01*
X111304182Y-87787697D01*
X111247043Y-87788661D01*
X111179279Y-87789511D01*
X111099971Y-87790253D01*
X111008199Y-87790897D01*
X110903044Y-87791447D01*
X110783587Y-87791913D01*
X110648908Y-87792300D01*
X110498088Y-87792616D01*
X110330206Y-87792869D01*
X110144345Y-87793066D01*
X109939583Y-87793213D01*
X109715002Y-87793318D01*
X109469682Y-87793389D01*
X109202704Y-87793432D01*
X109164321Y-87793437D01*
X108898922Y-87793480D01*
X108655050Y-87793525D01*
X108431783Y-87793548D01*
X108228196Y-87793524D01*
X108043367Y-87793430D01*
X107876373Y-87793243D01*
X107726290Y-87792939D01*
X107592196Y-87792494D01*
X107473166Y-87791885D01*
X107368279Y-87791089D01*
X107276610Y-87790080D01*
X107197237Y-87788837D01*
X107129237Y-87787335D01*
X107071686Y-87785551D01*
X107023662Y-87783461D01*
X106984240Y-87781042D01*
X106952499Y-87778270D01*
X106927514Y-87775121D01*
X106908364Y-87771572D01*
X106894123Y-87767598D01*
X106883871Y-87763178D01*
X106876682Y-87758286D01*
X106871635Y-87752900D01*
X106867805Y-87746996D01*
X106864271Y-87740549D01*
X106860108Y-87733537D01*
X106859025Y-87731687D01*
X106856813Y-87726180D01*
X106854786Y-87717868D01*
X106852938Y-87705809D01*
X106851261Y-87689063D01*
X106849745Y-87666687D01*
X106848383Y-87637740D01*
X106847167Y-87601280D01*
X106846089Y-87556367D01*
X106845140Y-87502057D01*
X106844312Y-87437410D01*
X106843597Y-87361484D01*
X106842987Y-87273338D01*
X106842942Y-87264493D01*
X107134378Y-87264493D01*
X107138260Y-87265765D01*
X107161520Y-87267791D01*
X107203874Y-87269626D01*
X107263132Y-87271227D01*
X107337107Y-87272549D01*
X107423610Y-87273548D01*
X107520452Y-87274180D01*
X107625445Y-87274400D01*
X108323651Y-87274400D01*
X109478090Y-87274400D01*
X109477456Y-87198200D01*
X109478574Y-87156160D01*
X109484304Y-87120334D01*
X109496890Y-87082772D01*
X109518568Y-87034577D01*
X109521789Y-87027897D01*
X109547188Y-86978359D01*
X109573996Y-86930369D01*
X109596917Y-86893466D01*
X109601485Y-86886834D01*
X109623516Y-86855593D01*
X109655693Y-86810654D01*
X109696457Y-86754147D01*
X109744245Y-86688204D01*
X109797498Y-86614957D01*
X109854655Y-86536536D01*
X109914155Y-86455072D01*
X109974437Y-86372698D01*
X110033940Y-86291544D01*
X110091105Y-86213742D01*
X110144370Y-86141423D01*
X110192174Y-86076718D01*
X110232957Y-86021759D01*
X110265158Y-85978676D01*
X110287216Y-85949602D01*
X110297571Y-85936667D01*
X110302044Y-85932351D01*
X110306236Y-85930312D01*
X110309643Y-85932926D01*
X110312325Y-85941986D01*
X110314341Y-85959285D01*
X110315748Y-85986614D01*
X110316605Y-86025765D01*
X110316970Y-86078533D01*
X110316903Y-86146707D01*
X110316460Y-86232082D01*
X110315702Y-86336449D01*
X110314685Y-86461600D01*
X110314308Y-86506300D01*
X110313169Y-86627395D01*
X110311972Y-86728688D01*
X110310636Y-86812262D01*
X110309077Y-86880204D01*
X110307215Y-86934599D01*
X110304966Y-86977532D01*
X110302248Y-87011089D01*
X110298979Y-87037355D01*
X110295078Y-87058416D01*
X110290461Y-87076357D01*
X110282192Y-87102770D01*
X110258583Y-87164772D01*
X110232685Y-87217573D01*
X110207535Y-87254645D01*
X110206339Y-87256075D01*
X110204168Y-87260424D01*
X110206328Y-87264026D01*
X110214644Y-87266951D01*
X110230940Y-87269269D01*
X110257041Y-87271051D01*
X110294771Y-87272367D01*
X110345956Y-87273286D01*
X110412420Y-87273878D01*
X110495987Y-87274215D01*
X110598483Y-87274365D01*
X110721732Y-87274400D01*
X111253296Y-87274400D01*
X111214523Y-87216783D01*
X111208432Y-87207893D01*
X111197976Y-87193069D01*
X111188579Y-87179422D01*
X111180183Y-87165765D01*
X111172733Y-87150911D01*
X111166173Y-87133670D01*
X111160446Y-87112855D01*
X111155495Y-87087280D01*
X111151266Y-87055755D01*
X111147701Y-87017093D01*
X111144744Y-86970107D01*
X111142340Y-86913608D01*
X111140431Y-86846409D01*
X111138962Y-86767322D01*
X111137876Y-86675160D01*
X111137118Y-86568734D01*
X111136630Y-86446857D01*
X111136358Y-86308341D01*
X111136243Y-86151999D01*
X111136231Y-85976642D01*
X111136265Y-85781082D01*
X111136289Y-85564133D01*
X111136280Y-85441513D01*
X111136243Y-85236447D01*
X111136227Y-85052116D01*
X111136288Y-84887334D01*
X111136484Y-84740916D01*
X111136870Y-84611674D01*
X111137505Y-84498422D01*
X111138444Y-84399975D01*
X111139745Y-84315144D01*
X111141464Y-84242744D01*
X111143659Y-84181589D01*
X111146385Y-84130492D01*
X111149701Y-84088267D01*
X111153662Y-84053727D01*
X111158325Y-84025686D01*
X111163747Y-84002958D01*
X111169986Y-83984356D01*
X111177097Y-83968693D01*
X111185138Y-83954784D01*
X111194166Y-83941441D01*
X111204236Y-83927479D01*
X111215407Y-83911711D01*
X111255197Y-83853867D01*
X110195314Y-83853867D01*
X110233311Y-83916966D01*
X110247993Y-83942005D01*
X110262531Y-83969586D01*
X110274627Y-83997700D01*
X110284532Y-84028551D01*
X110292494Y-84064344D01*
X110298761Y-84107283D01*
X110303582Y-84159574D01*
X110307206Y-84223419D01*
X110309881Y-84301025D01*
X110311857Y-84394594D01*
X110313382Y-84506333D01*
X110314704Y-84638445D01*
X110315613Y-84758434D01*
X110316020Y-84875063D01*
X110315767Y-84970531D01*
X110314857Y-85044556D01*
X110313293Y-85096855D01*
X110311079Y-85127149D01*
X110308220Y-85135156D01*
X110305161Y-85131858D01*
X110287006Y-85110408D01*
X110257275Y-85073889D01*
X110217639Y-85024442D01*
X110169771Y-84964207D01*
X110115343Y-84895327D01*
X110056027Y-84819943D01*
X109993495Y-84740196D01*
X109929421Y-84658228D01*
X109865475Y-84576180D01*
X109803331Y-84496194D01*
X109744661Y-84420411D01*
X109691137Y-84350973D01*
X109644430Y-84290021D01*
X109606214Y-84239696D01*
X109578161Y-84202140D01*
X109561943Y-84179495D01*
X109516635Y-84107212D01*
X109476661Y-84027463D01*
X109455130Y-83959188D01*
X109451827Y-83901844D01*
X109457116Y-83853867D01*
X108325356Y-83854117D01*
X108364867Y-83884722D01*
X108374248Y-83892089D01*
X108437183Y-83946438D01*
X108505997Y-84014259D01*
X108582596Y-84097516D01*
X108668888Y-84198178D01*
X108686052Y-84218847D01*
X108726833Y-84268409D01*
X108776588Y-84329326D01*
X108833955Y-84399898D01*
X108897569Y-84478424D01*
X108966069Y-84563204D01*
X109038090Y-84652537D01*
X109112270Y-84744722D01*
X109127517Y-84763702D01*
X109187246Y-84838060D01*
X109261653Y-84930848D01*
X109334131Y-85021388D01*
X109403314Y-85107978D01*
X109467841Y-85188918D01*
X109526347Y-85262506D01*
X109577470Y-85327044D01*
X109619847Y-85380829D01*
X109652115Y-85422162D01*
X109672910Y-85449342D01*
X109680869Y-85460668D01*
X109679111Y-85464771D01*
X109666230Y-85485334D01*
X109641885Y-85521561D01*
X109607247Y-85571824D01*
X109563486Y-85634492D01*
X109511775Y-85707936D01*
X109453284Y-85790527D01*
X109389184Y-85880636D01*
X109320646Y-85976631D01*
X109248843Y-86076885D01*
X109174944Y-86179768D01*
X109100121Y-86283650D01*
X109025545Y-86386901D01*
X108952387Y-86487892D01*
X108881819Y-86584994D01*
X108815011Y-86676577D01*
X108753135Y-86761011D01*
X108697361Y-86836667D01*
X108648862Y-86901916D01*
X108608807Y-86955128D01*
X108578369Y-86994673D01*
X108557944Y-87020026D01*
X108511899Y-87074295D01*
X108461612Y-87130775D01*
X108414815Y-87180669D01*
X108323651Y-87274400D01*
X107625445Y-87274400D01*
X107694356Y-87274349D01*
X107792607Y-87274091D01*
X107882030Y-87273637D01*
X107960333Y-87273010D01*
X108025223Y-87272235D01*
X108074411Y-87271335D01*
X108105604Y-87270334D01*
X108116511Y-87269257D01*
X108115322Y-87266037D01*
X108105176Y-87248452D01*
X108088040Y-87222158D01*
X108079540Y-87209691D01*
X108070329Y-87195622D01*
X108062233Y-87181351D01*
X108055185Y-87165479D01*
X108049117Y-87146609D01*
X108043961Y-87123341D01*
X108039651Y-87094278D01*
X108036119Y-87058021D01*
X108033297Y-87013170D01*
X108031118Y-86958328D01*
X108029514Y-86892097D01*
X108028419Y-86813077D01*
X108027765Y-86719871D01*
X108027484Y-86611079D01*
X108027509Y-86485303D01*
X108027772Y-86341145D01*
X108028206Y-86177207D01*
X108028745Y-85992089D01*
X108029279Y-85813232D01*
X108029805Y-85654374D01*
X108030350Y-85515316D01*
X108030945Y-85394665D01*
X108031619Y-85291028D01*
X108032403Y-85203011D01*
X108033326Y-85129223D01*
X108034419Y-85068269D01*
X108035712Y-85018757D01*
X108037235Y-84979293D01*
X108039019Y-84948484D01*
X108041092Y-84924938D01*
X108043486Y-84907260D01*
X108046230Y-84894059D01*
X108049356Y-84883940D01*
X108052892Y-84875511D01*
X108056791Y-84867375D01*
X108076438Y-84830544D01*
X108095225Y-84800391D01*
X108096272Y-84798908D01*
X108110602Y-84776659D01*
X108116511Y-84763702D01*
X108115504Y-84763249D01*
X108098305Y-84761803D01*
X108061656Y-84760480D01*
X108007962Y-84759316D01*
X107939630Y-84758347D01*
X107859064Y-84757611D01*
X107768670Y-84757142D01*
X107670853Y-84756978D01*
X107225195Y-84756978D01*
X107222120Y-85933845D01*
X107219045Y-87110711D01*
X107192407Y-87169622D01*
X107180485Y-87194183D01*
X107163246Y-87224434D01*
X107150074Y-87241560D01*
X107142076Y-87249591D01*
X107134378Y-87264493D01*
X106842942Y-87264493D01*
X106842474Y-87172029D01*
X106842050Y-87056617D01*
X106841706Y-86926160D01*
X106841434Y-86779716D01*
X106841227Y-86616344D01*
X106841076Y-86435101D01*
X106840972Y-86235048D01*
X106840908Y-86015241D01*
X106840876Y-85774739D01*
X106840867Y-85512602D01*
X106840867Y-83321031D01*
X106879249Y-83282649D01*
X106906355Y-83258911D01*
X106933253Y-83247111D01*
X106969560Y-83244267D01*
X107021489Y-83244267D01*
X107021489Y-83332206D01*
X107023427Y-83382102D01*
X107042199Y-83492523D01*
X107079217Y-83593987D01*
X107132369Y-83685152D01*
X107199546Y-83764673D01*
X107278638Y-83831205D01*
X107367534Y-83883406D01*
X107464125Y-83919930D01*
X107566300Y-83939434D01*
X107671950Y-83940573D01*
X107778964Y-83922005D01*
X107885232Y-83882384D01*
X107982219Y-83824516D01*
X108067293Y-83749684D01*
X108136015Y-83661615D01*
X108186918Y-83562616D01*
X108218535Y-83454993D01*
X108229400Y-83341054D01*
X108229400Y-83244267D01*
X109849753Y-83244267D01*
X110060897Y-83244280D01*
X110265020Y-83244330D01*
X110448686Y-83244430D01*
X110612991Y-83244592D01*
X110759029Y-83244829D01*
X110887894Y-83245153D01*
X111000683Y-83245575D01*
X111098488Y-83246109D01*
X111182404Y-83246767D01*
X111253527Y-83247561D01*
X111312950Y-83248504D01*
X111361768Y-83249608D01*
X111401077Y-83250884D01*
X111431969Y-83252347D01*
X111455541Y-83254007D01*
X111472886Y-83255878D01*
X111485099Y-83257972D01*
X111493275Y-83260300D01*
X111498508Y-83262876D01*
X111504504Y-83266445D01*
X111511279Y-83269978D01*
X111517478Y-83273488D01*
X111523126Y-83277918D01*
X111528247Y-83284208D01*
X111532869Y-83293301D01*
X111537015Y-83306139D01*
X111540713Y-83323662D01*
X111543987Y-83346813D01*
X111546863Y-83376534D01*
X111549367Y-83413765D01*
X111551524Y-83459449D01*
X111553360Y-83514527D01*
X111554900Y-83579941D01*
X111556170Y-83656633D01*
X111557195Y-83745544D01*
X111558001Y-83847617D01*
X111558034Y-83853867D01*
X111558614Y-83963792D01*
X111559059Y-84095011D01*
X104954571Y-83801071D02*
X104794430Y-83822245D01*
X104794430Y-83822245D02*
X104630490Y-83862385D01*
X104630490Y-83862385D02*
X104460687Y-83921889D01*
X104460687Y-83921889D02*
X104282957Y-84001154D01*
X104282957Y-84001154D02*
X104271690Y-84006699D01*
X104271690Y-84006699D02*
X104213995Y-84034725D01*
X104213995Y-84034725D02*
X104162448Y-84058802D01*
X104162448Y-84058802D02*
X104120809Y-84077249D01*
X104120809Y-84077249D02*
X104092838Y-84088386D01*
X104092838Y-84088386D02*
X104083267Y-84090933D01*
X104083267Y-84090933D02*
X104064050Y-84095941D01*
X104064050Y-84095941D02*
X104059439Y-84100147D01*
X104059439Y-84100147D02*
X104064542Y-84110580D01*
X104064542Y-84110580D02*
X104080582Y-84136868D01*
X104080582Y-84136868D02*
X104105712Y-84176257D01*
X104105712Y-84176257D02*
X104138086Y-84225991D01*
X104138086Y-84225991D02*
X104175857Y-84283315D01*
X104175857Y-84283315D02*
X104217178Y-84345476D01*
X104217178Y-84345476D02*
X104260202Y-84409718D01*
X104260202Y-84409718D02*
X104303083Y-84473285D01*
X104303083Y-84473285D02*
X104343974Y-84533425D01*
X104343974Y-84533425D02*
X104381029Y-84587380D01*
X104381029Y-84587380D02*
X104412400Y-84632397D01*
X104412400Y-84632397D02*
X104436241Y-84665721D01*
X104436241Y-84665721D02*
X104450706Y-84684597D01*
X104450706Y-84684597D02*
X104452691Y-84686787D01*
X104452691Y-84686787D02*
X104462809Y-84682138D01*
X104462809Y-84682138D02*
X104485150Y-84664962D01*
X104485150Y-84664962D02*
X104515720Y-84638440D01*
X104515720Y-84638440D02*
X104531464Y-84623964D01*
X104531464Y-84623964D02*
X104627953Y-84548682D01*
X104627953Y-84548682D02*
X104734664Y-84493241D01*
X104734664Y-84493241D02*
X104850168Y-84458141D01*
X104850168Y-84458141D02*
X104973038Y-84443880D01*
X104973038Y-84443880D02*
X105042439Y-84445051D01*
X105042439Y-84445051D02*
X105163577Y-84462212D01*
X105163577Y-84462212D02*
X105272795Y-84498094D01*
X105272795Y-84498094D02*
X105370418Y-84552959D01*
X105370418Y-84552959D02*
X105456772Y-84627070D01*
X105456772Y-84627070D02*
X105532185Y-84720688D01*
X105532185Y-84720688D02*
X105596982Y-84834076D01*
X105596982Y-84834076D02*
X105634399Y-84920667D01*
X105634399Y-84920667D02*
X105678252Y-85056366D01*
X105678252Y-85056366D02*
X105710572Y-85203850D01*
X105710572Y-85203850D02*
X105731443Y-85359314D01*
X105731443Y-85359314D02*
X105740949Y-85518956D01*
X105740949Y-85518956D02*
X105739173Y-85678973D01*
X105739173Y-85678973D02*
X105726197Y-85835561D01*
X105726197Y-85835561D02*
X105702106Y-85984918D01*
X105702106Y-85984918D02*
X105666982Y-86123240D01*
X105666982Y-86123240D02*
X105620908Y-86246724D01*
X105620908Y-86246724D02*
X105604627Y-86280978D01*
X105604627Y-86280978D02*
X105536380Y-86395064D01*
X105536380Y-86395064D02*
X105455921Y-86491557D01*
X105455921Y-86491557D02*
X105364430Y-86569670D01*
X105364430Y-86569670D02*
X105263089Y-86628617D01*
X105263089Y-86628617D02*
X105153080Y-86667612D01*
X105153080Y-86667612D02*
X105035585Y-86685868D01*
X105035585Y-86685868D02*
X104994117Y-86687211D01*
X104994117Y-86687211D02*
X104872559Y-86676290D01*
X104872559Y-86676290D02*
X104752122Y-86643474D01*
X104752122Y-86643474D02*
X104634334Y-86589439D01*
X104634334Y-86589439D02*
X104520723Y-86514865D01*
X104520723Y-86514865D02*
X104429315Y-86436539D01*
X104429315Y-86436539D02*
X104382785Y-86392008D01*
X104382785Y-86392008D02*
X104201517Y-86689271D01*
X104201517Y-86689271D02*
X104156420Y-86763433D01*
X104156420Y-86763433D02*
X104115181Y-86831646D01*
X104115181Y-86831646D02*
X104079265Y-86891459D01*
X104079265Y-86891459D02*
X104050134Y-86940420D01*
X104050134Y-86940420D02*
X104029250Y-86976079D01*
X104029250Y-86976079D02*
X104018076Y-86995984D01*
X104018076Y-86995984D02*
X104016625Y-86999079D01*
X104016625Y-86999079D02*
X104024854Y-87008718D01*
X104024854Y-87008718D02*
X104050433Y-87025999D01*
X104050433Y-87025999D02*
X104090127Y-87049283D01*
X104090127Y-87049283D02*
X104140703Y-87076934D01*
X104140703Y-87076934D02*
X104198926Y-87107315D01*
X104198926Y-87107315D02*
X104261563Y-87138790D01*
X104261563Y-87138790D02*
X104325379Y-87169722D01*
X104325379Y-87169722D02*
X104387140Y-87198473D01*
X104387140Y-87198473D02*
X104443612Y-87223408D01*
X104443612Y-87223408D02*
X104491562Y-87242889D01*
X104491562Y-87242889D02*
X104515014Y-87251318D01*
X104515014Y-87251318D02*
X104648779Y-87289133D01*
X104648779Y-87289133D02*
X104786673Y-87314136D01*
X104786673Y-87314136D02*
X104934378Y-87327140D01*
X104934378Y-87327140D02*
X105061167Y-87329468D01*
X105061167Y-87329468D02*
X105129122Y-87328373D01*
X105129122Y-87328373D02*
X105194723Y-87326275D01*
X105194723Y-87326275D02*
X105252153Y-87323434D01*
X105252153Y-87323434D02*
X105295597Y-87320106D01*
X105295597Y-87320106D02*
X105309702Y-87318422D01*
X105309702Y-87318422D02*
X105448716Y-87289587D01*
X105448716Y-87289587D02*
X105590243Y-87244468D01*
X105590243Y-87244468D02*
X105727725Y-87185750D01*
X105727725Y-87185750D02*
X105854606Y-87116120D01*
X105854606Y-87116120D02*
X105932111Y-87063441D01*
X105932111Y-87063441D02*
X106059519Y-86955239D01*
X106059519Y-86955239D02*
X106177822Y-86828671D01*
X106177822Y-86828671D02*
X106284828Y-86686866D01*
X106284828Y-86686866D02*
X106378348Y-86532951D01*
X106378348Y-86532951D02*
X106456190Y-86370053D01*
X106456190Y-86370053D02*
X106500044Y-86252756D01*
X106500044Y-86252756D02*
X106550292Y-86069128D01*
X106550292Y-86069128D02*
X106583791Y-85874581D01*
X106583791Y-85874581D02*
X106600551Y-85673325D01*
X106600551Y-85673325D02*
X106600584Y-85469568D01*
X106600584Y-85469568D02*
X106583899Y-85267521D01*
X106583899Y-85267521D02*
X106550507Y-85071392D01*
X106550507Y-85071392D02*
X106500420Y-84885391D01*
X106500420Y-84885391D02*
X106496603Y-84873803D01*
X106496603Y-84873803D02*
X106433719Y-84711750D01*
X106433719Y-84711750D02*
X106356972Y-84563832D01*
X106356972Y-84563832D02*
X106263758Y-84425865D01*
X106263758Y-84425865D02*
X106151473Y-84293661D01*
X106151473Y-84293661D02*
X106107608Y-84248399D01*
X106107608Y-84248399D02*
X105971466Y-84124457D01*
X105971466Y-84124457D02*
X105831509Y-84021915D01*
X105831509Y-84021915D02*
X105685589Y-83939656D01*
X105685589Y-83939656D02*
X105531558Y-83876564D01*
X105531558Y-83876564D02*
X105367268Y-83831523D01*
X105367268Y-83831523D02*
X105271711Y-83814033D01*
X105271711Y-83814033D02*
X105112977Y-83798466D01*
X105112977Y-83798466D02*
X104954571Y-83801071D01*
X104954571Y-83801071D02*
X104954571Y-83801071D01*
G36*
X105271711Y-83814033D02*
G01*
X105367268Y-83831523D01*
X105531558Y-83876564D01*
X105685589Y-83939656D01*
X105831509Y-84021915D01*
X105971466Y-84124457D01*
X106107608Y-84248399D01*
X106151473Y-84293661D01*
X106263758Y-84425865D01*
X106356972Y-84563832D01*
X106433719Y-84711750D01*
X106496603Y-84873803D01*
X106500420Y-84885391D01*
X106550507Y-85071392D01*
X106583899Y-85267521D01*
X106600584Y-85469568D01*
X106600551Y-85673325D01*
X106583791Y-85874581D01*
X106550292Y-86069128D01*
X106500044Y-86252756D01*
X106456190Y-86370053D01*
X106378348Y-86532951D01*
X106284828Y-86686866D01*
X106177822Y-86828671D01*
X106059519Y-86955239D01*
X105932111Y-87063441D01*
X105854606Y-87116120D01*
X105727725Y-87185750D01*
X105590243Y-87244468D01*
X105448716Y-87289587D01*
X105309702Y-87318422D01*
X105295597Y-87320106D01*
X105252153Y-87323434D01*
X105194723Y-87326275D01*
X105129122Y-87328373D01*
X105061167Y-87329468D01*
X104934378Y-87327140D01*
X104786673Y-87314136D01*
X104648779Y-87289133D01*
X104515014Y-87251318D01*
X104491562Y-87242889D01*
X104443612Y-87223408D01*
X104387140Y-87198473D01*
X104325379Y-87169722D01*
X104261563Y-87138790D01*
X104198926Y-87107315D01*
X104140703Y-87076934D01*
X104090127Y-87049283D01*
X104050433Y-87025999D01*
X104024854Y-87008718D01*
X104016625Y-86999079D01*
X104018076Y-86995984D01*
X104029250Y-86976079D01*
X104050134Y-86940420D01*
X104079265Y-86891459D01*
X104115181Y-86831646D01*
X104156420Y-86763433D01*
X104201517Y-86689271D01*
X104382785Y-86392008D01*
X104429315Y-86436539D01*
X104520723Y-86514865D01*
X104634334Y-86589439D01*
X104752122Y-86643474D01*
X104872559Y-86676290D01*
X104994117Y-86687211D01*
X105035585Y-86685868D01*
X105153080Y-86667612D01*
X105263089Y-86628617D01*
X105364430Y-86569670D01*
X105455921Y-86491557D01*
X105536380Y-86395064D01*
X105604627Y-86280978D01*
X105620908Y-86246724D01*
X105666982Y-86123240D01*
X105702106Y-85984918D01*
X105726197Y-85835561D01*
X105739173Y-85678973D01*
X105740949Y-85518956D01*
X105731443Y-85359314D01*
X105710572Y-85203850D01*
X105678252Y-85056366D01*
X105634399Y-84920667D01*
X105596982Y-84834076D01*
X105532185Y-84720688D01*
X105456772Y-84627070D01*
X105370418Y-84552959D01*
X105272795Y-84498094D01*
X105163577Y-84462212D01*
X105042439Y-84445051D01*
X104973038Y-84443880D01*
X104850168Y-84458141D01*
X104734664Y-84493241D01*
X104627953Y-84548682D01*
X104531464Y-84623964D01*
X104515720Y-84638440D01*
X104485150Y-84664962D01*
X104462809Y-84682138D01*
X104452691Y-84686787D01*
X104450706Y-84684597D01*
X104436241Y-84665721D01*
X104412400Y-84632397D01*
X104381029Y-84587380D01*
X104343974Y-84533425D01*
X104303083Y-84473285D01*
X104260202Y-84409718D01*
X104217178Y-84345476D01*
X104175857Y-84283315D01*
X104138086Y-84225991D01*
X104105712Y-84176257D01*
X104080582Y-84136868D01*
X104064542Y-84110580D01*
X104059439Y-84100147D01*
X104064050Y-84095941D01*
X104083267Y-84090933D01*
X104092838Y-84088386D01*
X104120809Y-84077249D01*
X104162448Y-84058802D01*
X104213995Y-84034725D01*
X104271690Y-84006699D01*
X104282957Y-84001154D01*
X104460687Y-83921889D01*
X104630490Y-83862385D01*
X104794430Y-83822245D01*
X104954571Y-83801071D01*
X105112977Y-83798466D01*
X105271711Y-83814033D01*
G37*
X105271711Y-83814033D02*
X105367268Y-83831523D01*
X105531558Y-83876564D01*
X105685589Y-83939656D01*
X105831509Y-84021915D01*
X105971466Y-84124457D01*
X106107608Y-84248399D01*
X106151473Y-84293661D01*
X106263758Y-84425865D01*
X106356972Y-84563832D01*
X106433719Y-84711750D01*
X106496603Y-84873803D01*
X106500420Y-84885391D01*
X106550507Y-85071392D01*
X106583899Y-85267521D01*
X106600584Y-85469568D01*
X106600551Y-85673325D01*
X106583791Y-85874581D01*
X106550292Y-86069128D01*
X106500044Y-86252756D01*
X106456190Y-86370053D01*
X106378348Y-86532951D01*
X106284828Y-86686866D01*
X106177822Y-86828671D01*
X106059519Y-86955239D01*
X105932111Y-87063441D01*
X105854606Y-87116120D01*
X105727725Y-87185750D01*
X105590243Y-87244468D01*
X105448716Y-87289587D01*
X105309702Y-87318422D01*
X105295597Y-87320106D01*
X105252153Y-87323434D01*
X105194723Y-87326275D01*
X105129122Y-87328373D01*
X105061167Y-87329468D01*
X104934378Y-87327140D01*
X104786673Y-87314136D01*
X104648779Y-87289133D01*
X104515014Y-87251318D01*
X104491562Y-87242889D01*
X104443612Y-87223408D01*
X104387140Y-87198473D01*
X104325379Y-87169722D01*
X104261563Y-87138790D01*
X104198926Y-87107315D01*
X104140703Y-87076934D01*
X104090127Y-87049283D01*
X104050433Y-87025999D01*
X104024854Y-87008718D01*
X104016625Y-86999079D01*
X104018076Y-86995984D01*
X104029250Y-86976079D01*
X104050134Y-86940420D01*
X104079265Y-86891459D01*
X104115181Y-86831646D01*
X104156420Y-86763433D01*
X104201517Y-86689271D01*
X104382785Y-86392008D01*
X104429315Y-86436539D01*
X104520723Y-86514865D01*
X104634334Y-86589439D01*
X104752122Y-86643474D01*
X104872559Y-86676290D01*
X104994117Y-86687211D01*
X105035585Y-86685868D01*
X105153080Y-86667612D01*
X105263089Y-86628617D01*
X105364430Y-86569670D01*
X105455921Y-86491557D01*
X105536380Y-86395064D01*
X105604627Y-86280978D01*
X105620908Y-86246724D01*
X105666982Y-86123240D01*
X105702106Y-85984918D01*
X105726197Y-85835561D01*
X105739173Y-85678973D01*
X105740949Y-85518956D01*
X105731443Y-85359314D01*
X105710572Y-85203850D01*
X105678252Y-85056366D01*
X105634399Y-84920667D01*
X105596982Y-84834076D01*
X105532185Y-84720688D01*
X105456772Y-84627070D01*
X105370418Y-84552959D01*
X105272795Y-84498094D01*
X105163577Y-84462212D01*
X105042439Y-84445051D01*
X104973038Y-84443880D01*
X104850168Y-84458141D01*
X104734664Y-84493241D01*
X104627953Y-84548682D01*
X104531464Y-84623964D01*
X104515720Y-84638440D01*
X104485150Y-84664962D01*
X104462809Y-84682138D01*
X104452691Y-84686787D01*
X104450706Y-84684597D01*
X104436241Y-84665721D01*
X104412400Y-84632397D01*
X104381029Y-84587380D01*
X104343974Y-84533425D01*
X104303083Y-84473285D01*
X104260202Y-84409718D01*
X104217178Y-84345476D01*
X104175857Y-84283315D01*
X104138086Y-84225991D01*
X104105712Y-84176257D01*
X104080582Y-84136868D01*
X104064542Y-84110580D01*
X104059439Y-84100147D01*
X104064050Y-84095941D01*
X104083267Y-84090933D01*
X104092838Y-84088386D01*
X104120809Y-84077249D01*
X104162448Y-84058802D01*
X104213995Y-84034725D01*
X104271690Y-84006699D01*
X104282957Y-84001154D01*
X104460687Y-83921889D01*
X104630490Y-83862385D01*
X104794430Y-83822245D01*
X104954571Y-83801071D01*
X105112977Y-83798466D01*
X105271711Y-83814033D01*
X116873122Y-79896166D02*
X116842124Y-79946538D01*
X116842124Y-79946538D02*
X116794366Y-80026341D01*
X116794366Y-80026341D02*
X116731806Y-80132180D01*
X116731806Y-80132180D02*
X116656403Y-80260659D01*
X116656403Y-80260659D02*
X116570115Y-80408384D01*
X116570115Y-80408384D02*
X116474899Y-80571958D01*
X116474899Y-80571958D02*
X116372715Y-80747987D01*
X116372715Y-80747987D02*
X116265519Y-80933075D01*
X116265519Y-80933075D02*
X116155271Y-81123827D01*
X116155271Y-81123827D02*
X116043929Y-81316847D01*
X116043929Y-81316847D02*
X115933450Y-81508741D01*
X115933450Y-81508741D02*
X115825793Y-81696111D01*
X115825793Y-81696111D02*
X115722916Y-81875565D01*
X115722916Y-81875565D02*
X115626777Y-82043705D01*
X115626777Y-82043705D02*
X115539335Y-82197137D01*
X115539335Y-82197137D02*
X115462547Y-82332465D01*
X115462547Y-82332465D02*
X115398372Y-82446294D01*
X115398372Y-82446294D02*
X115348767Y-82535229D01*
X115348767Y-82535229D02*
X115315691Y-82595874D01*
X115315691Y-82595874D02*
X115301103Y-82624833D01*
X115301103Y-82624833D02*
X115300569Y-82626644D01*
X115300569Y-82626644D02*
X115318679Y-82651217D01*
X115318679Y-82651217D02*
X115369020Y-82688807D01*
X115369020Y-82688807D02*
X115445605Y-82735722D01*
X115445605Y-82735722D02*
X115542448Y-82788274D01*
X115542448Y-82788274D02*
X115643833Y-82838213D01*
X115643833Y-82838213D02*
X115781785Y-82898769D01*
X115781785Y-82898769D02*
X115926858Y-82953179D01*
X115926858Y-82953179D02*
X116084050Y-83002651D01*
X116084050Y-83002651D02*
X116258357Y-83048395D01*
X116258357Y-83048395D02*
X116454778Y-83091620D01*
X116454778Y-83091620D02*
X116678311Y-83133534D01*
X116678311Y-83133534D02*
X116933952Y-83175347D01*
X116933952Y-83175347D02*
X117198394Y-83214284D01*
X117198394Y-83214284D02*
X117428148Y-83248828D01*
X117428148Y-83248828D02*
X117621083Y-83283026D01*
X117621083Y-83283026D02*
X117782036Y-83318577D01*
X117782036Y-83318577D02*
X117915845Y-83357182D01*
X117915845Y-83357182D02*
X118027350Y-83400539D01*
X118027350Y-83400539D02*
X118121386Y-83450348D01*
X118121386Y-83450348D02*
X118202794Y-83508309D01*
X118202794Y-83508309D02*
X118276410Y-83576120D01*
X118276410Y-83576120D02*
X118300149Y-83601312D01*
X118300149Y-83601312D02*
X118351603Y-83659958D01*
X118351603Y-83659958D02*
X118389666Y-83707815D01*
X118389666Y-83707815D02*
X118407323Y-83735958D01*
X118407323Y-83735958D02*
X118407794Y-83738265D01*
X118407794Y-83738265D02*
X118413972Y-83752416D01*
X118413972Y-83752416D02*
X118435410Y-83752575D01*
X118435410Y-83752575D02*
X118476467Y-83736861D01*
X118476467Y-83736861D02*
X118541499Y-83703391D01*
X118541499Y-83703391D02*
X118634863Y-83650281D01*
X118634863Y-83650281D02*
X118699748Y-83612088D01*
X118699748Y-83612088D02*
X118796499Y-83552385D01*
X118796499Y-83552385D02*
X118871688Y-83501263D01*
X118871688Y-83501263D02*
X118920261Y-83462399D01*
X118920261Y-83462399D02*
X118937165Y-83439472D01*
X118937165Y-83439472D02*
X118937155Y-83439305D01*
X118937155Y-83439305D02*
X118926672Y-83417456D01*
X118926672Y-83417456D02*
X118897069Y-83362739D01*
X118897069Y-83362739D02*
X118850062Y-83278136D01*
X118850062Y-83278136D02*
X118787371Y-83166629D01*
X118787371Y-83166629D02*
X118710714Y-83031201D01*
X118710714Y-83031201D02*
X118621809Y-82874833D01*
X118621809Y-82874833D02*
X118522374Y-82700507D01*
X118522374Y-82700507D02*
X118414128Y-82511206D01*
X118414128Y-82511206D02*
X118298789Y-82309911D01*
X118298789Y-82309911D02*
X118178076Y-82099605D01*
X118178076Y-82099605D02*
X118053706Y-81883271D01*
X118053706Y-81883271D02*
X117927399Y-81663889D01*
X117927399Y-81663889D02*
X117800873Y-81444442D01*
X117800873Y-81444442D02*
X117675845Y-81227912D01*
X117675845Y-81227912D02*
X117554035Y-81017281D01*
X117554035Y-81017281D02*
X117437161Y-80815532D01*
X117437161Y-80815532D02*
X117326940Y-80625647D01*
X117326940Y-80625647D02*
X117225092Y-80450606D01*
X117225092Y-80450606D02*
X117133335Y-80293394D01*
X117133335Y-80293394D02*
X117053387Y-80156991D01*
X117053387Y-80156991D02*
X116986966Y-80044380D01*
X116986966Y-80044380D02*
X116935791Y-79958543D01*
X116935791Y-79958543D02*
X116901580Y-79902462D01*
X116901580Y-79902462D02*
X116886052Y-79879119D01*
X116886052Y-79879119D02*
X116885402Y-79878621D01*
X116885402Y-79878621D02*
X116873122Y-79896166D01*
X116873122Y-79896166D02*
X116873122Y-79896166D01*
G36*
X116886052Y-79879119D02*
G01*
X116901580Y-79902462D01*
X116935791Y-79958543D01*
X116986966Y-80044380D01*
X117053387Y-80156991D01*
X117133335Y-80293394D01*
X117225092Y-80450606D01*
X117326940Y-80625647D01*
X117437161Y-80815532D01*
X117554035Y-81017281D01*
X117675845Y-81227912D01*
X117800873Y-81444442D01*
X117927399Y-81663889D01*
X118053706Y-81883271D01*
X118178076Y-82099605D01*
X118298789Y-82309911D01*
X118414128Y-82511206D01*
X118522374Y-82700507D01*
X118621809Y-82874833D01*
X118710714Y-83031201D01*
X118787371Y-83166629D01*
X118850062Y-83278136D01*
X118897069Y-83362739D01*
X118926672Y-83417456D01*
X118937155Y-83439305D01*
X118937165Y-83439472D01*
X118920261Y-83462399D01*
X118871688Y-83501263D01*
X118796499Y-83552385D01*
X118699748Y-83612088D01*
X118634863Y-83650281D01*
X118541499Y-83703391D01*
X118476467Y-83736861D01*
X118435410Y-83752575D01*
X118413972Y-83752416D01*
X118407794Y-83738265D01*
X118407323Y-83735958D01*
X118389666Y-83707815D01*
X118351603Y-83659958D01*
X118300149Y-83601312D01*
X118276410Y-83576120D01*
X118202794Y-83508309D01*
X118121386Y-83450348D01*
X118027350Y-83400539D01*
X117915845Y-83357182D01*
X117782036Y-83318577D01*
X117621083Y-83283026D01*
X117428148Y-83248828D01*
X117198394Y-83214284D01*
X116933952Y-83175347D01*
X116678311Y-83133534D01*
X116454778Y-83091620D01*
X116258357Y-83048395D01*
X116084050Y-83002651D01*
X115926858Y-82953179D01*
X115781785Y-82898769D01*
X115643833Y-82838213D01*
X115542448Y-82788274D01*
X115445605Y-82735722D01*
X115369020Y-82688807D01*
X115318679Y-82651217D01*
X115300569Y-82626644D01*
X115301103Y-82624833D01*
X115315691Y-82595874D01*
X115348767Y-82535229D01*
X115398372Y-82446294D01*
X115462547Y-82332465D01*
X115539335Y-82197137D01*
X115626777Y-82043705D01*
X115722916Y-81875565D01*
X115825793Y-81696111D01*
X115933450Y-81508741D01*
X116043929Y-81316847D01*
X116155271Y-81123827D01*
X116265519Y-80933075D01*
X116372715Y-80747987D01*
X116474899Y-80571958D01*
X116570115Y-80408384D01*
X116656403Y-80260659D01*
X116731806Y-80132180D01*
X116794366Y-80026341D01*
X116842124Y-79946538D01*
X116873122Y-79896166D01*
X116885402Y-79878621D01*
X116886052Y-79879119D01*
G37*
X116886052Y-79879119D02*
X116901580Y-79902462D01*
X116935791Y-79958543D01*
X116986966Y-80044380D01*
X117053387Y-80156991D01*
X117133335Y-80293394D01*
X117225092Y-80450606D01*
X117326940Y-80625647D01*
X117437161Y-80815532D01*
X117554035Y-81017281D01*
X117675845Y-81227912D01*
X117800873Y-81444442D01*
X117927399Y-81663889D01*
X118053706Y-81883271D01*
X118178076Y-82099605D01*
X118298789Y-82309911D01*
X118414128Y-82511206D01*
X118522374Y-82700507D01*
X118621809Y-82874833D01*
X118710714Y-83031201D01*
X118787371Y-83166629D01*
X118850062Y-83278136D01*
X118897069Y-83362739D01*
X118926672Y-83417456D01*
X118937155Y-83439305D01*
X118937165Y-83439472D01*
X118920261Y-83462399D01*
X118871688Y-83501263D01*
X118796499Y-83552385D01*
X118699748Y-83612088D01*
X118634863Y-83650281D01*
X118541499Y-83703391D01*
X118476467Y-83736861D01*
X118435410Y-83752575D01*
X118413972Y-83752416D01*
X118407794Y-83738265D01*
X118407323Y-83735958D01*
X118389666Y-83707815D01*
X118351603Y-83659958D01*
X118300149Y-83601312D01*
X118276410Y-83576120D01*
X118202794Y-83508309D01*
X118121386Y-83450348D01*
X118027350Y-83400539D01*
X117915845Y-83357182D01*
X117782036Y-83318577D01*
X117621083Y-83283026D01*
X117428148Y-83248828D01*
X117198394Y-83214284D01*
X116933952Y-83175347D01*
X116678311Y-83133534D01*
X116454778Y-83091620D01*
X116258357Y-83048395D01*
X116084050Y-83002651D01*
X115926858Y-82953179D01*
X115781785Y-82898769D01*
X115643833Y-82838213D01*
X115542448Y-82788274D01*
X115445605Y-82735722D01*
X115369020Y-82688807D01*
X115318679Y-82651217D01*
X115300569Y-82626644D01*
X115301103Y-82624833D01*
X115315691Y-82595874D01*
X115348767Y-82535229D01*
X115398372Y-82446294D01*
X115462547Y-82332465D01*
X115539335Y-82197137D01*
X115626777Y-82043705D01*
X115722916Y-81875565D01*
X115825793Y-81696111D01*
X115933450Y-81508741D01*
X116043929Y-81316847D01*
X116155271Y-81123827D01*
X116265519Y-80933075D01*
X116372715Y-80747987D01*
X116474899Y-80571958D01*
X116570115Y-80408384D01*
X116656403Y-80260659D01*
X116731806Y-80132180D01*
X116794366Y-80026341D01*
X116842124Y-79946538D01*
X116873122Y-79896166D01*
X116885402Y-79878621D01*
X116886052Y-79879119D01*
X119353251Y-84212036D02*
X119309456Y-84228972D01*
X119309456Y-84228972D02*
X119242707Y-84262601D01*
X119242707Y-84262601D02*
X119146863Y-84315334D01*
X119146863Y-84315334D02*
X119139401Y-84319525D01*
X119139401Y-84319525D02*
X119051129Y-84370001D01*
X119051129Y-84370001D02*
X118976637Y-84414223D01*
X118976637Y-84414223D02*
X118923240Y-84447731D01*
X118923240Y-84447731D02*
X118898254Y-84466064D01*
X118898254Y-84466064D02*
X118897555Y-84466962D01*
X118897555Y-84466962D02*
X118903591Y-84492414D01*
X118903591Y-84492414D02*
X118931277Y-84549255D01*
X118931277Y-84549255D02*
X118978812Y-84634389D01*
X118978812Y-84634389D02*
X119044389Y-84744717D01*
X119044389Y-84744717D02*
X119126203Y-84877144D01*
X119126203Y-84877144D02*
X119222452Y-85028571D01*
X119222452Y-85028571D02*
X119246406Y-85065707D01*
X119246406Y-85065707D02*
X119308817Y-85168757D01*
X119308817Y-85168757D02*
X119354263Y-85257432D01*
X119354263Y-85257432D02*
X119378754Y-85323714D01*
X119378754Y-85323714D02*
X119381267Y-85336807D01*
X119381267Y-85336807D02*
X119380152Y-85394443D01*
X119380152Y-85394443D02*
X119367657Y-85485865D01*
X119367657Y-85485865D02*
X119345340Y-85605208D01*
X119345340Y-85605208D02*
X119314760Y-85746609D01*
X119314760Y-85746609D02*
X119277472Y-85904203D01*
X119277472Y-85904203D02*
X119235035Y-86072126D01*
X119235035Y-86072126D02*
X119189006Y-86244514D01*
X119189006Y-86244514D02*
X119140943Y-86415501D01*
X119140943Y-86415501D02*
X119092403Y-86579224D01*
X119092403Y-86579224D02*
X119044943Y-86729818D01*
X119044943Y-86729818D02*
X119000122Y-86861420D01*
X119000122Y-86861420D02*
X118959497Y-86968163D01*
X118959497Y-86968163D02*
X118931177Y-87031494D01*
X118931177Y-87031494D02*
X118897817Y-87098957D01*
X118897817Y-87098957D02*
X118866318Y-87163511D01*
X118866318Y-87163511D02*
X118864613Y-87167045D01*
X118864613Y-87167045D02*
X118812502Y-87232250D01*
X118812502Y-87232250D02*
X118736446Y-87276156D01*
X118736446Y-87276156D02*
X118647908Y-87297197D01*
X118647908Y-87297197D02*
X118558352Y-87293807D01*
X118558352Y-87293807D02*
X118479242Y-87264423D01*
X118479242Y-87264423D02*
X118434736Y-87225736D01*
X118434736Y-87225736D02*
X118370644Y-87119636D01*
X118370644Y-87119636D02*
X118323678Y-86987405D01*
X118323678Y-86987405D02*
X118297910Y-86842527D01*
X118297910Y-86842527D02*
X118294259Y-86760394D01*
X118294259Y-86760394D02*
X118308961Y-86607105D01*
X118308961Y-86607105D02*
X118352110Y-86480166D01*
X118352110Y-86480166D02*
X118426028Y-86373418D01*
X118426028Y-86373418D02*
X118449079Y-86349657D01*
X118449079Y-86349657D02*
X118517675Y-86283009D01*
X118517675Y-86283009D02*
X118522386Y-85811916D01*
X118522386Y-85811916D02*
X118527097Y-85340822D01*
X118527097Y-85340822D02*
X118407054Y-85159106D01*
X118407054Y-85159106D02*
X118350723Y-85076856D01*
X118350723Y-85076856D02*
X118296472Y-85002865D01*
X118296472Y-85002865D02*
X118252041Y-84947448D01*
X118252041Y-84947448D02*
X118232944Y-84927056D01*
X118232944Y-84927056D02*
X118178876Y-84876723D01*
X118178876Y-84876723D02*
X118105650Y-84916158D01*
X118105650Y-84916158D02*
X118059367Y-84944415D01*
X118059367Y-84944415D02*
X118034043Y-84966354D01*
X118034043Y-84966354D02*
X118032424Y-84970299D01*
X118032424Y-84970299D02*
X118015116Y-84987023D01*
X118015116Y-84987023D02*
X117985503Y-84999476D01*
X117985503Y-84999476D02*
X117956886Y-85010700D01*
X117956886Y-85010700D02*
X117913066Y-85032024D01*
X117913066Y-85032024D02*
X117850282Y-85065529D01*
X117850282Y-85065529D02*
X117764772Y-85113296D01*
X117764772Y-85113296D02*
X117652774Y-85177407D01*
X117652774Y-85177407D02*
X117510527Y-85259944D01*
X117510527Y-85259944D02*
X117433227Y-85305065D01*
X117433227Y-85305065D02*
X117342298Y-85359111D01*
X117342298Y-85359111D02*
X117282661Y-85397604D01*
X117282661Y-85397604D02*
X117249039Y-85425044D01*
X117249039Y-85425044D02*
X117236156Y-85445934D01*
X117236156Y-85445934D02*
X117238735Y-85464775D01*
X117238735Y-85464775D02*
X117240885Y-85469152D01*
X117240885Y-85469152D02*
X117261803Y-85496714D01*
X117261803Y-85496714D02*
X117306560Y-85548416D01*
X117306560Y-85548416D02*
X117369943Y-85618475D01*
X117369943Y-85618475D02*
X117446738Y-85701107D01*
X117446738Y-85701107D02*
X117513156Y-85771156D01*
X117513156Y-85771156D02*
X117666210Y-85937414D01*
X117666210Y-85937414D02*
X117785944Y-86081519D01*
X117785944Y-86081519D02*
X117873427Y-86204921D01*
X117873427Y-86204921D02*
X117929726Y-86309068D01*
X117929726Y-86309068D02*
X117948716Y-86361954D01*
X117948716Y-86361954D02*
X117956560Y-86408250D01*
X117956560Y-86408250D02*
X117964662Y-86487221D01*
X117964662Y-86487221D02*
X117972309Y-86589846D01*
X117972309Y-86589846D02*
X117978788Y-86707103D01*
X117978788Y-86707103D02*
X117981837Y-86781248D01*
X117981837Y-86781248D02*
X117986092Y-86909427D01*
X117986092Y-86909427D02*
X117987964Y-87003138D01*
X117987964Y-87003138D02*
X117986901Y-87069583D01*
X117986901Y-87069583D02*
X117982354Y-87115961D01*
X117982354Y-87115961D02*
X117973773Y-87149474D01*
X117973773Y-87149474D02*
X117960606Y-87177321D01*
X117960606Y-87177321D02*
X117950265Y-87194324D01*
X117950265Y-87194324D02*
X117890544Y-87259862D01*
X117890544Y-87259862D02*
X117813589Y-87305532D01*
X117813589Y-87305532D02*
X117732620Y-87325450D01*
X117732620Y-87325450D02*
X117671942Y-87318244D01*
X117671942Y-87318244D02*
X117617001Y-87287066D01*
X117617001Y-87287066D02*
X117548133Y-87231230D01*
X117548133Y-87231230D02*
X117474995Y-87160474D01*
X117474995Y-87160474D02*
X117407248Y-87084537D01*
X117407248Y-87084537D02*
X117354550Y-87013159D01*
X117354550Y-87013159D02*
X117335147Y-86978668D01*
X117335147Y-86978668D02*
X117306081Y-86931441D01*
X117306081Y-86931441D02*
X117253217Y-86859506D01*
X117253217Y-86859506D02*
X117181384Y-86768485D01*
X117181384Y-86768485D02*
X117095412Y-86664000D01*
X117095412Y-86664000D02*
X117000132Y-86551675D01*
X117000132Y-86551675D02*
X116900373Y-86437130D01*
X116900373Y-86437130D02*
X116800966Y-86325990D01*
X116800966Y-86325990D02*
X116706741Y-86223875D01*
X116706741Y-86223875D02*
X116622527Y-86136408D01*
X116622527Y-86136408D02*
X116556409Y-86072198D01*
X116556409Y-86072198D02*
X116483001Y-86008057D01*
X116483001Y-86008057D02*
X116421247Y-85960763D01*
X116421247Y-85960763D02*
X116377934Y-85935235D01*
X116377934Y-85935235D02*
X116363555Y-85932429D01*
X116363555Y-85932429D02*
X116341521Y-85943752D01*
X116341521Y-85943752D02*
X116286562Y-85974144D01*
X116286562Y-85974144D02*
X116201848Y-86021780D01*
X116201848Y-86021780D02*
X116090552Y-86084835D01*
X116090552Y-86084835D02*
X115955844Y-86161485D01*
X115955844Y-86161485D02*
X115800897Y-86249905D01*
X115800897Y-86249905D02*
X115628881Y-86348270D01*
X115628881Y-86348270D02*
X115442968Y-86454756D01*
X115442968Y-86454756D02*
X115246330Y-86567537D01*
X115246330Y-86567537D02*
X115042137Y-86684789D01*
X115042137Y-86684789D02*
X114833561Y-86804687D01*
X114833561Y-86804687D02*
X114623775Y-86925407D01*
X114623775Y-86925407D02*
X114415948Y-87045123D01*
X114415948Y-87045123D02*
X114213253Y-87162011D01*
X114213253Y-87162011D02*
X114018860Y-87274246D01*
X114018860Y-87274246D02*
X113835942Y-87380004D01*
X113835942Y-87380004D02*
X113667670Y-87477460D01*
X113667670Y-87477460D02*
X113517215Y-87564788D01*
X113517215Y-87564788D02*
X113387749Y-87640165D01*
X113387749Y-87640165D02*
X113282443Y-87701765D01*
X113282443Y-87701765D02*
X113204468Y-87747764D01*
X113204468Y-87747764D02*
X113156996Y-87776337D01*
X113156996Y-87776337D02*
X113143237Y-87785304D01*
X113143237Y-87785304D02*
X113161769Y-87787076D01*
X113161769Y-87787076D02*
X113220067Y-87788799D01*
X113220067Y-87788799D02*
X113316191Y-87790464D01*
X113316191Y-87790464D02*
X113448201Y-87792063D01*
X113448201Y-87792063D02*
X113614154Y-87793587D01*
X113614154Y-87793587D02*
X113812111Y-87795029D01*
X113812111Y-87795029D02*
X114040130Y-87796380D01*
X114040130Y-87796380D02*
X114296271Y-87797632D01*
X114296271Y-87797632D02*
X114578592Y-87798776D01*
X114578592Y-87798776D02*
X114885153Y-87799804D01*
X114885153Y-87799804D02*
X115214013Y-87800708D01*
X115214013Y-87800708D02*
X115563231Y-87801479D01*
X115563231Y-87801479D02*
X115930865Y-87802109D01*
X115930865Y-87802109D02*
X116314976Y-87802590D01*
X116314976Y-87802590D02*
X116713623Y-87802914D01*
X116713623Y-87802914D02*
X117124863Y-87803072D01*
X117124863Y-87803072D02*
X117297420Y-87803087D01*
X117297420Y-87803087D02*
X121471414Y-87803087D01*
X121471414Y-87803087D02*
X121173732Y-87286954D01*
X121173732Y-87286954D02*
X121110714Y-87177665D01*
X121110714Y-87177665D02*
X121029594Y-87036940D01*
X121029594Y-87036940D02*
X120933084Y-86869486D01*
X120933084Y-86869486D02*
X120823897Y-86680012D01*
X120823897Y-86680012D02*
X120704745Y-86473223D01*
X120704745Y-86473223D02*
X120578340Y-86253828D01*
X120578340Y-86253828D02*
X120447395Y-86026533D01*
X120447395Y-86026533D02*
X120314621Y-85796046D01*
X120314621Y-85796046D02*
X120182731Y-85567073D01*
X120182731Y-85567073D02*
X120149376Y-85509163D01*
X120149376Y-85509163D02*
X120027753Y-85298232D01*
X120027753Y-85298232D02*
X119911772Y-85097535D01*
X119911772Y-85097535D02*
X119803175Y-84910059D01*
X119803175Y-84910059D02*
X119703706Y-84738792D01*
X119703706Y-84738792D02*
X119615108Y-84586723D01*
X119615108Y-84586723D02*
X119539122Y-84456838D01*
X119539122Y-84456838D02*
X119477493Y-84352125D01*
X119477493Y-84352125D02*
X119431963Y-84275573D01*
X119431963Y-84275573D02*
X119404275Y-84230169D01*
X119404275Y-84230169D02*
X119396528Y-84218609D01*
X119396528Y-84218609D02*
X119380228Y-84209385D01*
X119380228Y-84209385D02*
X119353251Y-84212036D01*
X119353251Y-84212036D02*
X119353251Y-84212036D01*
G36*
X119396528Y-84218609D02*
G01*
X119404275Y-84230169D01*
X119431963Y-84275573D01*
X119477493Y-84352125D01*
X119539122Y-84456838D01*
X119615108Y-84586723D01*
X119703706Y-84738792D01*
X119803175Y-84910059D01*
X119911772Y-85097535D01*
X120027753Y-85298232D01*
X120149376Y-85509163D01*
X120182731Y-85567073D01*
X120314621Y-85796046D01*
X120447395Y-86026533D01*
X120578340Y-86253828D01*
X120704745Y-86473223D01*
X120823897Y-86680012D01*
X120933084Y-86869486D01*
X121029594Y-87036940D01*
X121110714Y-87177665D01*
X121173732Y-87286954D01*
X121471414Y-87803087D01*
X117297420Y-87803087D01*
X117124863Y-87803072D01*
X116713623Y-87802914D01*
X116314976Y-87802590D01*
X115930865Y-87802109D01*
X115563231Y-87801479D01*
X115214013Y-87800708D01*
X114885153Y-87799804D01*
X114578592Y-87798776D01*
X114296271Y-87797632D01*
X114040130Y-87796380D01*
X113812111Y-87795029D01*
X113614154Y-87793587D01*
X113448201Y-87792063D01*
X113316191Y-87790464D01*
X113220067Y-87788799D01*
X113161769Y-87787076D01*
X113143237Y-87785304D01*
X113156996Y-87776337D01*
X113204468Y-87747764D01*
X113282443Y-87701765D01*
X113387749Y-87640165D01*
X113517215Y-87564788D01*
X113667670Y-87477460D01*
X113835942Y-87380004D01*
X114018860Y-87274246D01*
X114213253Y-87162011D01*
X114415948Y-87045123D01*
X114623775Y-86925407D01*
X114833561Y-86804687D01*
X115042137Y-86684789D01*
X115246330Y-86567537D01*
X115442968Y-86454756D01*
X115628881Y-86348270D01*
X115800897Y-86249905D01*
X115955844Y-86161485D01*
X116090552Y-86084835D01*
X116201848Y-86021780D01*
X116286562Y-85974144D01*
X116341521Y-85943752D01*
X116363555Y-85932429D01*
X116377934Y-85935235D01*
X116421247Y-85960763D01*
X116483001Y-86008057D01*
X116556409Y-86072198D01*
X116622527Y-86136408D01*
X116706741Y-86223875D01*
X116800966Y-86325990D01*
X116900373Y-86437130D01*
X117000132Y-86551675D01*
X117095412Y-86664000D01*
X117181384Y-86768485D01*
X117253217Y-86859506D01*
X117306081Y-86931441D01*
X117335147Y-86978668D01*
X117354550Y-87013159D01*
X117407248Y-87084537D01*
X117474995Y-87160474D01*
X117548133Y-87231230D01*
X117617001Y-87287066D01*
X117671942Y-87318244D01*
X117732620Y-87325450D01*
X117813589Y-87305532D01*
X117890544Y-87259862D01*
X117950265Y-87194324D01*
X117960606Y-87177321D01*
X117973773Y-87149474D01*
X117982354Y-87115961D01*
X117986901Y-87069583D01*
X117987964Y-87003138D01*
X117986092Y-86909427D01*
X117981837Y-86781248D01*
X117978788Y-86707103D01*
X117972309Y-86589846D01*
X117964662Y-86487221D01*
X117956560Y-86408250D01*
X117948716Y-86361954D01*
X117929726Y-86309068D01*
X117873427Y-86204921D01*
X117785944Y-86081519D01*
X117666210Y-85937414D01*
X117513156Y-85771156D01*
X117446738Y-85701107D01*
X117369943Y-85618475D01*
X117306560Y-85548416D01*
X117261803Y-85496714D01*
X117240885Y-85469152D01*
X117238735Y-85464775D01*
X117236156Y-85445934D01*
X117249039Y-85425044D01*
X117282661Y-85397604D01*
X117342298Y-85359111D01*
X117433227Y-85305065D01*
X117510527Y-85259944D01*
X117652774Y-85177407D01*
X117764772Y-85113296D01*
X117850282Y-85065529D01*
X117913066Y-85032024D01*
X117956886Y-85010700D01*
X117985503Y-84999476D01*
X118015116Y-84987023D01*
X118032424Y-84970299D01*
X118034043Y-84966354D01*
X118059367Y-84944415D01*
X118105650Y-84916158D01*
X118178876Y-84876723D01*
X118232944Y-84927056D01*
X118252041Y-84947448D01*
X118296472Y-85002865D01*
X118350723Y-85076856D01*
X118407054Y-85159106D01*
X118527097Y-85340822D01*
X118522386Y-85811916D01*
X118517675Y-86283009D01*
X118449079Y-86349657D01*
X118426028Y-86373418D01*
X118352110Y-86480166D01*
X118308961Y-86607105D01*
X118294259Y-86760394D01*
X118297910Y-86842527D01*
X118323678Y-86987405D01*
X118370644Y-87119636D01*
X118434736Y-87225736D01*
X118479242Y-87264423D01*
X118558352Y-87293807D01*
X118647908Y-87297197D01*
X118736446Y-87276156D01*
X118812502Y-87232250D01*
X118864613Y-87167045D01*
X118866318Y-87163511D01*
X118897817Y-87098957D01*
X118931177Y-87031494D01*
X118959497Y-86968163D01*
X119000122Y-86861420D01*
X119044943Y-86729818D01*
X119092403Y-86579224D01*
X119140943Y-86415501D01*
X119189006Y-86244514D01*
X119235035Y-86072126D01*
X119277472Y-85904203D01*
X119314760Y-85746609D01*
X119345340Y-85605208D01*
X119367657Y-85485865D01*
X119380152Y-85394443D01*
X119381267Y-85336807D01*
X119378754Y-85323714D01*
X119354263Y-85257432D01*
X119308817Y-85168757D01*
X119246406Y-85065707D01*
X119222452Y-85028571D01*
X119126203Y-84877144D01*
X119044389Y-84744717D01*
X118978812Y-84634389D01*
X118931277Y-84549255D01*
X118903591Y-84492414D01*
X118897555Y-84466962D01*
X118898254Y-84466064D01*
X118923240Y-84447731D01*
X118976637Y-84414223D01*
X119051129Y-84370001D01*
X119139401Y-84319525D01*
X119146863Y-84315334D01*
X119242707Y-84262601D01*
X119309456Y-84228972D01*
X119353251Y-84212036D01*
X119380228Y-84209385D01*
X119396528Y-84218609D01*
G37*
X119396528Y-84218609D02*
X119404275Y-84230169D01*
X119431963Y-84275573D01*
X119477493Y-84352125D01*
X119539122Y-84456838D01*
X119615108Y-84586723D01*
X119703706Y-84738792D01*
X119803175Y-84910059D01*
X119911772Y-85097535D01*
X120027753Y-85298232D01*
X120149376Y-85509163D01*
X120182731Y-85567073D01*
X120314621Y-85796046D01*
X120447395Y-86026533D01*
X120578340Y-86253828D01*
X120704745Y-86473223D01*
X120823897Y-86680012D01*
X120933084Y-86869486D01*
X121029594Y-87036940D01*
X121110714Y-87177665D01*
X121173732Y-87286954D01*
X121471414Y-87803087D01*
X117297420Y-87803087D01*
X117124863Y-87803072D01*
X116713623Y-87802914D01*
X116314976Y-87802590D01*
X115930865Y-87802109D01*
X115563231Y-87801479D01*
X115214013Y-87800708D01*
X114885153Y-87799804D01*
X114578592Y-87798776D01*
X114296271Y-87797632D01*
X114040130Y-87796380D01*
X113812111Y-87795029D01*
X113614154Y-87793587D01*
X113448201Y-87792063D01*
X113316191Y-87790464D01*
X113220067Y-87788799D01*
X113161769Y-87787076D01*
X113143237Y-87785304D01*
X113156996Y-87776337D01*
X113204468Y-87747764D01*
X113282443Y-87701765D01*
X113387749Y-87640165D01*
X113517215Y-87564788D01*
X113667670Y-87477460D01*
X113835942Y-87380004D01*
X114018860Y-87274246D01*
X114213253Y-87162011D01*
X114415948Y-87045123D01*
X114623775Y-86925407D01*
X114833561Y-86804687D01*
X115042137Y-86684789D01*
X115246330Y-86567537D01*
X115442968Y-86454756D01*
X115628881Y-86348270D01*
X115800897Y-86249905D01*
X115955844Y-86161485D01*
X116090552Y-86084835D01*
X116201848Y-86021780D01*
X116286562Y-85974144D01*
X116341521Y-85943752D01*
X116363555Y-85932429D01*
X116377934Y-85935235D01*
X116421247Y-85960763D01*
X116483001Y-86008057D01*
X116556409Y-86072198D01*
X116622527Y-86136408D01*
X116706741Y-86223875D01*
X116800966Y-86325990D01*
X116900373Y-86437130D01*
X117000132Y-86551675D01*
X117095412Y-86664000D01*
X117181384Y-86768485D01*
X117253217Y-86859506D01*
X117306081Y-86931441D01*
X117335147Y-86978668D01*
X117354550Y-87013159D01*
X117407248Y-87084537D01*
X117474995Y-87160474D01*
X117548133Y-87231230D01*
X117617001Y-87287066D01*
X117671942Y-87318244D01*
X117732620Y-87325450D01*
X117813589Y-87305532D01*
X117890544Y-87259862D01*
X117950265Y-87194324D01*
X117960606Y-87177321D01*
X117973773Y-87149474D01*
X117982354Y-87115961D01*
X117986901Y-87069583D01*
X117987964Y-87003138D01*
X117986092Y-86909427D01*
X117981837Y-86781248D01*
X117978788Y-86707103D01*
X117972309Y-86589846D01*
X117964662Y-86487221D01*
X117956560Y-86408250D01*
X117948716Y-86361954D01*
X117929726Y-86309068D01*
X117873427Y-86204921D01*
X117785944Y-86081519D01*
X117666210Y-85937414D01*
X117513156Y-85771156D01*
X117446738Y-85701107D01*
X117369943Y-85618475D01*
X117306560Y-85548416D01*
X117261803Y-85496714D01*
X117240885Y-85469152D01*
X117238735Y-85464775D01*
X117236156Y-85445934D01*
X117249039Y-85425044D01*
X117282661Y-85397604D01*
X117342298Y-85359111D01*
X117433227Y-85305065D01*
X117510527Y-85259944D01*
X117652774Y-85177407D01*
X117764772Y-85113296D01*
X117850282Y-85065529D01*
X117913066Y-85032024D01*
X117956886Y-85010700D01*
X117985503Y-84999476D01*
X118015116Y-84987023D01*
X118032424Y-84970299D01*
X118034043Y-84966354D01*
X118059367Y-84944415D01*
X118105650Y-84916158D01*
X118178876Y-84876723D01*
X118232944Y-84927056D01*
X118252041Y-84947448D01*
X118296472Y-85002865D01*
X118350723Y-85076856D01*
X118407054Y-85159106D01*
X118527097Y-85340822D01*
X118522386Y-85811916D01*
X118517675Y-86283009D01*
X118449079Y-86349657D01*
X118426028Y-86373418D01*
X118352110Y-86480166D01*
X118308961Y-86607105D01*
X118294259Y-86760394D01*
X118297910Y-86842527D01*
X118323678Y-86987405D01*
X118370644Y-87119636D01*
X118434736Y-87225736D01*
X118479242Y-87264423D01*
X118558352Y-87293807D01*
X118647908Y-87297197D01*
X118736446Y-87276156D01*
X118812502Y-87232250D01*
X118864613Y-87167045D01*
X118866318Y-87163511D01*
X118897817Y-87098957D01*
X118931177Y-87031494D01*
X118959497Y-86968163D01*
X119000122Y-86861420D01*
X119044943Y-86729818D01*
X119092403Y-86579224D01*
X119140943Y-86415501D01*
X119189006Y-86244514D01*
X119235035Y-86072126D01*
X119277472Y-85904203D01*
X119314760Y-85746609D01*
X119345340Y-85605208D01*
X119367657Y-85485865D01*
X119380152Y-85394443D01*
X119381267Y-85336807D01*
X119378754Y-85323714D01*
X119354263Y-85257432D01*
X119308817Y-85168757D01*
X119246406Y-85065707D01*
X119222452Y-85028571D01*
X119126203Y-84877144D01*
X119044389Y-84744717D01*
X118978812Y-84634389D01*
X118931277Y-84549255D01*
X118903591Y-84492414D01*
X118897555Y-84466962D01*
X118898254Y-84466064D01*
X118923240Y-84447731D01*
X118976637Y-84414223D01*
X119051129Y-84370001D01*
X119139401Y-84319525D01*
X119146863Y-84315334D01*
X119242707Y-84262601D01*
X119309456Y-84228972D01*
X119353251Y-84212036D01*
X119380228Y-84209385D01*
X119396528Y-84218609D01*
X114417854Y-84135908D02*
X114402531Y-84161590D01*
X114402531Y-84161590D02*
X114368089Y-84220469D01*
X114368089Y-84220469D02*
X114316231Y-84309602D01*
X114316231Y-84309602D02*
X114248660Y-84426049D01*
X114248660Y-84426049D02*
X114167079Y-84566867D01*
X114167079Y-84566867D02*
X114073191Y-84729114D01*
X114073191Y-84729114D02*
X113968701Y-84909849D01*
X113968701Y-84909849D02*
X113855310Y-85106130D01*
X113855310Y-85106130D02*
X113734722Y-85315016D01*
X113734722Y-85315016D02*
X113610687Y-85530017D01*
X113610687Y-85530017D02*
X113484013Y-85749649D01*
X113484013Y-85749649D02*
X113362392Y-85960495D01*
X113362392Y-85960495D02*
X113247588Y-86159499D01*
X113247588Y-86159499D02*
X113141362Y-86343607D01*
X113141362Y-86343607D02*
X113045477Y-86509765D01*
X113045477Y-86509765D02*
X112961698Y-86654917D01*
X112961698Y-86654917D02*
X112891786Y-86776009D01*
X112891786Y-86776009D02*
X112837504Y-86869988D01*
X112837504Y-86869988D02*
X112800615Y-86933797D01*
X112800615Y-86933797D02*
X112783269Y-86963719D01*
X112783269Y-86963719D02*
X112754993Y-87014271D01*
X112754993Y-87014271D02*
X112739618Y-87045914D01*
X112739618Y-87045914D02*
X112738776Y-87051420D01*
X112738776Y-87051420D02*
X112757512Y-87041082D01*
X112757512Y-87041082D02*
X112809614Y-87011407D01*
X112809614Y-87011407D02*
X112892360Y-86963968D01*
X112892360Y-86963968D02*
X113003025Y-86900333D01*
X113003025Y-86900333D02*
X113138886Y-86822074D01*
X113138886Y-86822074D02*
X113297219Y-86730759D01*
X113297219Y-86730759D02*
X113475302Y-86627960D01*
X113475302Y-86627960D02*
X113670410Y-86515247D01*
X113670410Y-86515247D02*
X113879820Y-86394189D01*
X113879820Y-86394189D02*
X114100809Y-86266357D01*
X114100809Y-86266357D02*
X114184887Y-86217702D01*
X114184887Y-86217702D02*
X114409830Y-86087567D01*
X114409830Y-86087567D02*
X114624476Y-85963497D01*
X114624476Y-85963497D02*
X114826068Y-85847077D01*
X114826068Y-85847077D02*
X115011852Y-85739893D01*
X115011852Y-85739893D02*
X115179072Y-85643531D01*
X115179072Y-85643531D02*
X115324973Y-85559578D01*
X115324973Y-85559578D02*
X115446799Y-85489620D01*
X115446799Y-85489620D02*
X115541796Y-85435243D01*
X115541796Y-85435243D02*
X115607208Y-85398034D01*
X115607208Y-85398034D02*
X115640280Y-85379578D01*
X115640280Y-85379578D02*
X115643738Y-85377830D01*
X115643738Y-85377830D02*
X115633661Y-85362005D01*
X115633661Y-85362005D02*
X115598593Y-85319692D01*
X115598593Y-85319692D02*
X115542115Y-85254790D01*
X115542115Y-85254790D02*
X115467807Y-85171196D01*
X115467807Y-85171196D02*
X115379248Y-85072809D01*
X115379248Y-85072809D02*
X115280020Y-84963525D01*
X115280020Y-84963525D02*
X115173702Y-84847244D01*
X115173702Y-84847244D02*
X115063875Y-84727862D01*
X115063875Y-84727862D02*
X114954118Y-84609277D01*
X114954118Y-84609277D02*
X114848012Y-84495388D01*
X114848012Y-84495388D02*
X114749138Y-84390092D01*
X114749138Y-84390092D02*
X114661074Y-84297287D01*
X114661074Y-84297287D02*
X114587401Y-84220870D01*
X114587401Y-84220870D02*
X114531700Y-84164740D01*
X114531700Y-84164740D02*
X114512597Y-84146335D01*
X114512597Y-84146335D02*
X114449292Y-84086872D01*
X114449292Y-84086872D02*
X114417854Y-84135908D01*
X114417854Y-84135908D02*
X114417854Y-84135908D01*
G36*
X114512597Y-84146335D02*
G01*
X114531700Y-84164740D01*
X114587401Y-84220870D01*
X114661074Y-84297287D01*
X114749138Y-84390092D01*
X114848012Y-84495388D01*
X114954118Y-84609277D01*
X115063875Y-84727862D01*
X115173702Y-84847244D01*
X115280020Y-84963525D01*
X115379248Y-85072809D01*
X115467807Y-85171196D01*
X115542115Y-85254790D01*
X115598593Y-85319692D01*
X115633661Y-85362005D01*
X115643738Y-85377830D01*
X115640280Y-85379578D01*
X115607208Y-85398034D01*
X115541796Y-85435243D01*
X115446799Y-85489620D01*
X115324973Y-85559578D01*
X115179072Y-85643531D01*
X115011852Y-85739893D01*
X114826068Y-85847077D01*
X114624476Y-85963497D01*
X114409830Y-86087567D01*
X114184887Y-86217702D01*
X114100809Y-86266357D01*
X113879820Y-86394189D01*
X113670410Y-86515247D01*
X113475302Y-86627960D01*
X113297219Y-86730759D01*
X113138886Y-86822074D01*
X113003025Y-86900333D01*
X112892360Y-86963968D01*
X112809614Y-87011407D01*
X112757512Y-87041082D01*
X112738776Y-87051420D01*
X112739618Y-87045914D01*
X112754993Y-87014271D01*
X112783269Y-86963719D01*
X112800615Y-86933797D01*
X112837504Y-86869988D01*
X112891786Y-86776009D01*
X112961698Y-86654917D01*
X113045477Y-86509765D01*
X113141362Y-86343607D01*
X113247588Y-86159499D01*
X113362392Y-85960495D01*
X113484013Y-85749649D01*
X113610687Y-85530017D01*
X113734722Y-85315016D01*
X113855310Y-85106130D01*
X113968701Y-84909849D01*
X114073191Y-84729114D01*
X114167079Y-84566867D01*
X114248660Y-84426049D01*
X114316231Y-84309602D01*
X114368089Y-84220469D01*
X114402531Y-84161590D01*
X114417854Y-84135908D01*
X114449292Y-84086872D01*
X114512597Y-84146335D01*
G37*
X114512597Y-84146335D02*
X114531700Y-84164740D01*
X114587401Y-84220870D01*
X114661074Y-84297287D01*
X114749138Y-84390092D01*
X114848012Y-84495388D01*
X114954118Y-84609277D01*
X115063875Y-84727862D01*
X115173702Y-84847244D01*
X115280020Y-84963525D01*
X115379248Y-85072809D01*
X115467807Y-85171196D01*
X115542115Y-85254790D01*
X115598593Y-85319692D01*
X115633661Y-85362005D01*
X115643738Y-85377830D01*
X115640280Y-85379578D01*
X115607208Y-85398034D01*
X115541796Y-85435243D01*
X115446799Y-85489620D01*
X115324973Y-85559578D01*
X115179072Y-85643531D01*
X115011852Y-85739893D01*
X114826068Y-85847077D01*
X114624476Y-85963497D01*
X114409830Y-86087567D01*
X114184887Y-86217702D01*
X114100809Y-86266357D01*
X113879820Y-86394189D01*
X113670410Y-86515247D01*
X113475302Y-86627960D01*
X113297219Y-86730759D01*
X113138886Y-86822074D01*
X113003025Y-86900333D01*
X112892360Y-86963968D01*
X112809614Y-87011407D01*
X112757512Y-87041082D01*
X112738776Y-87051420D01*
X112739618Y-87045914D01*
X112754993Y-87014271D01*
X112783269Y-86963719D01*
X112800615Y-86933797D01*
X112837504Y-86869988D01*
X112891786Y-86776009D01*
X112961698Y-86654917D01*
X113045477Y-86509765D01*
X113141362Y-86343607D01*
X113247588Y-86159499D01*
X113362392Y-85960495D01*
X113484013Y-85749649D01*
X113610687Y-85530017D01*
X113734722Y-85315016D01*
X113855310Y-85106130D01*
X113968701Y-84909849D01*
X114073191Y-84729114D01*
X114167079Y-84566867D01*
X114248660Y-84426049D01*
X114316231Y-84309602D01*
X114368089Y-84220469D01*
X114402531Y-84161590D01*
X114417854Y-84135908D01*
X114449292Y-84086872D01*
X114512597Y-84146335D01*
D14*
%TO.C,F1*%
X81077000Y-72042000D02*
X81077000Y-72263000D01*
X82827000Y-72042000D02*
X84277000Y-72042000D01*
X84277000Y-79121000D02*
X84277000Y-79342000D01*
X81077000Y-72042000D02*
X81327000Y-72042000D01*
X84027000Y-79342000D02*
X84277000Y-79342000D01*
X84277000Y-72042000D02*
X84277000Y-77364000D01*
X81077000Y-79342000D02*
X82528000Y-79342000D01*
X81077000Y-74021000D02*
X81077000Y-79342000D01*
%TO.C,J1*%
X125917000Y-65405000D02*
X125917000Y-83245000D01*
X125917000Y-83245000D02*
X123257000Y-83245000D01*
X125917000Y-65405000D02*
X123257000Y-65405000D01*
X124587000Y-62805000D02*
X123257000Y-62805000D01*
X123257000Y-62805000D02*
X123257000Y-64135000D01*
X123257000Y-65405000D02*
X123257000Y-83245000D01*
%TD*%
M02*
